<?xml version="1.0" encoding="UTF-8"?>
<svg xmlns="http://www.w3.org/2000/svg" xmlns:xlink="http://www.w3.org/1999/xlink" viewBox="0 0 2860.14 1936.45">
  <defs>
    <style>
      .cls-1 {
        fill: #f47458;
      }

      .cls-2 {
        fill: #b75742;
      }

      .cls-3 {
        fill: #96a4cd;
      }

      .cls-4 {
        fill: #fae0b2;
      }

      .cls-5 {
        fill: #fae0b2;
      }

      .cls-6 {
        fill: #fe875e;
      }

      .cls-7 {
        fill: url(#linear-gradient);
      }

      .cls-7, .cls-8 {
        mix-blend-mode: soft-light;
      }

      .cls-9 {
        fill: #576c89;
      }

      .cls-10 {
        mix-blend-mode: multiply;
        opacity: .4;
      }

      .cls-11 {
        fill: #7181aa;
      }

      .cls-12 {
        fill: #a3bf50;
      }

      .cls-13 {
        fill: #efefef;
      }

      .cls-14 {
        fill: #fec65e;
      }

      .cls-15 {
        fill: #c4e1ea;
      }

      .cls-16 {
        fill: #f4f4f4;
      }

      .cls-17 {
        fill: #11442f;
      }

      .cls-18 {
        fill: #184655;
      }

      .cls-19 {
        fill: #f8c558;
      }

      .cls-20 {
        fill: #587cf8;
      }

      .cls-21 {
        fill: #f7f07f;
      }

      .cls-22 {
        fill: #3f4411;
      }

      .cls-23 {
        fill: #e5bd83;
      }

      .cls-24 {
        fill: #466eb6;
      }

      .cls-25 {
        isolation: isolate;
      }

      .cls-26 {
        fill: #13375b;
      }

      .cls-27 {
        fill: #96d9c9;
      }

      .cls-28 {
        fill: #171c51;
      }

      .cls-29 {
        fill: #fff;
      }

      .cls-30 {
        fill: #f8a492;
      }

      .cls-31 {
        fill: #7a8f3c;
      }

      .cls-32 {
        fill: #9bd;
      }

      .cls-33 {
        fill: #c2d8f2;
      }

      .cls-34 {
        fill: #f7a491;
      }

      .cls-35 {
        fill: #a3c1c9;
      }

      .cls-36 {
        fill: #3c8f7c;
      }

      .cls-37 {
        fill: #9e9e9e;
      }

      .cls-38 {
        fill: #50bfa5;
      }

      .cls-39 {
        fill: #355389;
      }

      .cls-40 {
        fill: #d1d1d1;
      }

      .cls-41 {
        fill: #86b1f2;
      }

      .cls-42 {
        fill: #355389;
      }

      .cls-43 {
        fill: #f7cc7f;
      }
    </style>
    <linearGradient id="linear-gradient" x1="1395.99" y1="1925.07" x2="1395.99" y2="1692.89" gradientTransform="translate(-410.96 -1077.5) rotate(-.75)" gradientUnits="userSpaceOnUse">
      <stop offset="0" stop-color="#000"/>
      <stop offset="1" stop-color="#fff"/>
    </linearGradient>
  </defs>
  <g class="cls-25">
    <g id="Background">
      <g>
        <path class="cls-33" d="M843.45,1909.76s-459.99-590.56-450.22-882.93C403,734.45,1473.76-40.14,1750.95,1.63c277.18,41.77,356.92,698.65,132.9,1177.08-224.02,478.43,322.75,132.9,372.11-155.68,49.36-288.57,561.96,353.37-113.91,886.73H843.45Z"/>
        <path class="cls-32" d="M1833.89,325.24c-19.68,0-35.69-16.01-35.69-35.69s16.01-35.69,35.69-35.69,35.69,16.01,35.69,35.69-16.01,35.69-35.69,35.69ZM1833.89,265.86c-13.06,0-23.69,10.63-23.69,23.69s10.63,23.69,23.69,23.69,23.69-10.63,23.69-23.69-10.63-23.69-23.69-23.69Z"/>
        <path class="cls-32" d="M394.11,611.81c-19.68,0-35.69-16.01-35.69-35.69s16.01-35.69,35.69-35.69,35.69,16.01,35.69,35.69-16.01,35.69-35.69,35.69ZM394.11,552.43c-13.06,0-23.69,10.63-23.69,23.69s10.63,23.69,23.69,23.69,23.69-10.63,23.69-23.69-10.63-23.69-23.69-23.69Z"/>
        <path class="cls-32" d="M1263.89,216.95c-15.56,0-28.21-12.66-28.21-28.21s12.66-28.21,28.21-28.21,28.21,12.66,28.21,28.21-12.66,28.21-28.21,28.21ZM1263.89,172.52c-8.94,0-16.21,7.27-16.21,16.21s7.27,16.21,16.21,16.21,16.21-7.27,16.21-16.21-7.27-16.21-16.21-16.21Z"/>
        <path class="cls-32" d="M2514.19,930.59c-19.68,0-35.69-16.01-35.69-35.69s16.01-35.69,35.69-35.69,35.69,16.01,35.69,35.69-16.01,35.69-35.69,35.69ZM2514.19,871.21c-13.06,0-23.69,10.63-23.69,23.69s10.63,23.69,23.69,23.69,23.69-10.63,23.69-23.69-10.63-23.69-23.69-23.69Z"/>
        <g>
          <path class="cls-32" d="M2302.9,710.05l-91.9-330.1,262.35-121.1,9.76,352.32-180.21,98.89ZM2225.3,386.56l85.1,305.68,160.51-88.08-9.06-326.8-236.56,109.2Z"/>
          <path class="cls-32" d="M2073.78,723.31l-171.19-308.09,287.44-29.54,89.2,330.84-205.45,6.78ZM1921.93,425.3l158.79,285.78,182.99-6.04-82.6-306.37-259.18,26.63Z"/>
          <path class="cls-32" d="M2268.57,717.8l-90.37-329.82,44.15-12.1,90.37,329.82-44.15,12.1ZM2192.95,396.38l84.03,306.67,21-5.75-84.03-306.67-21,5.75Z"/>
          <path class="cls-32" d="M1942.66,416.95l-9.4-7.46,19.01-23.96,1.53-.59c75.56-29.14,137.73-34.15,176.56-33.22,42.39,1.02,66.63,8.95,67.64,9.29l3.04,1.01,6.61,24.11-11.57,3.17-4.87-17.78c-7.59-2.06-29.25-7.09-61.73-7.82-37.38-.83-97.08,4.04-169.83,31.85l-16.97,21.4Z"/>
          <path class="cls-32" d="M2196.07,389.3l-6.61-24.11,2.1-2.42c.7-.81,17.51-19.99,53.46-42.47,32.94-20.6,88.97-47.98,168.84-61.42l1.61-.27,28.57,10.93-4.29,11.21-25.51-9.76c-133,22.79-199.13,84.69-211.47,97.36l4.87,17.78-11.57,3.17Z"/>
          <path class="cls-32" d="M1951.49,394.55l-49.23-54.88,20.58,6.27c.29.08,34.25,9.32,136.18-10.82,108.37-21.42,140.78,26.28,142.1,28.32l-10.04,6.58c-.07-.11-7.39-10.76-26.72-18.91-18.1-7.63-50.68-14.56-103.02-4.21-66.84,13.21-105.31,14.11-124.95,12.87l24.02,26.78-8.93,8.01Z"/>
          <rect class="cls-32" x="2194.43" y="416.18" width="34.24" height="12" transform="translate(-32.94 599.56) rotate(-15.33)"/>
          <rect class="cls-32" x="2201.83" y="443.2" width="34.24" height="12" transform="translate(-39.82 602.48) rotate(-15.33)"/>
          <rect class="cls-32" x="2261.69" y="660.19" width="34.24" height="12" transform="translate(-95.26 642.48) rotate(-15.72)"/>
          <rect class="cls-32" x="2254.09" y="633.23" width="34.24" height="12" transform="translate(-88.24 639.43) rotate(-15.72)"/>
          <path class="cls-32" d="M2186.21,379.01c-8.73-1.03-17.43-1.63-26.12-2.16-8.7-.5-17.39-.75-26.09-.94-4.35-.05-8.7-.15-13.06-.13-2.18,0-4.36-.08-6.54-.03-2.18.04-4.36.05-6.54.04-2.18-.03-4.36.05-6.55.07l-6.56.05c-4.38.03-8.75.16-13.16.05,4.31-.88,8.65-1.6,13-2.25,4.36-.51,8.73-1.13,13.11-1.42,4.38-.39,8.78-.62,13.17-.76,2.2-.07,4.4-.16,6.6-.15l6.6.03c8.8.19,17.61.8,26.34,1.96,4.37.58,8.72,1.3,13.03,2.21,4.3.94,8.6,1.96,12.76,3.44Z"/>
          <path class="cls-32" d="M2111.3,386.11c-11.96.1-23.85.68-35.72,1.44-11.87.79-23.7,1.86-35.52,3.13-2.95.32-5.9.7-8.85,1.04l-4.43.5-4.42.6-8.85,1.14c-2.94.47-5.88.89-8.83,1.3l-4.42.63c-1.47.21-2.93.49-4.41.71l-8.83,1.38c-5.9.9-11.75,2.02-17.7,2.83,2.85-.91,5.72-1.75,8.59-2.59l4.32-1.24c1.44-.42,2.88-.81,4.34-1.16,5.82-1.39,11.62-2.92,17.5-4.01,2.93-.6,5.87-1.19,8.81-1.74l8.86-1.47,4.44-.7,4.45-.59c2.97-.37,5.94-.77,8.92-1.11,11.92-1.29,23.89-2.02,35.88-2.16,11.98-.1,24,.29,35.85,2.06Z"/>
          <path class="cls-32" d="M2201.51,371.87c6.98-6.34,14.37-12.16,21.92-17.75,7.56-5.59,15.3-10.93,23.22-15.99,7.92-5.07,16.06-9.8,24.35-14.24,8.32-4.4,16.85-8.44,25.66-11.76l-23.91,14.8-23.69,15-23.66,15.08c-7.9,5.03-15.82,10.03-23.9,14.87Z"/>
          <path class="cls-32" d="M2247.98,355.96c10.84-7.49,22.05-14.41,33.4-21.07,2.83-1.68,5.68-3.33,8.55-4.94,2.86-1.62,5.73-3.25,8.61-4.83,5.76-3.19,11.59-6.24,17.41-9.33l8.82-4.45c2.94-1.49,5.89-2.95,8.86-4.36,5.94-2.84,11.91-5.62,17.95-8.27,12.08-5.26,24.35-10.14,36.94-14.05-11.9,5.66-23.69,11.4-35.45,17.23-2.92,1.5-5.84,2.98-8.79,4.43-2.94,1.45-5.84,2.99-8.76,4.48-5.86,2.93-11.68,5.98-17.5,8.99l-8.75,4.51-8.72,4.56-17.47,9.09c-11.65,6.07-23.31,12.12-35.1,18.01Z"/>
        </g>
        <g>
          <path class="cls-32" d="M361.17,1896.71l-9.32-.82c.26-2.92,27.5-294.34,176.41-514.52l7.75,5.24c-147.57,218.2-174.58,507.21-174.84,510.1Z"/>
          <path class="cls-32" d="M316.27,1896.62l-9.34-.63c.34-4.98,33.05-499.13-16.61-650.88l8.89-2.91c50.23,153.47,18.44,634.04,17.06,654.42Z"/>
          <path class="cls-32" d="M256.41,1896.56c-.14-2.52-15.88-252.88-180.22-354.22l4.91-7.97c168.54,103.93,184.51,359.1,184.65,361.67l-9.34.52Z"/>
          <path class="cls-32" d="M404.39,1897.37l-9.11-2.14c.17-.72,17.07-72.58,35.59-142.94,9.72-36.93,29.55-47.41,45.49-55.84,15.8-8.35,27.21-14.39,25.48-43.75-1.05-17.79-3.15-30.94-4.84-41.5-4.44-27.74-6.46-40.4,18.81-75.57,14.81-20.61,27.92-27.23,37.48-32.06,12.42-6.28,18.66-9.43,19.66-40.31.28-8.9.42-16.39.53-22.82.63-35.84.71-40.45,23.7-73.29,6.09-8.7,3.14-17.93-.4-24.15-8.77-15.37-32.66-30.84-55.62-29.07-16.61,1.28-29.02,11.48-35.89,29.5-22.48,58.93-36.24,68.9-61.2,86.99-5.55,4.02-11.83,8.58-18.85,14.19-35.8,28.64-46.76,42.18-39.46,93.1,4.49,31.39-12.44,66.96-27.37,98.34-10.34,21.73-20.11,42.26-19.38,55.43,1.87,33.62-11.19,198.22-11.74,205.21l-9.33-.74c.14-1.71,13.56-170.96,11.73-203.95-.87-15.56,8.93-36.14,20.27-59.97,14.37-30.18,30.64-64.39,26.55-92.99-7.91-55.28,5.47-71.81,42.88-101.73,7.19-5.75,13.57-10.38,19.2-14.46,23.51-17.04,36.46-26.42,57.95-82.75,8.14-21.33,23.74-33.94,43.92-35.5,24.32-1.89,52.6,12.96,64.47,33.77,6.9,12.1,6.89,24.23-.06,34.15-21.35,30.5-21.4,33.34-22.01,68.09-.11,6.47-.25,14-.54,22.96-1.12,34.74-9.71,40.75-24.79,48.36-9.19,4.64-20.63,10.42-34.1,29.17-23.02,32.04-21.43,42-17.17,68.63,1.72,10.76,3.87,24.17,4.94,42.42,2.08,35.37-13.72,43.73-30.45,52.57-15.06,7.97-32.14,17-40.82,49.96-18.48,70.24-35.36,141.98-35.52,142.69Z"/>
          <path class="cls-32" d="M228.66,1897.11c-.16-.94-16.94-94.42-52.34-119.21-38.9-27.23-50.59-47.68-54.39-95.16-.52-6.47-.89-12.24-1.23-17.39-2.09-32.08-2.46-37.87-24.16-47.99-7.56-3.53-14.62-5.34-21.44-7.09-17.65-4.53-32.89-8.44-37.36-39.63-2.2-15.38-9.12-21.82-17.13-29.27-10.6-9.86-22.61-21.03-20.34-53.97,1.17-16.96,10.57-23.17,18.26-25.4,31.09-9.04,94.91,31.71,111.83,54.77,12.63,17.22,22.6,20.77,34.16,24.88,6.47,2.3,13.17,4.69,20.73,9.49,1.78,1.14,3.61,2.27,5.46,3.42,19.4,12.06,43.55,27.07,47.2,61.8l.5,4.74c3.37,32.42,5.4,51.99,25.45,66.85,23.19,17.19,21.26,51.49,19.4,84.67l-.4,7.3c-1.84,34.93,1.41,115.37,1.44,116.18l-9.35.38c-.03-.81-3.3-81.69-1.44-117.06l.41-7.33c1.8-32.11,3.5-62.44-15.63-76.62-23.35-17.32-25.67-39.63-29.18-73.4l-.49-4.73c-3.18-30.18-23.34-42.71-42.84-54.82-1.88-1.17-3.74-2.33-5.55-3.48-6.66-4.24-12.85-6.44-18.84-8.57-11.92-4.24-24.24-8.63-38.57-28.16-15.36-20.94-75.38-58.92-101.68-51.32-4.53,1.31-10.66,4.51-11.52,17.05-1.96,28.49,7,36.83,17.37,46.48,8.13,7.56,17.35,16.14,20.02,34.79,3.58,25,13.68,27.6,30.42,31.89,6.9,1.77,14.72,3.77,23.07,7.67,26.72,12.46,27.42,23.4,29.54,55.86.33,5.11.7,10.83,1.22,17.25,3.61,45.08,13.5,62.4,50.42,88.24,38.58,27.01,55.5,121.26,56.2,125.26l-9.22,1.62Z"/>
          <path class="cls-32" d="M274.96,1717.34c0-.57-.33-57.17-18.25-104.43-19.15-50.51-22.47-71.49-11.19-133.5,5.77-31.73-3.93-54.71-14.2-79.04-9.14-21.66-18.6-44.06-17.7-73.73.9-29.39,8.9-41.46,15.96-52.11,7.92-11.94,14.18-21.37,7.64-55.5-4.46-23.3,18.29-43.72,41.94-49.28,24.35-5.74,57.1,2.69,69.03,45.36,14.63,52.32,16.16,84.58,17.17,105.93,1.03,21.79,1.55,32.73,13.57,45.6,16.44,17.61,13.31,38.12,9.7,61.86-2.59,16.99-5.52,36.24-1.45,57.6l-9.19,1.75c-4.37-22.93-1.31-43.03,1.39-60.76,3.39-22.22,6.06-39.77-7.29-54.07-14.36-15.38-15-28.99-16.06-51.54-1.05-22.18-2.49-52.55-16.83-103.85-10.13-36.24-36.53-43.77-57.89-38.77-19.44,4.57-38.3,20.56-34.88,38.42,7.25,37.88-.66,49.81-9.04,62.43-6.68,10.07-13.6,20.49-14.41,47.22-.84,27.63,8.21,49.07,16.96,69.81,10.35,24.52,21.05,49.87,14.78,84.35-10.87,59.75-7.68,79.95,10.73,128.51,18.54,48.89,18.86,105.35,18.86,107.73l-9.36.02Z"/>
        </g>
        <g>
          <path class="cls-32" d="M2538.33,1896.45l-8.85-3.05c4.19-12.13,104.36-297.48,254.58-329.38l1.95,9.16c-145.06,30.8-246.67,320.35-247.68,323.27Z"/>
          <path class="cls-32" d="M2493.48,1896.24l-8.98-2.63c1.05-3.57,103.86-360.06,50.61-632.82l9.18-1.79c53.69,275.02-49.76,633.65-50.81,637.24Z"/>
          <path class="cls-32" d="M2443.32,1896.21c-.55-1.93-56.32-193.95-139.52-223.64-20.81-7.42-41.97-3.81-62.92,10.73l-5.34-7.69c23.57-16.37,47.58-20.36,71.4-11.86,87.72,31.3,143.06,221.79,145.38,229.89l-9,2.57Z"/>
          <path class="cls-32" d="M2408.27,1897.36c-.24-.4-24.47-40.04-44.7-67.63-7.64-10.42-18.76-12.56-29.52-14.63-15.24-2.94-32.51-6.26-31.27-35.79l.16-3.75c1.1-25.59,1.89-44.08-5.35-51.07-3.44-3.33-9.09-4.56-17.85-3.88-13.36,1.02-25.54-1.15-36.3-3.07-15.63-2.79-29.12-5.2-42.21,2.28-5.98,3.41-9.72,2.16-11.82.5-3.69-2.91-4.34-8.59-1.93-16.86,5.74-19.7,34.38-64.52,82.08-69.35,63.57-6.42,75.42-3.71,97.61,22.32,9.49,11.14,14.37,17.86,17.92,22.77,6.94,9.57,7.66,10.57,29.62,23.99,30.53,18.66,42.15,35.74,37.68,55.38-4.27,18.77,12.07,104.09,18.73,135.38l-9.16,1.95c-.99-4.67-24.3-114.79-18.7-139.4,2.31-10.18.61-24.52-33.44-45.32-22.69-13.86-24.55-15.77-32.32-26.49-3.46-4.78-8.21-11.33-17.46-22.19-19.02-22.32-26.67-25.45-89.55-19.08-31.1,3.15-55.15,26.68-67.3,47.65-6.4,11.05-7.86,18.38-7.79,21.22.32-.13.71-.32,1.18-.59,16.06-9.17,31.81-6.35,48.5-3.37,10.71,1.91,21.78,3.9,33.93,2.95,11.59-.9,19.56,1.16,25.08,6.48,10.27,9.92,9.44,29.13,8.19,58.2l-.16,3.74c-.9,21.47,8.35,23.25,23.69,26.21,11.36,2.18,25.49,4.91,35.3,18.28,20.47,27.91,44.9,67.89,45.14,68.29l-7.99,4.87Z"/>
          <path class="cls-32" d="M2458.49,1830.29l-8.86-3.01c.14-.41,13.78-41.08,19.27-95.98,2.49-24.96-4.6-39.42-11.46-53.39-8.09-16.48-16.46-33.52-7.89-65.09,8.25-30.41,19.29-35.66,28.16-39.88,7.48-3.56,12.42-5.91,14.28-27.57,1.76-20.58-4.48-28.08-11.09-36-8.36-10.02-17-20.39-6.65-52.52,7.45-23.11,15.46-32.74,21.9-40.47,8.36-10.04,13.41-16.1,9.46-51.62-3.22-28.98-12.57-40.5-20.09-49.75-8.61-10.59-16.04-19.74-7.95-46.19,12.06-39.42,26.69-73.69,72.42-60.12,37.17,11.02,52.2,51.14,39.21,104.7-4.61,19.03,4.07,43.2,13.26,68.78,11.99,33.38,25.59,71.21,11.56,105.87-7.56,18.68-13.28,29.18-17.06,36.13q-7.86,14.45-2.3,52.56c2.14,14.63,4.03,25.15,5.41,32.82,4.32,24,4.51,27.04-2.86,55.69l-9.07-2.33c7.07-27.5,6.82-28.86,2.71-51.71-1.39-7.74-3.3-18.34-5.46-33.13-5.85-40.04-5.75-41.68,3.34-58.38,3.9-7.16,9.24-16.98,16.6-35.16,12.68-31.34.29-65.84-11.69-99.2-9.68-26.94-18.82-52.39-13.55-74.15,11.87-48.96-.38-83.92-32.78-93.53-31.13-9.23-45.35,3.35-60.81,53.89-6.63,21.68-1.78,27.66,6.26,37.55,7.85,9.66,18.61,22.9,22.13,54.61,4.19,37.72-1.08,46.05-11.57,58.64-5.92,7.11-13.29,15.96-20.18,37.35-8.77,27.22-2.73,34.47,4.93,43.65,7.19,8.61,15.32,18.38,13.23,42.79-2.15,25.13-9.15,30.27-19.59,35.23-7.51,3.57-16.02,7.62-23.15,33.88-7.64,28.16-.74,42.22,7.26,58.51,7.09,14.45,15.13,30.83,12.37,58.45-5.61,56.04-19.58,97.65-19.72,98.06Z"/>
          <path class="cls-32" d="M2566.52,1895.92l-9.15-1.98c14.53-67.1,35.85-87.14,54.66-104.82,10.34-9.72,19.28-18.12,25.59-33.65,3.09-7.6,5.69-14.16,7.98-19.91,11.32-28.49,15.13-38.09,31.36-58.45,10.15-12.74,18.48-13.57,28.13-14.54,9.9-.99,22.22-2.22,43.52-18.55,21.66-16.61,21.09-28.13,20.67-36.54-.37-7.4-.78-15.78,14.79-19.07,8.14-1.72,18.53-1.94,28.58-2.15,15.47-.32,33-.69,37.18-6.86,1.35-1.99,1.26-5.07-.27-9.15-3.01-8.04-9.33-13.76-18.78-16.98-17.96-6.14-44.96-1.91-64.22,10.02-15.22,9.42-26.68,5.54-36.8,2.13-11.79-3.98-21.97-7.41-39.97,6.86-14.82,11.77-20.27,25.55-25.08,37.72-6.47,16.38-12.71,31.86-39.82,30.52-19.67-1.02-24.19,11.72-30.97,36.12-4.67,16.82-9.97,35.88-24.32,51.48-31.05,33.75-58.95,166.44-59.22,167.78l-9.17-1.91c1.16-5.56,28.72-136.57,61.5-172.2,12.83-13.94,17.8-31.85,22.19-47.65,6.33-22.81,12.32-44.35,40.44-42.97,20.65,1.08,24.35-8.64,30.66-24.61,4.98-12.6,11.18-28.28,27.97-41.61,21.98-17.44,36.21-12.63,48.78-8.4,9.72,3.28,17.41,5.88,28.88-1.22,21.8-13.49,51.46-17.99,72.17-10.91,12.06,4.12,20.53,11.92,24.52,22.56,2.65,7.09,2.4,13.04-.74,17.68-6.89,10.17-25.27,10.56-44.73,10.97-9.61.2-19.56.41-26.83,1.95-7.77,1.64-7.72,2.68-7.38,9.45.49,9.89,1.23,24.83-24.33,44.43-23.4,17.94-37.78,19.38-48.28,20.42-8.75.88-14.04,1.41-21.74,11.06-15.36,19.28-18.75,27.81-29.98,56.08-2.3,5.78-4.91,12.35-8.01,19.98-7.08,17.43-17.18,26.92-27.86,36.95-17.81,16.74-38.01,35.72-51.92,99.98Z"/>
        </g>
        <path class="cls-9" d="M167.06,1884.27h2509.83c28.27,0,51.21,22.95,51.21,51.21v.96H115.85v-.96c0-28.26,22.95-51.21,51.21-51.21Z"/>
        <g>
          <path class="cls-32" d="M876.35,746.32c-1.3,0-2.59,0-3.89-.03-74.66-1.01-144.45-31.04-196.52-84.54-52.07-53.5-80.2-124.09-79.18-198.74,1.01-74.66,31.04-144.45,84.54-196.52,53.5-52.07,124.08-80.2,198.74-79.18,74.66,1.01,144.45,31.04,196.52,84.54,52.07,53.5,80.2,124.09,79.18,198.74-1.01,74.66-31.04,144.45-84.54,196.52-52.57,51.17-121.64,79.21-194.85,79.21ZM876.21,199.4c-67.29,0-134.63,25.15-186.55,75.68-105.71,102.88-108.01,272.59-5.13,378.3,49.84,51.21,116.64,79.94,188.09,80.91,71.45,1,139-25.94,190.21-75.78,51.21-49.84,79.94-116.64,80.91-188.09.97-71.45-25.95-139-75.78-190.21-52.35-53.79-122.03-80.81-191.75-80.81Z"/>
          <path class="cls-32" d="M876.33,690.08c-1.04,0-2.07,0-3.11-.02-59.64-.81-115.39-24.79-156.98-67.53-41.6-42.74-64.06-99.12-63.25-158.76.81-59.64,24.79-115.39,67.53-156.98,42.74-41.6,99.11-64.07,158.76-63.25,59.64.81,115.39,24.79,156.98,67.53,41.6,42.74,64.06,99.12,63.25,158.76-.81,59.64-24.79,115.39-67.53,156.98-41.99,40.87-97.17,63.27-155.65,63.27ZM876.22,255.61c-53.15,0-106.33,19.87-147.33,59.77-83.49,81.26-85.3,215.28-4.05,298.77,41.35,42.48,96.37,63.82,151.44,63.82,53.15,0,106.33-19.87,147.33-59.77,40.44-39.36,63.14-92.12,63.9-148.55.76-56.43-20.49-109.78-59.85-150.23-41.35-42.48-96.37-63.82-151.44-63.82Z"/>
          <path class="cls-32" d="M1007.04,601.55l-8.18-8.78c12.58-11.73,23.33-25.13,31.95-39.83l10.35,6.07c-9.21,15.7-20.68,30.01-34.11,42.53Z"/>
          <path class="cls-32" d="M1058.01,516.92l-11.57-3.18c16.54-60.21-.2-125.37-43.7-170.06l8.6-8.37c23.35,23.99,39.91,53.75,47.9,86.06,7.75,31.36,7.33,64.4-1.23,95.55Z"/>
          <polygon class="cls-32" points="654.94 744.13 587.4 674.73 646.47 617.24 654.84 625.84 604.37 674.96 655.17 727.16 704.75 678.92 713.12 687.51 654.94 744.13"/>
          <path class="cls-32" d="M307.75,1113.34l-98.83-101.55,371.44-361.5,98.83,101.55-371.44,361.5ZM225.89,1012.02l82.09,84.35,354.24-344.76-82.09-84.35-354.24,344.76Z"/>
        </g>
      </g>
    </g>
    <g id="Object">
      <g>
        <g>
          <path class="cls-15" d="M1197.23,665.89c26.47-.35,48.55,21.01,48.89,47.48.17,13.23-5.12,25.29-13.72,34.28-8.6,8.83-20.68,14.44-33.91,14.61l-64.45.84-258.75,3.39-55.27.72c-26.47.35-48.55-21.16-48.89-47.63-.17-13.23,5.12-25.29,13.72-34.12,8.76-8.83,20.68-14.44,33.91-14.61l84.69-1.11,217.18-2.84,76.6-1Z"/>
          <path class="cls-35" d="M1463.99,1682.45l-.02-.02v-.04c-.15-1.27-.33-2.55-.53-3.82-.15-1.05-.31-2.09-.51-3.12-.22-1.36-.46-2.72-.73-4.06-.15-.75-.31-1.49-.48-2.24-.13-.7-.29-1.38-.44-2.06-.24-1.08-.48-2.15-.77-3.21-.07-.29-.13-.59-.22-.88-.22-.88-.44-1.74-.7-2.61-.13-.51-.26-1.01-.42-1.52-.22-.81-.46-1.65-.73-2.48-.24-.81-.48-1.6-.75-2.39-.55-1.69-1.12-3.38-1.74-5.08-.26-.75-.55-1.52-.83-2.26-3.12-8.28-6.99-16.48-11.67-24.47-34.05-58.42-74.3-115.82-112.42-173.84-4.09-6.19-8.15-12.43-12.17-18.65-1.34-2.07-2.68-4.15-4.02-6.24l-.04-.07c-42.66-66.48-81.02-134.06-102.73-205.06l-7.71-29.64c-25.57-97.76-86.16-325.87-70.35-425.57l-258.73,3.38c4.72,25.46,5.25,59.49,3.01,97.7-1.45,24.87-4.04,51.52-7.43,78.72-1.32,10.68-2.77,21.46-4.31,32.23-7.31,51.32-16.74,102.84-25.66,146.62-5.62,27.75-11.07,52.4-15.62,71.88l-6.94,29.83c-39.7,143.15-146.36,274.24-220.73,409.75-52.77,95.98,5.93,215.43,114.06,232.85,103.45,16.72,207.9,24.39,312.21,23.02,104.46-1.38,208.64-11.78,311.63-31.17,65.1-12.24,111.12-61.29,125.14-119.07,4.44-18.21,5.67-37.3,3.32-56.39Z"/>
          <path class="cls-15" d="M1433.43,1714.26c-1.38,13.71-5.05,27.35-11.05,40.45-.15.35-.31.7-.51,1.03-17.62,37.81-51.12,63.86-92.09,71.58-7.93,1.49-15.88,2.94-23.84,4.31-15.18,2.66-30.4,5.12-45.67,7.36-9.67,1.43-19.35,2.77-29.07,4.04-10.85,1.41-21.73,2.72-32.6,3.95-4.97.55-9.91,1.1-14.87,1.6-11.12,1.16-22.25,2.2-33.42,3.14-37.72,3.21-75.51,5.21-113.27,5.98-4.53.11-9.03.18-13.55.24-13.05.18-26.1.2-39.15.09-89.48-.81-179.36-8.44-267.67-22.69-41.54-6.7-75.99-32.25-94.49-70.15-18.39-37.7-17.4-80.32,2.75-116.96,17.09-31.15,36.34-62.7,55.8-93.81,6.83-10.92,13.69-21.77,20.5-32.54.24-.42.5-.81.77-1.23,15.07-23.86,30.27-47.91,44.99-72.26,4.61-7.6,9.18-15.25,13.67-22.89,2.04-3.47,4.06-6.94,6.06-10.41,4.5-7.76,8.9-15.53,13.2-23.35,3.95-7.14,7.82-14.3,11.6-21.51,6.15-11.71,12.06-23.51,17.66-35.37,15.95-33.66,29.46-67.97,39.19-103.08l7.25-31.11c.46-1.98,1.16-5.05,2.04-9.14,2.13-9.62,5.34-24.74,9.18-43.85,5.45-26.98,12.13-61.93,18.76-100.49,1.74-10.22,3.49-20.67,5.21-31.33.77-4.7,1.52-9.45,2.26-14.24,1.65-10.46,3.25-21.07,4.81-31.72,1.38-9.67,2.75-19.38,4.02-29.09,2.09-15.91,4-31.79,5.65-47.39,5.1-47.98,7.78-93.37,5.84-129.09l190.45-2.48c-1.56,98.49,32.95,278.57,58.35,386.22,3.71,15.8,7.25,30.05,10.44,42.25l7.45,28.67,1.87,7.16c4.42,14.46,9.47,28.74,15.03,42.84,9.03,22.85,19.44,45.28,30.84,67.38,6.26,12.15,12.83,24.19,19.62,36.12,18.65,32.78,39.06,64.83,59.87,96.4,9.6,14.59,19.29,29.07,28.91,43.46,27.5,41.13,55.93,83.64,80.36,125.51,13.84,23.7,19.53,50.22,16.85,76.41Z"/>
          <path class="cls-6" d="M1389.69,1653.54c15.93,27.35,17.44,59.57,4.27,88.39-13.17,28.98-38.75,48.93-69.98,54.79-98.94,18.73-200.02,28.78-300.75,30.09h-.16c-100.73,1.32-202.04-6.07-301.44-22.21-31.36-5.04-57.46-24.32-71.39-52.94-13.92-28.47-13.25-60.71,1.96-88.47,22.81-41.56,48.75-82.54,76.06-125.72,42.41-67.2,85.73-135.81,117.8-208.33,0,0,48.37-39.72,123.61-37.59,75.39,2.28,120.82,70.51,209.32,15.48,34.66,78.18,83.73,151.5,131.38,222.82,28.43,42.45,55.43,82.74,79.32,123.69Z"/>
          <path class="cls-7" d="M1197.23,665.89c26.47-.35,48.55,21.01,48.89,47.48.17,13.23-5.12,25.29-13.72,34.28-8.6,8.83-20.68,14.44-33.91,14.61l-64.45.84-258.75,3.39-55.27.72c-26.47.35-48.55-21.16-48.89-47.63-.17-13.23,5.12-25.29,13.72-34.12,8.76-8.83,20.68-14.44,33.91-14.61l84.69-1.11,217.18-2.84,76.6-1Z"/>
          <g>
            <circle class="cls-43" cx="869.21" cy="1657.46" r="35.03" transform="translate(-950.52 2094.79) rotate(-75.84)"/>
            <circle class="cls-43" cx="984.42" cy="1524.2" r="17.76" transform="translate(-592.85 2421.14) rotate(-86.77)"/>
            <circle class="cls-43" cx="1114.79" cy="1645.36" r="26.15" transform="translate(-866.83 1797.57) rotate(-60.27)"/>
            <circle class="cls-43" cx="1154.64" cy="1507.86" r="15.49" transform="translate(-129.83 108.94) rotate(-5.11)"/>
            <path class="cls-43" d="M901.43,1442.14c.13,9.67-7.61,17.62-17.29,17.74-9.67.13-17.62-7.61-17.74-17.29-.13-9.67,7.61-17.62,17.29-17.74,9.67-.13,17.62,7.61,17.74,17.29Z"/>
            <path class="cls-43" d="M735.85,1685.36c.06,4.9-3.86,8.93-8.76,9s-8.93-3.86-9-8.76c-.06-4.9,3.86-8.93,8.76-9,4.9-.06,8.93,3.86,9,8.76Z"/>
            <circle class="cls-43" cx="1262.29" cy="1660.95" r="17.52" transform="translate(-804.75 1379.06) rotate(-45)"/>
            <circle class="cls-43" cx="1109.65" cy="1365.64" r="24.67" transform="translate(-273.83 2452.97) rotate(-89.07)"/>
          </g>
          <g class="cls-8">
            <path class="cls-29" d="M1422.38,1754.71c-.15.35-.31.7-.51,1.03l-564.21-564.21c5.12-23.2,16.63-78.52,27.94-144.34l421.7,421.7c9.6,14.59,19.29,29.07,28.91,43.46,27.5,41.13,55.93,83.64,80.36,125.51,21.09,36.12,23.22,78.69,5.8,116.85Z"/>
            <path class="cls-29" d="M1247.44,1372.49l-356.63-356.63c3.95-24.43,7.75-49.78,11.09-75.05l278.17,278.17,1.87,7.16c15.51,50.71,38.69,99.26,65.49,146.34Z"/>
            <path class="cls-29" d="M1150.31,1851.72c-42.23,3.6-84.56,5.67-126.83,6.22-13.05.18-26.1.2-39.15.09l-303.61-303.61c7.1-11.34,14.21-22.61,21.27-33.77,15.07-23.86,30.27-47.91,44.99-72.26l403.33,403.33Z"/>
            <path class="cls-29" d="M1260.27,1838.98c-25.42,3.76-50.97,6.94-76.54,9.6l-423.08-423.08c10.74-18.26,21.11-36.67,30.87-55.27l468.76,468.76Z"/>
            <path class="cls-29" d="M1460.67,1738.85c-3.54-2.55-8.7-6.39-8.83-6.17l-18.41-18.41c2.68-26.19-3.01-52.7-16.85-76.41-24.43-41.87-52.86-84.38-80.36-125.51-9.62-14.39-19.31-28.87-28.91-43.46-20.81-31.57-41.21-63.62-59.87-96.4-6.79-11.93-13.36-23.97-19.62-36.12l87,87,.04.07c1.34,2.09,2.68,4.17,4.02,6.24,4.02,6.24,8.08,12.46,12.17,18.65,38.12,58.02,78.36,115.43,112.42,173.84,4.68,8,8.55,16.19,11.67,24.47.29.75.57,1.52.83,2.26.61,1.69,1.19,3.38,1.74,5.08.26.79.51,1.58.75,2.39.26.83.51,1.67.73,2.48.15.51.29,1.01.42,1.52.26.88.48,1.74.7,2.61.09.29.15.59.22.88.29,1.05.53,2.13.77,3.21.15.68.31,1.36.44,2.06.18.75.33,1.49.48,2.24.26,1.34.51,2.7.73,4.06.2,1.03.35,2.06.51,3.12.2,1.27.37,2.55.53,3.82v.04l.02.02c2.35,19.09,1.12,38.18-3.32,56.39Z"/>
            <path class="cls-29" d="M743.9,1392.28l22.8,22.8c-2,3.47-4.02,6.94-6.06,10.41-4.48,7.65-9.05,15.29-13.67,22.89-14.72,24.34-29.92,48.4-44.99,72.26-.26.42-.53.81-.77,1.23l-22.58-22.58c22.41-35.5,44.8-71.07,65.27-107.01Z"/>
            <path class="cls-29" d="M809.17,1334.85c-5.6,11.86-11.51,23.66-17.66,35.37-3.78,7.21-7.65,14.37-11.6,21.51l-22.94-22.94c10.32-18.98,19.99-38.09,28.78-57.36l23.42,23.42Z"/>
            <path class="cls-29" d="M893.07,1001.63c-.75,4.79-1.49,9.53-2.26,14.24-1.71,10.65-3.47,21.11-5.21,31.33-6.63,38.56-13.31,73.51-18.76,100.49l-25.92-25.92c8.92-43.78,18.34-95.3,25.66-146.62l26.49,26.5Z"/>
            <path class="cls-29" d="M907.55,893.43c-1.65,15.6-3.56,31.48-5.65,47.39-1.27,9.71-2.64,19.42-4.02,29.09l-27-27c3.38-27.2,5.98-53.85,7.43-78.72l29.24,29.24Z"/>
            <path class="cls-29" d="M1261.28,1333.29l-64.3-64.3c-5.56-14.1-10.61-28.38-15.03-42.84l-1.87-7.16-7.45-28.67c-3.18-12.19-6.72-26.45-10.44-42.25l42.73,42.73,7.16,27.51c12,39.24,29.09,77.44,49.19,114.99Z"/>
            <path class="cls-29" d="M1332.76,1858.45c-24.58,4.57-49.23,8.66-73.93,12.21l-27.64-27.64c9.71-1.27,19.4-2.61,29.07-4.04,15.27-2.24,30.49-4.7,45.67-7.36l26.82,26.82Z"/>
            <path class="cls-29" d="M1198.6,1846.98l28.03,28.03c-52.92,6.68-106.07,11.01-159.3,12.98l-30.3-30.3c37.76-.77,75.55-2.77,113.27-5.98,11.16-.94,22.3-1.98,33.42-3.14,4.96-.51,9.91-1.05,14.87-1.6Z"/>
          </g>
        </g>
        <g>
          <rect class="cls-14" x="1289.18" y="1852.84" width="478.5" height="36.75"/>
          <polygon class="cls-6" points="1529.65 1802.91 1291.61 1852.84 1767.68 1852.84 1529.65 1802.91"/>
          <rect class="cls-14" x="1481.27" y="1768.62" width="96.75" height="41.84"/>
          <rect class="cls-14" x="1481.32" y="1684.88" width="96.75" height="41.84"/>
          <rect class="cls-6" x="1501.22" y="1726.78" width="56.86" height="41.84"/>
          <path class="cls-4" d="M1433.52,1607.99h0c-8.6-3.78-18.64.12-22.42,8.72l-19.52,44.36c-3.78,8.6.12,18.64,8.72,22.42h0c8.6,3.78,18.64-.12,22.42-8.72l19.52-44.36c3.78-8.6-.12-18.64-8.72-22.42Z"/>
          <path class="cls-4" d="M1675.08,1059.1h0c-8.6-3.78-12.5-13.82-8.72-22.42l19.52-44.36c3.78-8.6,13.82-12.5,22.42-8.72h0c8.6,3.78,12.5,13.82,8.72,22.42l-19.52,44.36c-3.78,8.6-13.82,12.5-22.42,8.72Z"/>
          <path class="cls-14" d="M1522.07,1691.39c-50.89,0-101.68-10.58-149.65-31.7-5.72-2.52-8.32-9.21-5.8-14.93,2.52-5.72,9.21-8.34,14.93-5.8,85.34,37.58,180.22,39.65,267.15,5.86,86.92-33.8,155.48-99.41,193.04-184.77,77.55-176.2-2.71-382.64-178.91-460.19-5.72-2.52-8.32-9.21-5.8-14.93,2.52-5.72,9.2-8.34,14.93-5.8,187.63,82.58,273.1,302.42,190.52,490.05-40,90.89-113.01,160.77-205.56,196.75-43.7,16.99-89.31,25.46-134.83,25.46Z"/>
          <g>
            <path class="cls-24" d="M1279.54,1496.38c.96,18.69,0,51.72,0,51.72l-.07.07c-61.88-59.6-100.36-143.18-100.36-235.81,0-8.98.37-17.88,1.1-26.63h.07c0,1.91.44,15.08,12.51,26.63,13.02,12.43,18.61,17.07,27.96,22.22,9.34,5.15,37.3,21.93,37.3,21.93,0,0,5.67,1.84,21.48,22.37s30.75,28.03,34.51,39.22c3.75,11.18,11.18,21.41,11.18,21.41,0,0-27.96,38.26-33.55,42.01-5.59,3.68-13.02-3.75-12.14,14.86Z"/>
            <path class="cls-24" d="M1623.66,1595.26c3.61,19.35,12.07,17.29,13.17,16.92v.07c-40.03,17.44-84.24,27.15-130.67,27.15,0,0,11.18-16.19,20.23-34.8,8.98-18.69-1.55-13.1-5.3-50.4-3.75-37.3,0,0,2.35-5.59,2.43-5.59,5.08-22.37,0-37.3-4.64-13.69-.81-11.7-.07-11.26-2.13-1.91-36.2-32.23-47.09-50.03-4.12-6.84-6.25-10.23-7.21-11.62.44-3.61,1.62-14.72,1.62-22.22s-20.45-3.68-26.05-3.68-28.03,5.59-43.12,7.43c-15.16,1.84-24.06,39.14-24.06,27.96s-9.34-7.43-13.1-8.39c-3.68-.88-9.27-12.14-13.02-21.41-3.75-9.34-9.34-5.59-16.78-14.94-7.5-9.34-13.1-13.1-20.53-33.62-7.5-20.45-13.1-13.02-27.96-42.9-14.94-29.8,0,0,3.68-14.27,3.75-14.27,9.34-8.09,22.59-19.28,13.17-11.18,18.47-3.75,18.47-3.75,0,0,13.02,9.34,20.53,23.03,7.43,13.69,31.71,10.59,31.71,10.59l-5.59-16.78c-1.32-3.9-1.99-6.03-2.35-7.06l-.29-.96c-.22-.66-.59-1.62-1.1-3.24-3.75-11.18-26.12-39.14-7.43-59.67,18.61-20.53,18.61-13.02,31.71-33.55,13.02-20.53,26.12-14.94,40.98-13.1,14.94,1.91,11.26,1.91,35.46,0,24.28-1.84,27.96-1.84,35.46-27.96,7.43-26.12,0,0-3.75-24.28-3.75-24.21,0-20.45,0-41.2s-9.34-1.69-22.37,0c-13.1,1.62-16.78,2.06-24.28,7.65-7.43,5.59-18.61,20.53-33.55,24.28-14.94,3.68-9.34,0-29.87-7.58-20.53-7.58,0-18.54,3.75-35.32,3.75-16.85,18.1,0,18.1,0,0,0,6.18-7.5,17.36-14.94,11.18-7.5,18.61-3.75,37.3-15.16,18.61-11.4,7.43,5.81,33.55,0,26.12-5.81,14.94-12.21,14.94-12.21v-12.14s-18.69,2.21-35.46.29c-16.78-1.84-46.65,3.75-72.69,15.97-26.12,12.21-16.85,8.31-24.28,2.94-7.43-5.37-50.4-2.06-76.3,0,54.23-40.03,121.25-63.64,193.8-63.64,89.17,0,170.04,35.61,228.97,93.52-4.27-3.61-44.29,11.04-48.05,22.15-3.68,11.18,1.91,14.94-11.18,27.96q-13.02,13.1-42.9,24.28c-29.87,11.18-26.12-5.59-42.9,20.53-16.78,26.05-20.53,31.64-16.78,44.73,3.75,13.02-1.91,35.46,24.21,27.96,26.12-7.43,16.85-31.71,44.81-22.37,27.96,9.34,53.64,11.18,53.64,11.18,0,0-9.71-27.96,0-33.55,9.79-5.59,27.59,3.68,39.22,13.02,11.63,9.34,11.63,7.5,19.06,18.69,7.43,11.18,14.94,16.04,20.53,14.49,5.59-1.47,26.12-31.27,26.12-31.27l12.07-17.81c10.52,28.47,17.22,58.86,19.42,90.43h-.07c-20.23-12.95-23.99-11.11-55.7-11.11s-35.46,7.28-63.42-.07c-27.96-7.36-26.12-12.95-59.67-11.11-33.55,1.84-27.96-4.19-48.49,10.96-20.53,15.16-31.71-.37-37.3,34.43-5.59,34.8-14.94,29.21,0,59.08,14.94,29.8,14.94,24.21,29.8,54.08,14.94,29.87,26.12,5.59,20.53,48.49-5.59,42.9-5.59,50.4-5.59,57.83s-3.75,29.87-3.75,39.22,11.11,3.38,14.94,24.21ZM1621.82,1130.77v-29.8c-11.18,0,5.59-13.1-11.18,0-16.78,13.02-22.37,27.96-26.12,33.55s-12.51,9.34-12.51,9.34l49.81-13.1Z"/>
            <path class="cls-38" d="M1523.45,1548.62c-2.35,5.59-6.11-31.71-2.35,5.59,3.75,37.3,14.27,31.71,5.3,50.4-9.05,18.61-20.23,34.8-20.23,34.8-88.07,0-167.9-34.73-226.69-91.23l.07-.07s.96-33.04,0-51.72c-.88-18.61,6.55-11.18,12.14-14.86,5.59-3.75,33.55-42.01,33.55-42.01,0,0-7.43-10.23-11.18-21.41-3.75-11.18-18.69-18.69-34.51-39.22s-21.48-22.37-21.48-22.37c0,0-27.96-16.78-37.3-21.93-9.34-5.15-14.94-9.79-27.96-22.22-12.07-11.55-12.51-24.72-12.51-26.63h-.07c7.8-97.12,58.05-182.25,132.14-236.77,25.9-2.06,68.87-5.37,76.3,0,7.43,5.37-1.84,9.27,24.28-2.94,26.05-12.21,55.92-17.81,72.69-15.97,16.78,1.91,35.46-.29,35.46-.29v12.14s11.18,6.4-14.94,12.21c-26.12,5.81-14.94-11.4-33.55,0-18.69,11.4-26.12,7.65-37.3,15.16-11.18,7.43-17.36,14.94-17.36,14.94,0,0-14.35-16.85-18.1,0-3.75,16.78-24.28,27.74-3.75,35.32,20.53,7.58,14.94,11.26,29.87,7.58,14.94-3.75,26.12-18.69,33.55-24.28,7.5-5.59,11.18-6.03,24.28-7.65,13.02-1.69,22.37-20.75,22.37,0s-3.75,17,0,41.2c3.75,24.28,11.18-1.84,3.75,24.28-7.5,26.12-11.18,26.12-35.46,27.96-24.21,1.91-20.53,1.91-35.46,0-14.86-1.84-27.96-7.43-40.98,13.1-13.1,20.53-13.1,13.02-31.71,33.55-18.69,20.53,3.68,48.49,7.43,59.67.52,1.62.88,2.58,1.1,3.24l.29.96c.37,1.03,1.03,3.16,2.35,7.06l5.59,16.78s-24.28,3.09-31.71-10.59c-7.5-13.69-20.53-23.03-20.53-23.03,0,0-5.3-7.43-18.47,3.75-13.24,11.18-18.84,5-22.59,19.28-3.68,14.27-18.61-15.52-3.68,14.27,14.86,29.87,20.45,22.44,27.96,42.9,7.43,20.53,13.02,24.28,20.53,33.62,7.43,9.34,13.02,5.59,16.78,14.94,3.75,9.27,9.34,20.53,13.02,21.41,3.75.96,13.1-2.8,13.1,8.39s8.9-26.12,24.06-27.96c15.08-1.84,37.45-7.43,43.12-7.43s26.05-3.75,26.05,3.68-1.18,18.61-1.62,22.22c-.52-.74-.74-.96-.81-.88,0,.29.59,1.62.59,1.99.07-.07.15-.52.22-1.1.96,1.4,3.09,4.78,7.21,11.62,10.89,17.81,44.96,48.12,47.09,50.03-.74-.44-4.56-2.43.07,11.26,5.08,14.94,2.43,31.71,0,37.3Z"/>
            <path class="cls-38" d="M1636.83,1612.19c-1.1.37-9.56,2.43-13.17-16.92-3.83-20.82-14.94-14.94-14.94-24.21s3.75-31.71,3.75-39.22,0-14.94,5.59-57.83c5.59-42.9-5.59-18.61-20.53-48.49-14.86-29.87-14.86-24.28-29.8-54.08-14.94-29.87-5.59-24.28,0-59.08,5.59-34.8,16.78-19.28,37.3-34.43,20.53-15.16,14.94-9.12,48.49-10.96,33.55-1.84,31.71,3.75,59.67,11.11,27.96,7.36,31.71.07,63.42.07s35.46-1.84,55.7,11.11h.07c.51,7.65.81,15.3.81,23.1,0,134.2-80.79,249.5-196.38,299.9v-.07Z"/>
            <path class="cls-38" d="M1610.64,1100.98c16.78-13.1,0,0,11.18,0v29.8l-49.81,13.1s8.76-3.75,12.51-9.34,9.34-20.53,26.12-33.55Z"/>
            <path class="cls-38" d="M1812.97,1198.76v.07l-12.07,17.81s-20.53,29.8-26.12,31.27c-5.59,1.55-13.1-3.31-20.53-14.49-7.43-11.18-7.43-9.34-19.06-18.69-11.63-9.34-29.43-18.61-39.22-13.02-9.71,5.59,0,33.55,0,33.55,0,0-25.68-1.84-53.64-11.18-27.96-9.34-18.69,14.94-44.81,22.37-26.12,7.5-20.45-14.94-24.21-27.96-3.75-13.1,0-18.69,16.78-44.73,16.78-26.12,13.02-9.34,42.9-20.53q29.87-11.18,42.9-24.28c13.1-13.02,7.5-16.78,11.18-27.96,3.75-11.11,43.78-25.75,48.05-22.15,0,.07.07.07.07.07,34.07,33.48,60.85,74.24,77.77,119.86Z"/>
          </g>
        </g>
        <g>
          <g>
            <path class="cls-26" d="M2069.34,1018.11c-169.83,23.28-311.28-32.41-311.28-32.41,0,0,90.24-11.07,157.75-4.04,59.82,6.23,153.53,36.45,153.53,36.45Z"/>
            <path class="cls-42" d="M2079.45,920.99l-10.11,97.11s-93.71-30.22-153.53-36.45c-67.51-7.03-157.75,4.04-157.75,4.04l10.11-97.11,10.11-97.11s80.57-37.12,160.33-28.81c73.98,7.7,150.95,61.23,150.95,61.23l-10.11,97.11Z"/>
            <path class="cls-26" d="M2247.74,866.01l-165.7,55.26-2.59-.27,10.11-97.11s-76.98-53.52-150.95-61.23c-79.76-8.31-160.33,28.81-160.33,28.81l-10.11,97.11-2.55-.27-150.76-88.21,330.69-104.05,302.19,169.95Z"/>
            <path class="cls-42" d="M1935.61,672.83l-318.1,101.89-2.64,25.38,318.06-100.07c8.06-2.53,16.8-1.62,24.16,2.52l290.66,163.46,2.64-25.38-290.32-165.25c-7.44-4.23-16.3-5.16-24.45-2.55Z"/>
          </g>
          <path class="cls-14" d="M1677.26,949.98s-12.06,22.15-10.07,40.56c1.98,18.41,9.45,35.44,9.45,35.44l4.37.45-2.29-20.39,6.13,27.29,7.26-1.84-4.29-39.13,7.62,32.98s7.48-3.12,7.74-5.7c.27-2.57-6.45-32.53-6.45-32.53l9.48,35.44s4.8,3.1,8.48-32.27c3.68-35.37-26.32-46.95-26.32-46.95l-11.09,6.65Z"/>
          <path class="cls-14" d="M1812.24,712.35l-22.87,7.34c-3.87-.86-8.64-1.67-13.96-2.22-24.13-2.51-60.25.46-83.49,33.43-1.63,2.33-3.19,4.78-4.69,7.4-4.27,7.44-7.55,14.83-10,22.19-12.12,36.24-4.23,71.3,4.06,108.05,4.49,20.01,9.15,40.69,10.39,61.71.25,4.22-2.97,7.85-7.19,8.06-.43.03-.85.03-1.27-.02-3.65-.38-6.61-3.34-6.84-7.14-1.17-19.78-5.66-39.83-10.03-59.24-7.71-34.23-15.63-69.37-6.62-105.94,2.27-9.27,5.63-18.65,10.39-28.08,1.17-2.42,2.46-4.78,3.83-7.18,41.49-72.58,130.52-42.92,131.45-42.59,2.38.82,4.65,2.45,6.85,4.22Z"/>
          <circle class="cls-21" cx="1684.89" cy="946.66" r="15.95"/>
        </g>
        <g>
          <g>
            <path class="cls-4" d="M1653.99,1706.46h529.86s-9.25,38.35-9.25,80.04,9.25,80.04,9.25,80.04h-529.86c-18.79,0-34.03-15.24-34.03-34.03v-91.97c0-18.83,15.24-34.07,34.03-34.07Z"/>
            <path class="cls-18" d="M2191,1684.69c6.02,0,10.88,4.9,10.88,10.88,0,3.01-1.2,5.73-3.19,7.69-1.96,2-4.68,3.19-7.69,3.19h-537.01c-18.79,0-34.03,15.24-34.03,34.07v91.97c0,18.79,15.24,34.03,34.03,34.03h537.01c6.02,0,10.88,4.86,10.88,10.88,0,3.01-1.2,5.7-3.19,7.69-1.96,1.96-4.68,3.19-7.69,3.19h-537.01c-30.84,0-55.8-25-55.8-55.8v-92.01c0-30.8,24.96-55.8,55.8-55.8h537.01Z"/>
          </g>
          <path class="cls-23" d="M1688.94,1737.44c31.38-1.4,62.75-2.34,94.13-2.82,31.38-.58,62.75-.73,94.13-.81,31.38.06,62.75.22,94.13.79,31.38.47,62.75,1.42,94.13,2.83-31.38,1.41-62.75,2.36-94.13,2.83-31.38.58-62.75.73-94.13.79-31.38-.07-62.75-.23-94.13-.81-31.38-.48-62.75-1.42-94.13-2.82Z"/>
          <path class="cls-23" d="M1669.32,1786.5c11.86-1.5,23.71-2.29,35.57-2.82,11.86-.58,23.71-.73,35.57-.81,11.86.06,23.71.22,35.57.79,11.86.53,23.71,1.32,35.57,2.83-11.86,1.51-23.71,2.3-35.57,2.83-11.86.58-23.71.73-35.57.79-11.86-.07-23.71-.23-35.57-.81-11.86-.53-23.71-1.32-35.57-2.82Z"/>
          <path class="cls-23" d="M1760.07,1836.78c11.86-1.5,23.71-2.29,35.57-2.82,11.86-.58,23.71-.73,35.57-.81,11.86.06,23.71.22,35.57.79,11.86.53,23.71,1.32,35.57,2.83-11.86,1.51-23.71,2.3-35.57,2.83-11.86.58-23.71.73-35.57.8-11.86-.07-23.71-.23-35.57-.81-11.86-.53-23.71-1.32-35.57-2.82Z"/>
          <path class="cls-23" d="M1834.93,1807.35c27.4-1.4,54.79-2.34,82.19-2.82,27.4-.58,54.79-.73,82.19-.81,27.4.06,54.79.22,82.19.79,27.4.47,54.79,1.42,82.19,2.83-27.4,1.41-54.79,2.36-82.19,2.83-27.4.58-54.79.73-82.19.79-27.4-.07-54.79-.23-82.19-.81-27.4-.48-54.79-1.42-82.19-2.82Z"/>
          <path class="cls-38" d="M1779.69,1883.38c-16.04-30.3-16.04-66.58,0-96.89h-90.76c-16.05,30.3-16.05,66.58,0,96.89,10.76-8.25,22.71-16.94,35.84-25.83,17.12,8.89,35.42,17.58,54.91,25.83Z"/>
        </g>
        <g>
          <g>
            <path class="cls-4" d="M1800.98,1488.76s15.64,36.32-.58,80.91l-61.57-3.37-154.42-8.42v-.04s4.68-17.6,4.68-38.2c0-18.94-4.68-38.24-4.68-38.24v-.04l152.2,5.19,64.36,2.21Z"/>
            <path class="cls-36" d="M1581.18,1557.7l3.23.18,154.42,8.42,61.57,3.37c16.22-44.59.58-80.91.58-80.91l-64.36-2.21-152.2-5.19-3.66-.11c-4.9-.18-8.74-4.17-8.74-9.07s4.06-9.03,9-9.03h.4l228.61,8.45s30.19,50.14,0,115.05l-229.7-10.81c-4.93-.25-8.78-4.43-8.64-9.4.18-4.9,4.24-8.74,9.11-8.74h.4Z"/>
            <polygon class="cls-36" points="1581.4 1463.14 2207.88 1455.24 2204.43 1455.38 1810.01 1471.6 1581.4 1463.14"/>
            <path class="cls-18" d="M1817.66,1471.28l386.77-15.9c19.27-.76,35.34,14.62,35.45,33.92l.25,48.18c.11,18.43-14.4,33.6-32.8,34.29l-397.32,14.88c30.19-64.91,0-115.05,0-115.05l7.65-.31Z"/>
          </g>
          <path class="cls-23" d="M1799.83,1519.87c-11.94.84-23.84.97-35.72.84-11.89-.08-23.75-.58-35.61-1.17-11.85-.72-23.7-1.53-35.52-2.77-11.83-1.19-23.64-2.64-35.41-4.8,11.94-.85,23.84-.98,35.72-.85,11.89.08,23.75.59,35.61,1.18,11.85.73,23.7,1.54,35.52,2.78,11.83,1.19,23.64,2.63,35.41,4.79Z"/>
          <path class="cls-23" d="M1673.67,1538.9c-13.22.85-26.34.36-39.44-.45-13.09-.95-26.16-2.23-39.14-4.86,13.22-.86,26.34-.37,39.44.45,13.09.96,26.16,2.24,39.14,4.86Z"/>
          <path class="cls-1" d="M1694.85,1590.94c-12.06-17.76-10.83-59.93,2.23-76.96,23.7.69,46.52,3.61,70.22,4.3-13.07,17.03-13.42,56.97-1.36,74.73-14.75-5.27-29.05-12.08-42.37-19.75-10.37,6.98-19.78,13.1-28.73,17.68Z"/>
        </g>
        <g>
          <g>
            <path class="cls-39" d="M1843.39,1582l11.2,1c-27.86,2.03-48.78,26.22-46.76,54.08l1.12,15.44c1.7,23.25,18.88,41.67,40.74,45.91l-179.99-14.18c-30-2.86-51.9-29.63-48.85-59.6l.85-8.3c3-29.57,29.15-51.21,58.76-48.61h.04s162.9,14.26,162.9,14.26Z"/>
            <polygon class="cls-39" points="2276.7 1572.77 1854.59 1583 1843.39 1582 1680.49 1567.74 1680.46 1567.74 1678.5 1567.57 2276.7 1572.77"/>
            <path class="cls-41" d="M2264.59,1589.79l-409.07,11.33c-9.23.77-17.57,5.37-23.23,12.87-4.88,6.53-6.89,14.78-6.28,22.95l1.06,14.24c1.21,16.6,15.17,29.83,31.79,30.07.94.01,1.92-.04,2.87-.1l.44-.03,403.09-9.74,10.02-.25c4.72-.11,8.58,3.75,8.51,8.47l-.02,1.49c-.06,4.46-3.64,8.08-8.1,8.19l-412.6,9.97c-4.58.33-9.07.05-13.38-.81-21.86-4.23-39.04-22.66-40.74-45.91l-1.12-15.44c-2.03-27.86,18.89-52.05,46.76-54.08l422.11-10.23c4.72-.11,8.58,3.72,8.51,8.47-.06,4.46-3.6,8.08-8.07,8.19l-12.56.36Z"/>
            <path class="cls-4" d="M2265.26,1671.37l-403.09,9.74-.44.03c-.94.06-1.92.12-2.87.1-16.62-.24-30.58-13.47-31.79-30.07l-1.06-14.24c-.61-8.17,1.4-16.42,6.28-22.95,5.66-7.5,14-12.1,23.23-12.87l409.07-11.33c-.16.72-5.3,25.07-5.52,40.71-.22,15.56,6.19,40.87,6.19,40.87Z"/>
          </g>
          <path class="cls-23" d="M1861.44,1624.74c11.8-1.99,23.63-3.26,35.48-4.28,11.84-1.07,23.7-1.71,35.56-2.27,11.87-.42,23.74-.76,35.62-.67,11.89.04,23.78.35,35.71,1.37-11.8,2-23.63,3.27-35.47,4.29-11.84,1.06-23.7,1.7-35.56,2.25-11.87.41-23.74.75-35.62.66-11.89-.05-23.78-.34-35.71-1.36Z"/>
          <path class="cls-23" d="M1959.07,1657.78c11.8-1.99,23.63-3.26,35.48-4.28,11.84-1.07,23.7-1.71,35.56-2.27,11.87-.42,23.74-.76,35.62-.67,11.89.04,23.78.35,35.71,1.37-11.8,2-23.63,3.27-35.47,4.29-11.84,1.06-23.7,1.7-35.56,2.25-11.87.41-23.74.75-35.62.66-11.89-.05-23.78-.34-35.71-1.36Z"/>
          <path class="cls-38" d="M1975.26,1719.34c16.36-21.97,17.33-76.29,1.62-98.72-30.25-.44-57.12,2.8-87.37,2.36,15.72,22.43,11.37,73.07-4.99,95.05,19.1-5.9,37.7-13.79,55.11-22.83,12.84,9.47,24.48,17.8,35.64,24.14Z"/>
          <path class="cls-23" d="M2063.58,1636.39c16.25-1.99,32.51-3.27,48.79-4.3,16.27-1.07,32.56-1.72,48.85-2.28,16.29-.43,32.59-.77,48.9-.68,16.31.04,32.62.34,48.96,1.35-16.25,2-32.51,3.28-48.79,4.31-16.27,1.07-32.56,1.72-48.85,2.27-16.29.42-32.59.76-48.9.67-16.31-.04-32.62-.33-48.96-1.34Z"/>
        </g>
        <g>
          <path class="cls-26" d="M1652.91,836.8c-21.28,8.52-32.68,44.11-34.23,89.75-1.54,45.63-27.49,105.57.98,121.03,28.47,15.46,76.24-21.51,113.11,10.94,36.87,32.45,90.57,35.43,90.57,35.43,0,0,33.51-26.56,20.32-102.49-13.18-75.93-63.37-49.44-85.8-80.88-22.43-31.44-33.03-102.55-104.96-73.77Z"/>
          <g>
            <path class="cls-1" d="M1665.05,983.07s74.41-15.61,72.05,8.73c-1.01,10.38-33.2,56.93-33.94,60.79-.49,2.83-1.15,5.71-1.73,8.56-.61,2.85-1.23,5.7-1.97,8.59-.72,2.89-1.39,5.75-2.19,8.64l-2.53,8.73c-.4,1.44-.88,2.92-1.4,4.4l-1.51,4.43-1.52,4.42-1.78,4.54-1.83,4.51c-.31.75-.6,1.49-.94,2.26l-1.1,2.34-2.21,4.65-1.12,2.31-.56,1.15-.95,1.74c-1.36,2.39-2.7,4.81-4.26,7.05-1.6,2.2-3.26,4.37-4.97,6.44-1.79,1.93-3.63,3.82-5.5,5.65-1.89,1.72-3.83,3.26-5.8,4.8-7.9,5.83-15.88,9.55-23.42,12.1-1.86.58-3.8,1.28-5.6,1.71l-5.46,1.36c-3.54.71-7.09,1.35-10.48,1.73-6.83.85-13.4,1.16-19.71,1.05-12.67-.14-14.26-59.22-5.82-61.36,4.24-1.03,8.16-2.34,11.69-3.69.85-.37,1.79-.66,2.55-1.06.79-.39,1.58-.75,2.37-1.09l2.08-1.15c.73-.35,1.2-.8,1.81-1.16,2.22-1.55,3.38-6.81,3.38-6.81l.76-2.72.39-1.35c.12-.47.22-1.01.33-1.51l.66-3.03.71-3,.6-3.24c.38-2.19.84-4.23,1.18-6.52.78-4.47,2.32-19.99,4.26-40.55,2.07-21.98,18.07-38.93,43.46-44.45h0Z"/>
            <g>
              <path class="cls-19" d="M1805.97,1159.94c1.28-16.6,11.54-48.88,12.4-74.54,1.79-53.41.45-104.92-85.26-105.38-.1-.03-.22-.05-.33-.06-5.68-.96-9.86-1.38-11.84-1.56-.84-.07-1.27-.1-1.27-.1-40.04-1.13-68.77,3.04-72.23,32.13-2.11,17.75-16.75,25.51-19.42,44.62-3.48,24.85,3.54,29.01,9.91,49.69,5.05,16.38-39.28,127.13-39.28,127.13l212.94,4.1s-8.64-36.5-5.6-76.04Z"/>
              <path class="cls-20" d="M1720.94,978.4c1.98.18,6.16.59,11.84,1.56-3.87-.74-7.82-1.26-11.84-1.56Z"/>
            </g>
            <path class="cls-5" d="M1730.93,931.84l-55.24,9.5,7.33,20.93.02.07,2.03,5.77,1.93,5.54.41,1.15,6.65.76-4.39,4.27s2.15,8.66,19.55,8.66,23.58-8.51,23.58-8.51l-1.85-48.13Z"/>
            <g>
              <path class="cls-5" d="M1732.7,914.93c1.22,25.95-13.06,47.38-37.96,54.81-19.06,5.69-33.78-2.3-56.03-50.4-10.91-23.58,18.83-47.98,44.79-49.2s47.98,18.83,49.2,44.79Z"/>
              <path class="cls-6" d="M1691.54,982.88s-1.23-1.02-1.89-3.07c-.72-2.24-3.91-8.54-3.91-8.54,0,0,29.83-3.51,36.78-23.44,0,0,5.31,24.55-30.97,35.06Z"/>
            </g>
          </g>
          <path class="cls-1" d="M1773.41,989.23c62.9-.75,43.19,149.34-3.13,169.29-57.06,24.58-91.48,16.23-91.48,16.23l-.44-34.35c.33-.15,67.63-10.78,69.26-32.07,3.56-46.64-31.03-115.1,25.79-119.09h0Z"/>
          <g>
            <path class="cls-40" d="M1609.71,1188.8l83.47-.06c-1.75,0-3.35.6-4.51,1.58-1.16.96-1.87,2.3-1.87,3.78,0,2.95,2.88,5.37,6.39,5.37l-171.65.11c-3.51,0-6.38-2.41-6.39-5.37,0-1.48.73-2.82,1.87-3.78,1.16-.98,2.74-1.58,4.51-1.58l88.18-.06Z"/>
            <path class="cls-37" d="M1786.76,1188.69c2.95,0,5.37,2.4,5.37,5.35,0,1.48-.59,2.82-1.57,3.8-.98.96-2.32,1.58-3.79,1.58l-94.66.06c-2.95,0-5.37-2.41-5.37-5.37,0-1.48.59-2.82,1.57-3.78.98-.98,2.32-1.58,3.79-1.58l92.67-.06h1.99Z"/>
            <path class="cls-40" d="M1697.76,1185.94c-1.45,1.77-3.58,2.8-5.87,2.81h-6.77c2.29,0,4.42-1.03,5.87-2.8,1.45-1.79,2-4.08,1.52-6.33l-22.49-107.16c-.75-3.49-3.87-6.02-7.44-6.02h6.77c3.56,0,6.69,2.53,7.44,6.01l22.49,107.16c.48,2.25-.07,4.54-1.52,6.33Z"/>
            <path class="cls-16" d="M1691,1185.94c-1.45,1.77-3.58,2.8-5.87,2.81l-162.9.11c-3.56,0-6.69-2.53-7.44-6.02l-22.49-107.16c-.46-2.25.09-4.54,1.54-6.33,1.43-1.77,3.58-2.8,5.87-2.81l162.88-.11c3.56,0,6.69,2.53,7.44,6.02l22.49,107.16c.48,2.25-.07,4.54-1.52,6.33Z"/>
            <path class="cls-29" d="M1601.25,1127.64c0,4.88-3.95,8.84-8.83,8.84-4.88,0-8.84-3.95-8.84-8.83,0-4.88,3.95-8.84,8.83-8.84,4.88,0,8.84,3.95,8.84,8.83Z"/>
          </g>
          <path class="cls-26" d="M1733.47,903.88s-58.61,19.5-90.05-11.94c0,0,19.99,22.7,33.82,20.28,0,0-19.61,6.08-33.82-16.23,0,0-3.94,20.52-14.14,24.71,0,0-9.32-57.16,39.93-64.26,49.25-7.1,61.88,24.88,64.27,47.43Z"/>
          <g>
            <path class="cls-5" d="M1391.29,1382.4s-14.46,15.62-20.16,12.47l59.17,38.93,12.61-17.44-51.63-33.96Z"/>
            <path class="cls-17" d="M1350.15,1387.59l16.62,5.77c3.49,1.21,7.3,1.04,10.66-.48l7.93-4.77,16.5,26.65,35.55,9.21-3.5,4.84-18.71-5.27,15.45,10.16c2.58,1.7,3.3,5.17,1.6,7.75l-4.68,7.11c-1.81,2.75-5.5,3.51-8.25,1.7l-17.68-11.63v-9.41s-12.71,1.05-12.71,1.05l-55.61-36.58c-1.09-.72-1.17-2.3-.15-3.12h0c4.77-3.86,11.19-4.98,16.98-2.97Z"/>
          </g>
          <g>
            <path class="cls-5" d="M1509.49,1479.11s-3.5,20.99-9.99,21.5h70.83l.95-21.5h-61.8Z"/>
            <path class="cls-17" d="M1477.98,1506.05l17.06-4.32c3.58-.91,6.67-3.15,8.64-6.26l4-8.34,28.43,13.19,34.76-11.85-.26,5.97-18.53,5.88h18.49c3.09,0,5.59,2.5,5.59,5.59v8.51c0,3.29-2.67,5.96-5.96,5.96h-21.17l-5.18-7.86-10.03,7.86h-66.56c-1.31,0-2.24-1.27-1.84-2.52h0c1.86-5.84,6.61-10.31,12.56-11.81Z"/>
          </g>
          <path class="cls-17" d="M1539.08,1316.73l-34.48,162.38h69.98l56.69-171.59s-20.32-9.27-49-21.44c-28.68-12.17-35.9,12.62-43.19,30.65Z"/>
          <path class="cls-18" d="M1810.15,1273.21h-.01c-8.36,48.3-32.44,60.11-96.19,52.74-79.92-9.24-124.27-37.04-124.27-37.04l-138.76,128.05-59.34-42.04s35.87-45.62,82.74-101.97c49.6-59.62,60.21-92.89,153.75-70.48,57.73,13.83,102.13,14.62,143.94,24.16h.02c24.12,5.5,39.56,9.35,39.56,9.35,1.14,12.36.69,25-1.42,37.23Z"/>
          <path class="cls-17" d="M1810.15,1273.21h-.01c-49.49,3.15-38.13-46.58-38.13-46.58h.02c24.12,5.5,39.56,9.35,39.56,9.35,1.14,12.36.69,25-1.42,37.23Z"/>
          <path class="cls-17" d="M1396.2,1368.43l61.46,44.23c2.9,2.09,3.56,6.16,1.48,9.06h0c-2.09,2.9-6.16,3.56-9.06,1.48l-61.46-44.23c-2.9-2.08-3.56-6.16-1.48-9.06h0c2.09-2.9,6.16-3.56,9.06-1.48Z"/>
          <rect class="cls-17" x="1496.4" y="1466.13" width="88.7" height="12.98" rx="6.49" ry="6.49" transform="translate(3081.51 2945.24) rotate(180)"/>
        </g>
        <g>
          <rect class="cls-6" x="1589.6" y="1312.22" width="680.67" height="158.21"/>
          <rect class="cls-34" x="1656.74" y="1312.22" width="40.28" height="158.21"/>
          <rect class="cls-34" x="2162.84" y="1312.22" width="40.28" height="158.21" transform="translate(4365.96 2782.65) rotate(180)"/>
          <path class="cls-13" d="M1589.6,1378.45s-51.51,24.84-59.79,91.98l22.08-18.4,7.82,18.4s5.06-57.03,29.89-79.1v-12.88Z"/>
        </g>
        <g>
          <g>
            <path class="cls-12" d="M507.18,1387.27h-34.28c0,22.99-16.38,42.16-38.12,46.46-2.99.61-6.08.91-9.25.91l-1.44-.05-11.67,384.92-.24,7.92h93.48l.94-7.9,33.4-280.66,18.05-151.61h-50.86Z"/>
            <path class="cls-31" d="M558.03,1387.27h34.28c0,21.97,13.86,40.45,38.43,45.81,4.68,1.02,9.75,1.56,15.19,1.56l50.75,384.87,1.05,7.92h-95.27l-1.72-7.92-60.76-280.64,18.05-151.61Z"/>
            <g>
              <path class="cls-30" d="M536.43,1864.89s-12.61,6.14-8.39,19.24h27.81c-.61-5.17-3.59-9.79-8.13-12.47-4.42-2.61-8.07-4.79-11.29-6.76Z"/>
              <path class="cls-30" d="M412.17,1846.86v19.62c25.48-.32,22.69-22.93,22.69-22.93-10.2-.65-16.29-1.52-17.37-1.69-.12-.02-.18-.03-.18-.03h-.11c-2.78,0-5.03,2.25-5.03,5.03Z"/>
              <path class="cls-1" d="M506.49,1846.08c-2.07-1.31-4.3-2.72-6.75-4.25,0,0-2.43.33-6.76.77-7.19.71-19.6,1.66-34.6,1.66-1.26,0-2.51,0-3.71-.03-7.7-.06-14.36-.33-19.83-.68,0,0,2.8,22.61-22.69,22.93v17.66h115.87c-4.22-13.1,8.39-19.24,8.39-19.24-6.76-4.1-11.78-7.28-18.6-11.61-3.24-2.07-6.88-4.39-11.33-7.2Z"/>
              <path class="cls-2" d="M412.17,1884.13v.64c0,3.51,2.84,6.37,6.35,6.37h132.45c1.38,0,2.63-.56,3.54-1.47.9-.91,1.46-2.16,1.46-3.54,0-.67-.05-1.34-.12-1.99h-143.68Z"/>
              <path class="cls-5" d="M417.3,1827.44v14.39s.06,0,.18.03c1.96.21,19.68,2.13,37.2,2.37,1.2.03,2.45.03,3.71.03,15,0,27.41-.94,34.6-1.66,4.16-.44,6.49-.77,6.49-.77v-14.39h-82.17Z"/>
              <g>
                <path class="cls-30" d="M495.11,1858.51c-.19,0-.38-.07-.53-.22-.3-.29-.31-.77-.01-1.07l11.38-11.67c.3-.3.78-.31,1.07-.01.3.29.31.77.01,1.07l-11.38,11.67c-.15.15-.35.23-.54.23Z"/>
                <path class="cls-30" d="M500.79,1862.38c-.19,0-.38-.07-.53-.22-.3-.29-.31-.77-.01-1.07l11.4-11.67c.29-.3.77-.31,1.07-.01.3.29.31.77.01,1.07l-11.4,11.67c-.15.15-.35.23-.54.23Z"/>
                <path class="cls-30" d="M506.49,1865.65c-.19,0-.38-.07-.53-.22-.3-.29-.31-.77-.01-1.07l11.33-11.61c.25-.34.72-.4,1.05-.14.34.25.39.73.14,1.07l-.05.06-11.4,11.68c-.15.15-.35.23-.54.23Z"/>
              </g>
            </g>
            <g>
              <path class="cls-30" d="M728.7,1864.89s-12.61,6.14-8.39,19.24h27.81c-.61-5.17-3.59-9.79-8.13-12.47-4.42-2.61-8.07-4.79-11.29-6.76Z"/>
              <path class="cls-30" d="M604.44,1846.86v19.62c25.48-.32,22.69-22.93,22.69-22.93-10.2-.65-16.29-1.52-17.37-1.69-.12-.02-.18-.03-.18-.03h-.11c-2.78,0-5.03,2.25-5.03,5.03Z"/>
              <path class="cls-1" d="M698.77,1846.08c-2.07-1.31-4.3-2.72-6.75-4.25,0,0-2.43.33-6.76.77-7.19.71-19.6,1.66-34.6,1.66-1.26,0-2.51,0-3.71-.03-7.7-.06-14.36-.33-19.83-.68,0,0,2.8,22.61-22.69,22.93v17.66h115.87c-4.22-13.1,8.39-19.24,8.39-19.24-6.76-4.1-11.78-7.28-18.6-11.61-3.24-2.07-6.88-4.39-11.33-7.2Z"/>
              <path class="cls-2" d="M604.44,1884.13v.64c0,3.51,2.84,6.37,6.35,6.37h132.45c1.38,0,2.63-.56,3.54-1.47.9-.91,1.46-2.16,1.46-3.54,0-.67-.05-1.34-.12-1.99h-143.68Z"/>
              <path class="cls-5" d="M609.57,1827.44v14.39s.06,0,.18.03c1.96.21,19.68,2.13,37.2,2.37,1.2.03,2.45.03,3.71.03,15,0,27.41-.94,34.6-1.66,4.16-.44,6.49-.77,6.49-.77v-14.39h-82.17Z"/>
              <g>
                <path class="cls-30" d="M687.38,1858.51c-.19,0-.38-.07-.53-.22-.3-.29-.31-.77-.01-1.07l11.38-11.67c.3-.3.78-.31,1.07-.01.3.29.31.77.01,1.07l-11.38,11.67c-.15.15-.35.23-.54.23Z"/>
                <path class="cls-30" d="M693.07,1862.38c-.19,0-.38-.07-.53-.22-.3-.29-.31-.77-.01-1.07l11.4-11.67c.29-.3.77-.31,1.07-.01.3.29.31.77.01,1.07l-11.4,11.67c-.15.15-.35.23-.54.23Z"/>
                <path class="cls-30" d="M698.77,1865.65c-.19,0-.38-.07-.53-.22-.3-.29-.31-.77-.01-1.07l11.33-11.61c.25-.34.72-.4,1.05-.14.34.25.39.73.14,1.07l-.05.06-11.4,11.68c-.15.15-.35.23-.54.23Z"/>
              </g>
            </g>
            <g>
              <polygon class="cls-22" points="558.03 1387.27 552.2 1595.34 539.98 1538.88 558.03 1387.27"/>
              <path class="cls-22" d="M425.52,1387.27l-1.44,47.33,1.44.05c3.18,0,6.26-.3,9.25-.91,21.74-4.3,38.12-23.48,38.12-46.46h-47.38Z"/>
              <path class="cls-22" d="M639.69,1387.27h-47.38c0,21.97,13.86,40.45,38.43,45.81,4.68,1.02,9.75,1.56,15.19,1.56l-6.24-47.38Z"/>
              <g>
                <path class="cls-28" d="M424.08,1435.36c3,0,7.64-.23,10.85-.88,22.44-4.44,38.73-24.29,38.73-47.21,0-.42-.34-.76-.76-.76s-.76.34-.76.76c0,22.19-15.78,41.42-37.51,45.72-2.9.59-7.39.85-10.55.85-.42,0-.76.34-.76.76s.34.76.76.76Z"/>
                <g>
                  <path class="cls-28" d="M631.06,1436.1s.07,0,.11,0c.41-.06.7-.45.64-.86l-.33-2.26c-.06-.42-.44-.71-.86-.64-.41.06-.7.45-.64.86l.33,2.26c.05.38.38.65.75.65Z"/>
                  <path class="cls-28" d="M686.07,1820.81l-.65-4.48c-.06-.42.23-.8.64-.86.42-.06.8.23.86.64l.65,4.48c.06.42-.23.8-.64.86-.04,0-.07,0-.11,0-.37,0-.7-.27-.75-.65ZM684.78,1811.85l-.65-4.48c-.06-.42.23-.8.64-.86.42-.04.8.23.86.64l.65,4.48c.06.42-.23.8-.64.86-.04,0-.07,0-.11,0-.37,0-.7-.27-.75-.65ZM683.48,1802.88l-.65-4.48c-.06-.42.23-.8.64-.86.42-.05.8.23.86.64l.65,4.48c.06.42-.23.8-.64.86-.04,0-.07,0-.11,0-.37,0-.7-.27-.75-.65ZM682.18,1793.92l-.65-4.48c-.06-.42.23-.8.64-.86.41-.05.8.23.86.64l.65,4.48c.06.42-.23.8-.64.86-.04,0-.07,0-.11,0-.37,0-.7-.27-.75-.65ZM680.89,1784.96l-.65-4.48c-.06-.42.23-.8.64-.86.42-.05.8.23.86.64l.65,4.48c.06.42-.23.8-.64.86-.04,0-.07,0-.11,0-.37,0-.7-.27-.75-.65ZM679.59,1776l-.65-4.48c-.06-.42.23-.8.64-.86.42-.05.8.23.86.64l.65,4.48c.06.42-.23.8-.64.86-.04,0-.07,0-.11,0-.37,0-.7-.27-.75-.65ZM678.29,1767.04l-.65-4.48c-.06-.42.23-.8.64-.86.42-.05.8.23.86.64l.65,4.48c.06.42-.23.8-.64.86-.04,0-.07,0-.11,0-.37,0-.7-.27-.75-.65ZM677,1758.08l-.65-4.48c-.06-.42.23-.8.64-.86.42-.06.8.23.86.64l.65,4.48c.06.42-.23.8-.64.86-.04,0-.07,0-.11,0-.37,0-.7-.27-.75-.65ZM675.7,1749.11l-.65-4.48c-.06-.42.23-.8.64-.86.42-.05.8.23.86.64l.65,4.48c.06.42-.23.8-.64.86-.04,0-.07,0-.11,0-.37,0-.7-.27-.75-.65ZM674.4,1740.15l-.65-4.48c-.06-.42.23-.8.64-.86.42-.05.8.23.86.64l.65,4.48c.06.42-.23.8-.64.86-.04,0-.07,0-.11,0-.37,0-.7-.27-.75-.65ZM673.11,1731.19l-.65-4.48c-.06-.42.23-.8.64-.86.42-.07.8.23.86.64l.65,4.48c.06.42-.23.8-.64.86-.04,0-.07,0-.11,0-.37,0-.7-.27-.75-.65ZM671.81,1722.23l-.65-4.48c-.06-.42.23-.8.64-.86.42-.07.8.23.86.64l.65,4.48c.06.42-.23.8-.64.86-.04,0-.07,0-.11,0-.37,0-.7-.27-.75-.65ZM670.51,1713.27l-.65-4.48c-.06-.42.23-.8.64-.86.42-.07.8.23.86.64l.65,4.48c.06.42-.23.8-.64.86-.04,0-.07,0-.11,0-.37,0-.7-.27-.75-.65ZM669.21,1704.31l-.65-4.48c-.06-.42.23-.8.64-.86.42-.07.8.23.86.64l.65,4.48c.06.42-.23.8-.64.86-.04,0-.07,0-.11,0-.37,0-.7-.27-.75-.65ZM667.92,1695.34l-.65-4.48c-.06-.42.23-.8.64-.86.42-.07.8.23.86.64l.65,4.48c.06.42-.23.8-.64.86-.04,0-.07,0-.11,0-.37,0-.7-.27-.75-.65ZM666.62,1686.38l-.65-4.48c-.06-.41.23-.8.64-.86.42-.06.8.23.86.64l.65,4.48c.06.41-.23.8-.64.86-.04,0-.07,0-.11,0-.37,0-.7-.27-.75-.65ZM665.32,1677.42l-.65-4.48c-.06-.42.23-.8.64-.86.42-.07.8.23.86.64l.65,4.48c.06.42-.23.8-.64.86-.04,0-.07,0-.11,0-.37,0-.7-.27-.75-.65ZM664.03,1668.46l-.65-4.48c-.06-.42.23-.8.64-.86.42-.06.8.23.86.64l.65,4.48c.06.42-.23.8-.64.86-.04,0-.07,0-.11,0-.37,0-.7-.27-.75-.65ZM662.73,1659.5l-.65-4.48c-.06-.42.23-.8.64-.86.42-.07.8.23.86.64l.65,4.48c.06.42-.23.8-.64.86-.04,0-.07,0-.11,0-.37,0-.7-.27-.75-.65ZM661.43,1650.53l-.65-4.48c-.06-.42.23-.8.64-.86.42-.07.8.23.86.64l.65,4.48c.06.42-.23.8-.64.86-.04,0-.07,0-.11,0-.37,0-.7-.27-.75-.65ZM660.14,1641.57l-.65-4.48c-.06-.42.23-.8.64-.86.42-.07.8.23.86.64l.65,4.48c.06.42-.23.8-.64.86-.04,0-.07,0-.11,0-.37,0-.7-.27-.75-.65ZM658.84,1632.61l-.65-4.48c-.06-.42.23-.8.64-.86.41-.06.8.23.86.64l.65,4.48c.06.41-.23.8-.64.86-.04,0-.07,0-.11,0-.37,0-.7-.27-.75-.65ZM657.54,1623.65l-.65-4.48c-.06-.42.23-.8.64-.86.42-.07.8.23.86.64l.65,4.48c.06.42-.23.8-.64.86-.04,0-.07,0-.11,0-.37,0-.7-.27-.75-.65ZM656.25,1614.69l-.65-4.48c-.06-.42.23-.8.64-.86.42-.07.8.23.86.64l.65,4.48c.06.42-.23.8-.64.86-.04,0-.07,0-.11,0-.37,0-.7-.27-.75-.65ZM654.95,1605.72l-.65-4.48c-.06-.42.23-.8.64-.86.42-.07.8.23.86.64l.65,4.48c.06.42-.23.8-.64.86-.04,0-.07,0-.11,0-.37,0-.7-.27-.75-.65ZM653.65,1596.76l-.65-4.48c-.06-.42.23-.8.64-.86.42-.07.8.23.86.64l.65,4.48c.06.42-.23.8-.64.86-.04,0-.07,0-.11,0-.37,0-.7-.27-.75-.65ZM652.36,1587.8l-.65-4.48c-.06-.42.23-.8.64-.86.43-.07.8.23.86.64l.65,4.48c.06.42-.23.8-.64.86-.04,0-.07,0-.11,0-.37,0-.7-.27-.75-.65ZM651.06,1578.84l-.65-4.48c-.06-.42.23-.8.64-.86.42-.07.8.23.86.64l.65,4.48c.06.41-.23.8-.64.86-.04,0-.07,0-.11,0-.37,0-.7-.27-.75-.65ZM649.76,1569.88l-.65-4.48c-.06-.42.23-.8.64-.86.42-.07.8.23.86.64l.65,4.48c.06.42-.23.8-.64.86-.04,0-.07,0-.11,0-.37,0-.7-.27-.75-.65ZM648.47,1560.91l-.65-4.48c-.06-.42.23-.8.64-.86.42-.06.8.23.86.64l.65,4.48c.06.42-.23.8-.64.86-.04,0-.07,0-.11,0-.37,0-.7-.27-.75-.65ZM647.17,1551.95l-.65-4.48c-.06-.42.23-.8.64-.86.42-.07.8.23.86.64l.65,4.48c.06.42-.23.8-.64.86-.04,0-.07,0-.11,0-.37,0-.7-.27-.75-.65ZM645.87,1542.99l-.65-4.48c-.06-.42.23-.8.64-.86.42-.06.8.23.86.64l.65,4.48c.06.42-.23.8-.64.86-.04,0-.07,0-.11,0-.37,0-.7-.27-.75-.65ZM644.58,1534.03l-.65-4.48c-.06-.42.23-.8.64-.86.42-.07.8.23.86.64l.65,4.48c.06.42-.23.8-.64.86-.04,0-.07,0-.11,0-.37,0-.7-.27-.75-.65ZM643.28,1525.07l-.65-4.48c-.06-.41.23-.8.64-.86.41-.06.8.23.86.64l.65,4.48c.06.42-.23.8-.64.86-.04,0-.07,0-.11,0-.37,0-.7-.27-.75-.65ZM641.98,1516.1l-.65-4.48c-.06-.42.23-.8.64-.86.42-.07.8.23.86.64l.65,4.48c.06.42-.23.8-.64.86-.04,0-.07,0-.11,0-.37,0-.7-.27-.75-.65ZM640.69,1507.14l-.65-4.48c-.06-.42.23-.8.64-.86.42-.07.8.23.86.64l.65,4.48c.06.42-.23.8-.64.86-.04,0-.07,0-.11,0-.37,0-.7-.27-.75-.65ZM639.39,1498.18l-.65-4.48c-.06-.42.23-.8.64-.86.42-.07.8.23.86.64l.65,4.48c.06.42-.23.8-.64.86-.04,0-.07,0-.11,0-.37,0-.7-.27-.75-.65ZM638.09,1489.22l-.65-4.48c-.06-.42.23-.8.64-.86.42-.07.8.23.86.64l.65,4.48c.06.42-.23.8-.64.86-.04,0-.07,0-.11,0-.37,0-.7-.27-.75-.65ZM636.8,1480.26l-.65-4.48c-.06-.42.23-.8.64-.86.42-.07.8.23.86.64l.65,4.48c.06.42-.23.8-.64.86-.04,0-.07,0-.11,0-.37,0-.7-.27-.75-.65ZM635.5,1471.29l-.65-4.48c-.06-.41.23-.8.64-.86.41-.06.8.23.86.64l.65,4.48c.06.42-.23.8-.64.86-.04,0-.07,0-.11,0-.37,0-.7-.27-.75-.65ZM634.2,1462.33l-.65-4.48c-.06-.42.23-.8.64-.86.42-.06.8.23.86.64l.65,4.48c.06.42-.23.8-.64.86-.04,0-.07,0-.11,0-.37,0-.7-.27-.75-.65ZM632.91,1453.37l-.65-4.48c-.06-.42.23-.8.64-.86.42-.07.8.23.86.64l.65,4.48c.06.42-.23.8-.64.86-.04,0-.07,0-.11,0-.37,0-.7-.27-.75-.65ZM631.61,1444.41l-.65-4.48c-.06-.42.23-.8.64-.86.42-.08.8.23.86.64l.65,4.48c.06.42-.23.8-.64.86-.04,0-.07,0-.11,0-.37,0-.7-.27-.75-.65Z"/>
                  <path class="cls-28" d="M687.79,1828.2s.07,0,.11,0c.42-.06.7-.45.64-.86l-.32-2.26c-.06-.41-.44-.69-.86-.64-.42.06-.7.45-.64.86l.32,2.26c.05.38.38.65.75.65Z"/>
                </g>
                <path class="cls-28" d="M599.98,1819.52c0-.42.34-.76.76-.76h4.56c.42,0,.76.34.76.76s-.34.76-.76.76h-4.56c-.42,0-.76-.34-.76-.76ZM609.1,1819.52c0-.42.34-.76.76-.76h4.56c.42,0,.76.34.76.76s-.34.76-.76.76h-4.56c-.42,0-.76-.34-.76-.76ZM618.22,1819.52c0-.42.34-.76.76-.76h4.56c.42,0,.76.34.76.76s-.34.76-.76.76h-4.56c-.42,0-.76-.34-.76-.76ZM627.33,1819.52c0-.42.34-.76.76-.76h4.56c.42,0,.76.34.76.76s-.34.76-.76.76h-4.56c-.42,0-.76-.34-.76-.76ZM636.45,1819.52c0-.42.34-.76.76-.76h4.56c.42,0,.76.34.76.76s-.34.76-.76.76h-4.56c-.42,0-.76-.34-.76-.76ZM645.57,1819.52c0-.42.34-.76.76-.76h4.56c.42,0,.76.34.76.76s-.34.76-.76.76h-4.56c-.42,0-.76-.34-.76-.76ZM654.68,1819.52c0-.42.34-.76.76-.76h4.56c.42,0,.76.34.76.76s-.34.76-.76.76h-4.56c-.42,0-.76-.34-.76-.76ZM663.8,1819.52c0-.42.34-.76.76-.76h4.56c.42,0,.76.34.76.76s-.34.76-.76.76h-4.56c-.42,0-.76-.34-.76-.76ZM672.92,1819.52c0-.42.34-.76.76-.76h4.56c.42,0,.76.34.76.76s-.34.76-.76.76h-4.56c-.42,0-.76-.34-.76-.76ZM682.03,1819.52c0-.42.34-.76.76-.76h4.56c.42,0,.76.34.76.76s-.34.76-.76.76h-4.56c-.42,0-.76-.34-.76-.76ZM691.15,1819.52c0-.42.34-.76.76-.76h4.56c.42,0,.76.34.76.76s-.34.76-.76.76h-4.56c-.42,0-.76-.34-.76-.76Z"/>
                <path class="cls-28" d="M423.52,1828.2c-.42-.01-.75-.36-.74-.78l.05-1.85c.01-.42.38-.73.78-.74.42.01.75.36.74.78l-.05,1.85c-.01.41-.35.74-.76.74h-.02ZM423.71,1821.8c-.42-.01-.75-.36-.74-.78l.13-4.56c.01-.42.37-.74.78-.74.42.01.75.36.74.78l-.13,4.56c-.01.41-.35.74-.76.74h-.02ZM423.97,1812.68c-.42-.01-.75-.36-.74-.78l.13-4.56c.01-.42.36-.72.78-.74.42.01.75.36.74.78l-.13,4.56c-.01.41-.35.74-.76.74h-.02ZM424.23,1803.57c-.42-.01-.75-.36-.74-.78l.13-4.56c.01-.42.35-.74.78-.74.42.01.75.36.74.78l-.13,4.56c-.01.41-.35.74-.76.74h-.02ZM424.49,1794.46c-.42-.01-.75-.36-.74-.78l.13-4.56c.01-.42.34-.72.78-.74.42.01.75.36.74.78l-.13,4.56c-.01.41-.35.74-.76.74h-.02ZM424.75,1785.34c-.42-.01-.75-.36-.74-.78l.13-4.56c.01-.42.38-.74.78-.74.42.01.75.36.74.78l-.13,4.56c-.01.41-.35.74-.76.74h-.02ZM425.01,1776.23c-.42-.01-.75-.36-.74-.78l.13-4.56c.01-.42.37-.75.78-.74.42.01.75.36.74.78l-.13,4.56c-.01.41-.35.74-.76.74h-.02ZM425.27,1767.12c-.42-.01-.75-.36-.74-.78l.13-4.56c.01-.42.36-.73.78-.74.42.01.75.36.74.78l-.13,4.56c-.01.41-.35.74-.76.74h-.02ZM425.53,1758c-.42-.01-.75-.36-.74-.78l.13-4.56c.01-.42.35-.75.78-.74.42.01.75.36.74.78l-.13,4.56c-.01.41-.35.74-.76.74h-.02ZM425.79,1748.89c-.42-.01-.75-.36-.74-.78l.13-4.56c.01-.42.38-.73.78-.74.42.01.75.36.74.78l-.13,4.56c-.01.41-.35.74-.76.74h-.02ZM426.05,1739.78c-.42-.01-.75-.36-.74-.78l.13-4.56c.01-.42.37-.74.78-.74.42.01.75.36.74.78l-.13,4.56c-.01.41-.35.74-.76.74h-.02ZM426.31,1730.67c-.42-.01-.75-.36-.74-.78l.13-4.56c.01-.42.33-.75.78-.74.42.01.75.36.74.78l-.13,4.56c-.01.41-.35.74-.76.74h-.02ZM426.57,1721.55c-.42-.01-.75-.36-.74-.78l.13-4.56c.01-.42.35-.74.78-.74.42.01.75.36.74.78l-.13,4.56c-.01.41-.35.74-.76.74h-.02ZM426.83,1712.44c-.42-.01-.75-.36-.74-.78l.13-4.56c.01-.42.38-.72.78-.74.42.01.75.36.74.78l-.13,4.56c-.01.41-.35.74-.76.74h-.02ZM427.09,1703.33c-.42-.01-.75-.36-.74-.78l.13-4.56c.01-.42.37-.73.78-.74.42.01.75.36.74.78l-.13,4.56c-.01.41-.35.74-.76.74h-.02ZM427.35,1694.21c-.42-.01-.75-.36-.74-.78l.13-4.56c.01-.42.36-.75.78-.74.42.01.75.36.74.78l-.13,4.56c-.01.41-.35.74-.76.74h-.02ZM427.61,1685.1c-.42-.01-.75-.36-.74-.78l.13-4.56c.01-.42.35-.73.78-.74.42.01.75.36.74.78l-.13,4.56c-.01.41-.35.74-.76.74h-.02ZM427.87,1675.99c-.42-.01-.75-.36-.74-.78l.13-4.56c.01-.42.34-.75.78-.74.42.01.75.36.74.78l-.13,4.56c-.01.41-.35.74-.76.74h-.02ZM428.13,1666.88c-.42-.01-.75-.36-.74-.78l.13-4.56c.01-.42.38-.72.78-.74.42.01.75.36.74.78l-.13,4.56c-.01.41-.35.74-.76.74h-.02ZM428.39,1657.76c-.42-.01-.75-.36-.74-.78l.13-4.56c.01-.42.36-.74.78-.74.42.01.75.36.74.78l-.13,4.56c-.01.41-.35.74-.76.74h-.02ZM428.65,1648.65c-.42-.01-.75-.36-.74-.78l.13-4.56c.01-.42.36-.72.78-.74.42.01.75.36.74.78l-.13,4.56c-.01.41-.35.74-.76.74h-.02ZM428.91,1639.54c-.42-.01-.75-.36-.74-.78l.13-4.56c.01-.42.34-.77.78-.74.42.01.75.36.74.78l-.13,4.56c-.01.41-.35.74-.76.74h-.02ZM429.17,1630.42c-.42-.01-.75-.36-.74-.78l.13-4.56c.01-.42.38-.76.78-.74.42.01.75.36.74.78l-.13,4.56c-.01.41-.35.74-.76.74h-.02ZM429.43,1621.31c-.42-.01-.75-.36-.74-.78l.13-4.56c.01-.42.37-.73.78-.74.42.01.75.36.74.78l-.13,4.56c-.01.41-.35.74-.76.74h-.02ZM429.69,1612.2c-.42-.01-.75-.36-.74-.78l.13-4.56c.01-.42.36-.75.78-.74.42.01.75.36.74.78l-.13,4.56c-.01.41-.35.74-.76.74h-.02ZM429.95,1603.09c-.42-.01-.75-.36-.74-.78l.13-4.56c.01-.42.32-.73.78-.74.42.01.75.36.74.78l-.13,4.56c-.01.41-.35.74-.76.74h-.02ZM430.21,1593.97c-.42-.01-.75-.36-.74-.78l.13-4.56c.01-.42.38-.75.78-.74.42.01.75.36.74.78l-.13,4.56c-.01.41-.35.74-.76.74h-.02ZM430.47,1584.86c-.42-.01-.75-.36-.74-.78l.13-4.56c.01-.42.37-.72.78-.74.42.01.75.36.74.78l-.13,4.56c-.01.41-.35.74-.76.74h-.02ZM430.73,1575.75c-.42-.01-.75-.36-.74-.78l.13-4.56c.01-.42.36-.74.78-.74.42.01.75.36.74.78l-.13,4.56c-.01.41-.35.74-.76.74h-.02ZM430.99,1566.63c-.42-.01-.75-.36-.74-.78l.13-4.56c.01-.42.35-.72.78-.74.42.01.75.36.74.78l-.13,4.56c-.01.41-.35.74-.76.74h-.02ZM431.25,1557.52c-.42-.01-.75-.36-.74-.78l.13-4.56c.01-.42.38-.74.78-.74.42.01.75.36.74.78l-.13,4.56c-.01.41-.35.74-.76.74h-.02ZM431.51,1548.41c-.42-.01-.75-.36-.74-.78l.13-4.56c.01-.42.37-.76.78-.74.42.01.75.36.74.78l-.13,4.56c-.01.41-.35.74-.76.74h-.02ZM431.77,1539.29c-.42-.01-.75-.36-.74-.78l.13-4.56c.01-.42.36-.73.78-.74.42.01.75.36.74.78l-.13,4.56c-.01.41-.35.74-.76.74h-.02ZM432.03,1530.18c-.42-.01-.75-.36-.74-.78l.13-4.56c.01-.42.35-.75.78-.74.42.01.75.36.74.78l-.13,4.56c-.01.41-.35.74-.76.74h-.02ZM432.28,1521.07c-.42-.01-.75-.36-.74-.78l.13-4.56c.01-.42.34-.73.78-.74.42.01.75.36.74.78l-.13,4.56c-.01.41-.35.74-.76.74h-.02ZM432.55,1511.96c-.42-.01-.75-.36-.74-.78l.13-4.56c.01-.42.38-.75.78-.74.42.01.75.36.74.78l-.13,4.56c-.01.41-.35.74-.76.74h-.02ZM432.8,1502.84c-.42-.01-.75-.36-.74-.78l.13-4.56c.01-.42.37-.72.78-.74.42.01.75.36.74.78l-.13,4.56c-.01.41-.35.74-.76.74h-.02ZM433.06,1493.73c-.42-.01-.75-.36-.74-.78l.13-4.56c.01-.42.36-.74.78-.74.42.01.75.36.74.78l-.13,4.56c-.01.41-.35.74-.76.74h-.02ZM433.33,1484.62c-.42-.01-.75-.36-.74-.78l.13-4.56c.01-.42.35-.72.78-.74.42.01.75.36.74.78l-.13,4.56c-.01.41-.35.74-.76.74h-.02ZM433.58,1475.5c-.42-.01-.75-.36-.74-.78l.13-4.56c.01-.42.38-.74.78-.74.42.01.75.36.74.78l-.13,4.56c-.01.41-.35.74-.76.74h-.02ZM433.84,1466.39c-.42-.01-.75-.36-.74-.78l.13-4.56c.01-.42.37-.75.78-.74.42.01.75.36.74.78l-.13,4.56c-.01.41-.35.74-.76.74h-.02ZM434.1,1457.28c-.42-.01-.75-.36-.74-.78l.13-4.56c.01-.42.36-.73.78-.74.42.01.75.36.74.78l-.13,4.56c-.01.41-.35.74-.76.74h-.02ZM434.36,1448.17c-.42-.01-.75-.36-.74-.78l.13-4.56c.01-.42.35-.75.78-.74.42.01.75.36.74.78l-.13,4.56c-.01.41-.35.74-.76.74h-.02ZM434.62,1439.05c-.42-.01-.75-.36-.74-.78l.13-4.56c.01-.42.38-.73.78-.74.42.01.75.36.74.78l-.13,4.56c-.01.41-.35.74-.76.74h-.02Z"/>
                <path class="cls-28" d="M411.65,1819.52c0-.42.34-.76.76-.76h2.92c.42,0,.76.34.76.76s-.34.76-.76.76h-2.92c-.42,0-.76-.34-.76-.76ZM419.12,1819.52c0-.42.34-.76.76-.76h4.56c.42,0,.76.34.76.76s-.34.76-.76.76h-4.56c-.42,0-.76-.34-.76-.76ZM428.24,1819.52c0-.42.34-.76.76-.76h4.56c.42,0,.76.34.76.76s-.34.76-.76.76h-4.56c-.42,0-.76-.34-.76-.76ZM437.36,1819.52c0-.42.34-.76.76-.76h4.56c.42,0,.76.34.76.76s-.34.76-.76.76h-4.56c-.42,0-.76-.34-.76-.76ZM446.47,1819.52c0-.42.34-.76.76-.76h4.56c.42,0,.76.34.76.76s-.34.76-.76.76h-4.56c-.42,0-.76-.34-.76-.76ZM455.59,1819.52c0-.42.34-.76.76-.76h4.56c.42,0,.76.34.76.76s-.34.76-.76.76h-4.56c-.42,0-.76-.34-.76-.76ZM464.71,1819.52c0-.42.34-.76.76-.76h4.56c.42,0,.76.34.76.76s-.34.76-.76.76h-4.56c-.42,0-.76-.34-.76-.76ZM473.82,1819.52c0-.42.34-.76.76-.76h4.56c.42,0,.76.34.76.76s-.34.76-.76.76h-4.56c-.42,0-.76-.34-.76-.76ZM482.94,1819.52c0-.42.34-.76.76-.76h4.56c.42,0,.76.34.76.76s-.34.76-.76.76h-4.56c-.42,0-.76-.34-.76-.76ZM492.06,1819.52c0-.42.34-.76.76-.76h4.56c.42,0,.76.34.76.76s-.34.76-.76.76h-4.56c-.42,0-.76-.34-.76-.76ZM501.17,1819.52c0-.42.34-.76.76-.76h4.56c.42,0,.76.34.76.76s-.34.76-.76.76h-4.56c-.42,0-.76-.34-.76-.76Z"/>
              </g>
              <polygon class="cls-10" points="425.51 1387.27 642.64 1409.65 639.69 1387.27 425.51 1387.27"/>
            </g>
          </g>
          <g>
            <path class="cls-38" d="M558.03,1125.46s74.09,10.61,110.16,52.44c36.07,41.83-12.46,41.07-25.84,39.55-13.38-1.52-84.32-91.99-84.32-91.99Z"/>
            <g>
              <polygon class="cls-5" points="488.89 1079.56 495.43 1131.99 542.95 1124.71 543.3 1123.35 544.99 1116.81 546.76 1110 546.78 1109.92 553.2 1085.2 488.89 1079.56"/>
              <path class="cls-5" d="M485.24,1060.33c1.07,29.9,19.86,57.55,49.76,56.47,29.9-1.07,53.04-.93,58.53-60.37,2.75-29.8-26.19-53.27-56.09-52.2-29.9,1.07-53.27,26.19-52.2,56.09Z"/>
              <path class="cls-26" d="M541.4,1031.52c-9.24-4.35-19.77-5.16-29.46-1.93-1.5.5-2.84,1.01-3.87,1.52-5.71,2.79-4.87,18.7-4.87,18.7,0,0-7.58-5.99-9.79,4.41-2.21,10.41,7.53,11.99,7.53,11.99l-6.4,27.09s-10.16-16.52-17.11-45.3c-6.74-27.94,16.17-72.02,43.46-63.49,0,0,22.69-19.28,50.07-10.91,29.93,9.14,50.58,28.14,63.13,13.69,0,0-8.49,71.11-66.04,53.62l-26.66-9.39Z"/>
              <path class="cls-6" d="M541.7,1130.8l3.28-13.99s-34.48,2.82-46.85-18.12c0,0,.21,28.47,43.56,32.1Z"/>
            </g>
            <g>
              <path class="cls-27" d="M421.05,1303.43l-3.77-67.37c-3.04-54.05-.17-110.6,86.65-110.54.11-.03.23-.05.33-.06,5.76-.94,10-1.34,12-1.5.85-.06,1.29-.09,1.29-.09,111.93,0,108.91,41.6,112.2,100.28l3.54,63.13,11.28,92.94c.8,6.6-4.33,12.42-10.98,12.45l-205.32.94c-6.37.03-11.46-5.3-11.14-11.66l3.9-78.51Z"/>
              <path class="cls-20" d="M516.27,1123.96c-2.01.17-6.24.56-12,1.5,3.92-.73,7.93-1.23,12-1.5Z"/>
            </g>
            <path class="cls-6" d="M605.26,1273.05h0c-2.89-2.81-10.14,1.44-7.33-1.45l18.16-20.18c2.81-2.89,7.47-2.95,10.36-.14h0c2.89,2.81,2.95,7.47.14,10.36l-10.97,11.28c-2.81,2.89-7.47,2.95-10.36.14Z"/>
            <g>
              <path class="cls-11" d="M631.52,1306.78l-4.42-.14c-5.4-.19-9.64-4.72-9.47-10.13l4.41-132.79c.18-5.42,4.71-9.65,10.13-9.47l4.27.15c-5.36-.11-9.81,4.09-9.98,9.46l-4.41,132.79c-.18,5.4,4.07,9.93,9.47,10.13Z"/>
              <path class="cls-3" d="M718.67,1309.67l-4.27-.15-82.88-2.75c-5.4-.19-9.65-4.72-9.47-10.13l4.41-132.79c.17-5.37,4.62-9.57,9.98-9.46.06,0,.1-.02.15,0l82.73,2.76,4.42.14c5.4.18,9.65,4.71,9.47,10.13l-4.41,132.79c-.19,5.4-4.72,9.65-10.13,9.47Z"/>
              <path class="cls-29" d="M668.35,1230.3c-.95,5.13,2.43,10.05,7.56,11.01,5.13.95,10.05-2.43,11.01-7.56s-2.43-10.05-7.56-11.01c-5.13-.95-10.05,2.43-11.01,7.56Z"/>
              <path class="cls-29" d="M716.62,1169.3c-.36,1.93.92,3.79,2.85,4.15,1.93.36,3.79-.92,4.15-2.85.36-1.93-.92-3.79-2.85-4.15-1.93-.36-3.79.92-4.15,2.85Z"/>
            </g>
            <g>
              <g>
                <rect class="cls-5" x="592.77" y="1265.38" width="51.29" height="42.37" rx="15.99" ry="15.99" transform="translate(-157.75 88.54) rotate(-7.27)"/>
                <rect class="cls-5" x="624.92" y="1255.64" width="14.65" height="30.39" rx="5.53" ry="5.53" transform="translate(1812.92 482.95) rotate(82.73)"/>
                <rect class="cls-5" x="635.93" y="1263.42" width="14.65" height="30.39" rx="5.53" ry="5.53" transform="translate(1830.24 478.79) rotate(82.73)"/>
                <rect class="cls-5" x="633.36" y="1272.98" width="14.65" height="30.39" rx="5.53" ry="5.53" transform="translate(1837.49 489.72) rotate(82.73)"/>
                <rect class="cls-5" x="625.6" y="1283.17" width="14.65" height="30.39" rx="5.53" ry="5.53" transform="translate(1840.8 506.29) rotate(82.73)"/>
              </g>
              <rect class="cls-6" x="623.67" y="1272.07" width="23.84" height="1.52" transform="translate(-215.7 132.93) rotate(-10.22)"/>
              <rect class="cls-6" x="631.82" y="1285.11" width="23.34" height="1.52" transform="translate(-217.89 134.54) rotate(-10.22)"/>
              <rect class="cls-6" x="627.14" y="1295.77" width="20.06" height="1.52" transform="translate(-219.88 133.58) rotate(-10.22)"/>
            </g>
            <path class="cls-38" d="M460.59,1139.21c-24.77.43-43.93,21.82-41.68,46.49.96,10.52,1.92,19.77,2.65,23.7.48,2.87,1.13,5.79,1.7,8.68.6,2.89,1.21,5.78,1.94,8.72.71,2.93,1.37,5.83,2.16,8.76l2.5,8.86c.39,1.46.87,2.96,1.39,4.47l1.5,4.5,1.51,4.48,1.78,4.61,1.83,4.58c.31.77.59,1.51.94,2.29l1.1,2.37,2.21,4.73,1.12,2.35.56,1.17.95,1.77c1.36,2.43,2.71,4.89,4.27,7.16,1.61,2.24,3.27,4.45,5,6.56,1.8,1.97,3.65,3.89,5.54,5.75,1.9,1.75,3.86,3.32,5.85,4.9,7.97,5.95,16.03,9.78,23.65,12.4,1.88.6,3.84,1.32,5.66,1.77l5.52,1.41c3.58.74,7.17,1.41,10.61,1.82,6.91.9,13.56,1.26,19.96,1.19,12.83-.07,24.88-1.62,36.57-3.76,5.84-1.17,11.58-2.43,17.25-3.99,2.84-.79,5.66-1.59,8.48-2.47l4.23-1.39,4.49-1.55-7.47-41.22c-.35-.08-1.05-.11-1.62-.16l-1.83-.12-3.74-.27c-2.5-.16-5.01-.36-7.51-.57-5-.46-9.96-.88-14.85-1.55-9.74-1.15-19.21-2.84-27.74-5.06-4.29-1.07-8.25-2.42-11.82-3.81-.86-.38-1.81-.68-2.58-1.09-.8-.4-1.59-.77-2.39-1.12l-2.1-1.17c-.74-.36-1.21-.82-1.82-1.19-2.23-1.58-3.38-6.92-3.38-6.92l-.75-2.76-.38-1.37c-.12-.48-.22-1.02-.33-1.53l-.65-3.08-.71-3.05-.58-3.29c-.37-2.22-.83-4.29-1.15-6.61-.76-4.54-2.8-26.7-4.63-47.53-1.96-22.28-20.81-39.25-43.17-38.86h0Z"/>
            <g>
              <rect class="cls-5" x="724.13" y="1243.49" width="14.65" height="30.39" rx="5.53" ry="5.53" transform="translate(-599.72 1847.99) rotate(-83.72)"/>
              <rect class="cls-5" x="722.57" y="1228.37" width="14.65" height="34.92" rx="5.53" ry="5.53" transform="translate(-588.33 1834.99) rotate(-83.72)"/>
              <rect class="cls-5" x="725.44" y="1219.6" width="14.65" height="30.39" rx="5.53" ry="5.53" transform="translate(-574.81 1828.02) rotate(-83.72)"/>
              <rect class="cls-5" x="725.59" y="1212.97" width="14.65" height="21.62" rx="5.53" ry="5.53" transform="translate(-563.72 1818.36) rotate(-83.72)"/>
              <rect class="cls-6" x="730.4" y="1240.55" width="1.52" height="24.33" transform="translate(-562.89 1907.95) rotate(-86.58)"/>
              <rect class="cls-6" x="730.85" y="1225.72" width="1.52" height="26.21" transform="translate(-574.54 1842.08) rotate(-84.23)"/>
              <rect class="cls-6" x="731.44" y="1218.4" width="1.52" height="18.44" transform="translate(-550.75 1857.89) rotate(-85.35)"/>
            </g>
          </g>
        </g>
      </g>
    </g>
  </g>
</svg>