<?xml version="1.0" encoding="UTF-8"?>
<svg id="_Layer_" data-name=" Layer " xmlns="http://www.w3.org/2000/svg" viewBox="0 0 1887.22 1471.81">
  <defs>
    <style>
      .cls-1 {
        fill: #475777;
      }

      .cls-2 {
        fill: #6d80a3;
      }

      .cls-3 {
        fill: #f4a48e;
      }

      .cls-4 {
        fill: #405ba5;
      }

      .cls-5 {
        fill: #9dabc4;
      }

      .cls-6 {
        fill: #18214a;
      }

      .cls-7 {
        fill: #3b4466;
      }

      .cls-8 {
        fill: #cd806a;
      }

      .cls-9 {
        fill: #d76066;
      }

      .cls-10 {
        fill: #f3f9ff;
      }

      .cls-11 {
        fill: #39465e;
      }

      .cls-12 {
        fill: #3b4663;
      }

      .cls-13 {
        fill: #c47665;
      }

      .cls-14 {
        fill: #868e57;
      }

      .cls-15 {
        fill: #1a1e39;
      }

      .cls-16, .cls-17 {
        fill: #fff;
      }

      .cls-18 {
        fill: #f4a48f;
      }

      .cls-19 {
        fill: #f4b12c;
      }

      .cls-20 {
        fill: #bf6d59;
      }

      .cls-21 {
        fill: #c86d50;
      }

      .cls-22 {
        opacity: .54;
      }

      .cls-22, .cls-23 {
        fill: #f09497;
      }

      .cls-22, .cls-23, .cls-17 {
        isolation: isolate;
      }

      .cls-23 {
        opacity: .65;
      }

      .cls-24 {
        fill: #e28c72;
      }

      .cls-25 {
        fill: #b9cdeb;
      }

      .cls-26 {
        fill: #25325d;
      }

      .cls-27 {
        fill: #a5c6e9;
      }

      .cls-28 {
        fill: #98a562;
      }

      .cls-29 {
        fill: #dceffc;
      }

      .cls-30 {
        fill: #3e5993;
      }

      .cls-31 {
        fill: #cfd8e2;
      }

      .cls-32 {
        fill: #242224;
      }

      .cls-33 {
        fill: #a6bddd;
      }

      .cls-34 {
        fill: #bf525d;
      }

      .cls-35 {
        fill: #f8bb3d;
      }

      .cls-36 {
        fill: #141b33;
      }

      .cls-37 {
        fill: #ea9778;
      }

      .cls-38 {
        fill: #7295bb;
      }

      .cls-39 {
        fill: #cb4e5a;
      }

      .cls-40 {
        fill: #e8ebef;
      }

      .cls-41 {
        fill: #495784;
      }

      .cls-42 {
        fill: #26304a;
      }

      .cls-43 {
        fill: #eb797b;
      }

      .cls-44 {
        fill: #a5b6ce;
      }

      .cls-17 {
        opacity: .5;
      }
    </style>
  </defs>
  <g>
    <path class="cls-29" d="M393.79,611.75c-1.1-3.88-2.24-7.73-3.57-11.52-1.27-3.8-2.67-7.55-4.18-11.24-1.54-3.71-2.87-7.65-4.32-11.48-1.4-3.87-2.48-7.83-3.73-11.76-4.48-15.85-7.14-32.22-8.31-48.69-2.24-32.95,1.28-66.33,10.19-98.16,4.41-15.94,10.1-31.49,16.9-46.55,1.72-3.78,3.54-7.44,5.4-11.16l5.87-10.89c2.11-3.56,4.16-7.16,6.35-10.67,2.21-3.5,4.48-6.94,6.83-10.34,9.43-13.58,20.23-26.15,32.22-37.46,12.1-11.17,25.43-21.04,40.02-28.35l.89,1.43c-25.81,19.39-46.46,44.07-62.77,71.13-2.05,3.38-4.04,6.8-5.94,10.25l-5.53,10.45-5.15,10.68c-1.64,3.56-3.3,7.19-4.81,10.81-6.02,14.59-11.26,29.52-15.4,44.74-4.19,15.21-7.37,30.7-9.39,46.35-2.12,15.64-3.11,31.42-3.04,47.23.1,15.8,1.38,31.63,4.03,47.29.75,3.89,1.32,7.85,2.22,11.72l2.78,11.69c.98,3.99,1.85,8,2.56,12.03.66,4.04,1.23,8.09,1.53,12.16l-1.66.29v.02Z"/>
    <path class="cls-29" d="M1799.06,1149.41c-5.95,15.22-13.75,29.82-23.23,43.32-2.37,3.38-4.82,6.7-7.39,9.92l-3.88,4.85c-1.32,1.58-2.69,3.15-4.07,4.69-5.51,6.19-11.43,12.01-17.6,17.55-12.36,11.11-26.13,20.61-40.56,28.84-14.47,8.17-29.61,15.17-45.18,20.83-15.57,5.66-31.44,10.4-47.48,14.3-16.02,3.97-32.2,7.08-48.4,9.73-32.4,5.29-64.86,9-97.02,12.91-16.06,2.03-32.05,4.19-47.76,7.08-7.85,1.45-15.65,3.05-23.29,4.96-7.66,1.89-15.17,4.02-22.37,6.67-14.5,5.28-28.72,12.52-42.6,20.37-13.96,7.82-27.67,16.38-41.5,24.89-13.77,8.6-27.71,17.09-41.77,25.44-14.03,8.4-28.39,16.35-42.99,23.83-29.2,14.92-59.76,27.62-91.51,35.51l-.52-1.6c30.24-12.05,58.92-27.04,86.58-43.7,6.91-4.19,13.77-8.43,20.56-12.83,6.79-4.38,13.61-8.72,20.35-13.21,13.52-8.9,26.84-18.18,40.43-27.2,13.54-9.09,27.26-18.04,41.48-26.5,7.14-4.2,14.41-8.23,21.89-12.01,3.74-1.9,7.54-3.69,11.38-5.43l5.92-2.45,2.96-1.22c.86-.36,1.97-.74,2.95-1.1,8.05-3.01,16.2-5.36,24.33-7.4,8.15-1.99,16.31-3.6,24.47-5.04,16.31-2.88,32.6-4.97,48.83-6.91,32.45-3.91,64.76-6.72,96.69-11.31,31.87-4.71,63.55-10.52,93.92-20.55,15.16-5.01,30.03-10.85,44.23-18.07,3.55-1.79,7.06-3.73,10.52-5.66,1.74-.99,3.48-1.99,5.18-3.01l5.05-3.16c3.35-2.17,6.72-4.3,9.95-6.6,3.26-2.29,6.45-4.68,9.58-7.15,25.06-19.76,45.71-45.29,60.31-74.27l1.53.69h.03Z"/>
    <path class="cls-29" d="M1360.28,23.25c15.26-6.17,30.87-11.4,46.9-15.63,16.04-4.13,32.61-6.93,49.5-7.51,16.86-.6,33.98,1.17,50.51,5.5,8.26,2.15,16.35,4.99,24.21,8.33,7.83,3.39,15.42,7.32,22.7,11.7,7.19,4.57,14.32,9.33,20.89,14.89,6.6,5.49,12.74,11.59,18.31,18.18,11.22,13.15,19.46,28.64,25.01,44.65,2.88,8,4.86,16.21,6.6,24.39,1.54,8.22,2.82,16.45,3.63,24.67.83,8.23,1.45,16.43,2,24.6l.89,12.25c.23,4.1.52,8.2.7,12.32h-.05c-8.77-31.71-12.47-64.82-25.23-93.8-6.23-14.47-14.31-27.95-24.77-39.39-10.35-11.53-22.69-21.19-36.07-29.35-6.72-4.08-13.67-7.76-20.83-10.93-7.13-3.24-14.49-5.94-21.99-8.18-15.01-4.5-30.66-6.88-46.53-7.49s-31.94.62-48.02,2.75c-16.1,2.04-32.16,5.26-48.37,8.08v-.02h.01Z"/>
    <path class="cls-29" d="M1797.62,908.3c-.63,12.88-.69,26.13-.58,39.59,0,.46,0,.9.02,1.37v.02c.03,5,.08,10.03.17,15.1.02.58.02,1.14.03,1.73v.15c0,.47.02.97.02,1.46,0,.22,0,.42.02.64.02,1.1.03,2.24.05,3.39v.14c.03,1.76.05,3.54.08,5.34.07,6.64.17,13.32.19,20.03.02,1.92.02,3.85.02,5.78,0,2.12-.02,4.19-.03,6.29,0,.95-.02,1.86-.03,2.8-.05,3.97-.12,7.93-.22,11.88v.02c-.12,4.44-.31,8.85-.53,13.27-.19,3.07-.37,6.19-.59,9.25-.29,4.1-.64,8.2-1.08,12.29-.47,4.59-1.05,9.2-1.69,13.78-2.42,16.81-6.17,33.39-11.91,49.47-1.88,5.27-3.97,10.47-6.3,15.61-2.44,5.39-5.14,10.71-8.14,15.97-4.59,8.1-9.86,15.97-15.93,23.64-1.02,1.29-2.05,2.58-3.14,3.85-1.32,1.63-2.69,3.25-4.12,4.85-1.15,1.27-2.29,2.54-3.47,3.78-3.95,4.22-8.07,8.2-12.32,11.97-4.81,4.29-9.8,8.3-14.97,12.03-1.69,1.2-3.41,2.41-5.12,3.59-1.85,1.25-3.75,2.49-5.64,3.71-.71.44-1.44.9-2.19,1.36-1.12.69-2.24,1.37-3.39,2.05-1.49.92-3.02,1.78-4.54,2.63-1.1.64-2.2,1.25-3.34,1.86-.71.41-1.42.76-2.14,1.14-1.85,1-3.73,1.95-5.61,2.9-3.22,1.61-6.49,3.15-9.83,4.63-9.27,4.17-18.85,7.85-28.64,11.12-12.3,4.12-24.98,7.59-37.88,10.56-11.05,2.58-22.25,4.8-33.52,6.73-7.61,1.32-15.25,2.53-22.9,3.64-21.1,3.08-42.23,5.49-62.81,7.85-24.51,2.83-48.22,5.59-70.17,9.36-1.75.29-3.46.58-5.15.88-13.52,2.44-26.34,5.3-38.2,8.85-2.8.81-5.52,1.69-8.2,2.59-2.42.85-4.88,1.73-7.34,2.69-3.29,1.22-6.63,2.61-9.95,4.08-1.61.68-3.19,1.39-4.78,2.14-5.32,2.47-10.71,5.17-16.13,8.03-2.71,1.42-5.46,2.92-8.2,4.47-1.14.63-2.3,1.29-3.42,1.93-27.4,15.61-56.05,35.29-87.01,54.62-26.73,16.71-55.15,33.2-85.94,46.64-51.52,22.56-109.65,36.56-177.43,28.88-14.24-1.63-27.64-4.76-40.3-9-15.1-5.05-29.12-11.73-42.2-19.35-24.17-14.12-45.08-31.56-63.45-48.27-18.37-16.69-34.22-32.64-48.32-43.78-1.75-1.41-3.46-2.73-5.17-3.95-4.08-2.97-8.66-5.29-13.64-7.08-2.19-.81-4.46-1.53-6.8-2.14-7-1.86-14.66-3-22.88-3.73-3.75-.32-7.61-.58-11.59-.78h-.02c-4.68-.25-9.52-.42-14.46-.59-17.68-.58-36.9-1-56.78-3.76-2.1-.27-4.19-.59-6.3-.93-3.47-.58-6.98-1.22-10.51-1.97h-.02c-.76-.15-1.53-.32-2.3-.51-15.17-3.36-30.57-8.47-45.79-16.41h-.02c-4.81-2.49-9.59-5.27-14.36-8.37-2.36-1.51-4.69-3.1-7.02-4.81-1.63-1.14-3.25-2.37-4.88-3.64-.56-.44-1.14-.86-1.68-1.3-2.46-1.97-4.83-3.93-7.08-5.93-3.19-2.83-6.17-5.71-8.98-8.63-2.68-2.78-5.19-5.61-7.51-8.49-4.61-5.64-8.58-11.41-11.95-17.27-1.42-2.44-2.73-4.9-3.95-7.37-11.3-22.95-14.58-47.13-14.86-71.22-.02-.39-.02-.8-.02-1.2-.03-1.63-.03-3.25,0-4.9.02-4.2.14-8.41.29-12.58.07-1.58.12-3.15.2-4.71.44-9.8,1.12-19.52,1.69-29.03.07-1.36.15-2.69.22-4.03.32-6.17.58-12.22.7-18.19v-.02c.02-2.86.03-5.71,0-8.52-.1-5.63-.41-11.17-.98-16.54-1.61-14.74-5.37-28.46-13.12-40.61-45.64-71.61-85.3-74.17-115.25-126.3-.53-.88-1.02-1.8-1.53-2.71-5.53-10.02-10.69-21.85-15.51-36.22-.25-.76-.51-1.53-.76-2.3-4.97-15.25-3.73-29.37,1.14-43.25,1.95-5.54,4.47-11.05,7.42-16.58.69-1.34,1.44-2.64,2.17-3.97,9.29-16.42,21.88-33.15,33.49-51.71.81-1.29,1.59-2.56,2.39-3.86,7.64-12.54,14.71-25.93,19.96-40.64,10.61-29.71,13.78-64.74-.95-108.84-19.88-59.57-12.29-131.04,13.3-190.58.64-1.51,1.3-3.02,1.98-4.51.71-1.58,1.44-3.14,2.17-4.68.54-1.19,1.1-2.34,1.68-3.51,1.56-3.2,3.17-6.36,4.83-9.47,1.63-3.08,3.34-6.12,5.08-9.1,6.75-11.51,14.2-22.27,22.34-32.08.58-.73,1.17-1.42,1.78-2.14,6-7.12,12.34-13.68,19.02-19.64,1.46-1.31,2.93-2.59,4.42-3.81,15.51-13.03,32.57-22.71,50.74-28.02,19.03-5.54,36.13-8.78,51.95-10.63,70.05-8.14,115.04,11.19,191.58-21.27,18.27-7.75,33.51-18.34,46.78-30.63,56.22-52,77.27-134.52,143.33-161.23,73.25-29.63,156.6,15.07,235.24,25.2,14.59,1.9,29.03,2.59,43.22,1.41,33.29-2.8,64.79-11.64,95.35-20.52l12.63-3.68h.02c8.44-2.46,16.81-4.85,25.13-7.05,8.52-2.24,16.98-4.29,25.41-6.02,42.95-8.73,85.05-8.71,128.77,18.35,87.96,54.47,44.27,150.38,94.1,216.56,9.63,12.78,20.29,23.59,31.63,33.13,17.59,14.81,36.83,26.61,56.51,38.12,1.53.88,3.05,1.78,4.58,2.68,2.8,1.63,5.63,3.25,8.42,4.9,1.32.78,2.64,1.54,3.97,2.31,50.66,29.63,101.64,62.52,131.98,144.65,2.44,6.54,4.73,13.41,6.88,20.59,42.78,143.26-65.11,243.43-78.18,372.86-.64,6.36-1.1,12.83-1.41,19.39h-.04Z"/>
  </g>
  <g>
    <g>
      <rect class="cls-16" x="543.18" y="338.34" width="850.65" height="590.69"/>
      <rect class="cls-26" x="532.41" y="320.34" width="872.17" height="24.42"/>
      <path class="cls-25" d="M1311.78,475.1h-294.51c-2.63,0-4.78-2.15-4.78-4.78h0c0-2.63,2.15-4.78,4.78-4.78h294.51c2.63,0,4.78,2.15,4.78,4.78h0c0,2.63-2.15,4.78-4.78,4.78Z"/>
      <path class="cls-25" d="M1311.78,501.37h-294.51c-2.63,0-4.78-2.15-4.78-4.78h0c0-2.63,2.15-4.78,4.78-4.78h294.51c2.63,0,4.78,2.15,4.78,4.78h0c0,2.63-2.15,4.78-4.78,4.78Z"/>
      <path class="cls-25" d="M1311.78,527.64h-294.51c-2.63,0-4.78-2.15-4.78-4.78h0c0-2.63,2.15-4.78,4.78-4.78h294.51c2.63,0,4.78,2.15,4.78,4.78h0c0,2.63-2.15,4.78-4.78,4.78Z"/>
      <rect class="cls-25" x="1012.48" y="544.34" width="191.66" height="9.57" rx="4.78" ry="4.78"/>
      <path class="cls-25" d="M1311.78,755.4h-674.07c-2.63,0-4.78-2.15-4.78-4.78h0c0-2.63,2.15-4.78,4.78-4.78h674.07c2.63,0,4.78,2.15,4.78,4.78h0c0,2.63-2.15,4.78-4.78,4.78Z"/>
      <path class="cls-25" d="M1311.78,781.68h-674.07c-2.63,0-4.78-2.15-4.78-4.78h0c0-2.63,2.15-4.78,4.78-4.78h674.07c2.63,0,4.78,2.15,4.78,4.78h0c0,2.63-2.15,4.78-4.78,4.78Z"/>
      <path class="cls-25" d="M1311.78,807.95h-674.07c-2.63,0-4.78-2.15-4.78-4.78h0c0-2.63,2.15-4.78,4.78-4.78h674.07c2.63,0,4.78,2.15,4.78,4.78h0c0,2.63-2.15,4.78-4.78,4.78Z"/>
      <path class="cls-25" d="M1059.03,834.22h-421.32c-2.63,0-4.78-2.15-4.78-4.78h0c0-2.63,2.15-4.78,4.78-4.78h421.32c2.63,0,4.78,2.15,4.78,4.78h0c0,2.63-2.15,4.78-4.78,4.78Z"/>
      <path class="cls-25" d="M1311.78,615.25h-294.51c-2.63,0-4.78-2.15-4.78-4.78h0c0-2.63,2.15-4.78,4.78-4.78h294.51c2.63,0,4.78,2.15,4.78,4.78h0c0,2.63-2.15,4.78-4.78,4.78Z"/>
      <path class="cls-25" d="M1311.78,641.52h-294.51c-2.63,0-4.78-2.15-4.78-4.78h0c0-2.63,2.15-4.78,4.78-4.78h294.51c2.63,0,4.78,2.15,4.78,4.78h0c0,2.63-2.15,4.78-4.78,4.78Z"/>
      <path class="cls-25" d="M1311.78,667.79h-294.51c-2.63,0-4.78-2.15-4.78-4.78h0c0-2.63,2.15-4.78,4.78-4.78h294.51c2.63,0,4.78,2.15,4.78,4.78h0c0,2.63-2.15,4.78-4.78,4.78Z"/>
      <path class="cls-25" d="M1129.82,694.07h-112.56c-2.63,0-4.78-2.15-4.78-4.78h0c0-2.63,2.15-4.78,4.78-4.78h112.56c2.63,0,4.78,2.15,4.78,4.78h0c0,2.63-2.15,4.78-4.78,4.78Z"/>
    </g>
    <g>
      <path class="cls-9" d="M829.57,476.53c-26.96,1.53-43.51,48.52-50.45,59.72-6.93,11.21-38.12,7.28-41.2-13.23-2.14-14.21,6.04-42.76,23.49-62.76,7.71-8.84,17.24-16.02,28.49-19.55,26.48-8.31,43.21-2.34,52.02,8.38,5.39,6.56,7.82,14.88,7.69,22.81-.11,6.38,6.89,3.08-20.06,4.63h.02Z"/>
      <path class="cls-43" d="M883.09,589.39c0,28.89-18.07,101.65-47.58,118.36-.14.08-.26.15-.4.22-.29.15-.57.3-.85.44-2.16,1.11-4.41,1.9-6.69,2.35-.26.05-.53.11-.81.15-1.82.3-3.74.44-5.75.44-.67,0-1.37-.01-2.05-.06-.53-.01-1.07-.05-1.62-.11-.3-.01-.6-.04-.9-.07-.03,0-.07,0-.11-.01-1.26-.12-2.56-.3-3.87-.52-.74-.12-1.51-.26-2.26-.42-.74-.14-1.48-.3-2.22-.48-.63-.15-1.27-.31-1.92-.48-.41-.11-.82-.22-1.25-.34-.26-.07-.53-.15-.81-.23-.44-.12-.89-.26-1.33-.4-1.52-.45-3.05-.97-4.6-1.53-.77-.27-1.53-.56-2.3-.86-.78-.29-1.55-.6-2.33-.92-.9-.37-1.82-.75-2.74-1.16-.85-.37-1.7-.75-2.56-1.15-1.71-.79-3.44-1.63-5.17-2.52-.75-.38-1.49-.77-2.25-1.16-.23-.12-.48-.26-.73-.38-.75-.41-1.51-.82-2.26-1.25-.88-.48-1.75-.99-2.64-1.49-.88-.51-1.75-1.03-2.63-1.56-1.78-1.07-3.56-2.18-5.34-3.34-.86-.55-1.71-1.11-2.56-1.68-1.4-.93-2.78-1.89-4.16-2.86-.66-.47-1.3-.92-1.94-1.4-1.3-.93-2.59-1.89-3.87-2.86-2.77-2.09-5.5-4.27-8.19-6.53-.81-.68-1.62-1.37-2.42-2.07-1.25-1.07-2.49-2.16-3.71-3.26-.4-.37-.81-.74-1.2-1.11-.42-.38-.85-.78-1.29-1.18-.78-.73-1.55-1.46-2.31-2.2-.19-.16-.38-.36-.56-.53-.6-.58-1.2-1.16-1.79-1.75-5.05-5.01-9.8-10.24-14.14-15.62-.67-.82-1.33-1.66-1.97-2.49-3.03-3.9-5.82-7.86-8.32-11.86-.01,0-.01-.01-.01-.01-8.79-13.96-14.2-28.37-14.2-41.87,0-55.39,58.23-67.1,87.83-99.38,29.59-32.28,70.89-28.33,78.64-23.1,7.75,5.22,5.49,33.34-2.53,33.86-3.79.25-15.18.31-26.59,4.75-11.39,4.42-25.31,22.15-5.05,33.54,16.76,9.42,44.34-14.51,53.37,18.91,1.89,6.97,2.96,16.43,2.96,29.2l-.02-.02Z"/>
      <path class="cls-22" d="M743.97,566.59c3.55,17.53,26.05,93.31,62,85.81,34.54-7.21,40.21-75.72,39.16-102.36-.76-19.38-6.85-39.02-28.65-26.7-21.8,12.32-49.64,14.25-58.05,8.67-8.42-5.59-17.72,18.44-14.45,34.59h0Z"/>
      <path class="cls-9" d="M801.23,450.8c-6.45-.16-16.05-4.74-12.44-5.68,3.59-.93,5.13-13.01,4.75-18.72-.3-4.67-1.36-9.09-1.82-11.88-.25-1.52-.33-2.56-.01-2.92,2.75-3.15,11.97-3.3,14.13-.88.67.74.23,4.29.48,9.75v.05c.25,5.37,1.16,12.58,4.45,20.82,1.68,4.22-3.08,9.61-9.53,9.45h0Z"/>
      <path class="cls-9" d="M822,446.88c-10.4-1.03-23.23-7.69-16.43-9.52,4.85-1.29,7.45-12.81,9.04-20.58.63-3.11,1.1-5.61,1.48-6.61,1.04-2.7,15.21,1.79,12.7,4.37-.86.88-1.49,2.12-1.92,3.63-1.97,6.93.51,19.22,5.97,25.56,2.19,2.55-.45,4.18-10.84,3.15h0Z"/>
      <path class="cls-9" d="M801.21,443.64c-.07.12-.15.25-.25.38l-26.96,9.88-.04-1.18s.04-.07.05-.1c4.63-8.24,4.01-23.21-.67-28.41-.08-.1-.15-.16-.23-.23-.29-.3-.6-.56-.92-.78-2.96-2.03,10.05-9.23,11.6-6.79.59.92,1.55,3.3,2.81,6.24,0,.01,0,.04.01.07,3.08,7.3,7.89,17.95,12.87,18.26.1,0,.19.01.27.03,2.04.19,2.33,1.22,1.45,2.61v.02Z"/>
      <g>
        <path class="cls-39" d="M830.54,440.39c-3.81-6.69-5.33-16.36-3.66-22.22-.86,2.18-3.46,15.32-8.26,16.41-6.59,1.5-4.72-9.65-4-17.79-1.22,5.96-3.04,14.12-6.01,18.18-1.56-5.59-2.11-10.52-2.28-14.45-.56,6.11-1.81,13.05-5.04,13.28-5.57.4-7.45-13.1-9.56-19.29.47,2.79,1.52,7.22,1.82,11.88.16,2.37-.01,5.82-.53,9.13-2.48-3.77-4.7-8.79-6.4-12.8,4.98,14.08.27,19.34-3.87,17.57-3.23-1.38-6.07-11.09-8.55-14.97,3.11,4.76,3.91,14.39,1.91,22.01h0c-5.45,3.55-10.34,7.98-14.66,12.94,2.4,1.81,4.89,2.88,4.89,2.88,6.02-4.29,14.35-10.54,25.56-14.62,5.6-2.03,11.92-3.52,19.03-3.94,9.02-.56,19.32.6,31.04,4.52-2.91-3.54-6.69-6.56-11.4-8.71h-.03Z"/>
        <path class="cls-39" d="M774.17,425.3c-.28-.43-.55-.81-.82-1.07.29.32.56.68.82,1.07Z"/>
        <path class="cls-39" d="M774.18,425.32s-.01-.02-.02-.03c0,0,.01.02.02.03Z"/>
      </g>
      <path class="cls-9" d="M896.1,517.59c-.94.62-2.82,1.01-5.72,1.4-.15.03-.3.05-.47.07h-.01c-1.07.14-2.27.27-3.61.42h-.1c-3.24.36-7.27.75-12.13,1.31-.29.04-.57.07-.86.11-3.14.37-5.34,1.31-6.8,2.67,4.33-.44,10.99-.55,16.76-.1,3.63.29,6.89.79,8.98,1.57.19.07.37.15.55.22.97.44,1.62.94,1.81,1.53,1.12,3.38-.81,11.32-3.55,11.53-.73.05-2.89-.18-5.64-.3h-.01c-3.19-.15-7.16-.15-10.65.59-2.14.68-2.15,3.7-1.37,6.11v.04c.31.96.75,1.81,1.22,2.38,7.58,9.06,7.22,20.78,1.81,22.74-19.39,7-54.87-23.73-59.49-39.94v-.04c-.05-.26-.11-.52-.16-.79-.03-.22-.05-.42-.08-.64-1.01-8.94,7.69-17.8,15.28-20.74,3.68-1.44,7.35-2.41,10.77-3.07h.01c7.17-1.44,13.23-1.52,15.79-1.68.41-.03.79-.12,1.18-.29.04.07.08.14.12.21.03.04.05.08.08.12,1.2,1.96,2.55,3.4,4.68,3.46,6.33.19,17.84-.88,24.64-1.34h.01c2.18-.15,3.87-.23,4.76-.19,3.63.15,4.42,11.21,2.2,12.64h0Z"/>
      <path class="cls-9" d="M883.09,589.39c0,28.89-18.07,101.65-47.58,118.36-.14.08-.26.15-.4.22-.29.15-.57.3-.85.44-2.27,1.12-4.5,1.92-6.69,2.35-.26.05-.53.11-.81.15-1.82.3-3.74.44-5.75.44-.67,0-1.37-.01-2.05-.06-.53-.01-1.07-.05-1.62-.11-.3-.01-.6-.04-.9-.07-.03,0-.07,0-.11-.01-1.26-.12-2.56-.3-3.87-.52-.74-.12-1.51-.26-2.26-.42-.74-.14-1.48-.3-2.22-.48-.63-.15-1.27-.31-1.92-.48-.41-.11-.82-.22-1.25-.34-.26-.07-.53-.15-.81-.23-.44-.12-.89-.26-1.33-.4-1.52-.45-3.05-.97-4.6-1.53-.77-.27-1.53-.56-2.3-.86-.78-.29-1.55-.6-2.33-.92-.9-.37-1.82-.75-2.74-1.16-.85-.37-1.7-.75-2.56-1.15-1.71-.79-3.44-1.63-5.17-2.52-.75-.38-1.49-.77-2.25-1.16-.23-.12-.48-.26-.73-.38-.75-.41-1.51-.82-2.26-1.25-.88-.48-1.75-.99-2.64-1.49-.88-.51-1.75-1.03-2.63-1.56-1.78-1.07-3.56-2.18-5.34-3.34-.86-.55-1.71-1.11-2.56-1.68-1.4-.93-2.78-1.88-4.16-2.86-.66-.47-1.3-.92-1.94-1.4-1.3-.93-2.59-1.89-3.87-2.86-2.77-2.09-5.5-4.27-8.19-6.53-.81-.68-1.62-1.37-2.42-2.07-1.25-1.07-2.49-2.16-3.71-3.26-.4-.37-.81-.74-1.2-1.11-.42-.38-.85-.78-1.29-1.18-.78-.73-1.55-1.46-2.31-2.2-.19-.16-.38-.36-.56-.53-.6-.58-1.2-1.16-1.79-1.75-5.05-5.01-9.8-10.24-14.14-15.62-.67-.82-1.33-1.66-1.97-2.49-3.03-3.9-5.82-7.86-8.32-11.86,29.45,39.14,82.45,72.05,111.14,67.41,34.57-5.59,60.17-89.59,60.31-140.71,1.89,6.97,2.96,16.43,2.96,29.2v-.02Z"/>
      <path class="cls-39" d="M863.73,486.19c-.38,8.17-2.98,14.69-5.8,14.55-2.82-.13-4.8-6.86-4.41-15.03s2.98-14.69,5.8-14.55c2.82.13,4.8,6.86,4.41,15.03Z"/>
      <path class="cls-39" d="M893.85,532.49c-.67,3.03-2.19,5.28-3.39,5.01-1.2-.27-1.63-2.94-.96-5.98.67-3.03,2.19-5.28,3.39-5.01,1.2.27,1.63,2.94.96,5.98Z"/>
      <path class="cls-39" d="M896.24,511.15c.35,3.09-.36,5.7-1.58,5.84s-2.5-2.25-2.85-5.34.36-5.7,1.58-5.84,2.5,2.25,2.85,5.34Z"/>
      <path class="cls-39" d="M822.52,413.23c-2.97-.92-5.23-2.13-5.05-2.71s2.73-.3,5.7.61c2.97.92,5.23,2.13,5.05,2.71s-2.73.3-5.7-.61Z"/>
      <path class="cls-39" d="M778.71,420.77c2.68-1.46,4.58-3.15,4.24-3.77s-2.79.06-5.47,1.52-4.58,3.15-4.24,3.77,2.79-.06,5.47-1.52Z"/>
      <path class="cls-39" d="M798.91,412.99c-3.09.3-5.67-.11-5.75-.93s2.36-1.73,5.46-2.04c3.09-.3,5.67.11,5.75.93s-2.36,1.73-5.45,2.04h-.01Z"/>
      <path class="cls-39" d="M876.29,569.89c-19.39,7-54.87-23.73-59.49-39.94v-.04c-.05-.26-.11-.52-.16-.79-.03-.22-.05-.42-.08-.64-1.01-8.94,7.69-17.8,15.28-20.74,3.68-1.44,7.35-2.41,10.77-3.07h.01c7.17-1.44,13.23-1.52,15.79-1.68.41-.03.79-.12,1.18-.29.04.07.08.14.12.21.03.04.05.08.08.12-30.35,3.24-35.03,20-32.27,26.67,2.89,6.93,15.42,17.32,20.99,16.17,5.59-1.16,12.13,10.73,16.18,14.32,4.04,3.59,13.47,3.97,11.73-2.38-1.73-6.33-2.86-8.83-3.16-13.03.31.96.75,1.81,1.22,2.38,7.58,9.06,7.22,20.78,1.81,22.74h0Z"/>
      <path class="cls-39" d="M739.06,566.48c.62.26,1.06.55,1.3.88.28.32.41.65.46,1.01l.34,2.1.36,2.08c.12.68.26,1.32.41,2.04.29,1.4.59,2.78.86,4.27.13.74.24,1.58.28,2.39.03.8.03,1.52.03,2.24l.08,8.55c.04,2.81.05,5.65.66,8.02.31,1.18.78,2.17,1.46,2.83.34.34.73.61,1.19.82.23.11.48.2.74.28l1.01.29c2.86.85,5.73,1.94,8.36,3.85,1.29.96,2.54,2.17,3.41,3.73.89,1.55,1.29,3.43,1.16,5.18-.06.87-.23,1.71-.46,2.51-.18.67-.4,1.31-.54,1.96-.31,1.29-.53,2.57-.47,3.71.06,1.15.39,2.14,1.04,3.08.65.94,1.6,1.81,2.66,2.61,1.06.83,2.2,1.52,3.43,2.32,1.3.82,2.5,1.8,3.61,2.86,4.39,4.3,6.99,10.21,7.32,16.27.08,1.52-.08,3.09-.12,4.37,0,1.36.05,2.73.23,4.09.33,2.74,1.01,5.44,1.95,8.06,1.9,5.22,4.89,10.08,8.82,14.08l-.95.99c-4.3-3.92-7.68-8.87-9.88-14.3-1.1-2.72-1.94-5.55-2.4-8.47-.25-1.46-.38-2.94-.42-4.44,0-1.58.08-2.86-.04-4.19-.42-5.34-2.87-10.52-6.74-14.12-.98-.89-2.02-1.7-3.15-2.38-1.17-.73-2.5-1.49-3.71-2.4-1.23-.9-2.46-1.92-3.48-3.31-1.03-1.37-1.68-3.17-1.79-4.88-.12-1.71.13-3.29.45-4.77.15-.75.36-1.47.54-2.18.15-.58.25-1.14.29-1.69.16-2.2-1.03-4.11-3.07-5.56-2.01-1.45-4.56-2.44-7.17-3.19l-1.04-.29c-.42-.12-.85-.28-1.27-.47-.84-.38-1.64-.91-2.32-1.58-1.38-1.35-2.12-3.06-2.54-4.63-.81-3.18-.78-6.12-.86-9l-.15-8.58c0-.71,0-1.42-.04-2.04-.03-.62-.11-1.2-.23-1.86-.25-1.32-.57-2.73-.87-4.12-.15-.67-.31-1.44-.44-2.16l-.38-2.14-.36-2.12c-.06-.35-.05-.72.12-1.11.12-.38.45-.8.96-1.24l1.35-.22v-.03Z"/>
      <path class="cls-39" d="M741.7,582.28c1.18.25.87.52.91.78l-.03.79-.09,1.54c-.06,1.01-.13,1.97-.07,2.82.06.85.25,1.55.65,2.22.39.67,1.01,1.29,1.71,1.88,1.47,1.22,2.96,2.1,4.76,2.49,1.78.45,3.76.44,5.92.83,2.15.3,4.53,1.61,5.7,3.55.66.97,1.03,1.79,1.58,2.64.51.85,1.07,1.66,1.64,2.47,1.14,1.61,2.42,3.13,3.9,4.4,1.48,1.21,3.23,2.31,5.17,2.22l.07.55c-2.18.36-4.25-.68-5.93-1.86-1.7-1.23-3.17-2.71-4.51-4.29-.65-.8-1.28-1.62-1.87-2.48-.59-.81-1.15-1.8-1.68-2.46-1.07-1.48-2.59-2.19-4.44-2.39-1.84-.23-3.94-.12-6.11-.59-1.08-.2-2.17-.59-3.19-1.08-1.03-.55-1.91-1.1-2.79-1.79-.87-.68-1.74-1.47-2.41-2.53-.69-1.04-1.08-2.34-1.18-3.5-.12-1.17-.06-2.23-.03-3.24l.04-1.49v-.73c.05-.24-.27-.47.92-.73l1.37-.02h-.01Z"/>
      <path class="cls-39" d="M759.16,597.2c.57.72,1.25,1.33,2.06,1.79.8.46,1.74.75,2.71.94,1.95.39,4.03.43,6.08.46l.02.28c-2.05.26-4.11.51-6.24.4-1.06-.06-2.17-.23-3.23-.65-1.06-.41-2.05-1.07-2.87-1.86l1.49-1.38-.02.02Z"/>
      <path class="cls-39" d="M740.73,655.65c-1.09-2.52-1.33-5.43-.59-8.14.73-2.68,2.44-5.24,5.07-6.59,2.3-1.12,4.17-3.06,5.43-5.24,1.26-2.16,1.66-4.83.21-6.46-.37-.44-.71-.72-1.3-1.16l-1.63-1.25c-1.08-.85-2.14-1.73-3.17-2.66-1.03-.93-2.03-1.92-2.96-3.02-.92-1.11-1.81-2.29-2.42-3.82-.3-.76-.52-1.63-.48-2.6.02-.96.36-1.98.92-2.77.65-.95,1.04-1.95,1.23-3.06.39-2.23-.13-4.59-.84-7.2l3.9-.89c.54,2.59,1.15,5.69.42,8.81-.35,1.54-1.06,3.07-2.01,4.29-.45.57-.56,1.3-.22,2.35.71,2.07,2.51,4.14,4.31,5.98.92.93,1.89,1.83,2.89,2.71l1.51,1.3c.48.39,1.17.99,1.61,1.63.99,1.31,1.36,3.05,1.14,4.58-.2,1.54-.82,2.92-1.59,4.13-1.57,2.4-3.75,4.4-6.37,5.52-2.28,1.01-4,3.2-4.81,5.66-.83,2.47-.77,5.24.15,7.73l-.38.15-.02.02Z"/>
      <path class="cls-39" d="M720.88,585.16c2.26,4,4.2,8.4,4.58,13.23.18,2.4-.11,4.88-.98,7.16-.86,2.28-2.27,4.29-3.94,5.95l-1.16,1.19c-.39.37-.74.76-1.06,1.18-.35.4-.66.82-.93,1.27-.31.43-.56.88-.79,1.36-.95,1.86-1.44,3.96-1.49,6.11-.09,4.33,1.03,8.72,1.85,13.1l-.68.15c-1.05-4.32-2.43-8.62-2.6-13.25-.08-2.31.32-4.7,1.29-6.87.92-2.18,2.51-4.09,3.99-5.71,1.41-1.56,2.51-3.36,3.12-5.3.62-1.94.74-4,.48-6.04-.54-4.1-2.48-8.01-4.8-11.62l3.1-1.89.02-.02Z"/>
      <path class="cls-39" d="M706.65,626.39c-.87-1.54-1.66-3.13-2.26-4.83-.58-1.69-1.01-3.51-.84-5.42.17-1.9,1.17-3.81,2.71-5.02.76-.6,1.59-1.09,2.45-1.46.85-.41,1.61-.67,2.39-1.06,3.09-1.42,6.05-3.23,8.21-5.61,1.06-1.19,1.88-2.54,2.27-3.97.4-1.43.37-2.93,0-4.4l3.15-.69c.37,1.95.29,4.06-.37,5.97-.65,1.92-1.81,3.56-3.15,4.9-2.72,2.67-6,4.36-9.32,5.67-.81.34-1.72.61-2.47.92-.76.28-1.47.64-2.11,1.09-1.27.91-2.1,2.27-2.36,3.84-.24,1.58.03,3.28.5,4.91.47,1.64,1.15,3.23,1.92,4.79l-.71.38h-.01Z"/>
      <path class="cls-39" d="M844.01,555.57c1.31-.5,1.53-.48,1.51-.36l.13.29.25.58.44,1.15c.27.77.53,1.53.77,2.3.47,1.53.89,3.07,1.25,4.63.72,3.1,1.26,6.25,1.52,9.45.24,3.21.35,6.44-.3,9.79-.59,3.43-2.3,6.63-4.42,9.16-2.11,2.57-4.53,4.64-6.76,6.72-2.24,2.07-4.34,4.16-5.85,6.54-1.53,2.36-2.37,5.04-2.54,7.85l-.03,2.13.21,2.2c.04.74.23,1.45.34,2.18.11.73.29,1.45.48,2.16.73,2.87,1.85,5.64,3.14,8.41,1.28,2.77,2.71,5.57,3.81,8.58,1.11,3,1.8,6.23,1.84,9.46.05,3.23-.45,6.41-1.24,9.47-1.68,6.09-4.23,11.8-7.08,17.31-1.43,2.75-2.94,5.47-4.51,8.13l-4.84,7.91-.27-.15c2.93-5.46,5.92-10.86,8.5-16.45,2.58-5.58,4.84-11.33,6.19-17.25.65-2.96,1.03-5.94.89-8.9-.13-2.95-.83-5.84-1.95-8.6-1.1-2.77-2.57-5.45-3.97-8.25-1.4-2.79-2.71-5.73-3.59-8.84-.23-.77-.45-1.55-.59-2.35-.15-.79-.37-1.58-.45-2.38l-.3-2.41-.04-2.51c.09-3.36,1.12-6.78,2.9-9.63,3.59-5.76,9.05-9.31,12.59-13.84,1.78-2.24,3.04-4.71,3.47-7.39.52-2.72.41-5.75.15-8.68-.28-2.96-.81-5.92-1.52-8.82-.35-1.46-.76-2.9-1.21-4.31-.22-.71-.47-1.4-.72-2.09l-.4-1.01-.21-.48-.11-.24c-.1-.05.04-.21,1.28-.89l1.24-.58h0Z"/>
      <path class="cls-39" d="M856.28,645.66c-1.44-5.82-3.88-11.3-5.82-17.04-.94-2.88-1.73-5.86-1.89-8.98-.18-3.11.4-6.33,1.77-9.18.29-.74.7-1.41,1.12-2.08l1.18-1.94c.78-1.19,1.36-2.47,1.75-3.78.78-2.63.46-5.39-.55-8-.99-2.63-2.6-5.12-4.08-7.79-1.48-2.66-2.97-5.56-3.46-8.95l3.51-.4c.26,2.61,1.4,5.24,2.73,7.86,1.32,2.64,2.9,5.29,3.91,8.34,1.05,3,1.32,6.54.23,9.65-.53,1.54-1.28,2.99-2.2,4.28l-1.24,1.86c-.41.59-.81,1.18-1.09,1.83-1.34,2.51-1.99,5.35-1.94,8.24.03,2.89.65,5.8,1.46,8.66,1.66,5.72,3.9,11.37,5.1,17.3l-.49.11h0Z"/>
      <path class="cls-39" d="M818.02,662.67c2.56-1.46,5.05-3.03,7.32-4.88,2.27-1.84,4.31-3.96,5.87-6.38,1.57-2.41,2.61-5.13,2.95-7.94.36-2.81.04-5.66-.63-8.42l1.97-.48c.59,3,.78,6.11.24,9.14-.52,3.03-1.79,5.9-3.57,8.35-1.77,2.46-3.98,4.54-6.38,6.3-2.4,1.77-4.99,3.23-7.63,4.57l-.14-.27h0Z"/>
      <path class="cls-39" d="M844.97,631.17c-.31-1.74-.75-3.44-1.42-5.06-.66-1.62-1.56-3.12-2.53-4.59-.97-1.47-2-2.95-2.81-4.6-.82-1.64-1.37-3.44-1.65-5.26-.6-3.64-.15-7.44.99-10.94,1.13-3.51,2.84-6.74,4.58-9.86l2.48,1.48c-1.9,2.96-3.7,5.94-4.94,9.12-1.25,3.17-1.86,6.58-1.51,9.98.15,1.7.56,3.35,1.23,4.93.66,1.58,1.58,3.08,2.46,4.63.89,1.54,1.73,3.16,2.31,4.86.59,1.7.94,3.47,1.14,5.24l-.32.04v.03Z"/>
      <path class="cls-39" d="M839.43,652.3c.2,2.2.52,4.39.98,6.56.45,2.18,1.05,4.34,1.52,6.56.47,2.21.77,4.53.49,6.81-.25,2.28-.95,4.46-1.84,6.53l-.23-.09c.76-2.1,1.33-4.28,1.44-6.48.14-2.21-.27-4.39-.85-6.53-.58-2.14-1.31-4.28-1.89-6.47-.59-2.19-1.05-4.43-1.38-6.69l1.76-.2Z"/>
      <path class="cls-39" d="M865.46,632.45c-3.74-2.13-7.61-4.12-11-7-1.68-1.44-3.24-3.12-4.31-5.2-1.09-2.06-1.5-4.55-1.14-6.9l2.28.4c-.42,1.9-.26,3.89.54,5.72.78,1.84,2.08,3.49,3.57,4.96,3.01,2.96,6.71,5.24,10.3,7.64l-.23.37h-.01Z"/>
      <path class="cls-17" d="M850.37,470.2c-6.2-.07-12.32.35-18.33,1.37-6,1.04-11.87,2.7-17.48,5-5.63,2.25-10.96,5.22-15.95,8.7-4.99,3.5-9.6,7.54-14.03,11.88,3.56-5.07,7.87-9.67,12.76-13.59,1.25-.94,2.45-1.96,3.77-2.81l3.97-2.54,4.16-2.23,4.3-1.94c5.84-2.34,11.98-3.94,18.22-4.57,6.23-.65,12.54-.46,18.62.73h0Z"/>
      <path class="cls-43" d="M722.41,488.22c9.39-1.45,18.32-14.37,14.74-29.7-3.73-15.99-11.09-21.28-14.18-26.34-3.81-6.25,15.24-23.52,21.45-16.95,6.48,6.84,27.14,35,25.54,62.29-1.01,17.11-6.51,32.54-15.02,41.2-3.82,3.9-32.54-30.5-32.54-30.5h.01Z"/>
      <path class="cls-9" d="M763.67,533.71c.3,10.25-.94,27.07-21.92,33.65-12.39,3.87-.11,9.56-12.55,17.1-7.05,4.26-21.95,8.34-31.84.81-9.88-7.54-19.55-35.64-9.88-56.98,6.89-15.21,16.84-28.12,25.46-34.98,3.46-2.77,6.72-4.55,9.47-5.09,6.59-1.31,14.18,1.52,17.24,14.74,9.76-.89,15.59,10.45,15.51,12.99,5.01-1.2,9.53,5.24,8.42,10.16-.29,1.27,0,4.04.1,7.6h0Z"/>
      <path class="cls-43" d="M749.28,443c3.39-5.22,15.74-11.54,19.16-11.54,2.23,0,6.77,12.84,4.36,14.15-2.41,1.31-7.03.19-5.89,12.8,1.12,12.5-18.79-13.62-17.63-15.41h0Z"/>
      <path class="cls-39" d="M735.48,425.66c-4.64,4.09-9.36,6.31-10.54,4.96-1.19-1.35,1.37-6.13,6.01-10.22,4.64-4.09,9.61-5.92,10.79-4.58,1.19,1.35-1.61,5.75-6.25,9.83h-.01Z"/>
      <path class="cls-39" d="M741.75,567.36c-12.39,3.87-.11,9.56-12.55,17.1-7.05,4.26-21.95,8.34-31.84.81-9.88-7.54-19.55-35.64-9.88-56.98,6.89-15.21,16.84-28.12,25.46-34.98-9.39,15.66-22.22,29.94-20.95,45.38,1.29,15.46,8.21,24.68,11.82,22.63,3.6-2.05,16.43,8.39,18.61,9.58,2.19,1.2,6.98-14.43,19.61-10.72,9.69,2.85,17.99-13.42,21.66-26.48.3,10.25-.94,27.07-21.92,33.65h-.02Z"/>
      <path class="cls-43" d="M699.82,542.03c-5.23-1.89-1.42-31.91,19.83-46.54,21.24-14.63-12.38,49.23-19.83,46.54Z"/>
      <path class="cls-39" d="M768.95,438.99c1.12,3.4,2.65,5.96,3.41,5.71.76-.25.46-3.21-.66-6.62-1.12-3.4-2.65-5.96-3.41-5.71-.76.25-.46,3.21.66,6.62Z"/>
      <path class="cls-39" d="M807.68,608.02c-.13-3.15,1.38-6.09,3.28-8.36,1.92-2.32,4.21-4.21,6.55-5.95,4.69-3.48,9.79-6.32,14.24-9.69,1.1-.85,2.14-1.74,2.99-2.69.42-.47.79-.97,1.05-1.45.25-.5.56-1.2.81-1.79.98-2.51,1.63-5.16,1.83-7.87.47-5.41-.52-10.92-2.4-16.05l4.29-1.48c1.81,5.74,2.65,11.88,1.84,17.94-.37,3.02-1.23,5.99-2.48,8.78-.34.71-.64,1.33-1.07,2.09-.46.77-1,1.4-1.56,1.98-1.12,1.15-2.33,2.06-3.55,2.92-4.9,3.35-10.03,5.89-14.74,9.07-2.34,1.58-4.61,3.29-6.46,5.33-1.85,2.02-3.24,4.5-3.26,7.19l-1.37.02h.01Z"/>
      <path class="cls-23" d="M782.86,541.38c17.2-4.58,32.36,6.36,31.32,23.79-1.03,17.11-7.83,37.33-19.91,39.28-11.15,1.8-26.76-18.77-30.05-35.94s9.71-24.75,18.64-27.13h0Z"/>
    </g>
  </g>
  <ellipse class="cls-33" cx="1553.26" cy="1375.26" rx="195" ry="4.18"/>
  <g>
    <g>
      <g>
        <g>
          <path class="cls-24" d="M109.07,871.45c-.51,13.94,9.8,32.69,34.7,40.13,32.41,9.7,71.24-13.31,79.21-27.73,2.2-3.88,2.12-7.15-.95-8.97-2.19-1.33-4.37-2.52-6.42-3.74-3.74-2.17-7.05-4.37-9.49-7.11h-.03c-5.16-5.58-6.52-13.45.21-28.33,11.8-25.94-52.05-20.75-52.05-20.75-.15,7.25-6.71,33.42-23.14,41.75-15.42,7.76-18.85,13.33-22.05,14.75h0Z"/>
          <path class="cls-24" d="M151.74,828.78c-2.42,7.91,42.26,28.68,42.26,28.68,0,0,4.09-14.12,12.9-23.19,2.08-2.14,3.57-2.92,6.35-3.19,6.86-.67,9.69,2.69,17.08,2.26,10.37-.61,12.48-24.31,12.67-27.23.77-11.34-.89-26.86-.7-28.91.19-2.06,1.25-2.84,1.46-5.92.2-3.05-3.25-14.8-7.46-22.53h0c-.03-.08-.08-.15-.11-.21,1.1.18-2.85-29.13-30.71-36.23-27.86-7.08-53.8,8.72-63.01,32.6-9,23.39,4.04,33.96,7.19,50.32.07.35.14.71.19,1.07,2.77,16.97,5.89,19.46,1.9,32.48h-.01Z"/>
          <path class="cls-6" d="M152.32,815.03c2.63,3.01,32.57,2.89,35.91-.64,4.33-4.58,12.56-18.41,10.31-20.73-4.55-4.69-2.69-19.66,5.57-19.51,8.26.14,10.14,4.77,10.78,9.91.32,2.56,1.33,2.17,4.23,1.76.94-.13.8-8.29.28-12.14-.66-4.94,1.2-28.32,18.96-24.87,2.54.49,8.82-14.15,4.77-25.24-5.7-15.57-24.1-11.17-32.64-14.07-37.65-12.78-62.04-.09-71.19,20.49-13.1,29.49,4.14,74.84,13.04,85.04h-.02Z"/>
        </g>
        <path class="cls-9" d="M66.44,1023.97c-.06,2.43,1.04,4.47,3.01,6.15.18.18.35.32.56.46.78.6,1.62,1.16,2.61,1.64.04.07.07.07.14.07,16.92,8.81,62.16,5.12,62.84-1.88,1.8-18.45,15.81-143.91-32.31-148.06-11.83-1.01-20.04,5.88-25.7,17.16-.14.21-.25.46-.35.7-16.98,34.9-10.44,109.79-10.81,123.76h0Z"/>
        <path class="cls-9" d="M71.53,922.82c.49-20.83,15.88-46.65,44.29-62.06.82-.38,8.68-4.35,14.38-6.76,1.31-.55,2.75-.6,4.07-.07,7.1,2.82,20.99,4.68,36.92,4.62,13.11-.05,24.28-1.19,31.8-3.21,1.85-.5,2.95.24,4.59,1.64,1.36,1.17,3.25,2.63,5.07,4.06h0c1.87,1.55,3.28,2.17,7.18,4.55,1.83,1.12,3.93,2.23,5.76,3.14h.03c.99.45,1.94.94,2.89,1.43,1.45.73,2.82,1.5,4.13,2.27.63.35,1.23.73,1.83,1.12.6.35,1.2.73,1.76,1.12,3.77,2.55,6.85,5.25,9.04,8.06.35.46.67.91.99,1.37,1.45,2.18,2.62,4.57,3.62,7.17,6.54,17.71,2.97,43.62,3.01,54.53.06,16.89,1.68,54.54,3.41,95.7,1.23,28.18,2.5,58.02,3.37,84.02,1.38,39.86,1.8,70.72-.3,72.84-5.47,5.51-178.73,4.22-178.78-10.8-.03-8.87-6.14-88.08-8.11-165.41-.86-33.46-1.99-53.9-.96-99.33h0Z"/>
        <path class="cls-34" d="M70.02,1030.57c.78.6,1.62,1.16,2.61,1.64.04.07.07.07.14.07.81-10.1,1.12-11.62,2.44-55.82-.91,11.12-1.96,21.82-3.09,31.79-.72,6.23-1.39,15.45-2.1,22.32Z"/>
        <path class="cls-34" d="M206.62,1040.32c4.12,29.16,25.93,65.95,53.06,85.21-.87-26-2.14-55.84-3.37-84.02-5.03-19.41-9.4-39.06-11.74-56.08-8.24-60-36.49-86.29-38.4-71.12-1.92,15.17-4.96,87.78.46,126.01h-.01Z"/>
        <path class="cls-24" d="M274.34,997.7c1.84,3.82,3.79,59.67,6.06,68.21.31,1.17,1.15,2.96,2.03,4.57,7.4,7.62,62.48,55.8,81.61,70.64,19.3,14.97-.47,15.49-25.54,28.8-62.48-28.75-97.81-66.56-102.2-72.86-7.39-10.62-13.23-54.85-16.71-80.91-3.74-28.04,52.91-22.25,54.74-18.44h0Z"/>
        <path class="cls-9" d="M281.52,1015.64c-1.39-18.47-9.1-144.46-57.25-140.33s-14.71,127.39-12.01,145.86c2.71,18.46,69.91,3.15,69.26-5.53Z"/>
      </g>
      <path class="cls-12" d="M417.96,1462.35c0-13.11-15.21-11.11-28.75-13.09-15.4-2.25-25.23-10.51-31.23-18.81-6-8.31-42.63-10.31-43.61-1.78-1.5,12.96-2.5,37.4,6.92,37.6,55,1.19,96.67,3.09,96.67-3.92h0Z"/>
      <path class="cls-12" d="M563.03,1461.97c0-13.11-15.29-11.01-28.84-12.88-15.42-2.14-25.3-10.33-31.36-18.59s-42.7-10.01-43.62-1.47c-1.4,12.97-2.23,37.42,7.19,37.55,55.01.8,96.64,3.35,96.64-4.61h-.01Z"/>
      <path class="cls-36" d="M373.4,1433.36c8.79-8.3,3.08-236.24,3.08-239.93s-75.82-20.07-78.67-15.65c-2.85,4.42,12,255.59,12,255.59,0,0,52.52,10.46,63.59,0h0Z"/>
      <path class="cls-6" d="M79.94,1157.13c-2.4,18.96-7.38,62.14,32.61,72.29,39.99,10.15,211.63,1.54,238.09-15.07,11.07,51.06,95.36,222.09,99.66,224.55,4.31,2.46,73.21,0,71.36-3.69-1.85-3.69-89.21-270.08-113.2-284.84-23.99-14.77-302.07,0-302.07,0l-26.45,6.77h0Z"/>
      <path class="cls-13" d="M200.73,782.17c.39-2.76,3.8-3.64,5.84-2.88,2.12,1.03,3.48,3.57,2.64,5.64-.38,1.04-1.42,1.65-2.45,2.77-.25.3-.47.69-.56,1.14-.05.5.01.8.09,1.17.13.71.56,1.46,1.18,1.91,1.24.82,2.38,1.15,2.6,2.39.28,1.15-.11,2.47-.86,3.53.97-.89,1.59-2.22,1.49-3.63-.05-.7-.46-1.43-1.01-1.89-.54-.48-1.16-.77-1.56-1.15-.41-.37-.61-.83-.7-1.38-.11-.65-.08-.9.3-1.31.74-.78,2.12-1.61,2.72-3.06.58-1.43.39-2.99-.29-4.27-.71-1.26-1.82-2.25-3.19-2.75-1.53-.43-2.9-.14-4.19.48-1.28.64-2.1,2-2.04,3.3h0Z"/>
    </g>
    <g>
      <path class="cls-5" d="M179.62,1471.8h-16.9c-3.3-30.94-6.79-63.71-10-94.11-6.15-58.17-11.96-113.12-13.07-119.42-1.32-7.61-1.83-10.46-19.36-10.46h-24.73c-17.53,0-18.02,2.85-19.36,10.46-1.12,6.3-6.92,61.25-13.07,119.42-3.21,30.4-6.68,63.17-10,94.11h-16.9c3.39-31.46,6.92-64.91,10.2-95.87,7.44-70.5,12.07-114.05,13.22-120.58,2.72-15.42,9.46-24.34,35.9-24.34h24.73c26.45,0,33.18,8.92,35.9,24.34,1.16,6.53,5.78,50.08,13.22,120.58,3.28,30.96,6.81,64.4,10.2,95.87h.02Z"/>
      <path class="cls-5" d="M51.9,1241.59c-2.38-4.48-3.99-9.91-4.8-16.13-3.44-26.33-28.91-184.53-29.16-186.12l16.57-2.67c1.05,6.52,25.76,160.05,29.24,186.62.55,4.23,1.56,7.74,2.99,10.44l-14.83,7.86h0Z"/>
      <path class="cls-5" d="M240.41,1241.59c-2.37-4.48-3.99-9.9-4.8-16.13-3.44-26.33-28.91-184.53-29.16-186.12l16.57-2.67c1.05,6.52,25.76,160.05,29.24,186.62.55,4.23,1.56,7.75,2.99,10.44l-14.83,7.86h-.01Z"/>
      <rect class="cls-7" x="91.93" y="1224.98" width="218.08" height="30.6"/>
      <polygon class="cls-7" points="226.52 1030.06 9.52 1030.06 33.74 1184.4 251.08 1184.4 226.52 1030.06"/>
      <path class="cls-7" d="M66.33,1225.01h89.73c8.41,0,15.29,6.88,15.29,15.29h0c0,8.41-6.88,15.29-15.29,15.29h-89.73c-8.41,0-15.29-6.88-15.29-15.29h0c0-8.41,6.88-15.29,15.29-15.29h0Z"/>
      <path class="cls-41" d="M243.43,1225.01h89.73c8.41,0,15.29,6.88,15.29,15.29h0c0,8.41-6.88,15.29-15.29,15.29h-89.73c-8.41,0-15.29-6.88-15.29-15.29h0c0-8.41,6.88-15.29,15.29-15.29h0Z"/>
      <path class="cls-7" d="M35.57,1184.4h0c-5.97,1.02-11.69-3.03-12.72-9L.16,1042.88c-1.02-5.97,3.03-11.69,9-12.72h0c5.97-1.02,11.69,3.03,12.72,9l22.69,132.52c1.02,5.97-3.03,11.69-9,12.72Z"/>
      <path class="cls-44" d="M356.71,1471.8h-16.9c-3.3-30.89-6.77-63.64-9.98-93.97-6.15-58.25-11.97-113.27-13.07-119.57-1.34-7.61-1.85-10.46-19.38-10.46h-24.73c-17.51,0-18.02,2.85-19.36,10.46-1.12,6.3-6.92,61.25-13.07,119.42-3.21,30.4-6.68,63.17-10,94.11h-16.88c3.38-31.46,6.9-64.91,10.18-95.87,7.46-70.5,12.09-114.05,13.22-120.58,2.72-15.42,9.47-24.34,35.9-24.34h24.73c26.45,0,33.18,8.92,35.9,24.34,1.16,6.55,5.78,50.13,13.24,120.71,3.28,30.92,6.81,64.33,10.18,95.74h.02Z"/>
      <path class="cls-41" d="M251.17,1184.4h0c-5.97,1.02-11.69-3.03-12.72-9l-22.69-132.52c-1.02-5.97,3.03-11.69,9-12.72h0c5.97-1.02,11.69,3.03,12.72,9l22.69,132.52c1.02,5.97-3.03,11.69-9,12.72Z"/>
    </g>
  </g>
  <g>
    <path class="cls-14" d="M900.59,955.09c-12.96,31.28-16.59,64.44-16.32,86.8.28,22.36,45.77,4.24,45.77,4.24,0,0,15.51-77.99-29.45-91.04h0Z"/>
    <path class="cls-14" d="M1081.72,955.09c12.96,31.28,16.59,64.44,16.32,86.8-.28,22.36-45.77,4.24-45.77,4.24,0,0-15.51-77.99,29.45-91.04h0Z"/>
    <path class="cls-18" d="M918.18,1260.49c.63,26.59,9.5,97.99,20.6,136.6,9.77,33.99,1.22,60.14,1.22,60.14h39.67s-4.95-30.66-3.63-42.41c2.06-18.25,11.9-151.13,4.63-172.08-7.27-20.94,6.94-10.74,6.94-10.74h-80.67s11.1,22.41,11.24,28.48h0Z"/>
    <path class="cls-6" d="M941.24,1446.7c-7.26,8.31-7.73,25.11,2.68,25.11h34.31c3.86,0,9.43-16.89,1.09-25.11-8.32-8.19-33.96-4.72-38.09,0h0Z"/>
    <path class="cls-18" d="M1066.69,1260.49c-.63,26.59-9.5,97.99-20.6,136.6-9.77,33.99-1.22,60.14-1.22,60.14h-39.67s4.95-30.66,3.63-42.41c-2.06-18.25-11.9-151.13-4.63-172.08,7.27-20.94-6.94-10.74-6.94-10.74h80.67s-11.1,22.41-11.24,28.48h0Z"/>
    <path class="cls-6" d="M1043.64,1446.7c7.26,8.31,7.73,25.11-2.68,25.11h-34.31c-3.86,0-9.43-16.89-1.09-25.11,8.32-8.19,33.96-4.72,38.09,0h0Z"/>
    <path class="cls-28" d="M1074.81,1083.7c0-26.99,10.02-83.28,10.02-111.81s-26.99-51.66-46.26-60.91c-19.28-9.25-24.25-9.51-27.59-20.3-2.09-6.76-12.82-7.97-19.83-7.97s-17.74,1.2-19.83,7.97c-3.34,10.79-8.31,11.05-27.59,20.3-19.28,9.25-46.26,32.38-46.26,60.91s10.02,84.82,10.02,111.81-23.22,37.78-23.22,85.59,12.23,55.52,24.56,55.52h165.01c12.34,0,24.18-7.71,24.18-55.52s-23.22-58.6-23.22-85.59h0Z"/>
    <g>
      <path class="cls-5" d="M890.23,1232.01c-4.6,0-8.36,3.76-8.36,8.36v231.44h16.71v-231.44c0-4.6-3.76-8.36-8.36-8.36h.01Z"/>
      <path class="cls-5" d="M862.88,1232.01c-4.6,0-8.36,3.76-8.36,8.36v231.44h16.71v-231.44c0-4.6-3.76-8.36-8.36-8.36h.01Z"/>
      <path class="cls-5" d="M1119.42,1232.01c-4.6,0-8.36,3.76-8.36,8.36v231.44h16.71v-231.44c0-4.6-3.76-8.36-8.36-8.36h.01Z"/>
      <path class="cls-5" d="M1092.07,1232.01h0c-4.6,0-8.36,3.76-8.36,8.36v231.44h16.71v-231.44c0-4.6-3.76-8.36-8.36-8.36h.01Z"/>
      <g>
        <rect class="cls-5" x="890.23" y="1176.42" width="16.71" height="59.15"/>
        <rect class="cls-5" x="1075.36" y="1176.42" width="16.71" height="59.15"/>
      </g>
      <rect class="cls-7" x="866.41" y="1030.06" width="249.49" height="154.34" rx="11.75" ry="11.75"/>
      <path class="cls-7" d="M1101.68,1260.49h-221.06c-9.76,0-17.74-7.98-17.74-17.74h0c0-9.76,7.98-17.74,17.74-17.74h221.06c9.76,0,17.74,7.98,17.74,17.74h0c0,9.76-7.98,17.74-17.74,17.74h0Z"/>
    </g>
    <path class="cls-6" d="M1037.28,800.1c-10.33-32.38-24.42-35.66-32.34-30.96-2.5-1.99-12.4-8.84-29.2-6.61-24.72,3.27-34.81,29.03-41.9,57.14-6.06,24.01-9.53,67.83-9.78,84.54-.34,22.78,8.41,49.97,62.94,48.28,62.84-1.95,62.98-34.91,62.93-51.83l-.02-.62c-.83-30.31-4.84-75.54-12.64-99.95h.01Z"/>
  </g>
  <g>
    <g>
      <path class="cls-24" d="M746.64,1169.5c11.28-11.57,35.21.26,40.87,11.31,6.06,11.85,4.33,32.49,3.53,48.37s-16.63,43.26-16.63,43.26l-27.76-102.94h-.01Z"/>
      <g>
        <path class="cls-24" d="M653.59,1314.22c1.39,18.71,17.94,88.09,20.44,106.22,1.46,10.82,1.77,14.75.27,19.94l31.41,10.01c3.81-2.73,6.93-5.39,9.24-7.62-.23-.46-.5-.89-.77-1.35-5.58-9.28-8.78-20.6-6.93-34.11,6.43-47.93,10.05-153.03,11.55-178.13,0,0-55.09-6.01-60.33,9.24-5.27,15.25-7.31,43.31-4.89,75.8h.01Z"/>
        <g>
          <path class="cls-31" d="M669.77,1466.35h88.39c1.94-1.94,2.32-5.47,2.29-6.87s-89.78-7.86-91.18-4.38c-1.39,3.48-1,11.25.5,11.25Z"/>
          <path class="cls-30" d="M673.06,1431.8c-2.5,6.81-4.32,18.19-3.79,23.31,7.56,0,40.74.4,46.15,1.99,5.41,1.59,28.3,2.39,45.02,2.39,0-6.57-1.79-12.34-11.55-15.03-8.91-2.45-31.78-7.98-37.7-16.81-.91-1.35-1.61-1.44-2.61-.16-5.33,6.84,3.19,12.23-3.5,12.49-10.33.41-22.48-5.17-29.18-9.2-1.06-.63-2.43-.14-2.85,1.02h0Z"/>
        </g>
      </g>
      <g>
        <path class="cls-24" d="M725.82,1314.22c1.39,18.71,17.94,88.09,20.44,106.22,1.46,10.82,1.77,14.75.27,19.94l31.41,10.01c3.81-2.73,6.93-5.39,9.24-7.62-.23-.46-.5-.89-.77-1.35-5.58-9.28-8.78-20.6-6.93-34.11,6.43-47.93,10.05-153.03,11.55-178.13,0,0-55.09-6.01-60.33,9.24-5.27,15.25-7.31,43.31-4.89,75.8h.01Z"/>
        <g>
          <path class="cls-40" d="M742.62,1466.35h88.39c1.94-1.94,2.32-5.47,2.29-6.87s-89.78-7.86-91.18-4.38c-1.39,3.48-1,11.25.5,11.25Z"/>
          <path class="cls-4" d="M745.91,1431.8c-2.5,6.81-4.32,18.19-3.79,23.31,7.56,0,40.74.4,46.15,1.99,5.41,1.59,28.3,2.39,45.02,2.39,0-6.57-1.79-12.34-11.55-15.03-8.91-2.45-31.78-7.98-37.7-16.81-.91-1.35-1.61-1.44-2.61-.16-5.33,6.84,3.19,12.23-3.5,12.49-10.33.41-22.48-5.17-29.18-9.2-1.06-.63-2.43-.14-2.85,1.02h0Z"/>
        </g>
      </g>
      <path class="cls-24" d="M535.15,1117.11c-1.98-18.1-10.32-49.96-14.23-56.94s13.32-63.32,15.77-81.93c2.46-18.61,16.54-80.82-19.24-85.55-12.52-1.65-23.26,10.76-27.47,42.61-4.2,31.85-9.18,110.92-8.26,120.5.92,9.59,16.69,69.37,20.79,87.93,3.62,16.38,9.98,24.84,11.89,35.85,4.77-.23,16.07-1.79,24.68-3.05-2.01-13.11-2.11-42.77-3.93-59.44v.02Z"/>
      <path class="cls-35" d="M649.8,1083.2c-2.6,7.68.03,22.54,0,31.56,0,2.03.11,4.3.3,6.66.69,9.05,2.38,19.63,2.47,23.91.08,7.07-11.95-.41-14.15.77-4,2.25-22.1-2.28-33.91-3.32-19.44-1.78-35.06-5.84-67.14-1.84-7.7.99-13.41,4.69-15.93,1.23-2.96-4.14,4.88-16.37-.58-38.03-.11-.47-.03-.99.16-1.48-3.13-11.84-7.15-26.59-11.35-43.89-8.53-35.01-8.31-69.99-8.31-108.29s40.05-57,77.59-57c12.64,0,38.68-1.95,58.18,9.6,19.49,11.54,36.82,70.9,36.82,95.08s-13.08,47.26-14.89,56.31c-.85,4.19-4.58,15.19-9.27,28.73h.01Z"/>
      <path class="cls-19" d="M650.1,1121.42c-48.2-15.35-41.95-74.82-41.92-120.49,0,0,20.51,48.8,31.77,70.35,1.73,3.29,5.32,7.4,9.84,11.93-2.6,7.68.03,22.54,0,31.56,0,2.03.11,4.3.3,6.66h0Z"/>
      <path class="cls-24" d="M718.21,1163.93c4.58-3.63,9.66-7.07,15.12-9.41-.18-.13-.36-.25-.55-.39-.01,0-.02,0-.02-.02-.6-.43-1.2-.89-1.8-1.36l-.05-.07c-3.22-2.5-4.55-4.08-6.45-6.8-.01,0-.02-.02-.03-.04-.43-.6-.88-1.28-1.4-2.02-1.64-2.38-3.78-5.18-6.14-8.2-9.71-13.05-20.4-25.71-26.78-33.87-9.25-11.82-17.61-22.49-26.13-33.91l-1.05-1.83c-2.24-4.33-3.34-14.38-4.18-25.31-1.16-15.04.3-45.02.3-53.41,0-18.77,5.82-82.29-30.27-82.29-12.63,0-21.66,13.72-21.66,45.84,0,24.66,1.11,64.55,3.82,93.15.44,7.1,3.7,28.78,5.96,33.97s4.64,9.66,8.49,15.57c7.61,11.66,31.63,37.22,44.25,46.14h0c4.68,3.33,9.33,6.68,13.8,9.62h0c10.77,7.52,21.06,14.02,29.08,18.81,1.93-1.34,3.84-2.72,5.69-4.19v.02Z"/>
      <g>
        <polygon class="cls-24" points="614.87 901.69 624.89 855.67 584.28 843.76 569.39 907.64 614.87 901.69"/>
        <path class="cls-24" d="M655.33,776.13c.74,20.34,8.75,80.93-5.91,89.47-14.67,8.54-24.71,1.65-31.48-.11-6.77-1.76-23.19-55.98-3.85-70.77,19.34-14.79,41.06-23.66,41.24-18.59h0Z"/>
        <path class="cls-6" d="M480.87,909.72c6.4-31.06,30.52-58.43,38.56-73.61,8.39-15.9,8.62-59.71,24.87-83.62,2.27-3.35,5.85-7.16,10.74-10.66,9.24-6.7,23.24-13.52,42.08-12.59,2.19.11,6.47.69,8.7,1,1.46-.23,2.95-.26,4.35-.58,29.54-6.61,51.94,20.1,50.86,35.96-1,15.17-7.35,18.44-8.43,19.83-.96,1.27-5.97,8.55-15.59,23.14-1.04,1.54-2.12,3.16-3.23,4.89-1.31-1.73-3.08-2.73-4.93-2.96-4.31-.58-9.96,2.68-10.32,10.05-.45,9.39,8.88,20.02,12.13,20.02,0,25.88-.19,56.33-3.25,76.24-3.75,32.45-9.77,76.11-75.43,76.11h-.09c-9.96.24-19.09-.73-26.08-2.53-56.14-11.74-48.9-61.48-44.95-80.68h.01Z"/>
      </g>
      <path class="cls-4" d="M636.32,1134.5c32.13.83,99.91,12.22,138.59,31.92,15.51,7.9,7.64,66.93-3.6,66.93-32.12,0-172.32,5.3-185.02,4.98-12.7-.33,50.02-103.83,50.02-103.83h.01Z"/>
      <path class="cls-4" d="M520.81,1138.35c-16.96,41.12-27.85,112.11,33.73,112.11s214.98,5.88,220.89-25.19c4.65-24.44-28.79-72.74-101.48-86.62-31.81-6.07-137.5-9.97-153.14-.31h0Z"/>
      <path class="cls-13" d="M622.21,818.9c.29-2.77,3.66-3.77,5.73-3.08,2.15.96,3.61,3.44,2.84,5.54-.34,1.05-1.36,1.7-2.34,2.85-.24.3-.45.71-.52,1.16-.03.5.04.8.13,1.16.15.71.61,1.44,1.25,1.86,1.27.77,2.42,1.06,2.68,2.3.32,1.14-.02,2.47-.73,3.56.94-.93,1.51-2.28,1.36-3.69-.07-.7-.51-1.41-1.08-1.85-.56-.46-1.19-.73-1.6-1.1-.42-.35-.64-.8-.75-1.35-.13-.65-.11-.9.25-1.32.71-.81,2.06-1.69,2.6-3.16.53-1.45.28-3-.44-4.25-.76-1.23-1.9-2.18-3.29-2.63-1.54-.37-2.9-.03-4.17.63-1.25.69-2.03,2.07-1.92,3.37h0Z"/>
    </g>
    <g>
      <path class="cls-5" d="M611.07,1471.8h-16.9c-3.3-30.94-6.79-63.71-10-94.11-6.16-58.17-11.96-113.12-13.07-119.42-1.32-7.61-1.83-10.46-19.36-10.46h-24.73c-17.53,0-18.02,2.85-19.36,10.46-1.12,6.3-6.92,61.25-13.07,119.42-3.21,30.4-6.68,63.17-10,94.11h-16.9c3.39-31.46,6.92-64.91,10.2-95.87,7.44-70.5,12.07-114.05,13.22-120.58,2.72-15.42,9.46-24.34,35.9-24.34h24.73c26.45,0,33.18,8.92,35.9,24.34,1.16,6.53,5.78,50.08,13.22,120.58,3.28,30.96,6.81,64.4,10.2,95.87h.02Z"/>
      <path class="cls-5" d="M483.36,1241.59c-2.38-4.48-3.99-9.91-4.8-16.13-3.44-26.33-28.91-184.53-29.16-186.12l16.57-2.67c1.05,6.52,25.76,160.05,29.24,186.62.55,4.23,1.56,7.74,2.99,10.44l-14.83,7.86h-.01Z"/>
      <path class="cls-5" d="M671.87,1241.59c-2.37-4.48-3.99-9.9-4.8-16.13-3.44-26.33-28.91-184.53-29.16-186.12l16.57-2.67c1.05,6.52,25.76,160.05,29.24,186.62.55,4.23,1.56,7.75,2.99,10.44l-14.83,7.86h-.01Z"/>
      <rect class="cls-7" x="523.39" y="1224.98" width="218.08" height="30.6"/>
      <polygon class="cls-7" points="657.98 1030.06 440.98 1030.06 465.2 1184.4 682.54 1184.4 657.98 1030.06"/>
      <path class="cls-7" d="M497.79,1225.01h89.73c8.41,0,15.29,6.88,15.29,15.29h0c0,8.41-6.88,15.29-15.29,15.29h-89.73c-8.41,0-15.29-6.88-15.29-15.29h0c0-8.41,6.88-15.29,15.29-15.29Z"/>
      <path class="cls-41" d="M674.89,1225.01h89.73c8.41,0,15.29,6.88,15.29,15.29h0c0,8.41-6.88,15.29-15.29,15.29h-89.73c-8.41,0-15.29-6.88-15.29-15.29h0c0-8.41,6.88-15.29,15.29-15.29Z"/>
      <path class="cls-7" d="M467.03,1184.4h0c-5.97,1.02-11.69-3.03-12.72-9l-22.69-132.52c-1.02-5.97,3.03-11.69,9-12.72h0c5.97-1.02,11.69,3.03,12.72,9l22.69,132.52c1.02,5.97-3.03,11.69-9,12.72Z"/>
      <path class="cls-44" d="M788.17,1471.8h-16.9c-3.3-30.89-6.77-63.64-9.98-93.97-6.15-58.25-11.97-113.27-13.07-119.57-1.34-7.61-1.85-10.46-19.38-10.46h-24.73c-17.51,0-18.02,2.85-19.36,10.46-1.12,6.3-6.92,61.25-13.07,119.42-3.21,30.4-6.68,63.17-10,94.11h-16.88c3.38-31.46,6.9-64.91,10.18-95.87,7.46-70.5,12.09-114.05,13.22-120.58,2.72-15.42,9.47-24.34,35.9-24.34h24.73c26.45,0,33.18,8.92,35.9,24.34,1.16,6.55,5.78,50.13,13.24,120.71,3.28,30.92,6.81,64.33,10.18,95.74h.02Z"/>
      <path class="cls-41" d="M682.63,1184.4h0c-5.97,1.02-11.69-3.03-12.72-9l-22.69-132.52c-1.02-5.97,3.03-11.69,9-12.72h0c5.97-1.02,11.69,3.03,12.72,9l22.69,132.52c1.02,5.97-3.03,11.69-9,12.72Z"/>
    </g>
  </g>
  <g>
    <g>
      <path class="cls-37" d="M1516.13,1329.26c0,.74-7.07,21.49-7.07,21.49,0,0-58.3-7.36-58.89-7.36s21.35-29,21.2-30.92c-.15-1.91,44.76,16.78,44.76,16.78h0Z"/>
      <g>
        <path class="cls-15" d="M1676.58,1324.91c-12.37,0-19.43,7.51-24.51,16.64s-4.42,25.36-4.42,25.36c7.07,0,62.94-.61,62.94.41,0-8.93-12.81-42.4-34.01-42.4h0Z"/>
        <path class="cls-10" d="M1650.09,1375.25h58.73c2.86,0,4.24-6.78,2.64-8.39h-64.01c-1.6,1.6-.22,8.39,2.64,8.39Z"/>
      </g>
      <g>
        <path class="cls-15" d="M1513.92,1326.68c-2.65,0-7.07,15.46-18.55,15.46s-19.43-20.32-30.92-20.32c-6.62,0-9.18,7.26-24.51,12.59-15.9,5.52-41.96,9.5-47.7,13.47s-3.31,18.99-3.31,18.99h128.97c3.75-6.4,3.53-40.19-3.98-40.19h0Z"/>
        <path class="cls-10" d="M1515.24,1375.26h-125.43c-1.64-.61-2.99-8.39-.88-8.39h128.97c1.6,1.6.22,8.39-2.65,8.39h0Z"/>
      </g>
      <path class="cls-1" d="M1597.83,765.22s4.46,4.08,10.99,42.49c2.92,17.09,6.22,40.99,9.74,74.37,3.05,28.74,6.09,56.47,8.98,82.13v.06c8.04,71.14,14.95,126.42,17.34,143.22,3.24,22.86-11.28,233.54,3.36,229.09,0,0,60.44,5.48,61.31.97,18.28-91.9,16.05-234.99,14.83-254.4-1.19-19.41,9.61-151.35,10.08-183.04.38-24.18,2.48-41.77,3.14-61.84.41-12.19.25-25.25-1.16-41.27-2.79-31.44-10.71-41.18-10.71-41.18,0,0-35.77,3.14-81.35,6.34-14.76,1.04-30.59,2.1-46.55,3.05h0Z"/>
      <path class="cls-1" d="M1460.1,1321.82c0,4.43,61.57,22.9,69.49,12.32,5.03-6.72,22.17-69.66,34.96-119.95,0-.06,0-.09.03-.16,7.35-28.9,13.22-53.58,14.51-60.99,2.55-14.51,27.01-107.54,47.36-184.58.38-1.41.72-2.79,1.1-4.18v-.06c7.7-29.15,14.7-55.69,19.6-74.4.94-3.64,6.53-23.62,10.24-46.86,5.12-32.26,6.6-70.82-13-80.78-3.67-1.88-8.1-2.73-13.38-2.36-53.67,3.86-67.37-9.58-74.97-12.31-7.63-2.7-4.55-1.04-5.43,5.15s-5.97,40.86-6.85,53.24c-.19,2.64-1.63,14.26-3.86,31.5-8.29,64.1-27.04,205.91-29.62,251.17-1.19,21.29-50.17,228.86-50.17,233.26h0Z"/>
      <path class="cls-11" d="M1564.56,1214.04c7.35-28.9,13.22-53.58,14.51-60.99,2.54-14.51,27.01-107.54,47.36-184.58.38-1.41.72-2.79,1.1-4.18v-.03c1.29-42.24-4.05-93.25-4.05-93.25-7.88,71.99-55,311.37-58.92,343.03h0Z"/>
      <path class="cls-37" d="M1457.48,603.11c-8.36-3.22-24.41-9.69-33.97-16.48-9.56-6.8-23.51-23.24-27.03-27.09-3.52-3.85-15.17-12.24-28.73-13.15-13.56-.9-30.37-5.78-31.57-4.21s-.5,5.16,4.35,7.21c4.86,2.05,17.3,5.38,17.46,6.04.16.66-3.06,3.46-8.02,2.86-4.97-.6-40.31-2.15-43.2-2.86-2.89-.72-9.41-.97-10.16,2.85-.76,3.81,35.6,13.96,36.99,13.77,1.38-.19.27,2.57,1.64,4.85,1.36,2.28,13.83,11.18,33.77,13.22,19.93,2.04,21.43.08,24.87,2.08s58.71,61.82,62.9,65.02c4.19,3.2,29.56,19.67,32.93-7.74,3.38-27.41-26.67-44.24-32.22-46.37h-.01Z"/>
      <path class="cls-16" d="M1419.82,574.31c.56-3.45,67.57,44.67,90.66,59.58.19-.31.36-.62.49-.92,1.73-2.03,8.51-58.64,11.88-78.54,3.38-19.9,24.3-89.83,60.95-77.36,29.31,9.97,24.08,53.91,16.12,86.62s-22.36,85.97-32.25,112.7c-4.16,11.23-8.95,17.39-14.14,20.62-6.13,8.96-15.17,16.07-20.88,16.07-6-.25-11.52-3.03-17.1-5.91-12.47-6.44-115.23-95.67-118.39-98.23-3.17-2.56,21.99-30.52,22.66-34.64h0Z"/>
      <g>
        <path class="cls-37" d="M1657.11,371.69c-2.05,26.25-8.1,35.43-12.95,47.53-4.85,12.11-53.54,9.66-53.98,6.58-.45-3.07-3.42-25.92-5.8-36.26s-1.8-16.67.26-22.37c.5-1.36,1.57-6.66,1.21-12.67-.17-2.97-.68-6.16-1.8-9.13-.53-1.41-.82-3.12-.96-5.07-.45-6.09.9-14.16,2.47-20.74,1.05-4.39,2.2-8.13,2.97-10.15.01-.04.04-.1.06-.14,1.29-3.26,4.35-10.91,10.87-15.52,5-3.5,34.54,5.9,49.51,13.01.67.32,1.32.63,1.92.93,3.81,1.94,6.35,3.63,6.72,4.75,1.82,5.27,1.54,33.01-.5,59.25Z"/>
        <path class="cls-8" d="M1651.84,306.73l-.95.96-7.3,7.4c-14.04,7.09-28.25,12.01-58.04,4.48,1.05-4.39,2.2-8.13,2.97-10.15.01-.04.04-.1.06-.14,19.9-2.01,50.88-2.44,60.39-2.51,1.84-.03,2.87-.03,2.87-.03h0Z"/>
        <path class="cls-37" d="M1621.69,507.02c-30.8-3.65-48.11-38.52-34-41.88,3.59-.85,20.19-14.54,22.49-15.78.82-.44,1.56-.88,2.24-1.35,2.65-1.8,4.3-3.86,5.3-5.95.06-.09.12-.18.15-.26.71-1.88,1.15-3.59,1.44-5.15.06-.56.15-1.18.27-1.88.53-5.54-1.33-8.83-2-10.87l4.15-7.66c.03-.47.06-.94.09-1.41.32-4.95.56-10.6.47-16.96-.29-3.09,6.21-6.39,14.4-9.28l28.33-52.3,5.39,16.02s.15,3.24.24,8.3c.18,7.57.24,19.2-.53,29.92-.24,3.59-.56,7.1-1.03,10.31-1.74,12.22-.03,26.06,2.62,36.43,5.98,12.31,36.4,22.01,43.19,24.35,11.31,5.62-62.42,49.07-93.2,45.41h0Z"/>
        <path class="cls-21" d="M1660.29,400.15c.44,13.87-9.95,41.38-47.88,47.85,2.65-1.8,4.3-3.86,5.3-5.95.06-.09.12-.18.15-.26.71-1.88,1.15-3.59,1.44-5.15.06-.56.15-1.18.27-1.88.53-5.54-1.33-8.83-2-10.87l4.15-7.66c.03-.47.06-.94.09-1.41,19.67-8.25,38.49-14.67,38.49-14.67h-.01Z"/>
        <path class="cls-42" d="M1695.18,327.62c-.55,5.93-6.89,26.31-13.07,44.67-.55,1.62-1.09,3.23-1.62,4.8-1.41,4.15-2.79,8.1-4.05,11.66-1.71,4.83-3.22,8.95-4.34,11.83-.99,2.54-1.67,4.15-1.94,4.47-2.17-1.09-2.7-4.98-2.57-8.53.03-.82.1-1.62.19-2.36.09-.63.27-2.01.52-3.88,1.01-7.7,2.96-23.58,1.97-28.79-.26-1.35-.7-1.98-1.42-1.58-3.76,2.1-5.11,3-6.49,6.42,0,0,0,.01-.01.01-.26.66-.52,1.41-.8,2.28-1.84,5.67,1.39,31.52-1.29,37.02-2.7,5.5-11.53,20.99-29.58,24.96-18.04,3.96-39.79.14-40.48-4.81-.67-4.95-8.8-33.23-4.47-36.52,3.85-2.94,10.51-1.72,19.13-.56,8.62,1.15,12.35-1.39,18.35-.57,6.02.8,11.88,6.66,15.8,5.24,3.91-1.41,14.1-1.74,14.99-25.22.88-23.48-1.59-25.27-4.83-31.49-3.23-6.22-5.67-14.53-4.57-21.94-9.48,3.5-42.09,9.91-62.55-4.58-20.46-14.48-14.99-16.83-3.85-15.78,11.13,1.05-12.51-21.81-2.33-18.63,8.89,2.79,41.62,6.29,53.13,4.45.03,0,.04,0,.07-.01,1.62-.26,2.81-.63,3.45-1.12,5.16-3.99,32.74-4.6,43.54,7.61,10.81,12.22,3.53,14.52,7.55,18.61,4.02,4.08,12.64,11,11.57,22.33h0Z"/>
        <path class="cls-21" d="M1610.75,385.61c-2.33.17-4.69-.2-6.94-.92-2.17-.84-4.54-1.82-5.79-4.26-.27-.62-.36-1.4-.13-2.1.22-.7.67-1.25,1.15-1.69,1.01-.82,1.77-1.4,2.48-2.3,1.43-1.68,2.33-3.77,2.96-5.92,1.24-4.32,1.51-9.03,1.29-13.55-.16-2.27-.58-4.54-1.37-6.68-.75-2.15-1.93-4.19-3.72-5.69,4,2.65,5.6,7.67,6.2,12.25.48,4.72.2,9.43-.99,14.07-.71,2.28-1.73,4.53-3.35,6.38-.74.92-1.85,1.76-2.65,2.38-.78.67-1.16,1.53-.81,2.43.76,1.86,2.97,3.12,4.99,4,2.09.92,4.36,1.43,6.68,1.6h0Z"/>
        <path class="cls-3" d="M1627.06,399.76c-.63,3.3-4.91,13.85-10.12,14.47-5.2.62-4.91-1.58-7.38-2.47-2.2-.79-9.62-1.99-11.04.41-1.46,2.46-4.47-2.44-4.97-4.2-.6-2.12-3.35-14.05,4.15-14s21.09.07,24.93,1.91c3.83,1.84,4.78,2.09,4.44,3.88h-.01Z"/>
        <path class="cls-8" d="M1670.72,374.03v.24l-2.41,16.05h-.03c-2.56-.59-4.59-3.56-4.59-3.56-.59-4.15-1.07-17.35-.45-20.14.94-2.44,4.09-4.89,7.39-6.01.09,3.71.15,8.36.09,13.43h0Z"/>
        <polygon class="cls-8" points="1671.19 371.17 1670.72 374.27 1668.3 390.32 1668.13 391.52 1668.27 390.32 1668.66 386.69 1670.72 374.03 1671.19 371.17"/>
        <path class="cls-16" d="M1618.89,401.34c0,.99-8.46,2.67-14.49,2.21-6.42-.49-8.05-2.42-8.05-3.41s4.55,0,10.6,0,11.94.21,11.94,1.2h0Z"/>
        <path class="cls-20" d="M1605.79,397.8c-.82-.02-2.28-1.18-3.07-1.19-2.21,0-6.76,3.38-7.7,3.51,9.05.81,21.86,2.23,27.27,1.01-9.61-2.84-9.95-4.23-13.49-4.32-.79-.02-2.21,1-3,.98h-.01Z"/>
        <path class="cls-20" d="M1595.21,400.14c4.14,5.74,12.36,5.11,27.08,1-6.82,5.39-13.49,8.3-18.29,7.49-4.79-.81-8.05-4.52-8.79-8.49h0Z"/>
        <path class="cls-21" d="M1644.46,348.54s-4.68,8.91-5.17,8.22-10.79-3.5-11.05-3.49c-.26,0-8.45,3.01-8.45,3.01l-2.83-10.76,16.98-3.26,10.52,6.28Z"/>
        <path class="cls-42" d="M1616.96,348.26s-2.15-4.7-2.14-5.16c.01-.46,14.1-4.38,18.55-3.55,5.95,1.11,11.58,9.18,11.58,9.18,0,0-9.23-3.62-12.36-3.63-3.93,0-15.63,3.16-15.63,3.16Z"/>
        <path class="cls-42" d="M1623.22,358.85c-.08-2.53,1.9-4.64,4.43-4.72,2.53-.08,4.64,1.9,4.72,4.43.08,2.53-1.9,4.64-4.43,4.72-2.53.08-4.64-1.9-4.72-4.43Z"/>
        <path class="cls-42" d="M1640,357.14c-1.08,0-2.05-.17-3.01-.32-.96-.13-1.89-.29-2.78-.47-1.81-.26-3.52-.63-5.17-.78-1.66-.16-3.23-.2-4.85-.01-1.62.21-3.25.77-5.23,1.59.56-2.01,2.08-3.83,4.09-4.84,1.99-1.06,4.32-1.34,6.45-1.13,2.15.22,4.13.96,5.92,1.95,1.77,1.01,3.35,2.32,4.59,4.02h0Z"/>
        <path class="cls-21" d="M1604.55,347.61c1.2,2.54,1.7,9.29,1.7,9.53l-5.56.2-7.74-3.7-7.1.85c-.18-2.97-.68-6.16-1.8-9.13-.53-1.41-.82-3.12-.97-5.07l.71-.77,16.46,2s3.68,4.75,4.3,6.07v.02Z"/>
        <path class="cls-42" d="M1600.92,346.73s1.85-4.63,1.86-5.1c.01-.46-13.06-5.41-17.34-4.56-2.85.57-6.23,6.47-6.23,6.47,0,0,3.88-1.12,5.37-1.03,4.23.25,16.35,4.21,16.35,4.21h-.01Z"/>
        <path class="cls-42" d="M1597.24,358.85c.08-2.53-1.9-4.64-4.43-4.72-2.53-.08-4.64,1.9-4.72,4.43-.08,2.53,1.9,4.64,4.43,4.72,2.53.08,4.64-1.9,4.72-4.43Z"/>
        <path class="cls-42" d="M1584.65,355.41c.28-1.79,1.93-3.12,3.52-3.76,1.63-.7,3.41-.86,5.12-.62s3.38.9,4.74,2c1.36,1.06,2.45,2.57,2.67,4.32-1.66-.58-2.97-.95-4.26-1.26-1.29-.27-2.51-.51-3.76-.68-1.25-.18-2.5-.3-3.79-.39-1.31-.01-2.56-.11-4.23.4h-.01Z"/>
        <path class="cls-21" d="M1612.57,378.03c.92.47,1.72,1.13,2.4,1.94.62.82,1.35,1.8,1,3.32-.12.37-.39.7-.69.93-.22.16-.44.3-.68.43-.48.24-.99.48-1.54.56-1.08.23-2.26.04-3.08-.62,1.03.07,1.94-.09,2.74-.47.39-.21.79-.4,1.15-.67l.55-.39c.08-.09.14-.15.16-.25.19-.45-.16-1.42-.55-2.22-.41-.84-.95-1.66-1.45-2.56h-.01Z"/>
        <path class="cls-21" d="M1606.18,382.45c-.46.52,5.21,4.69,6.19,2.57s-5.51-3.34-6.19-2.57Z"/>
        <path class="cls-32" d="M1682.11,372.3c-1.97,5.87-3.93,11.53-5.67,16.46-3.17,2.57-6.09,2.36-8.14,1.54,1.01-7.7,2.96-23.58,1.97-28.79,4.04-1.88,8.8-2.01,10.24,2.23.83,2.47,1.44,5.46,1.61,8.57h0Z"/>
        <path class="cls-32" d="M1644.6,314.82c1.68.05,3.35-.07,5.03-.16,1.66-.17,3.33-.38,4.99-.63,3.31-.52,6.56-1.38,9.8-2.28,3.17-1.1,6.35-2.22,9.36-3.72,1.5-.76,2.99-1.55,4.43-2.41,1.41-.92,2.82-1.84,4.11-2.92l-.08-.13c-5.74,3.32-11.94,5.79-18.27,7.74-6.32,1.98-12.82,3.42-19.38,4.36l.02.15h-.01Z"/>
        <path class="cls-32" d="M1695.18,327.62c-.55,5.93-6.89,26.31-13.07,44.67-.55,1.62-1.09,3.23-1.62,4.8-2.23-1.64-3.62-4.6-1.32-9.91,5.13-11.85,10.02-35.01,9.82-44.63-.15-6.87-5.67-15.1-10.4-18.23-1.16-5.74-4.93-11.34-12.47-17.25-8.1-6.35-26.86-8.08-37.05-6.89,1.62-.26,2.81-.63,3.45-1.12,5.16-3.99,32.74-4.6,43.54,7.61,10.81,12.22,3.53,14.52,7.55,18.61,4.02,4.08,12.64,11,11.57,22.33h0Z"/>
        <path class="cls-37" d="M1662.88,365.38c1.96-5.17,13.73-10.31,16.13-3.21s2.95,18.64-3.44,24.49c-6.39,5.84-11.89.09-11.89.09-.6-4.16-1.42-18.6-.8-21.37Z"/>
        <path class="cls-21" d="M1675.67,366.73c-1.04-2.95-4.88-3.15-6.9-1.83-2.04,1.63-2.94,4.73-1.58,6.82.64,1.06,1.89,1.5,3.24,2.49.33.27.66.65.86,1.13.16.54.17.89.17,1.31.02.82-.28,1.74-.84,2.38-1.15,1.18-2.29,1.81-2.25,3.24-.05,1.33.67,2.7,1.7,3.69-1.24-.76-2.2-2.09-2.41-3.67-.1-.78.17-1.68.66-2.31.48-.65,1.07-1.12,1.41-1.63.36-.5.47-1.05.44-1.68-.03-.74-.12-1.01-.61-1.38-.97-.69-2.64-1.29-3.59-2.76-.94-1.44-1.09-3.21-.64-4.77.48-1.55,1.44-2.9,2.81-3.77,1.54-.82,3.08-.82,4.59-.43,1.51.42,2.7,1.72,2.92,3.18h.02Z"/>
        <path class="cls-32" d="M1658.82,387.38c0-11.96,1.13-16.99,3.52-21.02-.26.66-.52,1.41-.8,2.28-1.84,5.67,1.39,31.52-1.29,37.02-2.7,5.5-11.53,20.99-29.58,24.96-18.04,3.96-39.79.14-40.48-4.81-.67-4.95-8.8-33.23-4.47-36.52-1.78,6.75,3.66,26.22,4.61,32.45.95,6.22,14.4,7.37,29.35,6.58,14.93-.79,28.81-12.67,33.65-18.19,4.85-5.51,5.5-10.77,5.5-22.75h-.01Z"/>
      </g>
      <path class="cls-38" d="M1753.24,492.3c-3.53,20.32-19.88,162.98-21.2,202.73-1.33,39.75,9.27,96.73,7.07,97.61-2.21.88-181.51,3.53-192.34-3.97-10.83-7.51,11.7-37.98,1.98-170.04s7.08-136.41,17.03-142.55c9.94-6.14,26.47-18.53,43.33-26.61-1.69,19.75,19.42,23.11,30.27,21.64,13.08-1.77,37.78-14.13,41.31-26.72,2.42-1.1,74.67,33.11,72.55,47.92h0Z"/>
      <path class="cls-16" d="M1645.65,1024.54c6.19,0,104.54-29.45,107.64-33.87,3.1-4.41-15.98-243.98-15.98-309.34s18.53-189.91,15-196.1c-2.81-4.9-22.38-14.97-49.35-29.09-.23-.13-.49-.26-.75-.41-6.76-3.54-13.99-7.33-21.53-11.36-35.03,59.47-40.55,108-44.09,146.88-.13,1.37-.23,3.2-.34,5.42l-.03.03c0,.36,0,.75-.03,1.14-2.61,64.17,3.54,426.71,9.45,426.71h.01Z"/>
      <g>
        <path class="cls-16" d="M1659.59,778.55c10.22-.65,22.48-1.68,34.05-3.17,21.24-2.87,40.22-7.25,40.22-13.66,0-12.52-17.42-81.44-17.42-117.17,0-13.11,2.17-30.64,5.34-49.1.23,1.06.57,2.12.9,3.3v.03c4.29,15.93,11.82,43.21,15.26,59.14.88,4,1.47,7.28,1.7,9.5,0,0,11.69-4.72,23.9,2.09,15.57,8.72,9.29,36.76,13.68,32.99,4.41-3.74,13.81-23.57,14.43-42.31.41-12.75-9.42-43.83-12.54-56.66-3.12-12.88-13.84-73.67-18.79-103.72-1.5-9.19-8.31-16.88-15.95-22.53,0-.03-21.55-13.86-40.91-23.7-.23-.1-.44-.23-.65-.31-8.54-4.34-16.6-7.8-22.12-8.91-7.49,16.26-15.9,47.08-22.64,84.87-.21,1.24-.41,2.5-.65,3.79-2.43,14.09-4.62,29.12-6.43,44.66-.1.93-.21,1.86-.31,2.79-7.54,66.67-8.03,142.64,8.93,198.06v.02Z"/>
        <g>
          <polygon class="cls-1" points="1788.9 564.04 1740.51 547.59 1655.94 716.73 1711.85 721.43 1788.9 564.04"/>
          <polygon class="cls-35" points="1783.5 561.44 1776.72 566.81 1751.54 558.56 1750.66 550.1 1783.5 561.44"/>
          <polygon class="cls-2" points="1740.51 547.59 1738.04 547.94 1654.31 716.81 1655.94 716.73 1740.51 547.59"/>
          <polygon class="cls-2" points="1654.31 716.81 1710.39 721.69 1711.85 721.43 1655.94 716.73 1654.31 716.81"/>
        </g>
        <path class="cls-37" d="M1709.97,682.45c-5.25-1.31-14.92,3.29-17.03,3.76-2.11.47-14.15.64-20.79-5.11-5.76-4.99-10.56-5.89-5.06-22.2,5.67-16.84,10.41-19.42,14.88-21.53,4.46-2.11,18.87-.78,25.68.63,6.81,1.41,21.35,15.8,24.17,19.79,2.82,3.99,7.83,9.63,7.83,9.63,3.96-1.24,21.06-5.64,28.35,3.76,7.28,9.4,8.02,30.87,8.02,30.87-6.81,6.39-15.3,12.82-27.99,12.12s-23.11-4.44-25.61-16.44c-2.11-10.18-5.87-13.63-12.45-15.27h0Z"/>
        <path class="cls-16" d="M1723.5,701.3c-1.33,2.23,4.3,13.61,27.27,13.61s31.15-18.95,32.26-21.36c1.11-2.4-4.88-37.38-18.68-37.27s-24.77,6.73-25,8.99c-.22,2.26.23,13.93-3.38,22.48-3.37,8-8.24,12.65-12.47,13.56h0Z"/>
      </g>
      <path class="cls-16" d="M1508.48,1003.87c10.74,6.12,30.38,12.47,42.49,14.4,7.98-29.76,20.42-208,22.74-290.89.72-25.99-1.45-74.83,1.34-126.74.03-.52.05-1.06.08-1.6,2.97-53.43,11.25-109.91,33.48-147.99.03-.1.05-.18.08-.26.26-.49.49-.98.67-1.45-1.6.44-15.82,7.64-30.85,17.42-.39.26-.75.49-1.14.75-7.85,5.16-15.8,11.02-22.22,16.93-19.1,17.66-15.98,94.24-13.86,150.05,2.12,55.83,5.83,124.29-7.23,188.38-17.27,84.95-25.56,162.83-25.58,180.97v.03Z"/>
    </g>
    <path class="cls-27" d="M1636.2,597.83c4.93-5.68,9.71-11.49,14.46-17.35,3.43-4.26,6.84-8.57,10.22-12.88,2.76-3.56,5.5-7.15,8.16-10.82,1.32-1.86,2.61-3.67,3.77-5.73.15-.28.28-.54.44-.85.05-.34.41-.62.15-1.63-.34-.85-.67-1.21-1.03-1.73-.72-.96-1.45-1.81-2.19-2.68-2.94-3.43-6.04-6.71-8.91-10.12-.67-.8-1.34-1.65-1.94-2.48l.16-.03,6.66-1.19c4.44-.88,8.85-1.86,13.24-3.07,2.19-.65,4.39-1.26,6.58-2.3.54-.28,1.11-.57,1.7-1.14.15-.15.31-.34.47-.62.16-.23.26-.77.26-.77l.16-.8.67-3.25,5.96-26.33c2.66-11.95,5.37-23.9,7.77-35.93.15-.85.34-1.7.49-2.56-.23-.1-.44-.23-.65-.31-.18.83-.39,1.65-.59,2.45-.77,3.25-1.6,6.48-2.4,9.71l-6.45,26.2c-2.22,8.73-4.34,17.48-6.38,26.25l-.72,3.33-.18.88s0,.03-.03.05l-.03.03c-.21.21-.65.46-1.11.67-1.86.88-4.03,1.5-6.17,2.09-4.28,1.14-8.7,2.04-13.09,2.89l-6.61,1.26-.8.13-.21.03-.21.05-.28.05c-.26.03-.75.26-.98.7-.39.88-.13,1.16-.1,1.42.1.23.18.39.26.57.18.31.34.57.52.83.05.05.08.13.16.18.65.93,1.32,1.76,2.01,2.58,2.97,3.46,6.09,6.71,9.03,10.07.75.83,1.47,1.68,2.12,2.53.26.31.54.72.67.95,0,.05-.03.1-.05.16-.08.21-.21.44-.34.67-1.01,1.86-2.32,3.72-3.59,5.55-2.53,3.69-5.16,7.33-7.85,10.94-2.79,3.77-5.6,7.49-8.44,11.2-2.63,3.43-5.27,6.84-7.9,10.25-2.27,2.92-4.52,5.83-6.81,8.72l-.03.03c0,.36,0,.75-.03,1.14h0Z"/>
    <path class="cls-27" d="M1561.32,542.1c-.03.31-.03.57-.03.83.08,1.96.34,3.74.57,5.58,1.14,7.28,2.63,14.46,4.26,21.58,1.65,7.15,3.43,14.25,5.68,21.22,1.01,3.15,2.07,6.27,3.25,9.34.03-.52.05-1.06.08-1.6-.88-2.66-1.65-5.34-2.38-8.03-1.88-7.05-3.56-14.15-5.03-21.27-1.45-7.15-2.74-14.33-3.69-21.53-.23-1.78-.46-3.61-.49-5.32v-.54l.03-.03c.23-.23.57-.54.88-.83.67-.57,1.37-1.14,2.09-1.68,2.87-2.22,5.83-4.34,8.7-6.74.36-.31.72-.62,1.08-.98.18-.18.36-.39.57-.62.1-.15.18-.23.31-.49.08-.15.1-.21.18-.44.03-.34.1-.54-.15-1.01-.1-.21-.31-.41-.44-.52l-.1-.05-.18-.1-.31-.21-.59-.34-1.19-.67c-1.55-.93-3.07-1.86-4.54-2.87-1.5-1.01-2.92-2.04-4.18-3.23-1.19-1.08-2.32-2.66-2.09-3.48,1.76-7,3.85-14.04,5.83-21.06,1.96-7.02,4-14.04,6.17-20.99.96-3.1,1.91-6.2,2.92-9.27-.39.26-.75.49-1.14.75-1.06,2.68-2.06,5.37-3.05,8.08-2.43,6.92-4.7,13.86-6.92,20.83-2.17,7-4.26,13.96-6.17,21.11-.31,1.42.23,2.63.77,3.51.57.9,1.24,1.65,1.94,2.32,1.42,1.37,2.92,2.48,4.47,3.54,1.55,1.06,3.15,1.99,4.75,2.92l1.21.67.05.03c-.23.23-.49.49-.77.72-2.71,2.32-5.68,4.47-8.54,6.76-.72.59-1.45,1.16-2.17,1.81-.36.31-.7.62-1.08,1.06-.1.15-.18.23-.34.46-.18.44-.15.54-.21.75v.03Z"/>
  </g>
</svg>