<?xml version="1.0" encoding="UTF-8"?>
<svg id="Layer_1" data-name="Layer 1" xmlns="http://www.w3.org/2000/svg" viewBox="0 0 990.3 347.94">
  <defs>
    <style>
      .cls-1 {
        fill: #025fae;
      }
    </style>
  </defs>
  <path class="cls-1" d="M147.67.52c-33.85,3.64-63.41,40.66-67.95,72.92-11.38,80.77,88.34,90.02,125.84,32.13C238.23,55.15,211.02-6.29,147.67.52ZM340.46,347.91c9.97-45.22,20.64-90.3,30.37-135.59,7.08-32.96,16.06-68.69,21.13-101.74,6.2-40.42-3.49-76.81-40.99-97.19C321.71-2.51,289.45-.12,257.21.62l-71.9,347.29h155.15ZM990.3,165.86h-27.73l7.11-30.73-108.33,30.47c-5.97,29.99-14.4,59.47-20.59,89.4-8.72,42.13-18.6,78.4,34.84,89.56,14.75,3.08,30.8,3.85,45.79,3.01,12.5-54.8,22.12-110.6,36.64-164.9l29.27-.34,3-16.48ZM161.99,347.84l43.54-211.94c-12.13,12.64-28.69,20.51-45.71,24.36-26.42,5.97-55.53,4.62-77.56-12.39-1.47-1.13-3.06-4.11-5.08-3.62-31.25,20.9-61.54,47.57-72.45,84.98-6.58,22.54-6.87,53.32,2.81,74.99,19.21,43.02,78.54,40.86,118.15,43.73l36.31-.11ZM717.47,165.87c-57.2.47-113.99,39.68-119.91,99.27-7.25,72.98,79.38,89.92,135.04,79.54,22.04-4.11,56.17-19.04,71.47-35.69,5.77-6.28,5.27-16.96-4.33-15.59-7.57,1.07-26.94,15.33-35.03,19.7-25.75,13.93-53.2,19.28-82.47,16.09l35.23-163.31ZM717.47,256.51h97.44c4.69-26.91-1.33-56.07-23.31-73.72-14.72-11.82-34.72-16.81-53.42-16.83l-1.08,1.17-19.63,89.38ZM494.11,166.61c-45.69.18-93.59,26.21-111.82,69.16-41,96.61,70.5,127.12,143.12,105.59,15.24-4.52,45.88-20.32,56.02-32.4,5.74-6.84,4.52-16.48-5.83-14.81-6.69,1.08-26.63,15.59-34.26,19.69-25.75,13.83-52.47,18.66-81.72,16.09l34.48-163.31ZM531.4,166.81c-44.75,5.76-51.85,87.38,6.18,72.86,42.04-10.52,42.47-79.11-6.18-72.86Z"/>
  <path class="cls-1" d="M340.46,347.91h-155.15L257.21.62c32.25-.74,64.5-3.13,93.76,12.77,37.5,20.38,47.19,56.77,40.99,97.19-5.07,33.05-14.06,68.78-21.13,101.74-9.73,45.29-20.39,90.37-30.37,135.59Z"/>
  <path class="cls-1" d="M161.99,347.84l-36.31.11c-39.61-2.87-98.94-.7-118.15-43.73-9.68-21.67-9.38-52.44-2.81-74.99,10.91-37.41,41.2-64.08,72.45-84.98,2.02-.49,3.62,2.48,5.08,3.62,22.03,17.01,51.14,18.36,77.56,12.39,17.02-3.85,33.58-11.71,45.71-24.36l-43.54,211.94Z"/>
  <path class="cls-1" d="M990.3,165.86l-3,16.48-29.27.34c-14.52,54.3-24.14,110.11-36.64,164.9-14.99.84-31.04.07-45.79-3.01-53.43-11.16-43.55-47.43-34.84-89.56,6.19-29.93,14.62-59.41,20.59-89.4l108.33-30.47-7.11,30.73h27.73Z"/>
  <path class="cls-1" d="M717.47,165.87l-35.23,163.31c29.27,3.19,56.72-2.15,82.47-16.09,8.09-4.38,27.46-18.63,35.03-19.7,9.61-1.36,10.1,9.31,4.33,15.59-15.3,16.66-49.43,31.59-71.47,35.69-55.66,10.38-142.29-6.56-135.04-79.54,5.92-59.59,62.71-98.8,119.91-99.27Z"/>
  <path class="cls-1" d="M494.11,166.61l-34.48,163.31c29.24,2.57,55.97-2.26,81.72-16.09,7.63-4.1,27.57-18.6,34.26-19.69,10.35-1.68,11.57,7.97,5.83,14.81-10.15,12.09-40.78,27.89-56.02,32.4-72.62,21.53-184.12-8.98-143.12-105.59,18.23-42.95,66.13-68.98,111.82-69.16Z"/>
  <path class="cls-1" d="M147.67.52c63.34-6.81,90.56,54.63,57.89,105.06-37.5,57.89-137.22,48.64-125.84-32.13C84.27,41.18,113.83,4.16,147.67.52Z"/>
  <path class="cls-1" d="M717.47,256.51l19.63-89.38,1.08-1.17c18.7.03,38.7,5.01,53.42,16.83,21.98,17.65,28,46.8,23.31,73.72h-97.44Z"/>
  <path class="cls-1" d="M531.4,166.81c48.65-6.26,48.22,62.34,6.18,72.86-58.04,14.52-50.94-67.1-6.18-72.86Z"/>
</svg>