<?xml version="1.0" encoding="UTF-8"?>
<svg id="Layer_1" data-name="Layer 1" xmlns="http://www.w3.org/2000/svg" viewBox="0 0 1298.4 875.6">
  <defs>
    <style>
      .cls-1, .cls-2, .cls-3, .cls-4 {
        fill: none;
      }

      .cls-5, .cls-6, .cls-7, .cls-3, .cls-8, .cls-9, .cls-4 {
        stroke: #3ebee5;
      }

      .cls-5, .cls-2, .cls-10 {
        stroke-width: 7px;
      }

      .cls-5, .cls-11, .cls-7, .cls-9 {
        fill: #fff;
      }

      .cls-5, .cls-3, .cls-9, .cls-10 {
        stroke-linecap: round;
      }

      .cls-5, .cls-10 {
        stroke-linejoin: round;
      }

      .cls-6, .cls-12, .cls-2, .cls-7, .cls-13, .cls-3, .cls-8, .cls-9, .cls-4 {
        stroke-miterlimit: 10;
      }

      .cls-6, .cls-12, .cls-7, .cls-13, .cls-3, .cls-8, .cls-9, .cls-4 {
        stroke-width: 6px;
      }

      .cls-6, .cls-14 {
        fill: #3ebee5;
      }

      .cls-12 {
        fill: #fdcf88;
      }

      .cls-12, .cls-2, .cls-13, .cls-10 {
        stroke: #ea5925;
      }

      .cls-15, .cls-16 {
        fill: #231f20;
      }

      .cls-17 {
        fill: #e8f7ff;
      }

      .cls-18 {
        fill: #fdcf87;
      }

      .cls-13, .cls-10, .cls-19 {
        fill: #ff7e23;
      }

      .cls-20, .cls-16 {
        opacity: .1;
      }

      .cls-8 {
        fill: #eaf6fe;
      }

      .cls-16 {
        isolation: isolate;
      }

      .cls-21 {
        fill: #ea5925;
      }
    </style>
  </defs>
  <g id="Layer_2" data-name="Layer 2">
    <circle id="Background_2" data-name="Background 2" class="cls-17" cx="641.1" cy="449" r="426.6"/>
  </g>
  <g id="Layer_3" data-name="Layer 3">
    <g>
      <g class="cls-20">
        <path class="cls-15" d="M241.5,93.8H71.3c-4.6,0-8.4,3.7-8.4,8.4v294.9c0,4.6,3.7,8.4,8.4,8.4h240.5c4.6,0,8.4-3.7,8.4-8.4v-224.6l-78.7-78.7Z"/>
      </g>
      <path class="cls-5" d="M208.5,65.6H38.3c-4.6,0-8.4,3.7-8.4,8.4v294.9c0,4.6,3.7,8.4,8.4,8.4h240.5c4.6,0,8.4-3.7,8.4-8.4v-224.6l-78.7-78.7Z"/>
      <path class="cls-10" d="M208.5,135.9c0,4.6,3.7,8.4,8.4,8.4h70.2l-78.7-78.7v70.3h.1Z"/>
      <g>
        <line class="cls-2" x1="63" y1="195.9" x2="254" y2="195.9"/>
        <line class="cls-2" x1="63" y1="217.6" x2="254" y2="217.6"/>
        <line class="cls-2" x1="63" y1="238" x2="254" y2="238"/>
        <line class="cls-2" x1="63" y1="259.7" x2="254" y2="259.7"/>
        <line class="cls-2" x1="63" y1="280.1" x2="254" y2="280.1"/>
        <line class="cls-2" x1="63" y1="300.5" x2="254" y2="300.5"/>
      </g>
      <rect class="cls-10" x="86.5" y="137.8" width="105" height="12.8"/>
    </g>
  </g>
  <g id="Layer_9" data-name="Layer 9">
    <g>
      <path class="cls-13" d="M351,813.6h-196.5c-10.1,0-18.2-8.2-18.2-18.2v-270.8c0-10.1,8.2-18.2,18.2-18.2h196.6v307.2h-.1Z"/>
      <path class="cls-12" d="M361.8,813.6h-196.6c-10.1,0-18.2-8.2-18.2-18.2v-270.8c0-10.1,8.2-18.2,18.2-18.2h196.6v307.2Z"/>
      <path class="cls-12" d="M376.2,813.6h-196.5c-10.1,0-18.2-8.2-18.2-18.2v-270.8c0-10.1,8.2-18.2,18.2-18.2h196.6v307.2h-.1Z"/>
      <path class="cls-13" d="M389.8,813.6h-196.5c-10.1,0-18.2-8.2-18.2-18.2v-270.8c0-10.1,8.2-18.2,18.2-18.2h196.6v307.2h-.1Z"/>
      <rect class="cls-12" x="220.7" y="619.7" width="123.5" height="24.7"/>
      <rect class="cls-12" x="236.6" y="666.4" width="91.7" height="15.4"/>
      <polygon class="cls-12" points="217.3 573.3 236.6 560.1 255.9 573.3 255.9 506.4 217.3 506.4 217.3 573.3"/>
    </g>
  </g>
  <g id="Layer_4" data-name="Layer 4">
    <g>
      <path class="cls-8" d="M926.5,762.5H336.7v-333c0-35.2,28.5-63.8,63.8-63.8h462.3c35.2,0,63.8,28.5,63.8,63.8v333h-.1Z"/>
      <path class="cls-6" d="M887.3,443.6c0-15.5-12.6-28.1-28.1-28.1h-455.2c-15.5,0-28.1,12.6-28.1,28.1v10.8h511.3v-10.8h.1Z"/>
      <rect class="cls-7" x="376" y="454.3" width="511.3" height="305.1"/>
      <line class="cls-4" x1="407.5" y1="496.9" x2="616.7" y2="496.9"/>
      <line class="cls-4" x1="407.5" y1="518.2" x2="616.7" y2="518.2"/>
      <line class="cls-4" x1="407.5" y1="539.4" x2="616.7" y2="539.4"/>
      <line class="cls-4" x1="407.5" y1="560.7" x2="616.7" y2="560.7"/>
      <line class="cls-4" x1="407.5" y1="582" x2="484.7" y2="582"/>
      <path class="cls-8" d="M994.7,817.4H295.1c-15.2,0-27.5-12.3-27.5-27.5h0c0-15.2,12.3-27.5,27.5-27.5h699.6c15.2,0,27.5,12.3,27.5,27.5h0c0,15.2-12.3,27.5-27.5,27.5Z"/>
      <rect class="cls-8" x="569.9" y="762.5" width="148.5" height="19"/>
      <g>
        <circle class="cls-11" cx="414.7" cy="434.9" r="9.9"/>
        <circle class="cls-11" cx="458.5" cy="434.9" r="9.9" transform="translate(-44.23 817.82) rotate(-80.78)"/>
        <circle class="cls-11" cx="502.2" cy="434.9" r="9.9"/>
      </g>
      <g>
        <rect class="cls-7" x="644.9" y="496.9" width="219.9" height="104.5"/>
        <g>
          <circle class="cls-8" cx="753.5" cy="549.1" r="34.1"/>
          <polygon class="cls-19" points="745.8 535.2 769.9 549.1 745.8 563 745.8 535.2"/>
        </g>
        <rect class="cls-13" x="644.9" y="601.4" width="219.9" height="27.1"/>
        <rect class="cls-11" x="654.8" y="611.8" width="202.1" height="5.6"/>
      </g>
      <rect class="cls-13" x="414.7" y="675.5" width="126.5" height="63.1"/>
      <rect class="cls-13" x="574.1" y="675.5" width="126.5" height="63.1"/>
      <rect class="cls-13" x="733.6" y="675.5" width="126.5" height="63.1"/>
    </g>
  </g>
  <g id="Layer_7" data-name="Layer 7">
    <g>
      <rect class="cls-13" x="988.6" y="528" width="253.4" height="157.8"/>
      <g>
        <line class="cls-1" x1="1094.6" y1="625.9" x2="997.3" y2="675.1"/>
        <path class="cls-21" d="M1094.6,625.9s-.4.2-1,.7c-.7.4-1.6,1.1-2.9,1.9-2.5,1.7-6.1,3.9-10.5,6.6-4.4,2.6-9.6,5.6-15.2,8.7-2.8,1.5-5.7,3.1-8.7,4.7-3,1.6-6,3.1-9,4.7-3,1.5-6.1,3.1-9.1,4.5-3,1.5-6,2.9-8.9,4.2-5.8,2.7-11.3,5.1-16,7.1s-8.7,3.5-11.5,4.6c-1.4.5-2.5.9-3.3,1.2s-1.2.4-1.2.4c0,0,.4-.2,1-.7.7-.4,1.6-1.1,2.9-1.9,2.5-1.7,6.1-3.9,10.5-6.6,4.4-2.6,9.6-5.6,15.2-8.7,2.8-1.5,5.7-3.1,8.7-4.7,3-1.6,6-3.1,9-4.7,3.1-1.5,6.1-3.1,9.1-4.5,3-1.5,6-2.9,8.9-4.2,5.8-2.7,11.3-5.1,16-7.1s8.7-3.5,11.5-4.6c1.4-.5,2.5-.9,3.3-1.2.8-.3,1.2-.4,1.2-.4Z"/>
      </g>
      <g>
        <line class="cls-1" x1="1135.8" y1="625.9" x2="1233.2" y2="675.1"/>
        <path class="cls-21" d="M1135.8,625.9s.4.1,1.2.4c.8.3,1.9.6,3.3,1.2,2.8,1,6.8,2.6,11.5,4.6s10.2,4.4,16,7.1c2.9,1.3,5.9,2.8,8.9,4.2,3,1.5,6.1,3,9.1,4.5,3,1.6,6.1,3.1,9,4.7,3,1.6,5.9,3.1,8.7,4.7,5.6,3.1,10.8,6.1,15.2,8.7,4.4,2.7,8,4.9,10.5,6.6,1.3.8,2.2,1.5,2.9,1.9.7.5,1,.7,1,.7,0,0-.4-.1-1.2-.4-.8-.3-1.9-.6-3.3-1.2-2.8-1-6.8-2.6-11.5-4.6s-10.2-4.4-16-7.1c-2.9-1.3-5.9-2.8-8.9-4.2-3-1.5-6.1-3-9.1-4.5-3-1.6-6.1-3.1-9-4.7-3-1.6-5.9-3.1-8.7-4.7-5.6-3.1-10.8-6.1-15.2-8.7-4.4-2.7-8-4.9-10.5-6.6-1.3-.8-2.2-1.5-2.9-1.9-.6-.5-1-.7-1-.7Z"/>
      </g>
      <polygon class="cls-18" points="1238.8 548.1 1115.2 625.3 991.7 548.1 991.7 530.9 1238.8 530.9 1238.8 548.1"/>
    </g>
  </g>
  <g id="Layer_5" data-name="Layer 5">
    <g>
      <g>
        <path class="cls-13" d="M1013.2,310h64.8c39.7,0,71.8,32.2,71.8,71.8v4.5c0,28.5-16.6,53.1-40.7,64.7l16.3,30.2-53.7-23.1h-58.6c-39.7,0-71.8-32.2-71.8-71.8v-4.5c.1-39.6,32.3-71.8,71.9-71.8Z"/>
        <g>
          <circle class="cls-11" cx="1086.1" cy="385.1" r="15"/>
          <circle class="cls-11" cx="1043.2" cy="385.1" r="15"/>
          <circle class="cls-11" cx="1000.4" cy="385.1" r="15"/>
        </g>
      </g>
      <g>
        <path class="cls-16" d="M971.4,273.7h-64.8c-39.7,0-71.8,32.2-71.8,71.8v4.5c0,28.5,16.6,53.1,40.7,64.7l-16.3,30.2,53.7-23.1h58.6c39.7,0,71.8-32.2,71.8-71.8v-4.5c-.1-39.7-32.2-71.8-71.9-71.8Z"/>
        <path class="cls-8" d="M961.1,257.5h-64.8c-39.7,0-71.8,32.2-71.8,71.8v4.5c0,28.5,16.6,53.1,40.7,64.7l-16.3,30.2,53.7-23.1h58.6c39.7,0,71.8-32.2,71.8-71.8v-4.5c-.1-39.7-32.3-71.8-71.9-71.8Z"/>
        <g>
          <circle class="cls-14" cx="888.2" cy="332.5" r="15"/>
          <circle class="cls-14" cx="931.1" cy="332.5" r="15"/>
          <circle class="cls-14" cx="973.9" cy="332.5" r="15"/>
        </g>
      </g>
    </g>
  </g>
  <g id="Layer_6" data-name="Layer 6">
    <line class="cls-3" x1="3" y1="817.4" x2="49.5" y2="817.4"/>
    <line class="cls-3" x1="75.4" y1="817.4" x2="247.7" y2="817.4"/>
    <line class="cls-3" x1="1029.1" y1="817.4" x2="1201.4" y2="817.4"/>
    <line class="cls-3" x1="1220.4" y1="817.4" x2="1257.5" y2="817.4"/>
  </g>
  <g id="Layer_8" data-name="Layer 8">
    <g>
      <rect class="cls-8" x="448.5" y="203.5" width="78.9" height="78.9"/>
      <rect class="cls-10" x="542.2" y="203.5" width="211.2" height="18.8"/>
      <rect class="cls-10" x="542.2" y="233.6" width="211.2" height="18.8"/>
      <rect class="cls-10" x="542.2" y="263.8" width="160" height="18.8"/>
    </g>
  </g>
  <g id="Layer_10" data-name="Layer 10">
    <g>
      <line class="cls-3" x1="1177" y1="261.6" x2="1099" y2="261.6"/>
      <line class="cls-3" x1="1092.7" y1="261.6" x2="1084.2" y2="261.6"/>
      <line class="cls-3" x1="1077.8" y1="261.6" x2="1073.6" y2="261.6"/>
      <line class="cls-3" x1="1202.9" y1="261.6" x2="1194.4" y2="261.6"/>
      <line class="cls-3" x1="1188.1" y1="261.6" x2="1183.8" y2="261.6"/>
      <line class="cls-3" x1="1177" y1="251.3" x2="1088.4" y2="251.3"/>
    </g>
    <g>
      <line class="cls-3" x1="1242.7" y1="770.1" x2="1164.7" y2="770.1"/>
      <line class="cls-3" x1="1158.4" y1="770.1" x2="1149.9" y2="770.1"/>
      <line class="cls-3" x1="1143.5" y1="770.1" x2="1139.3" y2="770.1"/>
      <line class="cls-3" x1="1268.6" y1="770.1" x2="1260.1" y2="770.1"/>
      <line class="cls-3" x1="1253.8" y1="770.1" x2="1249.6" y2="770.1"/>
      <line class="cls-3" x1="1242.7" y1="759.8" x2="1154.1" y2="759.8"/>
    </g>
    <g>
      <line class="cls-3" x1="114.1" y1="482.2" x2="36.1" y2="482.2"/>
      <line class="cls-3" x1="29.8" y1="482.2" x2="21.3" y2="482.2"/>
      <line class="cls-3" x1="14.9" y1="482.2" x2="10.7" y2="482.2"/>
      <line class="cls-3" x1="140" y1="482.2" x2="131.5" y2="482.2"/>
      <line class="cls-3" x1="125.2" y1="482.2" x2="121" y2="482.2"/>
      <line class="cls-3" x1="114.1" y1="471.9" x2="25.5" y2="471.9"/>
    </g>
    <g>
      <line class="cls-3" x1="1295.4" y1="265.2" x2="1295.4" y2="273.7"/>
      <line class="cls-3" x1="1295.4" y1="280.1" x2="1295.4" y2="284.3"/>
    </g>
    <g>
      <line class="cls-3" x1="280.5" y1="3" x2="293.8" y2="16.3"/>
      <line class="cls-3" x1="293.8" y1="3" x2="280.5" y2="16.3"/>
    </g>
    <g>
      <line class="cls-3" x1="1111.9" y1="214.3" x2="1125.2" y2="227.6"/>
      <line class="cls-3" x1="1125.2" y1="214.3" x2="1111.9" y2="227.6"/>
    </g>
    <line class="cls-3" x1="985.7" y1="40.9" x2="897.1" y2="40.9"/>
    <g>
      <line class="cls-3" x1="920.6" y1="3.9" x2="933.9" y2="17.2"/>
      <line class="cls-3" x1="933.9" y1="3.9" x2="920.6" y2="17.2"/>
    </g>
    <g>
      <line class="cls-3" x1="1107.6" y1="759.8" x2="1120.9" y2="773.1"/>
      <line class="cls-3" x1="1120.9" y1="759.8" x2="1107.6" y2="773.1"/>
    </g>
    <g>
      <line class="cls-3" x1="56.6" y1="655.6" x2="69.9" y2="668.9"/>
      <line class="cls-3" x1="69.9" y1="655.6" x2="56.6" y2="668.9"/>
    </g>
    <circle class="cls-9" cx="287.1" cy="48.6" r="6.7"/>
    <g>
      <line class="cls-3" x1="369.3" y1="239.1" x2="382.6" y2="252.4"/>
      <line class="cls-3" x1="382.6" y1="239.1" x2="369.3" y2="252.4"/>
    </g>
    <circle class="cls-9" cx="376" cy="284.7" r="6.7"/>
    <circle class="cls-9" cx="1257.3" cy="245.1" r="6.7"/>
    <circle class="cls-9" cx="49.5" cy="570.4" r="6.7"/>
    <circle class="cls-9" cx="158.5" cy="446.6" r="6.7"/>
  </g>
  <g id="Layer_11" data-name="Layer 11">
    <g>
      <g class="cls-20">
        <rect class="cls-15" x="790.4" y="72.2" width="70.6" height="75.8"/>
      </g>
      <g class="cls-20">
        <rect class="cls-15" x="377.8" y="72.4" width="412.7" height="75.8"/>
      </g>
      <g>
        <rect class="cls-8" x="351" y="33.4" width="412.7" height="75.8"/>
        <rect class="cls-13" x="763.7" y="33.1" width="70.6" height="75.8"/>
        <path class="cls-11" d="M823.6,88.8l-15.3-15.3c4.1-7.3,3.1-16.6-3.1-22.8-7.4-7.4-19.4-7.4-26.8,0-7.4,7.4-7.4,19.4,0,26.8,6.2,6.2,15.6,7.2,22.8,3.1l15.3,15.3c2,2,5.1,2,7.1,0,2-1.9,2-5.1,0-7.1h0ZM798,70.3c-3.4,3.4-8.9,3.4-12.3,0-3.4-3.4-3.4-8.9,0-12.3s8.9-3.4,12.3,0,3.4,8.9,0,12.3h0Z"/>
      </g>
      <rect class="cls-7" x="377.8" y="54.3" width="348" height="36.2"/>
    </g>
  </g>
  <g id="Layer_12" data-name="Layer 12">
    <g>
      <path class="cls-14" d="M1224.2,63.7c-1.6,0-3.3.1-4.9.2-7.9-20.4-27.8-34.8-50.9-34.8s-43.7,14.9-51.3,35.8c-3.5-.8-7.1-1.3-10.8-1.3-26.1,0-47.3,21.2-47.3,47.3s21.2,47.3,47.3,47.3h118c26.1,0,47.3-21.2,47.3-47.3s-21.2-47.2-47.4-47.2Z"/>
      <path class="cls-7" d="M1165.4,86.1c-1.6,0-3.3.1-4.9.2-7.9-20.4-27.8-34.8-50.9-34.8s-43.7,14.9-51.3,35.8c-3.5-.8-7.1-1.3-10.8-1.3-26.1,0-47.3,21.2-47.3,47.3s21.2,47.3,47.3,47.3h118c26.1,0,47.3-21.2,47.3-47.3s-21.2-47.2-47.4-47.2Z"/>
    </g>
  </g>
</svg>