<?xml version="1.0" encoding="UTF-8"?>
<svg id="Layer_1" data-name="Layer 1" xmlns="http://www.w3.org/2000/svg" viewBox="0 0 4000 4000">
  <defs>
    <style>
      .cls-1 {
        fill: #738bab;
      }

      .cls-1, .cls-2 {
        fill-rule: evenodd;
      }

      .cls-2 {
        fill: #2d74ff;
      }

      .cls-3 {
        fill: #fff;
      }
    </style>
  </defs>
  <rect class="cls-3" width="4000" height="4000"/>
  <g id="Exp-1.-O">
    <path class="cls-1" d="M1738.44,1290.19c50.19-19.94,107.31-33.69,170.69-40.06,17.19-1.69,29.69-17,28-34.19-1.75-17.12-17.06-29.69-34.19-28-69.69,7-132.44,22.25-187.56,44.19-16.06,6.31-23.88,24.5-17.5,40.56,6.38,16,24.56,23.87,40.56,17.5Z"/>
    <path class="cls-1" d="M2062.25,1248.94c73.88,5.56,141.5,6.75,203.25,4.12,17.25-.69,30.69-15.25,29.94-32.5-.69-17.25-15.31-30.62-32.5-29.94-59.56,2.5-124.75,1.31-196-4.06-17.19-1.25-32.19,11.62-33.5,28.81-1.31,17.25,11.63,32.25,28.81,33.56Z"/>
    <path class="cls-1" d="M2434.25,1234.56c72.87-13.69,134.69-33.94,186.62-58.87,15.56-7.5,22.12-26.19,14.63-41.69-7.44-15.56-26.12-22.12-41.69-14.69-47.63,22.87-104.31,41.31-171.12,53.87-16.94,3.19-28.12,19.5-24.94,36.5,3.19,16.94,19.56,28.06,36.5,24.87Z"/>
    <path class="cls-1" d="M2748.25,1088.88c56-54.06,88.88-116.31,103.69-179.63,3.94-16.81-6.56-33.62-23.31-37.56-16.81-3.94-33.62,6.56-37.56,23.31-12.25,52.56-39.75,104.06-86.19,148.88-12.44,12-12.81,31.81-.81,44.19,12,12.44,31.75,12.81,44.19.81Z"/>
    <path class="cls-1" d="M2837.06,694.06c-24.81-65.88-66.87-121.81-118.13-157.19-14.19-9.75-33.62-6.19-43.44,8-9.81,14.19-6.25,33.69,8,43.5,41.44,28.56,75,74.31,95.06,127.69,6.06,16.12,24.06,24.31,40.25,18.25,16.12-6.06,24.31-24.12,18.25-40.25Z"/>
    <path class="cls-1" d="M2022.81,536.75c34.31-161,171.06-239.31,269.69-239.88,32.38-.19,60.44,7.44,75,26.94,8.62,11.56,11.25,27.06,7.94,46.06-2.94,17,8.5,33.19,25.5,36.12,17,2.94,33.19-8.5,36.12-25.5,6.75-39.06-1.75-70.38-19.5-94.06-24.81-33.31-70.31-52.38-125.38-52.06-120.06.69-288.75,93.38-330.5,289.38-3.62,16.88,7.13,33.44,24,37.06s33.5-7.19,37.13-24.06Z"/>
    <path class="cls-1" d="M1961.94,536.88c42.31,195,210.37,287.25,330.12,288,59.31.31,107.37-21.75,130.87-59.94,14.19-23,20.38-52.31,13.75-88.12-8.13-44.06-37.12-100.5-97.81-167.5-11.56-12.81-31.38-13.81-44.13-2.25-12.81,11.62-13.81,31.38-2.19,44.19,42.25,46.69,67.31,86.5,78.31,119.94,8.31,25.5,8.12,45.94-1.12,61-8.37,13.56-23.38,21.75-41.44,26.25-22.69,5.62-49.87,5.19-78.56-.88-91.69-19.38-196.81-96.06-226.69-233.94-3.69-16.88-20.31-27.56-37.19-23.94-16.88,3.69-27.56,20.31-23.94,37.19Z"/>
    <path class="cls-2" d="M1984,592.75h418.44c34.5,0,62.5-28,62.5-62.5s-28-62.5-62.5-62.5h-418.44c-34.5,0-62.5,28-62.5,62.5s28,62.5,62.5,62.5Z"/>
    <path class="cls-1" d="M718.75,3032.5v350.56c0,69,45.25,129.81,111.38,149.62,251.12,75.38,957.5,287.31,1125,337.5,29.25,8.81,60.5,8.81,89.75,0,167.5-50.19,873.88-262.12,1125-337.5,66.13-19.81,111.38-80.62,111.38-149.62v-499.81c0-17.25-14-31.25-31.25-31.25s-31.25,14-31.25,31.25v499.81c0,41.37-27.19,77.87-66.81,89.81-251.13,75.31-957.56,287.25-1125,337.5-17.56,5.25-36.31,5.25-53.87,0l-1125-337.5c-39.62-11.94-66.81-48.44-66.81-89.81v-350.56c0-17.25-14-31.25-31.25-31.25s-31.25,14-31.25,31.25Z"/>
    <path class="cls-1" d="M646,2324.37s-158.25,234.63-239.12,354.5c-16.44,24.37-20.5,55.12-10.88,82.94,9.56,27.81,31.62,49.56,59.62,58.62l1124.69,365.44c39.75,12.88,83.19-2,106.62-36.56,83.81-123.75,338.94-500.12,338.94-500.12,5.5-8.13,6.87-18.38,3.69-27.69-3.19-9.31-10.56-16.56-19.94-19.56l-1250-405.63c-16.38-5.31-34,3.69-39.38,20.13-5.31,16.37,3.69,34,20.12,39.37l1210.44,392.75-315.62,465.69c-7.81,11.5-22.31,16.5-35.56,12.19l-1124.69-365.44c-9.31-3.06-16.69-10.25-19.88-19.56-3.19-9.25-1.81-19.5,3.62-27.62l239.12-354.5c9.69-14.31,5.88-33.75-8.44-43.38-14.25-9.69-33.69-5.88-43.38,8.44Z"/>
    <path class="cls-1" d="M3062.56,2254l-1072.19,347.94c-16.44,5.31-25.44,22.94-20.13,39.38,5.38,16.37,23,25.37,39.37,20.06l1072.19-347.88c16.44-5.31,25.44-23,20.13-39.37-5.38-16.44-23-25.44-39.38-20.13Z"/>
    <path class="cls-1" d="M2062.62,2779.75s181.31,267.5,250.44,369.56c23.44,34.56,66.87,49.44,106.63,36.56,184.31-59.88,887.25-288.31,1124.69-365.44,28-9.06,50.06-30.81,59.63-58.62,9.62-27.81,5.56-58.56-10.88-82.94-98-145.31-317.19-470.31-317.19-470.31-9.69-14.25-29.12-18.06-43.44-8.44-14.25,9.69-18.06,29.12-8.44,43.44,0,0,219.25,324.94,317.25,470.25,5.44,8.12,6.81,18.37,3.63,27.62-3.19,9.31-10.56,16.5-19.88,19.56l-1124.69,365.44c-13.25,4.31-27.75-.69-35.56-12.19l-250.44-369.56c-9.69-14.31-29.13-18-43.44-8.31-14.25,9.62-18,29.12-8.31,43.38Z"/>
    <path class="cls-1" d="M949.5,2194l1060.19-345.12c9.31-3.06,16.69-10.31,19.88-19.63,3.19-9.31,1.81-19.56-3.75-27.69,0,0-224.5-330.19-302.56-445-23.44-34.44-66.81-49.31-106.5-36.44l-1124.75,365.44c-28,9.12-50.06,30.81-59.69,58.69-9.56,27.81-5.5,58.5,10.94,82.94,90.25,133.81,280.81,416.37,280.81,416.37,9.69,14.25,29.12,18.06,43.44,8.38,14.25-9.62,18.06-29.06,8.44-43.37,0,0-190.62-282.5-280.88-416.31-5.5-8.19-6.81-18.38-3.62-27.69,3.19-9.25,10.56-16.5,19.88-19.56l1124.75-365.44c13.25-4.31,27.69.69,35.5,12.12l279.19,410.62-1020.56,332.25c-16.44,5.31-25.38,23-20.06,39.38,5.38,16.37,23,25.37,39.38,20.06Z"/>
    <path class="cls-1" d="M1990.31,1848.88l1250,406.87c13.25,4.31,27.81-.62,35.62-12.19,0,0,190.56-282.56,280.81-416.37,16.44-24.44,20.5-55.12,10.94-82.94-9.62-27.88-31.69-49.56-59.69-58.69l-1124.75-365.44c-39.69-12.88-83.06,2-106.5,36.44l-218.63,321.5c-9.69,14.31-6,33.75,8.25,43.44,14.31,9.69,33.75,6,43.44-8.25l218.63-321.56c7.81-11.44,22.25-16.44,35.5-12.12l1124.75,365.44c9.31,3.06,16.69,10.31,19.88,19.56,3.19,9.31,1.87,19.5-3.63,27.69l-267.69,396.81-1227.56-399.63c-16.44-5.37-34.06,3.62-39.37,20.06-5.38,16.38,3.63,34,20,39.38Z"/>
    <path class="cls-2" d="M2946.69,2225.94l-946.69,307.12-946.69-307.12,946.69-308.19,946.69,308.19Z"/>
    <path class="cls-1" d="M1687.37,1816.25c-16.81-23.69-31.25-47.5-43.37-71.31-7.81-15.38-26.63-21.5-42-13.63-15.38,7.81-21.5,26.63-13.69,42,13.44,26.44,29.44,52.88,48.13,79.19,10,14.06,29.5,17.31,43.56,7.37,14.06-10,17.38-29.56,7.38-43.62Z"/>
    <path class="cls-1" d="M1600.69,1614.94c-5.62-35.63-5.88-70.44-.94-103.81,2.5-17.06-9.31-32.94-26.38-35.44-17.06-2.5-32.94,9.31-35.5,26.38-5.75,39.37-5.56,80.5,1.06,122.56,2.69,17.06,18.69,28.69,35.75,26,17-2.69,28.69-18.69,26-35.69Z"/>
  </g>
</svg>