<?xml version="1.0" encoding="UTF-8"?>
<svg id="Layer_1" data-name="Layer 1" xmlns="http://www.w3.org/2000/svg" viewBox="0 0 1611.88 1558.85">
  <defs>
    <style>
      .cls-1 {
        fill: #361e00;
      }

      .cls-2 {
        fill: #344b63;
      }

      .cls-3 {
        fill: #1c3149;
      }

      .cls-4 {
        fill: #e38219;
      }

      .cls-5 {
        fill: #fde563;
      }

      .cls-6 {
        fill: #415d72;
      }

      .cls-7 {
        fill: #ffd791;
      }

      .cls-8 {
        fill: #c8e8f3;
      }

      .cls-9 {
        fill: #fcd148;
      }

      .cls-10 {
        fill: #f59420;
      }

      .cls-11 {
        fill: #5c47ae;
      }

      .cls-12 {
        fill: #43bdd1;
      }

      .cls-13 {
        fill: #cb8c54;
      }

      .cls-14 {
        fill: #ccf6f3;
      }

      .cls-15 {
        fill: #46369a;
      }

      .cls-16 {
        fill: #ffe5b6;
      }

      .cls-17 {
        fill: #fefefe;
      }

      .cls-18 {
        fill: #5b310c;
      }

      .cls-19 {
        fill: #a36a47;
      }

      .cls-20 {
        fill: #edf8fe;
      }

      .cls-21 {
        fill: #ffde91;
      }

      .cls-22 {
        fill: #b6eeea;
      }

      .cls-23 {
        fill: #d9975c;
      }
    </style>
  </defs>
  <path class="cls-9" d="M436.12,222.5c3.99-6.37,11.94-17.24,15.37-25.08.87-2,.94-5.05,1.6-6.25.32-.58,3.63-1.29,4.69-3,4.7-7.61,8.91-15.47,14.38-22.91,43.16-58.65,103.06-102.3,169.17-126.85,18.13-6.73,38.84-14.14,60.34-17.85,27.27-4.7,74.41-9.87,103.02-6.13,1.85.24,1.31,1.87,2.12,2.06,3.46.81,9.54-.32,13.71.13,20.98,2.24,41.36,8.04,60.33,13.85,2.38.73,7.04.15,9.61,1.26,14.52,6.26,32.2,12.74,48.27,20.65,85.14,41.92,151.96,115.54,183.71,204.3,12.38,34.61,21.1,71.84,21.69,110.84.05,3.07.19,21.87,0,23.01-.33,2.06-3.65-.36-4.02-.01-.53.5-.28,12.91-.07,14.57.24,1.91,2.55,15.03,2.16,18-.24,1.86-5.88,15.36-6.06,16.12-.64,2.68-.33,13.03.98,15.31.2.34.78.62,1,1-1.34,3.64-1.45,7.73-2.28,11.22-2.43,10.32-5.51,21.42-8.72,31.78-4.68,15.11-17.83,51.36-27,64-3.92,5.4-7.88,13.12-12,20-2.64,4.41-11.1,17.78-11.72,18.3-.86.72-11.68,18.14-12.61,19.39-8.52,11.37-25.38,29.58-35.68,39.32-48.87,46.21-112.32,75.96-168.84,108.88-38.78,22.59-77.22,47.02-112.16,76.12-5.56,4.63-45,44-45,44-26.73-14.39-54.07-27.97-81-42,19.88-34.73,39.91-70.55,63.04-103.23,27.17-38.39,57.09-63.53,92.48-93.75,42.89-36.61,87.11-72.14,131.18-107.33,6.34-10.18.21-22-12.27-17.77l-36.41,29.07c4.37-32.78-17.62-62.81-53-52.49-4.85,1.42-8.54,3.36-13,5.49-1.11-35.27-36.27-53.78-65.99-34-2.48-27.81-20.2-45.93-49.27-41.76-6.31.91-11.77,4.92-17.73,6.76-.53-33.37-31.48-51.92-61.89-36.38l-14.11,9.38c2.18-9.42,1.5-18.97,2-28.48.36-6.72,3.79-16.77-.53-22.49-5.8-7.68-18.01-3.56-19.42,5.54-1.76,11.43-1.12,26.99-2.07,38.93-4.83,60.26-8.49,123.08-16,183-7.79,62.1-37.34,127.99-65.36,183.69-.71,1.42-.12,3.4-2.63,2.82-31.43-16.33-63.31-32.75-94-50-1.17-2.65,1.85-3.03,1.98-3.69.43-2.11-.42-4.59.04-6.63,3.74-16.55,7.94-32.52,9.98-50.68.32-2.81,1.82-1.43,2.08-3.44.41-3.19.11-9.12-.08-12.56,3.01.56,1.94-1.53,2-3.45,1-32.03,5.3-64.14,6-96.55.43-20.08.27-40.42.02-60.51-.02-1.69.64-4.45-1.02-5.49-.65-54.14-3.01-108.9,3.05-162.45,3.1-27.36,11.62-56.58,21.82-82.38.94-2.38,3.51-12.19,4.12-13.17ZM985.77,126.83c-70.89-63.85-209.91-90.56-300.88-64.06-74.73,21.76-166.84,88.53-205.6,156.4-37.72,66.05-36.58,147.91-37.13,221.87l-2.04,29.45c3.32.79,1.56-2.94,2.23-5.26,21.51-74.63,68.86-145.23,127.75-195.25,82.18-69.8,186.27-60.53,283.98-30.95,32.93,9.97,64.58,26.71,99.49,28.51,47.79,2.46,89.97-12.8,76.1-69.1-6.13-24.88-24.96-54.54-43.9-71.61Z"/>
  <path class="cls-20" d="M146.12,885.5c-1.85-7.08-7.64-13.19-11.44-19.11-17.62-27.48-35.52-59.27-50.28-89.68-17.54-36.13-34.21-76.17-46.03-114.97-16.89-55.47-25.14-111.15-30.25-168.75-.37-4.18.57-9.12.07-13.06-.24-1.91-1.92-.95-2.16-2.87-1.44-11.36-1.44-49.77,0-61.13.24-1.91,1.91-.95,2.16-2.87,1.73-13.61.33-30.65,1.89-44.1,5.71-49.15,15.02-97.94,28.29-145.71,6.26-22.53,13.04-46.87,22.75-67.45,1.16-2.46,1.82-9.18,4.65-10.15,3.51-1.2,26.23-.3,31.89-.21,104,1.7,206.52,18.46,301.67,58.33l36.78,18.72c-.62.99-3.18,10.79-4.12,13.17-10.2,25.8-18.72,55.02-21.82,82.38-6.06,53.54-3.7,108.31-3.05,162.45.25,21.29,1.85,31.46-7.11,51.19-7.7,16.95-19.27,33.95-30.48,48.73-1.14,1.5-2.58,2.75-3.91,4.06l-30.3-48.63c-.13-1.05.42-1.84.92-2.69,3.64-6.31,10.08-13.05,13.78-19.48,35.9-62.4,36.91-158.68,30.09-228.66-2.09-21.49-5.89-43.29-10.07-64.44l-11.97,2.5c2,19.39,6.08,38.54,8.05,57.93,6.88,67.79,8.35,183.67-36.55,239.43-.94,1.16-1.63,2.42-3.42,2.05-52.55-84.84-107.78-167.9-163.87-250.64-19.54-28.83-39.93-63.16-61.77-89.73-1.42-1.73-.14-4.78-4.36-3.1-1.74.69-7.97,5.12-8.01,6.96-.08,3.39,12.97,17.06,14.16,21.86,93.78,136.49,186.51,274.6,271.72,415.5,6.46,10.68,12.44,23.39,19.12,32.61,1.63,2.25,2.11,5.3,4.98,6.56-2.04,18.16-6.25,34.13-9.98,50.68-.46,2.04.39,4.53-.04,6.63-.13.65-3.15,1.03-1.98,3.69l-13.35-4.92c-1.64.48-5.59,10.05-6.82,12.29-.49.9-1.7,1.38-1.83,1.63-5.81.51-11.3-2.34-16.74-3.77-70.23-18.53-137.33-56.72-200.02-96.18-36.17-22.77-71.48-46.8-105.77-72.06-1.4-.01-8.76,8.28-8.48,9.47,5.58,3.68,10.43,8.58,15.74,12.52,81.39,60.31,190.26,128.28,287.27,157.52,3.39,1.02,7.41.21,9.99,3.51-2.84,1.4-11.48,17.22-11.96,20.58-.94,6.6,2.89,9.52,7.96,12.42l-9,17c-7.76-3.41-12.44-2.88-17.2,4.3-1.87,2.82-7.95,15.29-7.77,18.13.32,5.07,3.89,5.93,6.96,8.12.93.66.9,2.37,1.01,2.45l-8,16c-2.38-1.53-10.14-2.48-13.06-1.55-4.12,1.31-13.2,18.91-13.02,23.03.25,5.59,4.74,8.1,9.08,10.52-15.59,23.7-16.4,53.4,0,77-13.15-4.9-28.17-7.3-41.52-11.98-12.07-4.24-23.16-11.95-35.48-15.02-1.14-2.98-1.35-15.47.31-17.7,1.17-1.57,10.49-4.81,13.33-6.7,12.59-8.35,17.2-32.71,13.36-46.6,11-1.65,16.38-15.07,7.49-22.99-7.89-7.03-41.1-14.62-51.29-12.3-11.76,2.67-25.68,18.88-26.13,30.95-.29,7.86,5.91,11.46-3.15,18.78-7.69,6.22-16.4,7.07-21.93,17.57Z"/>
  <path class="cls-8" d="M960.12,1445.5c-1.26,25.96-20.72,23.59-28,40.99,0,0,59,1.01,59,1.01-1.77-43.35,7.58-85.57,3.99-129.01,3.03.34,16.16.45,24,1-4.52,12.98-16.12,40.93-17.78,52.75-1.48,10.53,9.13,15.75,16.81,8.51,5.2-13.17,10.13-26.63,13.97-40.26,4.63,17.14,1.36,37.19,7.98,54.55,4.68,4.66-1.11,18.46-3.13,23.81-4.68,7.92-21.23,12.44-22.85,23.64l58,1.01c-.92-38.83,2.84-77.4,5.99-116.01,0,0,139,0,139,0l-15.93,46.55c-3.2,11.7,12.98,18.27,17.49,7.49,21.93-55.57-6.18-54.49,56.77-46.51,9.81,27.54,19.34,54.25,28.63,82.01,4.73,9.88,17.28,7.47,18.89-3.04l-15.83-47.52h167.5c6.63,9.54,12.34,41.73,18.55,49.45,4.35,5.4,17.26-.88,15.99-7.92-.6-3.33-10.85-32.53-14.04-42.53,189.12,34.11,116.87,85.74-21,107-117.58,21.44-239.49,31.22-358.49,36.01-35.5,5.18-84.8.25-117.51,6.99-212.13,2.32-422.76,2.58-633-15-104.81-9.53-210.09-17.34-311-47.99-17.52-5.62-60.43-17.02-51.93-43.22,2.71-3.76,9.18-7.09,9.93-10.78,30.92-17.48,67.53-25.97,103.93-34.07-1.47,8.17-11.32,39.54-13.89,48.03l55.95,18.04c8.74-30.62-26.84-19.58-17.99-46,8.14,2.21,5.72-3.32,8.11-9.19,2.68-6.59,6.04-12.32,7.89-18.81l52-6c.53,23.54,4.77,44.23,3.04,67.54-.11,3.68-3.46,11.52,1.46,12.46l58.51-1c1.01-16.49-13.88-14.22-24.26-17.25-5.38-.88-10.64-18.21-5.93-19.89,2.27-4.77,4.52-36.94,5.18-47.86,72.43-8.44,145.14-15.42,218-18-10.15,47.97-32.41,104.94-29.4,153.11,8.67,1.17,68.37,11.39,53.43-8.35-3.93-4.86-22.13-11.05-28.02-10.76l50-139c-.57,2.91,1.56,2.14,3.45,1.99,18.55-1.5,37.4-1.83,56.09-2.99,1.92-.12,4.01,1.07,3.46-2,11.89,52.37,26.87,109.08,35.66,160.84,2.5,1.5,18.01,2.94,21.85,3.15,5.19.28,31.69.49,34.07-2.96,2.31-12.54-22.13-18.59-30.58-19.03-6.48-47.17-10.96-94.64-16-142l198-1.99-18.81,71.73c-.1,2.66,10.48,4.8,11.62,1.57,11.15-46.2,14.69-51.82,20.34-71.87,1.05-.69,43.48-1.69,118.45.59,13.96.43,3,28.39,12.41,86.97Z"/>
  <path class="cls-14" d="M1473.02,839.72c-7.35,9.51-34.69,22.5-59.71,22.03-30.64-.57-52.86,5.45-86.49,18.97-2.73,1.1-2.55-24.69-2.55-24.69,0,0,0,.33.03,1.09.15,4.16,1.36-31.92,3.8-49.14,1.21-8.54.14-47.02,3.68-52.53,1.41-2.2,48.07-.63,53.38-.36,3.46.18,2.66-5.03,2.13-6.85-.75-2.61-3.56-3.85-4.8-4.4-9.29-4.11-44.12-5.22-48.39-5.34-.81-16.7-.97-34.04-1-52-.06-33.95,8.12-149.16,13.98-148.01,3.42-17.65,79.81-77.84,48.47-80.07-12.83,14.39-22.37,26.51-28.62,34.79-11.13,14.73-21.78,21.91-26.7,24.69-8.68-9.42-22.09-15.35-38.01-12.66-3.98-29.65-2.97-31.34-2.12-34.73,6.65-26.46-5.88-65.93-12.21-68.29-10.18-3.8-10.33-9.23-4.18-17.61,80.27-84.74,219.59,24.57,258.39,110.9,9.19,24.17,9.13,41.23,3.24,54.04-14.94,32.52-67.1,20.6-90.24,54.96-11.23,16.68-10.03,35.16-7.99,58,3.84,43.11,45.28,148.33,25.9,177.22Z"/>
  <path class="cls-3" d="M1184.12,1014.5c9,.65,18.01,3.8,27,0-.44,5.2,1.67,13,.99,17.01,0,0,71.53,1.16,78,0,2.24-3.07,10.28-15.75,26.31-17.88,11.69-1.55,31.7-4.97,31.7,2.87,0,8.45.39,14.17.66,15.8,0,2.7,1.21,2.42,2.73,2.16,7.29-1.25,18.87,5.09,21.61,13.05,9.74,28.27,127.08,371.48,136.04,400.53.95,9.68-12.42,12.85-15.99,7.92-4.4-6.06-15.98-41.49-18.55-49.45-27.92,0-167.5,0-167.5,0,6.38,21.46,14.25,37.85,15.83,47.52,1.13,6.9-3.72,8.73-4.57,9.29-6.08,3.12-12.36-1.28-14.32-6.26-13.66-34.77-46.93-126.19-50.46-131.68-.47-.62-21.01,50.49-34.93,96.18-3.45,11.33-20.7,4.2-17.5-7.49l15.93-46.55c-18.5.34-124.7.03-139,0,0,0,.25-15.81,2.01-17.99,0,0,143.01-.49,143.01-.49,8.63-26.63,28.56-55.23,12.82-82.35-50.01-1.48-139.51,2.74-143.84-.17-1.97-1.32,4.89-18.63,6-19,6.97-2.3,94.32,1.2,131.01-.01-.1-2.52-29.04-79.67-30.41-83.08-4.84-.11-72.42-1.01-82.6-.9.24-2.67.93-16.02,1-18.01,24.62-.33,57.93-.78,75.01-1.02,0,0-32.79-91.71-32.79-91.71-19.28-22.81-31.24,66.67-43.02,78.52-11.42,11.48-2.92-23.99-6.2-33.8,6.76-36.29,14.13-47.84,25-63,5.93-8.27,17.52-8.61,21.3-8.16,6.35-6.66,18.39-11.31,27.7-11.84ZM1268.12,1093.5c16.3.29,33.05.91,43.02.91.95,0,5.76-12.98,14.97-42.91.02-.07.07-.22.03-.41-.34-1.56-6.2-1.41-7.49-1.62-45.73-.82-92.24.55-138.07.03-4.32-.41,14.06,42.57,13.51,43.53,24.64.83,49.37.05,74.02.48ZM1369.12,1093.5c-13.95-53.21-23.3-52.45-37,0,0,0,37,0,37,0ZM1270.12,1145.5c8.55.09,25.21,1.05,27,.09,1.88-1,10.16-33.16,9.32-34.28-1.04-1.38-21.84.41-103.85.18M1297.12,1195.5h106l-27.1-82.9-49.44-.17-29.46,83.07ZM1289.21,1162.9s-66.43,5.21-69.14,2.11c1.47,1.68,13.03,12.4,17.76,15.94,9.71,7.26,18.21,13.46,30.28,14.56,3.72.34,6.82.11,8.87-.14,3.97-6.76,12.01-29.38,12.23-32.46ZM1252.03,1254.97c2.79,3.6,19.93-41.13,19.01-41.56-1-.46-18.92-1.05-34.92-1.05,1.43,5.84,9.41,34.23,15.91,42.61ZM1435.12,1291.5c-3.5-14.13-26.84-79.09-26.84-79.09-2.57-.4-106.72-.16-114.61-.05,0,0-29.4,76.85-29.4,76.85,16.73,2.74,168.84,2.31,170.85,2.3ZM1296.12,1377.5c3.61,10.06,63.36,10.02,89,10.01,12.58,0,56.77,3.6,84.14.13,2.06-.26-19.98-51.7-27.65-78.15,0,0,0,0,0,0,0,0,0,0,0,0,0,0-169.49,0-169.49,0,7.39,22.84,15.89,45.42,24,68Z"/>
  <path class="cls-10" d="M147.12,1092.5c2.7.71,4.94,3.62,6.86,4.6,11.36,5.79,33.35,7.23,46.7,5.48,1.85-.24,1.31-1.87,2.12-2.06,2.42-.56,5.78.38,8.32-.02-.01,12.89-2.87,25.67-3.99,38.51s-1.07,24.72-2.02,36.98c-1.3,16.68-6.12,40.84-3.99,56.51-.56.03-1.67-.24-1.92.07-1.22,1.55-.91,11.29-1.08,13.93-.27,4.11-.59,7.92-1,12-.95,9.49-2.49,18.92-3.05,28.45l-10.95,39.55c-1.07,1.8-1.25,3.23-2,5-8.7,20.44-15.03,41.76-23.09,62.21-.39.98-7.11,15-9.8,21.6-2.39,5.87.03,11.4-8.11,9.19-.56-.15-1.58-1.28-2.79-1.67-7.73-2.48-15.36-5.28-23.21-7.33-1.32-1.74-.9-3.25-.75-5.17,2.04-25.11,12.99-57.74,21.09-81.99,5.62-16.83,15.83-33.19,13.41-51.09-.56-4.14-2.11-8.58-2.75-12.75-.42-2.72-.6-5.52-1-8-2.26-14.03-5.76-28.18-8-42-.41-2.55-.55-5.2-1-8-3.79-23.62-10.78-55.11-4.49-77.99,1.45-5.27,4.17-11.57,6.32-16.68,1.95-4.63,9.42-16.48,10.18-19.32Z"/>
  <path class="cls-10" d="M1333.12,686.5c-.1,16.88,1.81,34.71,1,52-.15,3.15-1.76,8.44-2,12-1.29,19.21-2.45,38.29-4.02,57.48-2.04,24.96-6.22,43.51-1.98,68.52,1.1,6.47,4.23,25.26,4.23,25.26,0,0,9.13,48.11,11.7,64.31,2,12.58,6.07,50.43,6.07,50.43-12.88,2.61-21.21-.78-24-2-11.24-39.42-24.16-78.47-35-118-10.03-36.58-16.48-72.34-20-110-.43-4.65-5.45-68.45-4.27-94.78,5.74-.17,11.54,2.64,17.27,2.78,14.2.34,32.17.52,44.34-5.65l6.66-2.35Z"/>
  <path class="cls-15" d="M1152.12,442.5c22.29,19.88,67.96,61.28,69,62,12.21,8.51,20.51,11.05,35.51,11.99,17.01,1.07,32.43-.96,48.95-2.03,17.28-1.11,30.97,1.53,37.27,18.82.21.57.51,1.03.55,1.51.15,1.74.16,1.29.15,2.72-.01,1.21-.09,2.04-.43,2.8-.05.12-.71,2.28-1.34,3.4-7.03,12.43-20.25,15.66-34.18,16.77-29.59,2.36-59.66-3.46-88.48-8.98,1.29,6.3.58,12.7,1,19-10.77,8.16-22.01,21.06-35.05,25.45-11.22,3.78-23.42,2.86-34.95,1.55-2.79-.32-6.37-.52-9-1-8.88-1.64-26.76-6.54-35-10-.97-.41-5.64-2.96-5.87-3.63-.99-6.2.4-12.46.87-18.37.69-2.2,2.55-2.11,4.45-2.05,4.55.14,15.84,3.87,21.55,5.05,4.16.86,6.47,1.5,11,2,14.3,1.58,24.02,2.17,36.01-7.49,3.56-2.87,24-24.25,24.03-27.01-7.43-9.11-16.44-17.28-24.04-26.5-13.39-16.26-25.51-34.73-36-53-.22-.38-.8-.66-1-1-1.48-3.88,13.74-12.17,15-12Z"/>
  <path class="cls-3" d="M241.12,853.5c-11.05,1.65-31.83-11.56-34,7.5-1.48,12.96,5.98,49.73-6.07,56.93-2.66,1.59-5.91,1.73-8.93,1.57-10.38-1.91-32.07-2.14-42,1-4.26,1.34-4.14,2.45-6.31,3.7-.97.56-2.42.05-3.37.63-.43.26-5.86,7.44-6.05,7.91-.8,1.96.11,4.21-.32,6.21-.81,3.77-3.1,6.93-1.95,11.55-.13.91.02,2.03,0,3-.09,4.22-.12,9.21,2,13,.78,11.52,2.49,21.64,4,33-9.6.22-16.05-8.93-24.98-11.51-11.16-3.23-21.84,5.39-32.37-3.64-15.25-13.06-11.22-39.9.37-54.33,15.77-19.63,27.96-14.63,48.19-20.81,13.16-4.01,11.84-14.31,16.78-23.72,5.53-10.5,14.24-11.35,21.93-17.57,9.05-7.32,2.86-10.92,3.15-18.78.45-12.07,14.37-28.27,26.13-30.95,10.19-2.32,43.4,5.27,51.29,12.3,8.88,7.92,3.51,21.34-7.49,22.99Z"/>
  <path class="cls-11" d="M236.12,1039.5c1.21,9.11.49,18.36,1.01,27.49s1.06,16.22.99,25.51c-3.61.67-7.2,2.94-10.56,3.95-4.02,1.2-12.15,3.37-16.44,4.05-2.53.4-8.58,1.84-10.43,2.08-13.35,1.74-35.34.3-46.7-5.48-1.92-.98-4.16-3.88-6.86-4.6.59-2.21.13-10.54.04-13.54-.79-26.64-5.55-53.13-9.04-79.46-1.51-11.36-3.22-21.48-4-33-.29-4.19.4-9.17-2-13,.02-.97-.13-2.09,0-3,.04-.27,1.09-4.39,1.99-3.99.71,6.41,6.13,13.2,9.79,18.72,16.22,24.44,38.42,48.37,61.21,66.79,4.31,3.48,7.36,7.05,12.96,8.04,5.96,1.05,12.14.32,18.05-.55Z"/>
  <path class="cls-22" d="M1241.12,104.5c2.99-.07,6.01.05,9,0,.39.64,1.28.88,2,1l5,5c-.03.65-.05,1.36,0,2l1,1c.07.34-.09.73,0,1,.49,1.43.28,3.07,2,4,1.53,9.4,1.07,9.65,10,10l11.96,1.95c-.46-3.36,1.88-5.22,3.04-7.95,4.38-10.27,4.75-16.74,19.01-13.51,4.63,1.05,23.89,11.35,28.68,14.32,10.47,6.49,7.13,10.14,5.31,20.19-1.23,1.63-3.27,4.23-4,6-4.35,10.52,1.18,9.03,6.46,16.05.98,1.31,1.38,3.82,1.55,3.95.58.44,11.2-3.49,13.99-4l2-1c4.42-.54,7.88.46,12,1,3.59,3.28,4.46,7.17,7,11-.02.65-.07,1.36,0,2l1,1c1.07,5.07,2.68,9.99,4,15,1.67,6.36,4.59,10.95,2,18-1.36,1.03-1.62,2.69-2,3l-1,1c-.32.24-2.07.51-3,1l-1,1c-5.16,2.34-11.15,3.36-16.57,4.93l-1.19,16.45c1.18,3.34,4.67,3.46,6.76,4.62,1.62.9.71,1.06,4,2,.13.04-.37.98,2,1,.62,1.58,3.81,2.82,4,3,3.82,3.63,5.72,7.86,4.96,13.42-.43,3.15-9.73,20.55-11.96,24.58-.8,1.45-1.4,2.95-2,4-.66,1.16-2.36,4.09-3,5l-1,1c-1.33,1.67-.75,1.66-3,2l-.5-.98-.5.98c-2.83.23-7.56.34-10.23-.27-3.44-.79-14-8.65-16.57-7.51-1.45.64-8.07,10.49-12.27,10.4,2.18,11.98,12.83,25.75-2.74,33.05-4.63,2.17-26.18,9.61-30.75,10.26-15.41,2.21-16.69-14.77-21.04-25.01-4.04,1.21-15.31-2.59-18.23-.77-.77.48-5.98,13.6-8.16,16.33-7.85,9.79-18.12,3.21-26.86-1.13-4.67-2.32-17.78-9.03-20.66-12.34-10.23-11.76,6.09-22.26,4.54-30.33-.16-.81-9.99-10.09-10.57-12.76-14.02,5.11-26.08,12.57-33.45-5.42-2.44-5.95-9.4-26.5-9.01-31.99.9-12.84,16.69-11.91,25.06-17.2-1.42-4.35,2.14-14.06.48-17.34-2.26-4.45-19.06-4.36-20.54-16.46-.83-6.79,1.32-10.78,4.16-16.67.36-.74,1.4-.92,1.77-1.66,2.62-5.23,6.58-15.74,9.74-19.95,1.62-2.16,9.17-5.18,11.72-4.94,4.8.47,17.59,9.18,19.93,8.57,1.29-2.41,11.88-9,12.5-10.07.96-1.65-1.22-8.29-1.79-10.8-1.51-6.6-4.21-10.55-1-18,1.76-.6,6.04-4.07,9.16-5.34,6.38-2.61,13.23-4.8,19.84-6.66,1.55-.44,4.27.79,5-2,.66-.03,1.33.02,2,0ZM1256.16,136.45c-1.5-4.6-4.49-19.49-6.96-22.54-1.75-2.17-5.81-1.57-8.35-1.18-4.35,2.99-26.84,7.43-28.82,10.46-2.85,4.38,5.92,20.88,6.15,26.62-6.35,1.86-16.09,15.43-20.11,17.22-5.65,2.52-22.07-13.79-27.71-8.27l-13.67,26.8c-.72,1.68-.84,3.66-.65,5.46.38,3.64,18.19,10.33,21.91,12.63-.33,9.4-2.98,18.5-1.8,28.17-5.42,5-25.32,4.6-24.96,13.06.12,2.76,7.88,26.51,9.41,29.63,1.23,2.51,2.61,4.11,5.75,3.8,5.41-.52,18.75-7.74,23.06-6.88,2.01,2.17,2.86,5.26,4.69,7.57,1.96,2.47,11.25,10.73,12.01,12.25.84,1.69.56,2.08.06,3.73-1.62,5.26-8.91,14.53-9.86,19.29-.44,2.21.82,3.81,2.44,5.09,2.41,1.91,22.57,12.09,25.83,13.17,3.57,1.18,5.68,1.48,8.57-1.5,1.88-2.95,8.65-18.73,10.63-19.39,9.29.27,18.38,2.65,27.72,1.8l7.13,22.04c1.3,1.77,3.68,3.18,5.91,3.01,5.28-3.19,28.83-7.85,31.67-11.4,3.27-4.07-5.11-20.54-5.92-25.96.25-1.28,9.1-7,11.02-8.68,3.55-3.09,8.9-10.91,13.51-9.2,4.15,1.54,9.85,5.29,14.46,7.37.73.33.83,1.68,1.54,1.84,2.94.69,5.82.35,7.75-1.99,1.56-1.89,14.45-27.85,14.43-29.49-.07-6.07-17.88-11.64-22.78-14.6-.91-1.42,1.69-7.92,1.88-10.39.34-4.66-.93-12.99.2-16.8,1.23-4.09,23.18-6.62,24.63-11.4.38-1.25.2-2.4.1-3.66-.26-3.3-7.4-25.4-9.05-28.81-4.22-8.75-22.37,4.91-29.21,3.21-1.11-.28-1.8-4.1-2.7-5.3-3.91-5.22-8.91-10.07-13.48-14.77-2.35-5.04,11.84-20.33,9.03-25.98-.78-1.57-29.26-16.09-31.01-16.09-8.45,1.99-10.11,15.23-14.66,21.93-10.04.84-19.65-3.04-29.8-1.88Z"/>
  <path class="cls-22" d="M1134.12,1.5c1.24.02,5.62.82,8,1,2.56.19,5.57-.35,8,0,4.36.62,6.2,3.79,10,5,.18,2.86-.58,13.66.16,14.84.23.37,6.99,3.32,8.12,3.02,2.73-.72,5.41-5.44,10.72-6.86h4c.95.03,2.07.1,3,0-.75,2.4,3.36,3.38,4,4,2.69,2.61,5.97,8.58,9,10,.07,1.97,1.27,3.24,3,4,.04.66,0,1.34,0,2,0,2,0,4,0,6-.75.89-1.78,3.13-3.06,4.44-1.04,1.07-5.56,4.38-5.83,5.21-.44,1.34,1.04,6.68,1.82,7.71s1.51.44,2.07.64l3,1c1.75.17,4.22.13,6,0l2,1c2.06,2.65,4.27.54,5,6,.31,2.29.04,5.55,0,8-.05,2.65.15,5.36,0,8-.11,1.83-.87,5.02-1,8-.01.33.02.67,0,1-1.43.43-1.99,1.54-2,3-.55.31-.83.2-1,1l-5,2c-1.27-.07-2.74-.1-4,0-6.46-2.92-7.8-.88-9,5-.13.62-1.41.89-.82,3.2.9,3.54,5.43,4.66,6.82,10.8v1c.13,1.14.1,2.83,0,4v1c-.18.28-.69.65-1,1-.63.71-2.19,2.21-3,3-3.16,3.07-14.97,13.79-18.58,13.99-6.56.36-10.93-9.03-14.13-9.86-.41-.11-7.95,1.61-8.25,1.91-1.03,1.03,1.82,16.21-7.59,17.91-4.63.84-20.06.17-24.49-1.41-10.44-3.72-3.15-15.83-7.41-19.59-.83-.74-5.76-3.12-6.84-2.85-3.67.91-5.7,9.33-14.96,7.68-4.41-.79-13.8-12.1-16.75-15.78-.01-1.46-.57-2.57-2-3-.03-.33.02-.67,0-1-.11-1.99.07-4.01,0-6,.17-.28-.17-2.51.52-3.94,1.68-3.49,8.25-3.63,7.32-9.3-1.18-7.2-7.06-5.53-12.84-6.76-.42-1.45-1.56-1.93-3-2-.08-.08-1.46-.7-2-1-1.54-5.59-.77-11.29-1-17-.05-1.33.09-2.68,0-4,1.84-1.13.76-4.16,1-6,.82-6.24.52-3.39,4-6,1.46-.01,2.57-.57,3-2,3.73-.2,8.17,1.56,11,1l1-1c1.32-1.49.71-1.65,1-3,1.43-.44,2.02-1.53,2-3,1.36-1.62-2.73-4.91-4-6,.73-3.07-1.65-1.66-2-2-.61-.6-1.21-8.38-1-10,.45-.15,4.12-5.77,5.99-7.51,3.12-2.9,12-10.56,15.76-11.3,7.6-1.5,11.13,9.86,14.89,10.61.8.16,7.04-2.14,7.75-2.69,1.32-1.02.49-7.91.62-10.11l5-7c.3-.08.67.06,1,0,1.62-.3,1.89-1,2-1,1.33-.04,2.67-.02,4,0ZM1130.12,10.5v16c-5.05-1.83-15.76,5.9-19.3,4.87-2.22-.64-7.49-10.19-10.14-10.9-1.62.24-14.61,10.99-15.09,12.07-2.63,5.92,10.03,9.06,8.1,15.98-.36,1.29-6.82,14.13-7.55,14.5-3.86,1.93-15.37-1.01-15.98-.48-1.24,6.87-1.49,14.22-1.61,21.03,1.09,1.52,11.81.99,14.88,2.12,1.24.46,7.45,16.94,7.24,17.89-.77,3.65-11.08,7.61-10.61,12.37.11,1.15,10.98,13.56,12.08,14.11,3.51,1.75,10.61-9.6,13.46-9.58,1.74,2.58,16.51,7.1,16.51,8.02v17c6.88,1.2,13.87,1.25,20.86.86,2.56-3.2,0-13.75,1.27-15.73.56-.87,17.3-5.01,19.72-5.99,1.04,1.91,7.67,10.44,8.85,10.74,3.44.9,14.3-10.27,16.34-13.38l-9.64-12.54c2.94-1.83,6.96-16.31,7.74-16.82,2.94-1.93,14.37,2.95,16.43-.07s.59-15.35,2.46-19.54l-17.14-3.1c.35-4.4-5.71-13.77-5.64-16.78.09-3.8,11.16-7.32,10.86-13.15-.07-1.41-10.65-10.2-11.1-13.01-4.57-2.88-9.51,6.52-13.06,8.03s-13.02-7.27-18.05-7.12l.11-17.39c-3.49,1.06-20.77-1.92-22.01,0Z"/>
  <path class="cls-23" d="M1300.12,470.5c-2.61,3.8,2.16,35.89,2.11,34.73-.04-1.02-16.97,2.48-31.6,1.25-4.23-.35-10.12-.81-11.52-4.98-.02-.05-.75-2.55-.95-4.55-.24-2.42.47-10.35-.18-11.32-.35-.53-7.5-4.64-10.53-6.37-.9-.51-2.66-2.82-2.91-3.82-3.1-12.25,2.02-32.6,5.57-48.94,3.45,1.28,9.94,2.54,13.63,2.87,4.94.45,16.06-1.12,19.34,1.66,6.21,5.27,8.19,29.21,12.8,37.2,1.15,1.98,1.86,2.54,4.23,2.27Z"/>
  <path class="cls-1" d="M1278.12,394.5c3.24,2.02,5.59,5.64,9.79,7.71,14.58,7.19,28.38-.27,26.09,24.67-1.24,13.42-6.42,32.76-13.88,43.62-2.37.27-3.09-.29-4.23-2.27-4.61-7.98-6.59-31.92-12.8-37.2-3.27-2.78-14.4-1.22-19.34-1.66-3.69-.33-10.18-1.59-13.63-2.87-22.37-8.29-13.26-40.63,9.54-39.04,4.11.29,14.85,4.78,18.46,7.04Z"/>
  <path class="cls-3" d="M140.12,1424.5c-1.08,3.97-2.1,11.96.1,15.4,1.45,2.27,9.75,5.11,12.92,8.08,6.72,6.31,7.05,14.01,4.97,22.52l-55.95-18.04,10.96-35.96,1-1c7.85,2.05,15.49,4.85,23.21,7.33,1.2.39,2.23,1.52,2.79,1.67Z"/>
  <path class="cls-23" d="M1149.78,399.33c4.63,12.9,6.74,30.17,2.34,43.17-1.26-.17-16.48,8.12-15,12-1.31-2.28-1.62-12.63-.98-15.31.18-.76,5.81-14.25,6.06-16.12.39-2.98-1.92-16.09-2.16-18-.21-1.66-.76-13.41.07-14.57,2.16-3.03,7.74,3.45,9.67,8.84Z"/>
  <path class="cls-22" d="M136.12,1214.5c-3.21.08-10.74,1.19-11.8,4.69,1.06,11.86.55,25.12,4.24,36.36,3.27,3.53,10.92-.19,15.56.95.4,2.48.58,5.28,1,8-4.31-2.75-9.15.45-13.4-.02-6.56-.72-10.19-5.48-11.52-11.56-1.56-7.09-2.98-23.7-2.97-31.02,0-5.79,3.49-11.89,9.62-13.17,2.52-.53,8.81,1.28,8.27-2.23.45,2.8.59,5.45,1,8Z"/>
  <path class="cls-14" d="M1246.18,478.2c1.4.27,11.37,6.76,11.81,7.44.64.97-.07,8.89.18,11.32.2,2,.93,4.5.95,4.55-6.64-1.23-13.71-1.4-20.49-.99-6.07.37-12.26.97-17.51,3.99-1.04-.72-1.53-1.65-2-2,7.44-3.58,13.87-9.96,19.51-15.99,1.9-2.03,5.55-8.71,7.55-8.32Z"/>
  <path class="cls-20" d="M1205.12,118.5c-3.21,7.45-.51,11.4,1,18-6.27.11-3.82-7.53-4-12.5-.06-1.68-1.1-3.41-1.01-4.99.06-1.16,3.04-.18,4.02-.51Z"/>
  <path class="cls-20" d="M1438.12,1518.5c-2.92,5.24-10.99,4.3-16,3,5.3-.76,10.68-2.24,16-3Z"/>
  <path class="cls-20" d="M190.12,1521.5c-4.24,1.55-9.16,1.02-13.3-.26-1.63-.5-3.2-.43-2.7-2.74,5.29.78,10.72,2.25,16,3Z"/>
  <path class="cls-20" d="M1382.12,194.5c6.63,1.94,3.15,12.23,4.05,17.41-.19,1.19-1.78.38-2.05.59,2.59-7.05-.33-11.64-2-18Z"/>
  <path class="cls-20" d="M1077.12,30.5c-.21,1.62.39,9.4,1,10,.35.34,2.73-1.07,2,2-1.48-1.28-1.4-1.42-2-2-1.15-1.09-3.1.24-3.93-4.57-1.19-6.88.23-4.51,2.93-5.43Z"/>
  <path class="cls-20" d="M1370.12,165.5c.18.02.82-1.37,1.8-.86.25.13,3.73,3.93,3.89,4.17.49.76.17,2.2.65,3.37.15.37,1.56.36,1.71.98.44,1.88-1.04,3.09-1.04,3.34-2.54-3.83-3.41-7.72-7-11Z"/>
  <path class="cls-20" d="M1200.12,101.5c-1.02.08-3.84,2-6.01.99.06,3.47.92,4.56-2.99,4.01,1.2-5.88,2.54-7.92,9-5Z"/>
  <path class="cls-20" d="M1150.12,2.5c.33-5.53,4.45-.18,4.73-.03,3.91,2.11,4.98.46,5.27,5.03-3.8-1.21-5.64-4.38-10-5Z"/>
  <path class="cls-20" d="M1357.12,1529.5c.08,4.6-8.93,3.55-12,2,3.09-.32,8.56-1.85,12-2Z"/>
  <path class="cls-20" d="M1482.12,791.5c.56.09,1.87-.17,2,0"/>
  <path class="cls-20" d="M1484.12,802.5c-.56-.09-1.87.17-2,0"/>
  <path class="cls-20" d="M1285.12,122.5c-1.17,2.73-3.51,4.59-3.04,7.95l-11.96-1.95c2.63.1,6.91.41,9.27-.05,3.29-.64,1.29-7.37,5.73-5.95Z"/>
  <path class="cls-20" d="M658.12,1555.5c-1.21,1.44-10.56,1.34-11.01,1-.16-.12.1-1.44,0-2,3.77.09,8.37.94,11,1Z"/>
  <path class="cls-20" d="M1062.12,89.5c-.39-.21-1.74.63-2.04-.62-.78-3.26-.14-12.89,1.04-16.38.23,5.71-.54,11.41,1,17Z"/>
  <path class="cls-20" d="M1252.12,105.5c.08.01.73-.91,1.34-.74,6.91,1.88,3.83,2.45,3.66,5.74l-5-5Z"/>
  <path class="cls-20" d="M1241.12,104.5c-1.73-3.02,8.59-2.31,9.01-2,.24.18-.24,1.63,0,2-2.99.05-6.01-.07-9,0Z"/>
  <path class="cls-20" d="M1213.12,70.5c6.5-.72,1.19,4.57,0,8,.04-2.45.31-5.71,0-8Z"/>
  <path class="cls-20" d="M233.12,1527.5c-2.27,1.49-9.07,2.29-8-1,2.61.34,5.67.7,8,1Z"/>
  <path class="cls-20" d="M1213.12,86.5c1.49,2.27,2.28,9.07-1,8,.13-2.98.89-6.17,1-8Z"/>
  <path class="cls-20" d="M1387.12,1526.5c1.19,3.17-6.08,2.61-8,1,2.44-.29,5.4-.66,8-1Z"/>
  <path class="cls-20" d="M1519.12,1503.5c.25,3.67-5.04,4.06-7,2,2.09-.48,4.36-1.44,7-2Z"/>
  <path class="cls-20" d="M965.12,1554.5c1.07,3.28-5.73,2.49-8,1,1.5-.04,5-.96,8-1Z"/>
  <path class="cls-20" d="M1186.12,18.5c3.36-.37.78-2.48,3.99-2v6c-.63-.62-4.75-1.6-3.99-4Z"/>
  <path class="cls-20" d="M1134.12,1.5c1.92-1.61,9.19-2.17,8,1-2.38-.18-6.76-.98-8-1Z"/>
  <path class="cls-20" d="M150.12,1515.5c-1.96,2.06-7.25,1.67-7-2,2.39.11,5.06,1.61,7,2Z"/>
  <path class="cls-20" d="M1334.12,1532.5c1.15,3.1-5.17,2.65-7,1,1.9-.2,4.53-.74,7-1Z"/>
  <path class="cls-20" d="M1127.12,2.5l-5,7c.33-5.52-.21-5.63,5-7Z"/>
  <path class="cls-20" d="M1401.12,1524.5c1.15,3.1-5.17,2.65-7,1,2.11-.28,4.7-.68,7-1Z"/>
  <path class="cls-20" d="M902.12,1556.5c1.42,2.96-7.09,3.3-6,0,2-.02,4,.03,6,0Z"/>
  <path class="cls-20" d="M1498.12,1508.5c-.22.29.6,1.78-.57,2.06-1.26.3-4.8.29-5.43-1.06,1.68-.36,3.57-1.85,6-1Z"/>
  <path class="cls-20" d="M1209.12,99.5c-.17.78.24,2.8,0,3-1.31,1.1-4.49-.97-5-1l5-2Z"/>
  <path class="cls-20" d="M1062.12,62.5c-.24,1.84.84,4.87-1,6-.09-1.4-3.38-6.26,1-6Z"/>
  <path class="cls-20" d="M218.12,1525.5c-1.76,1.69-7.08,2.01-6-1,2.1.29,4.24.76,6,1Z"/>
  <path class="cls-20" d="M1189.12,1544.5c.93,3.14-3.74,2.54-6,1,.89-.05,3.71-.85,6-1Z"/>
  <path class="cls-20" d="M1202.12,38.5c2.59-.86,2.42,2.14,2.08,4.55s-1.83,1.16-2.08,1.45c0-2,0-4,0-6Z"/>
  <path class="cls-20" d="M1220.12,1542.5c.93,3.14-3.74,2.54-6,1,.97-.07,3.7-.84,6-1Z"/>
  <path class="cls-20" d="M398.12,1543.5c-2.26,1.54-6.93,2.14-6-1,2.32.15,5.08.94,6,1Z"/>
  <path class="cls-20" d="M1072.12,112.5c.07,1.99-.11,4.01,0,6-2.58.86-2.43-2.16-2.09-4.56s1.99-1.27,2.09-1.44Z"/>
  <path class="cls-20" d="M1079.12,1550.5c-1.46,4.05-4.88,1.04-6,1,1.09-1.68,4.11-.98,6-1Z"/>
  <path class="cls-20" d="M203.12,1523.5c-1.69,1.74-5.97,1.91-5-1,1.91.27,3.74.83,5,1Z"/>
  <path class="cls-20" d="M365.12,1540.5c1.27,2.95-6,3.27-5,0,1.65.11,3.34-.1,5,0Z"/>
  <path class="cls-20" d="M347.12,1539.5c-2.2,1.54-5.82,2.06-5-1,2.06.18,4.34.94,5,1Z"/>
  <path class="cls-20" d="M428.12,1545.5c-2.2,1.54-5.82,2.06-5-1,2.05.15,4.58.97,5,1Z"/>
  <path class="cls-20" d="M494.12,1549.5c-1.52.1-5.62,3.31-5-1,1.61.03,4.16-.6,5,1Z"/>
  <path class="cls-20" d="M539.12,1551.5c-1.52.1-5.62,3.31-5-1,1.61.03,4.16-.6,5,1Z"/>
  <path class="cls-20" d="M267.12,1531.5c-1.69,1.74-5.97,1.91-5-1,2.17.19,3.93.89,5,1Z"/>
  <path class="cls-20" d="M1372.12,247.5c1.79.02,2.98-3.62,4,3-.19-.18-3.38-1.42-4-3Z"/>
  <path class="cls-20" d="M1611.12,1456.5c1.79,7.27.01,3.69-1,5,.06-1.6-.62-4.15,1-5Z"/>
  <path class="cls-20" d="M1542.12,1497.5c-.54,3.39-3.23,4.33-6,2,1.86-.51,4.05-1.46,6-2Z"/>
  <path class="cls-20" d="M1369.12,288.5l.83.64c.69,3.41.48,3.71-2.83,3.36.6-1.05,1.2-2.55,2-4Z"/>
  <path class="cls-20" d="M841.12,1556.5c1.27,2.95-6,3.27-5,0,1.67,0,3.33,0,5,0Z"/>
  <path class="cls-20" d="M102.12,1505.5c-1.69,1.74-5.97,1.91-5-1,1.59.37,3.34.63,5,1Z"/>
  <path class="cls-20" d="M1338.12,143.5c-.73,4.03,1.97,4.83-4,6,.73-1.77,2.77-4.37,4-6Z"/>
  <path class="cls-20" d="M1239.12,104.5c-.73,2.79-3.45,1.56-5,2-.76-3.09,2.32-1.9,5-2Z"/>
  <path class="cls-20" d="M1199.12,32.5c.58.27,2.65-.35,2.98.01.27.3-.04,2.99.02,3.99-1.73-.76-2.93-2.03-3-4Z"/>
  <path class="cls-20" d="M118.12,1509.5c-1.72,1.91-4.84,1.67-4-1,1.35.31,2.94.78,4,1Z"/>
  <path class="cls-20" d="M1532.12,1500.5c.57,4.26-2.95,1.04-4,1,.71-1.64,2.79-.78,4-1Z"/>
  <path class="cls-20" d="M51.12,1492.5c-2.48-.21-5.74,1.21-5-2,1.43.52,3.93-.21,5,2Z"/>
  <path class="cls-20" d="M1413.12,1522.5c.84,2.67-2.28,2.91-4,1,.78-.11,2.23-.75,4-1Z"/>
  <path class="cls-20" d="M284.12,1533.5c-1.72,1.91-4.84,1.67-4-1,1.84.2,3.42.94,4,1Z"/>
  <path class="cls-20" d="M25.12,1431.5c-.45,1.85-1.82,1.53-3,2-.68-5.5,1.95-1.98,3-2Z"/>
  <path class="cls-20" d="M1267.12,1538.5c.51,4.19-2.68,1.12-4,1,.69-1.5,2.68-.97,4-1Z"/>
  <path class="cls-20" d="M612.12,1554.5c-1.28-.01-2.42.05-4,0,.32-1.5,3.59-1.56,4,0Z"/>
  <path class="cls-20" d="M715.12,1556.5c1.09,2.97-4.91,3.23-4,0,1.33.02,2.67-.01,4,0Z"/>
  <path class="cls-20" d="M776.12,1556.5c1.09,2.97-4.91,3.23-4,0,1.33,0,2.67,0,4,0Z"/>
  <path class="cls-20" d="M1366.12,244.5c2.39.04,4.64-.94,4,2-3.29-.94-2.38-1.1-4-2Z"/>
  <path class="cls-20" d="M1196.12,127.5c.4,3.1.1,3.4-3,3,.81-.79,2.37-2.29,3-3Z"/>
  <path class="cls-20" d="M2.12,1462.5c-.1-.14-1.95.52-2.1-.64-.17-1.33,1.08-2.15,1.1-2.36l1,3Z"/>
  <path class="cls-20" d="M1365.12,1528.5c.5,4.07-2.15,1.06-3,1,.48-1.29,1.9-.97,3-1Z"/>
  <path class="cls-20" d="M249.12,1529.5c-.89.07-3.49,3.06-3-1,1.1.05,2.52-.31,3,1Z"/>
  <path class="cls-20" d="M1258.12,114.5c3.25-.63,1.62,1.64,2,4-1.72-.93-1.51-2.57-2-4Z"/>
  <path class="cls-20" d="M1485.12,1510.5c.51,4.08-2.19,1.05-3,1,.47-1.37,1.94-.87,3-1Z"/>
  <path class="cls-20" d="M140.12,1513.5c-1.02.12-3.47,3.03-3-1,1.04.16,2.51-.39,3,1Z"/>
  <path class="cls-20" d="M1158.12,1546.5c.5,4.07-2.15,1.06-3,1,.48-1.3,1.9-.96,3-1Z"/>
  <path class="cls-20" d="M1212.12,95.5c-.35,4.74-.3,2.03-2,3,.01-1.46.57-2.57,2-3Z"/>
  <path class="cls-20" d="M1067.12,92.5c-5.19-1.11-1.55-.52-3-2,1.44.07,2.58.55,3,2Z"/>
  <path class="cls-20" d="M12.12,1438.5c.01,1.48-.58,2.52-2,3,1.12-2.17-1.83-1.42,2-3Z"/>
  <path class="cls-20" d="M1084.12,48.5c.02,1.47-.57,2.56-2,3,1.15-5.26,1.06-1.87,2-3Z"/>
  <path class="cls-20" d="M1069.12,54.5c-.43,1.43-1.54,1.99-3,2,.6-.45-1.78-1.75,3-2Z"/>
  <path class="cls-20" d="M1074.12,122.5c-.55-.68-1.59,1.95-2-3,1.43.43,1.99,1.54,2,3Z"/>
  <path class="cls-20" d="M456.12,1547.5c-.11,0-.94,1.4-1.99.99-.11-.57.16-1.87,0-1.99l2,1Z"/>
  <path class="cls-20" d="M1462.12,1514.5c-.16.12.1,1.42,0,1.99-1.03.4-1.87-.98-1.99-.99l2-1Z"/>
  <path class="cls-20" d="M1206.12,63.5c.11,0,1.36-1.62,1.99-1,.26.25-.22,1.71,0,2l-2-1Z"/>
  <path class="cls-20" d="M1474.12,1512.5c-.17.14.11,1.42,0,1.99-1.06.4-1.87-.98-1.99-.99l2-1Z"/>
  <path class="cls-20" d="M371.12,1541.5c-.17.03-.88,1.4-1.99.99-.11-.58.16-1.86,0-1.99l2,1Z"/>
  <path class="cls-20" d="M1117.12,1549.5c-.86.04-1.62-.02-2,0l.51-.99,1.49.99Z"/>
  <path class="cls-20" d="M130.12,1511.5c-.12.01-.96,1.39-1.99.99-.11-.57.15-1.88,0-1.99l2,1Z"/>
  <path class="cls-20" d="M1000.12,1554.5c-.11,0-.22.89-2,1-.35-2.29.4-2.81,2-1Z"/>
  <path class="cls-20" d="M40.12,1424.5c.29,2.05.05,2.29-2,2,.83-1.07-1.67-1,2-2Z"/>
  <path class="cls-20" d="M1478.12,772.5c.11.15,1.42-.1,1.99,0,.35.9-1,1.87-.99,1.99l-1-2Z"/>
  <path class="cls-20" d="M1183.12,18.5h-4c3.72-.99,2.5-.05,4,0Z"/>
  <path class="cls-20" d="M1130.12,1.5c-.11,0-.38.7-2,1-.35-2.29.39-2.8,2-1Z"/>
  <path class="cls-20" d="M56.12,1493.5c-.15,0-1.09,1.35-1.99.99-.12-.58.17-1.83,0-1.99l2,1Z"/>
  <path class="cls-20" d="M1200.12,63.5l-3-1c.54.19,2.84.98,3,1Z"/>
  <path class="cls-20" d="M1412.12,1159.5l-1-3c.29.94.64,1.7,1,3Z"/>
  <path class="cls-20" d="M1420.12,1183.5l-1-3c.31.97.67,2,1,3Z"/>
  <path class="cls-20" d="M1422.12,1188.5l-1-2c.04.11.63.88,1,2Z"/>
  <path class="cls-20" d="M1358.12,164.5l-2,1c.11-.02.27-.79,2-1Z"/>
  <path class="cls-20" d="M1388.12,1088.5l-1-2c.06.16.63.94,1,2Z"/>
  <path class="cls-20" d="M1406.12,1141.5l-1-2c.1.31.68,1.01,1,2Z"/>
  <path class="cls-20" d="M1386.12,1082.5l-1-2c.11.33.67,1.06,1,2Z"/>
  <path class="cls-20" d="M1374.12,1049.5l-1-2c.46.8.63,1.22,1,2Z"/>
  <path class="cls-20" d="M238.12,1528.5c-.77-.1-.93-.99-1-1l1,1Z"/>
  <path class="cls-20" d="M1080.12,55.5c.07-.01.81-.78,1-1l-1,1Z"/>
  <path class="cls-20" d="M1258.12,113.5l-1-1c0,.07.86.34,1,1Z"/>
  <path class="cls-20" d="M1197.12,121.5v-1c.25,1.09,0,.95,0,1Z"/>
  <path class="cls-20" d="M374.12,1541.5h1c-.15,0-.76,0-1,0Z"/>
  <path class="cls-20" d="M1237.12,1541.5h1c-.51.04-.87,0-1,0Z"/>
  <path class="cls-20" d="M1197.12,126.5v-1c-.02.28.89-.38,0,1Z"/>
  <path class="cls-20" d="M1378.12,179.5l-1-1c0,.07.87.38,1,1Z"/>
  <path class="cls-20" d="M1381.12,216.5l1-1c-.3.24-.56.66-1,1Z"/>
  <path class="cls-20" d="M1377.12,218.5l1-1c-.22.11-.48.76-1,1Z"/>
  <path class="cls-20" d="M1363.12,298.5l1-1c-.27.38-.72.64-1,1Z"/>
  <path class="cls-20" d="M1360.12,300.5c-.32.05-.67-.03-1,0l.5-.98.5.98Z"/>
  <path class="cls-20" d="M1525.12,1502.5l1-1c-.07,0-.29.91-1,1Z"/>
  <path class="cls-14" d="M1001.85,916.24c1.59.4,8.12,3.01,9.99,3.01-2.04,3.12-4.61,4.96-6,9-1.25.25-3.12,1.37-4.73,1.77-22.65,5.66-45.71,19.2-68.59,27.41-7.87,2.83-18.91,8.35-24.63.06-1.78-2.59-5.13-10.98-5.77-14.01-2.18-10.28-1.56-20.86-2.28-31.22-.02-2.65.15-3.36-.09-5.43-1.44-12.33,5.14-31.11,2.06-43.88-.18-.74-2.78-8.41-3.16-9.16-2.92-5.74-4.26-7.53-7.39-14.41-1.95-4.28-2.92.7-2.14,4.01.84,3.56,2.01,6.77.69,12.19-.18.75-.43,1.87-.6,2.64-.36,1.61-1.02,1.98-1.67,3.81-.15.43-4.4,5.64-5.38,7-1.11,1.53-3.51,3.87-3.72,5.53-.78,6.1.3,8.21,1.83,13.76,4.79,17.44,4.13,20.76,3.56,23.25-.08.37-1.24.58-1.99,2.7-2.29,6.54-2.95,18.24-3.04,25.46-.17,13.41.88,44.33,13.35,52.22.82.52,2.15.09,2.86.41.99.44.79,1.61,1.55,1.87,9.54,3.25,23.36,2.19,33.82,3.09,19.25-1.67,38.69-2.31,57.45-7.04.29,6.98,1.72,14.08,3.01,21-6.26,9.85-12.81,19.68-18.81,29.69-6.93,11.58-13.51,22.61-20.17,34.05-6.48,11.14-12.88,26.44-20.19,36.59-.99,1.37-1.79,3.01-3.82,2.66l-71.53-176.99c-.81-2.22-9.99,2.69-10.27,3.18-1.02,1.75,1.11,6.82,1.92,8.97,11.13,29.28,24.43,59.51,36.21,88.51,10.24,25.23,23.33,54.24,33.56,81.13.69,1.82,2.95,8.31,3.03,9.77.27,4.45-3.14,5.13-3.23,9.12-22.09,36.8-40.01,75.7-58.48,113.01-1.85,3.73-12.05,26.37-13.34,27.17-1,.62-2.76.08-3.84-.42-3.09-1.42-15.86-13.1-18.94-16.06-37.93-36.42-64.85-81.48-87.03-128.17-1.3-2.73-2.27-6.33-4.08-9.23.38-.5-.18-10.3.01-12.49,1.16-13.03,4.09-26.23,5.88-39.12.59-4.21-1.18-9.12,2.11-12.39,2.87-2.87,5.59-1.37,8.45-2.05,3.1-.73,11.12-2.94,13.24-4.27,4.75-3,5.34-9.71,4.27-14.96-.09-.44-3.41-2.9-3.96-3.72,2.14-1.77,11.9-9.69,11.86-11.34-.02-.57-.58-1.14-.86-1.66,4.43.83,4.2-3.53,5.1-5.15,9.26-16.79,18.55-34.02,25.9-50.85.04-.1,1.51.25,2.01-.69,1.8-3.34,16.19-29.11,14.98-30.31-9.7,1.87-19.31,4.87-28.75,7.75-1.73.53-5.88.6-5.25,3.25-5.18-1.24-10.92,2.44-15.76,3.74-8.61,2.3-15.82,4.04-23.24,6.26.32-8.81-.42-17.73-.04-26.54.28-6.56,1.86-14.38,2.08-20.92.44-12.59-1.66-29.32-.12-41.1.18-1.35,15.55-14.71,23.32-19.48,74.85-45.95,194.75,16.1,255.71-50.54,33.24-36.34,23.68-83.93,3.16-124.22l-4.11-14.19c10.3-9.74,27.15-27.94,35.68-39.32.93-1.24,4.91-7.48,5.25-7.85.47-.51,8.85.7,10.63-.43,5.32-3.38,13.28-10.77,17.43-14.87,2.88-2.85,6.22-11.87,9.67-11.22,4.79,1.6,26.35,7.66,30.29,8.97.42,3.19,2.42,8.76,3.16,10.93,11.97,35.01,26.41,72.37,37.8,107.59,1.41,4.36,5.18,14.46,4.69,18.27-.35,2.76-9.31,12.37-11.59,15.48-15.65,21.31-31.94,43.22-46.97,64.2-15.08,21.05-28.95,42.98-45.03,63.25-.24-2.19-2-8.35-3.15-10.35-6.58-11.43-28.42-8.59-37.34-16.66-1.27-1.15-1.83-3.03-2.97-4.03-11.87-10.48-26.64-5.99-31.03,9.04-3.32,11.37-.59,11.52,7.5,17"/>
  <path class="cls-14" d="M1002.06,903.95c-.17,1.67-.41,12.14.06,12.55"/>
  <path class="cls-5" d="M985.77,126.83c18.95,17.07,37.78,46.73,43.9,71.61,13.87,56.3-28.31,71.56-76.1,69.1-34.92-1.8-66.56-18.54-99.49-28.51-97.71-29.58-201.8-38.85-283.98,30.95-58.89,50.02-106.24,120.62-127.75,195.25-.67,2.32,1.09,6.05-2.23,5.26l2.04-29.45c.55-73.96-.59-155.81,37.13-221.87,38.76-67.87,130.87-134.64,205.6-156.4,90.98-26.49,229.99.21,300.88,64.06Z"/>
  <path class="cls-6" d="M480.12,773.5c2.52.59,1.92-1.4,2.63-2.82,28.02-55.7,57.57-121.59,65.36-183.69,7.51-59.92,11.18-122.74,16-183,.96-11.94.31-27.49,2.07-38.93,1.4-9.1,13.62-13.23,19.42-5.54,4.32,5.72.89,15.77.53,22.49-.5,9.51.17,19.07-2,28.48l14.11-9.38c30.41-15.54,61.36,3.01,61.89,36.38,5.96-1.83,11.42-5.85,17.73-6.76,29.07-4.17,46.79,13.95,49.27,41.76,29.72-19.78,64.88-1.27,65.99,34,4.46-2.13,8.15-4.07,13-5.49,35.38-10.32,57.38,19.71,53,52.49l36.41-29.07c12.48-4.23,18.61,7.59,12.27,17.77-44.07,35.19-88.29,70.71-131.18,107.33-35.39,30.21-65.31,55.36-92.48,93.75-23.13,32.68-43.16,68.51-63.04,103.23-6.59-3.43-13.41-6.57-20-10,2.43.53,2.07-1.24,2.82-2.63,29.09-53.76,63.01-109.12,104.99-153.3l82.18-70.59c.37-2.16-.44-1.16-1.38-1.57-17.58-7.74-27.26-20.11-27.62-39.91-.73-.79-11.86,4.93-14,5.49-29.17,7.76-50.75-12.11-53.01-40.5-29.85,19-64.45,1.17-66-34-13.47,6.22-27.25,10.4-41.68,4.19-3.85-1.66-6.53-4.83-10.3-5.19l-3.02,42.48c-3.06,19.14-3.48,38.71-6.11,57.89-8.82,64.28-40.95,126.38-67.88,184.62-6.59-3.42-13.41-6.57-20-10ZM614.86,413.74c-16.29,2.56-30.54,23.22-33.47,38.53-8.7,45.54,38.96,48.02,56.44,10.44,9.57-20.58,6.81-53.65-22.97-48.97ZM695.67,510.09c11.99-13.94,20.83-41.78,5.98-56.63-19.06-19.06-47.24,8.76-52.82,28.26-10.8,37.74,22.23,56.98,46.84,28.37ZM720.47,552.14c18.88,18.79,46.7-7.9,52.7-27.09,9.94-31.83-13.01-57.64-41.97-33.97-15.52,12.69-26.58,45.29-10.73,61.06ZM814.85,516.74c-26.96,4.25-48.87,51.21-27.23,70.75,16.78,15.15,41.25-5.09,49.03-20.95,9.52-19.41,6.38-54.24-21.8-49.8Z"/>
  <path class="cls-22" d="M398.12,662.5c-2.87-1.26-3.35-4.31-4.98-6.56-6.69-9.22-12.66-21.93-19.12-32.61-85.22-140.9-177.95-279.01-271.72-415.5-1.19-4.8-14.24-18.47-14.16-21.86.04-1.83,6.28-6.27,8.01-6.96,4.22-1.68,2.94,1.37,4.36,3.1,21.84,26.57,42.23,60.9,61.77,89.73,56.09,82.74,111.31,165.81,163.87,250.64,1.8.36,2.48-.89,3.42-2.05,44.9-55.76,43.43-171.64,36.55-239.43-1.97-19.4-6.05-38.54-8.05-57.93l11.97-2.5c4.18,21.15,7.98,42.95,10.07,64.44,6.82,69.98,5.81,166.26-30.09,228.66-3.7,6.44-10.14,13.17-13.78,19.48-.49.85-1.05,1.64-.92,2.69l30.3,48.63c1.34-1.32,2.77-2.56,3.91-4.06,11.21-14.78,22.78-31.78,30.48-48.73,8.95-19.72,7.36-29.9,7.11-51.19,1.66,1.04,1,3.79,1.02,5.49.25,20.1.41,40.44-.02,60.51l-17.01,27.49c-1.66,3.17-16.97,20.61-17.08,21.99-.13,1.52.02,3.08.65,4.48l24.92,40.07c1,1.91.42,3.97.53,5.96.19,3.45.49,9.37.08,12.56-.26,2.01-1.76.63-2.08,3.44Z"/>
  <path class="cls-3" d="M386.12,723.5c30.69,17.25,62.57,33.67,94,50,6.59,3.43,13.41,6.58,20,10,33.72,17.52,67.29,35.45,101,53,6.59,3.43,13.41,6.57,20,10,26.93,14.03,54.27,27.61,81,42,4,2.15,7.87,4.77,12.08,6.6l-13.08,27.4c-54.51-29.68-111.75-56.64-167.05-85.45-55.65-29-110.87-58.91-166.98-87.02-2.57-1.29-6.36-4.77-7.98-5.52,1.53-3.65,3.21-8.62,5-12,.13-.25,1.34-.73,1.83-1.63,1.23-2.24,5.18-11.81,6.82-12.29l13.35,4.92Z"/>
  <path class="cls-20" d="M747.12,844.5c.82,2,1.24,4.37,1.39,5.3.4,2.45,1.71,16.79,1.54,18.14-1.54,11.78.55,28.51.12,41.1-.23,6.53-1.8,14.36-2.08,20.92-.38,8.81.36,17.73.04,26.54-7.64,2.29-17.32,4.4-24,8-9.9,5.34-18.23,14.75-26.81,21.92-15.01,12.53-30.43,24.66-45.19,37.08-.62-.59-1.56-2.77-2-3l8-17c.44.22,7.24,2.67,7.72,2.78,4.67,1.01,7.05-.38,10.24-3.58,1.48-8.2,14.06-18.08,6.48-26.15-.4-.43-6.48-4.5-7.45-5.05l9-17c7.27,3.57,13.02,5.35,18.19-2.31,3.85-5.7,10.59-18.17,5.82-24.21-.63-.8-6.12-5-7.02-5.48l13.08-27.4c-4.21-1.83-8.08-4.44-12.08-6.6,0,0,39.44-39.37,45-44Z"/>
  <path class="cls-14" d="M1127.12,498.5l47,10c7.59,9.22,16.61,17.39,24.04,26.5-.02,2.76-20.47,24.14-24.03,27.01-11.99,9.66-20.45,9.08-33.42,7.77-.45-.04-6.93-23.63-9.2-24.07-1.24-.24-9.19,2.36-9.45,3.45l5.06,18.34c-5.71-1.18-17-4.9-21.55-5.05-1.89-.06-3.75-.15-4.45,2.05,0-.11-3.24,1.69-3.12.98,9.17-12.64,24.43-51.87,29.12-66.98Z"/>
  <path class="cls-20" d="M408.12,546.5c-.69,32.41-5,64.52-6,96.55-.06,1.93,1.01,4.01-2,3.45-.11-1.99.47-4.06-.53-5.96l-24.92-40.07c-.63-1.4-.77-2.97-.65-4.48.11-1.39,15.42-18.82,17.08-21.99l17.01-27.49Z"/>
  <path class="cls-17" d="M1174.12,508.5l-47-10c3.21-10.36,6.29-21.45,8.72-31.78.82-3.5.93-7.58,2.28-11.22,10.49,18.27,22.61,36.74,36,53Z"/>
  <path class="cls-23" d="M1101.12,564.5c1.23-.22-1.86,12.17-.87,18.37.23.67,4.89,3.22,5.87,3.63-3.23-.64-7.93,9.27-9.01,10.53-3.8,4.42-12.21,12.11-17.3,15.15-4.29,2.55-10.6,1.62-11.74.63-.83-1.84,7.68-9.16,8.54-9.88.62-.52,7.11-9.41,7.69-10.03,1.33-1.42,4.73-8.89,5.16-13.87-.34-2.82,6.45-13.58,11.66-14.52Z"/>
  <path class="cls-8" d="M1089.45,579.02c.64,4.61-2.76,10.99-4.1,12.47-.62.68-7.62,11.65-12.97,15.28.24-.81,5.89-9.07,6.85-10.45,3.29-4.74,8.13-12.34,10.22-17.3Z"/>
  <path class="cls-3" d="M291.12,874.5c67.76,37.82,139.02,70.28,207.37,107.18,1.39.75,3.17.38,2.63,2.82-.08.31.06.68,0,1-11.15,1.15-28.37-2.71-38.25,3.03-.97.57-8.01,7.63-8.72,8.72-5.4,8.22-11.12,30.4-12.03,40.25-37.26-19.61-74.86-38.63-111.98-58.52-5.07-2.72-11.28-4.86-16.02-7.48-4.28-2.36-15.42-10.74-18.32-14.24-2.17-2.61-.26-4.12-4.68-5.76-16.4-23.6-15.59-53.3,0-77Z"/>
  <path class="cls-2" d="M359.12,744.5c1.61.75,5.41,4.24,7.98,5.52,56.11,28.11,111.33,58.03,166.98,87.02,55.3,28.82,112.54,55.77,167.05,85.45.9.49,6.39,4.69,7.02,5.48,4.77,6.04-1.97,18.51-5.82,24.21-5.17,7.66-10.92,5.88-18.19,2.31-39.8-19.55-79.11-42.34-118.85-62.65-1.62-.83-2.35-2.84-2.15.65-.86-2.5-1.71-4.29-3.78-5.94-11.2-8.9-29.73-9.19-44.22-8.06,5.2-2,11.88-.8,17.51-1,1.2-.04,3.72.75,3.48-.99-54.36-27.49-108.2-56.03-162.12-84.39-9.99-5.25-22.27-10.13-31.87-15.63-5.07-2.9-8.89-5.83-7.96-12.42.48-3.36,9.12-19.18,11.96-20.58,3.66-1.8,9.45-.65,13,1Z"/>
  <path class="cls-2" d="M308.12,842.5c.09.06-.21,1.55.69,2.02,60.8,31.47,121.81,62.51,182.39,94.41,1.64.86,2.86,1.84,4.92,1.57,1.16,3.66,3.61,9.86,5.4,14.13,1,2.38,8.56-.67,2.6,7.87-1.13,7.18-1.15,15.2-3,22,.53-2.43-1.24-2.06-2.63-2.82-68.34-36.91-139.6-69.37-207.37-107.18-4.34-2.42-8.83-4.93-9.08-10.52-.18-4.11,8.9-21.71,13.02-23.03,2.92-.93,10.67.01,13.06,1.55Z"/>
  <path class="cls-2" d="M333.12,793.5c26.77,11.77,55.21,31.58,82.34,44.16l86.66,43.84c-2.54.98-8.23,5.06-9.68,7.31-.48.74-.19,2.19-.66,3.36-.14.34-1.47.36-1.63,1.03-.77,3.14-.34,17.27-.03,21.3-56.58-27.49-111.68-58.17-167.76-86.74-1.97-1-5.98-1.09-6.24-1.26-.11-.07-.08-1.78-1.01-2.45-3.07-2.19-6.63-3.04-6.96-8.12-.18-2.84,5.91-15.31,7.77-18.13,4.75-7.19,9.44-7.71,17.2-4.3Z"/>
  <path class="cls-22" d="M346.12,743.5c-2.58-3.3-6.6-2.49-9.99-3.51-97.01-29.23-205.88-97.21-287.27-157.52-5.31-3.93-10.16-8.83-15.74-12.52-.29-1.19,7.08-9.49,8.48-9.47,34.29,25.26,69.6,49.28,105.77,72.06,62.68,39.47,129.78,77.65,200.02,96.18,5.44,1.43,10.93,4.28,16.74,3.77-1.79,3.38-3.47,8.35-5,12-3.55-1.65-9.34-2.8-13-1Z"/>
  <path class="cls-3" d="M490.12,914.5c.59,7.76,3.61,18.47,6,26-2.07.27-3.28-.71-4.92-1.57-60.58-31.9-121.59-62.94-182.39-94.41-.9-.47-.6-1.96-.69-2.02l8-16c.27.18,4.27.26,6.24,1.26,56.08,28.57,111.17,59.25,167.76,86.74Z"/>
  <path class="cls-3" d="M342.12,776.5c9.61,5.5,21.88,10.37,31.87,15.63,53.92,28.36,107.76,56.89,162.12,84.39.24,1.74-2.28.94-3.48.99-5.63.2-12.31-1-17.51,1-4.19.33-9.02,1.46-13,3l-86.66-43.84c-27.13-12.58-55.57-32.4-82.34-44.16l9-17Z"/>
  <path class="cls-15" d="M291.12,951.5c4.42,1.64,2.51,3.15,4.68,5.76,2.91,3.5,14.05,11.88,18.32,14.24-3.49,1.87-3.48,7.29-7,9-4.33,2.1-23.53-.3-29.49-1.01-11.25-1.35-22.4-3.92-33.51-5.99-.79-8.33-6.25-20.75-10.58-27.92-1.31-2.17-13.48-18.2-14.64-18.86-1.54-.87-4.94.79-5.78-2.23.31.08.69-.08,1,0,12.33,3.06,23.42,10.78,35.48,15.02,13.34,4.69,28.36,7.09,41.52,11.98Z"/>
  <path class="cls-13" d="M241.12,853.5c3.84,13.9-.77,38.25-13.36,46.6-2.84,1.88-12.16,5.13-13.33,6.7-1.66,2.23-1.45,14.72-.31,17.7-.31-.08-.69.08-1,0-5.96-1.5-15.09-3.91-21-5,3.01.16,6.26.02,8.93-1.57,12.05-7.2,4.59-43.97,6.07-56.93,2.17-19.06,22.95-5.85,34-7.5Z"/>
  <path class="cls-11" d="M1110.12,1097.5c3.27,8.4,6.99,25.23,8,34,.19,1.68-.87,10.87-1,14-.22,5.42-.45,12.82-1,18-2.77,26.28-10.98,58.33-18,84-1.72,6.3-4.2,12.64-6,19-6.85,24.22-8.71,36.78-11,62-.64,6.99-.46,14.52-1,21-.46,5.53-1.51,11.77-2,18-1.74,21.98-3.87,43.96-5,66-10.19,2.18-20.59,4.68-31,5-.1-.64-1.65-2.2-2.02-3.45-3.5-12.02-5.06-24.52-5.97-37.06-.42-5.72,1.47-12.65-2.01-17.49,1.86-6.6,1-4.61,1-10.5v-34c0-2.8-1-7.55-1-11.5-.01-36.38,2.73-73.07,4-109.5.09-2.44,2.61-5.15-.98-4.5l-43.85,77.75c1.08,15.37,2.24,30.85,2.83,46.24.04,1-.02,2,0,3,.08,4.14.98,18.34,1,21,.17,23.95,2.05,48.33-1.28,72.22-.54,3.86-2.32,7.16-2.72,10.78-10.29,2.57-20.48,3-31,4-.86-10.89-6.41-25.91-6.83-37.67l-7.17-56.33c-.95-7.97-1.58-16.7-2-25-.7-13.92-1.65-29.72-1.04-43.54,2.38-53.99,30.89-100.17,51.04-148.46,1.74-4.17,3.41-7.23,5-12,4.81-14.44,5.65-30.72,4-46,9.67-.84,21.09,1.13,30.53.03,17.32-2.01,34.97-5.71,52.47-6.03,1.56-.03,3.16-1.42,5.27-.85,4.18,1.13,16.86,23.05,18.73,27.85Z"/>
  <path class="cls-15" d="M610.12,1293.5c4.38,22.02,5.64,42.85,8,65,5.04,47.36,9.52,94.83,16,142-.78.13-2.04,1.75-4.45,2.05-6.87.87-15.47-.74-22.55-.05-.96-9.52-7.07-25.58-9.51-35.99-8.39-35.66-15.04-72.83-24.49-108.01-8.73-32.51-26.91-63.22-38.47-95.03-1.06-2.92-1.86-4.83-2.53-7.97-2.3-10.74,3.26-17.04,1-27,17.22-14.44,34.83-28.54,52-43,5,36.66,17.81,71.84,25,108Z"/>
  <path class="cls-4" d="M238.12,1092.5c-.03,4.31.7,7.32,1,11,.21,2.57.8,4.79,1,7,1.96,21.26,3.91,42.67,6,64,.26,2.7.76,5.62,1,8,2.82,28.59,6.78,57.48,9,86,.23,2.96.95,7.88,1,10,.41,18.27-3.98,43.14-6,62-.23,2.12-.74,4.51-1,7-1.09,10.27-3.97,33.68-4,35-.02.66.04,1.34,0,2-.66,10.92-2.91,43.09-5.18,47.86-.5.4-1.25.09-1.82.14-9.45.89-18.75-.57-28-2-1.16-14.23-2.76-25-3-40-.36-22.63,1.36-45.54,1-68,.1-3.25.67-8.82,1-13,1.7-21.22,2.14-22.03-2-43-.76-3.87-1.2-8.11-2-12-1.47-7.18-4.03-14.86-5-22-2.13-15.67,2.69-39.83,3.99-56.51.95-12.26.95-24.73,2.02-36.98s3.98-25.62,3.99-38.51c4.29-.68,12.42-2.85,16.44-4.05,3.37-1.01,6.95-3.28,10.56-3.95Z"/>
  <path class="cls-11" d="M532.12,1255.5l-2.69,6.82c-4.7,33.38-9.95,66.81-19.31,99.18l-50,139c-1.3.06-4.94,1.86-7.52,1.98-6.14.29-12.34-.17-18.48.02,5.14-42.76,19.18-93.86,30-136,3.68-14.31,5.13-14.91,4.96-30.46-.2-17.59.2-35.06-.96-52.54,1.65-1.31,3.73-4.19,6-6,5.23-4.18,10.67-8.64,16-13,14.16-11.6,28.71-24.01,43-36,2.26,9.96-3.3,16.26-1,27Z"/>
  <path class="cls-3" d="M1073.12,1433.5c-.85,16.61-1.44,33.29-.99,50.01l-58-1.01c1.62-11.2,18.17-15.72,22.85-23.64,1.75-2.95,5.6-17.4,5.15-20.35,10.41-.32,20.81-2.82,31-5Z"/>
  <path class="cls-3" d="M991.12,1441.5c-1.58,14.34,1.17,31.37,0,46.01l-59-1.01c-1.71-1.51,9.06-11.82,10.47-13.02,7.29-6.19,10.8-4.81,14.56-15.44.77-2.18,3.1-10.8,2.96-12.54,10.52-1,20.71-1.43,31-4Z"/>
  <path class="cls-3" d="M239.12,1432.5c.16,5.86,1.33,17.88,7.75,19.75,10.37,3.03,25.26.77,24.26,17.25l-58.51,1c-4.92-.94-1.57-8.78-1.46-12.46.26-8.38.63-19.36-.04-27.54,9.25,1.43,18.55,2.89,28,2Z"/>
  <path class="cls-3" d="M1032.12,1380.5c-3.84,13.64-8.77,27.09-13.97,40.26-7.68,7.24-18.29,2.02-16.81-8.51,1.66-11.83,13.26-39.78,17.78-52.75,2.9-8.33,6.04-16.68,9-25,1.18-3.3,2.17-7.06,4-10,0,3.95,1,8.7,1,11.5v34c0,5.89.86,3.9-1,10.5Z"/>
  <path class="cls-3" d="M460.12,1500.5c5.9-.29,24.09,5.9,28.02,10.76,7.43,9.18-.4,10.53-8.54,11.23-14.39,1.23-30.73-.25-44.88-2.88-1.67-1.16-1.82-12.23-1.64-14.69.09-1.32,1.01-2.18,1.04-2.42,6.13-.19,12.34.27,18.48-.02,2.59-.12,6.22-1.92,7.52-1.98Z"/>
  <path class="cls-3" d="M607.12,1502.5c7.09-.69,15.68.92,22.55.05,2.41-.3,3.67-1.92,4.45-2.05,4.63-.78,23.4,5.84,27.01,9.49,1.53,1.55,4.98,7.5,3.57,9.54-2.38,3.45-28.87,3.24-34.07,2.96-3.84-.21-19.35-1.65-21.85-3.15-3.14-1.89-1.24-12.74-1.66-16.84Z"/>
  <path class="cls-11" d="M1345.12,534.5c.49,17.1-3.07,22.24-5.87,51.63-3.02,31.69-2.27,17.1-6.12,100.19,0,.11-.08.21-.18.25l-6.47,2.28s-.02,0-.03.01c-12.17,6.16-30.13,5.99-44.32,5.64,0,0-.01,0-.02,0-22.09-1.87-58.43-7.66-60.99-8,.02-.33-.02-.67,0-1,2.7-41.62,1.76-73.69-1-115-.41-6.17.26-12.43-.92-18.6-.04-.19.13-.35.31-.32,28.7,5.5,58.63,11.25,88.09,8.91,13.92-1.11,27.14-4.35,34.18-16.77.6-1.07,1.66-5.9,1.76-6.35,0-.02,0-.05,0-.07-.15-2.9-.36-1.53,1.57-2.79Z"/>
  <path class="cls-11" d="M1259.12,501.5c1.39,4.17,7.29,4.63,11.52,4.98,14.63,1.22,28.04-2.72,41.48-1.98,11.2.61,26.11,7.26,31,18,.97,2.14,1.67,6.52,2,9,.13.95-.07,2.02,0,3-2.89,1.9-1.54.79-2.27-1.22-6.3-17.3-19.99-19.94-37.27-18.82-16.52,1.06-31.94,3.09-48.95,2.03-15-.94-23.3-3.48-35.51-11.99,5.25-3.02,11.44-3.62,17.51-3.99,6.78-.41,13.85-.24,20.49.99Z"/>
  <path class="cls-14" d="M1214.12,734.5c-7.96,40.25-15.34,77.22-17.96,118.54-3.19,50.39-6.77,100.64-10.05,150.95-.2,3.13-1.1,7.45-1.99,10.51-6.83.23-17.13,3.96-22.94,7.56-1.64,1.02-3.22,3.92-4.76,4.28-2.79.65-6.79-.15-12.3,1.16,1.21-1.38,1.83-2.56,2.04-4.45,2.33-20.72-25.79-59.36-38.04-76.55,33.13,6,23.69-27.94,4.34-39.84-9.08-5.58-26.8-4.98-31.34-13.16.68-2.46,69.33-97.1,100.95-139.77,3.82-5.15,8.16-13.79,12.62-18.15,3.75-3.67,14.01.22,19.43-1.07Z"/>
  <path class="cls-4" d="M1221.12,686.5c2.57.34,43.69,6.04,43.69,6.04-1.18,26.33,3.87,89.32,4.31,93.96-8.56,23-17.22,45.97-25.1,69.2-9.58,28.23-12.39,59.43-17.96,89.23-3.73,19.94-7.92,40.25-11.99,60.01-.58,2.8-2.78,5.94-2.94,9.56-2.85,1.27-5.07,1.75-8.44,2.05-6.86.61-12.11-1.43-18.56-2.05.89-3.06,1.78-7.38,1.99-10.51,3.28-50.3,6.86-100.55,10.05-150.95,2.62-41.32,10-78.29,17.96-118.54.43-2.18,1.41-4.92,2-8,1.71-8.96,3.22-14.25,4-24,.42-5.28.64-10.71,1-16Z"/>
  <path class="cls-14" d="M1229.11,1247.49h-131c7.02-25.66,15.23-57.71,18-83.99l82.59.91"/>
  <path class="cls-14" d="M1289.12,896.5c-1.84-.22-5.71,2.52-6.94,3.54-6.43,5.32-12.18,14.04-15.28,21.75-4.32,10.73-5.31,24.74-5.82,37.16-1,24.23,1.11,48.93,2.26,73.06-17.32.1-33.9-.59-51.22-.51.13-5.84-1.22-11.75-.99-17.01.16-3.62,2.36-6.76,2.94-9.56,4.07-19.76,8.26-40.07,11.99-60.01,5.58-29.8,8.38-61,17.96-89.23,7.88-23.23,16.54-46.2,25.1-69.2,3.52,37.66,9.97,73.42,20,110Z"/>
  <path class="cls-14" d="M1228.12,1266.5c-1.78,4.98-31.04,22.89-42.7,28.78-24.45,12.34-48.48,21.41-72.56,27.45-10.4,2.61-20.84,6.13-31.74,5.77,2.29-25.22,4.15-37.78,11-62,7.26.19,133.18.06,136,0Z"/>
  <path class="cls-14" d="M1123.12,1118.5c1.67-10.73,16.54-65.13,25.56-70.94.98-.63,8.76.67,10.66,5.21l32.78,91.71-75,1.01c.13-3.13,1.19-12.32,1-14,.2-.38,45.01-.99,45.01-.99v-12.01c-13.37-.99-26.89,1.68-40.01,0Z"/>
  <path class="cls-8" d="M1266.12,1049.5l2,44c-24.65.07-49.37.35-74.02-.48l-15-42.01,1.49-1.51c28.51.08,57.04-.09,85.53,0Z"/>
  <path class="cls-4" d="M1108.12,946.5c12.26,17.19,40.37,55.83,38.04,76.55-.21,1.88-.84,3.06-2.04,4.45-2.12,1.21-5.67,6.01-9,7-13.43,6.74-26.52,12.8-41,17,.76-9.28,2.09-18.71,3-28,3.47.04,16.49-6.7,16.72-9.48.31-3.73-10.07-12.53-12.72-15.52.45-2.79-.26-6.54-.01-9.49l-6.99-49.51c3.79.65,11.8,3.91,14,7Z"/>
  <path class="cls-14" d="M1270.12,1112.5v33c-18.76.23-37.57-.03-56.34-.16-1.65-.57-2.44-3.34-3.14-4.86-1.79-3.88-9.39-24.32-9.56-27.46-.11-2.11.05-1.31,1.5-1.52,21.37.41,42.79-.49,64.15-.07,1.81.04,3.2,1.07,3.38,1.07Z"/>
  <path class="cls-14" d="M1270.12,1164.25c1.25,6.07-1.9,29.75-2,31.25-5.45-.05-27.42.18-40,.17-.44-1.99-10.2-30.47-8.04-30.66,2.41-.21,18.77-.54,50.04-.76Z"/>
  <path class="cls-14" d="M1135.12,1034.5c-12.99,18.25-16.54,42.39-25,63-1.87-4.8-14.55-26.73-18.73-27.85-2.11-.57-3.71.83-5.27.85-.67-4.23,5.65-.52,7.11-2.58,1.8-2.53.57-12.57.89-16.42,14.48-4.2,27.57-10.26,41-17Z"/>
  <path class="cls-8" d="M1385.12,1387.5c-28.45.02-56.93-.06-85.39.06-.79-.22-2.98-8.44-3.61-10.06l89,10Z"/>
  <path class="cls-14" d="M1266.34,1212.98c.56.86-4.17,15.83-5.93,19.02-5.08,9.19-8.99,13.51-12.08,16.25-5.43-12.01-10.71-25.97-13.47-35.89,0,0,7.39,0,8.52,0,1.92.02,22.87.46,22.97.62Z"/>
  <path class="cls-14" d="M1286.12,1031.5c-5.28.26-10.7-.05-16,0"/>
  <path class="cls-14" d="M1290.12,1031.5c.07-.02.9-.83,1-1l-1,1Z"/>
  <path class="cls-22" d="M210.12,1309.5c-.33,4.18-.9,9.75-1,13-.02-1.37.34-5.34-.12-5.89-.29-.35-5.13-1.23-6.16-.97-4.76,1.22-12.3,21.38-21.72,15.86.75-1.77.93-3.2,2-5,1.22-2.04,5.19-4.75,6.93-6.8,2.39-2.83,8.77-13.55,12.33-13.05,2.02.28,5.11,2.97,7.75,2.85Z"/>
  <path class="cls-22" d="M198.12,1246.5c1.82,3.42,8,8,8,8,.8,3.89,1.24,8.13,2,12-7.09-3.86-7.54-5.22-11-8,.41-4.08.73-7.89,1-12Z"/>
  <path class="cls-14" d="M1221.12,685.5c-2.15-2.1-3.65.12-4.94,1.78-7.53,9.69-14.22,20.22-21.78,29.96-.6.77-1.56,2.3-2.21,1.18l-42.07-120.91c11.53,1.32,23.73,2.24,34.95-1.55,13.03-4.39,24.28-17.29,35.05-25.45,2.76,41.31,3.7,73.38,1,115Z"/>
  <path class="cls-15" d="M150.12,920.5c4.31,1.65,8.47.85,13.22,2.28,16.07,4.83,30.05,34.5,39.56,48.44,6.27,9.19,16.19,25.09,23.25,32.75,4.83,5.25,6.47,3.47,12.97,2.53,19.78-2.88,40.94-10.51,60.63-12.88,3.32-.4,3.73-.75,3.37,2.88-.13,3.6,1.73,10.42,3,14-2.54,2.49-1.77,2.54-6,5-9.1,5.29-23.05,11.26-33,15-9.39,3.53-21.11,7.55-31,9-5.91.87-12.1,1.6-18.05.55-5.61-.99-8.65-4.55-12.96-8.04-22.79-18.43-44.99-42.35-61.21-66.79-3.66-5.52-9.08-12.3-9.79-18.72-.9-.39-1.95,3.73-1.99,3.99-1.14-4.61,1.14-7.78,1.95-11.55.43-2-.48-4.25.32-6.21.19-.47,5.62-7.64,6.05-7.91.96-.59,2.4-.07,3.37-.63,2.17-1.25,2.05-2.36,6.31-3.7Z"/>
  <path class="cls-11" d="M192.12,919.5c5.91,1.09,15.04,3.5,21,5,.84,3.02,4.24,1.35,5.78,2.23,1.15.65,13.32,16.69,14.64,18.86,4.33,7.16,9.79,19.59,10.58,27.92.3,3.15-.62,9.98-1.12,13.38-.94,6.38-3.64,13.02-3.88,19.62-6.5.95-8.14,2.72-12.97-2.53-7.06-7.66-16.98-23.56-23.25-32.75-9.51-13.94-23.48-43.61-39.56-48.44-4.75-1.43-8.91-.63-13.22-2.28,9.93-3.14,31.62-2.91,42-1Z"/>
  <path class="cls-15" d="M134.12,966.5c-2.12-3.79-2.09-8.78-2-13,2.4,3.83,1.71,8.81,2,13Z"/>
  <path class="cls-17" d="M1157.75,50.88c-23.58-16.79-55.73.17-54.68,29.14.46,12.64,9.65,26.01,21.88,30.15,39.24,13.3,62.34-38.26,32.8-59.29Z"/>
  <path class="cls-20" d="M740.12,1060.5c-3.28,3.27-1.52,8.18-2.11,12.39-1.79,12.89-4.72,26.09-5.88,39.12-.19,2.19.36,11.99-.01,12.49-.16.21-1.83-.23-2,0-.53.7.46,7.29-.02,9.32-2.73,11.41-5.52,25.73-7.75,38.42-8.87,50.37-18.03,104.12-32.49,153.51-2.89,9.88-6,3.9-11.82,1.34-13.49-5.92-26.91-12.43-39.76-19.24-9.18-4.87-18.3-11.48-28.15-14.34-7.19-36.16-20-71.34-25-108,17.71-14.92,35.36-30.06,53-45,2.56-.5,3.09,3.07,3.75,4.75,12.98,33.09,26.26,85.41,28.29,120.71.53,9.26-.25,18.68-.92,27.9.85,2.53,9.93,1.69,12.87,2.65,3.58-37.83-4.05-76.15-14.06-112.44-5.07-18.37-12.26-36.18-16.94-54.56,26.47-22.42,52.64-45.56,79-68l10-1Z"/>
  <path class="cls-10" d="M882.12,914.5c5.49-1.54,10.84-4.23,16.59-4.93,2.33-.28,1.29,1.18,1.41,2.93.71,10.37.1,20.95,2.28,31.22.64,3.03,3.99,11.42,5.77,14.01,5.72,8.3,16.76,2.77,24.63-.06,22.87-8.21,45.94-21.75,68.59-27.41,1.61-.4,2.8-1.24,4.73-1.77-.92,2.69-1.92,5.54,1.27,7.3,5.33,2.93,17.73,1.92,24.14,2.78,8.82,1.18,7.08,5.31,10.78,11.23,6.66,10.65,12.57,15.75,26.25,13.62,14.65-2.28,9.44-26.71,25.56-23.94l6.99,49.51c-.25,2.95.46,6.7.01,9.49-.31,1.9-2.59,5.17-2.94,7.56-.82,5.55-.54,12.18-1.06,17.44-.91,9.29-2.24,18.72-3,28-.31,3.84.91,13.89-.89,16.42-1.46,2.06-1.84,1.73-7.11,2.58-17.5.32-35.15,4.02-52.47,6.03-9.44,1.1-20.86-.87-30.53-.03-1.62-15.03-6.47-31.68-9-46-1.1-6.21-1.82-12.65-3-19-1.29-6.92-2.71-14.02-3.01-21-18.76,4.72-38.2,5.37-57.45,7.04-10.46-.9-24.28.17-33.82-3.09-.75-.26-.56-1.43-1.55-1.87-.71-.32-2.04.11-2.86-.41-12.47-7.89-13.52-38.81-13.35-52.22.09-7.21.75-18.92,3.04-25.46Z"/>
  <path class="cls-12" d="M748.12,994.5c6,7.09,12.49,14.35,18.42,21.61,1.51,1.85,5.6,4.53,6.58,6.39.27.52.84,1.09.86,1.66.05,1.65-9.71,9.57-11.86,11.34-10.63,8.78-21.4,16.98-32,26-26.36,22.44-52.53,45.58-79,68-4.17,3.53-8.68,7.35-13,11-17.64,14.94-35.29,30.08-53,45-17.17,14.46-34.78,28.56-52,43-14.29,11.99-28.84,24.4-43,36-7.68-10.54-16.69-20.01-25-30,1.68-2.39,3.82-4.57,5.99-6.51,36.15-32.4,75.75-63.25,113.01-93.49,5.42-1.13,10.76,3.25,15.56,3.94,2.36.34,11.39-1.22,13.71-1.99.77-.25.68-1.5,1.54-1.83,3.12-1.2,13.06-3.77,13.22-7.61-1.14-.37-1.82-1.82-2.37-2.16-6.45-3.99-14.8-5.47-20.66-8.34l143-122Z"/>
  <path class="cls-18" d="M1079.12,874.5c.72,6.51-1.47,12.73,2,19,4.53,8.19,22.26,7.58,31.34,13.16,19.35,11.9,28.8,45.84-4.34,39.84-2.2-3.09-10.21-6.35-14-7-16.13-2.78-10.92,21.65-25.56,23.94-13.68,2.13-19.59-2.97-26.25-13.62-3.7-5.92-1.96-10.05-10.78-11.23-6.41-.86-18.81.15-24.14-2.78-3.19-1.76-2.2-4.61-1.27-7.3,1.39-4.04,3.96-5.88,6-9,7.4-11.3,14.68-25.08,10.76-39.26-1.92-6.95-5.9-7.45-10.76-10.74-8.09-5.48-10.82-5.63-7.5-17,4.39-15.03,19.16-19.52,31.03-9.04,1.13,1,1.69,2.88,2.97,4.03,8.93,8.07,30.77,5.22,37.34,16.66,1.15,2,2.91,8.16,3.15,10.35Z"/>
  <path class="cls-21" d="M787.12,946.5c1.38.33,3.83,3.34,4.97,4.53l12.03,15.47c-7.35,16.83-16.64,34.06-25.9,50.85-.9,1.62-.67,5.98-5.1,5.15-.98-1.86-5.07-4.53-6.58-6.39-5.93-7.27-12.42-14.52-18.42-21.61-5.64-6.67-10.87-15.12-16.32-21.69-2.09-2.52-6.75-4.78-7.68-8.31,6.68-3.6,16.36-5.71,24-8,7.41-2.22,14.63-3.96,23.24-6.26,4.85-1.3,10.59-4.97,15.76-3.74Z"/>
  <path class="cls-7" d="M898.7,909.57c-5.74.7-11.09,3.4-16.59,4.93.74-2.12,1.9-2.33,1.99-2.7.58-2.5-3.35-19.16-4.21-22.56-1.36-5.39-2.84-7.22-2.06-13.32.21-1.66,3.49-5.13,4.6-6.66.98-1.36,5.23-6.57,5.38-7,.65-1.83,1.31-2.2,1.67-3.81.17-.76.42-1.88.6-2.64,1.31-5.42-1.7-9.31-1.92-12.87s1.35-7.56,3.36-3.32c4.02,8.47,4.85,8.8,7.39,14.41.35.76,2.98,8.42,3.16,9.16,3.07,12.77-3.38,34.02-1.94,46.34"/>
  <path class="cls-7" d="M1003.24,917.02c-4.19-2.38-2.45-10.96-2.28-12.64,1.12-10.93,8.16-30.68,9.17-31.19l1.99-3.69c4.86,3.29,8.83,3.79,10.76,10.74,3.92,14.18-3.35,27.96-10.76,39.26-2.06,0-9.28-2.45-9.99-3.01"/>
  <path class="cls-3" d="M787.12,946.5c-.63-2.65,3.52-2.72,5.25-3.25,9.44-2.87,19.05-5.88,28.75-7.75,1.21,1.19-13.18,26.97-14.98,30.31-.5.94-1.97.59-2.01.69l-12.03-15.47c-1.15-1.19-3.6-4.2-4.97-4.53Z"/>
  <path class="cls-16" d="M762.12,1035.5c.55.82,3.68,3.47,3.96,3.72,3.98,3.58.47,11.96-4.27,14.96-2.12,1.34-10.14,3.54-13.24,4.27-2.86.67-5.15,1.32-8.45,2.05l-10,1c10.6-9.02,21.37-17.22,32-26Z"/>
  <path class="cls-9" d="M500.12,783.5c26.93-58.25,59.06-120.34,67.88-184.62,2.63-19.18,3.06-38.75,6.11-57.89l3.02-42.48c3.78.35,6.45,3.53,10.3,5.19,14.43,6.21,28.21,2.03,41.68-4.19,1.55,35.17,36.15,53,66,34,2.26,28.38,23.84,48.26,53.01,40.5,2.13-.57,13.26-6.29,14-5.49.36,19.8,10.04,32.17,27.62,39.91.95.42,1.75-.58,1.38,1.57l-82.18,70.59c-41.98,44.18-75.89,99.54-104.99,153.3-.75,1.39-.39,3.16-2.82,2.63-33.71-17.55-67.28-35.48-101-53Z"/>
  <path class="cls-9" d="M814.85,516.74c28.19-4.45,31.32,30.39,21.8,49.8-7.78,15.86-32.25,36.1-49.03,20.95-21.64-19.54.27-66.49,27.23-70.75Z"/>
  <path class="cls-9" d="M720.47,552.14c-15.85-15.77-4.79-48.37,10.73-61.06,28.96-23.67,51.91,2.14,41.97,33.97-5.99,19.19-33.81,45.88-52.7,27.09Z"/>
  <path class="cls-9" d="M614.86,413.74c29.78-4.68,32.55,28.39,22.97,48.97-17.48,37.58-65.14,35.1-56.44-10.44,2.93-15.31,17.17-35.97,33.47-38.53Z"/>
  <path class="cls-9" d="M695.67,510.09c-24.61,28.61-57.64,9.38-46.84-28.37,5.58-19.5,33.76-47.32,52.82-28.26,14.85,14.85,6.01,42.68-5.98,56.63Z"/>
  <path class="cls-22" d="M724.12,964.5c.93,3.54,5.59,5.8,7.68,8.31,5.45,6.56,10.69,15.02,16.32,21.69l-143,122c-1.25-.61-7.21-3.89-7.68-3.99-1.5-.33-3.28.34-4.67.01-1.07-.25-21.46-1.08-21.46-1.08-.84-.28-7.99-2.35-10.14-2.4-3.56-.09-5.19-.3-8.24-.52,3.11-2.55,6.97-7.42,9.96-9.97,5.39-4.61,12.23-9.86,17.23-14.05,6.15-5.15,12.7-10.68,19-16,9.14-7.72,17.92-15.34,27-23,8.56-7.23,17.36-14.73,26-22,14.75-12.42,30.18-24.54,45.19-37.08,8.58-7.17,16.91-16.59,26.81-21.92Z"/>
  <path class="cls-2" d="M675.12,971.5c.97.56,7.04,4.63,7.45,5.05,7.58,8.07-5,17.94-6.48,26.15-3.19,3.19-5.57,4.59-10.24,3.58-.49-.11-7.28-2.56-7.72-2.78-29.69-14.66-59.21-34.57-89.79-47.74-1.77-.76-3.38-1.66-5.21-.26,3.26-11.57,1.14-29.06-1-41,18.54,7.25,35.68,18,53.34,27.16,19.12,9.92,41.33,19.24,59.66,29.84Z"/>
  <path class="cls-3" d="M684.12,954.5l-9,17c-18.34-10.59-40.55-19.91-59.66-29.84-17.66-9.16-34.8-19.91-53.34-27.16-.84-4.66-2.33-9.55-4-14,.23-.15,3.03-2.66,3.7-3.29,2.16-2.01,1.91-2.92,1.3-4.71-.2-3.49.53-1.48,2.15-.65,39.75,20.3,79.05,43.1,118.85,62.65Z"/>
  <path class="cls-12" d="M442.12,1037.5c-1.36,14.74.15,53.31,2,67.45.36,2.76-.45,6.36,0,11.55-40.57-19.28-79.83-41.29-119.91-61.59-14.34-9.38-18.09-20.64-21.59-36.46-.37-1.68,0-3.51-2.5-2.95,4.23-2.46,3.46-2.51,6-5,.4-.4,10.03-3.72,10.67-3.77,1.54-.13,9.69,3.31,12.93,3.67,14.41,1.57,23.27-6.04,15.72-19.93-13.88.52-28.01-1.69-41.32,3.04.83-4.05,2.93-7.88,3.82-11.72.16-.7.01-1.44-.82-1.28,3.52-1.71,3.51-7.13,7-9,4.74,2.62,10.95,4.76,16.02,7.48,37.12,19.89,74.72,38.91,111.98,58.52Z"/>
  <path class="cls-4" d="M483.12,1102.5c28.8,1.86,88.21,6.4,88.16,7.72-.09,2.63-1.07,15.64-1.16,22.28-.06,4-33.31,1.65-35.5,2-16.53,2.66-97.54,12.87-90.5-18-5.2-36.39-8.74-83.7,10.03-119.25,8.97-17,31.03-10.92,46.97-11.75"/>
  <path class="cls-16" d="M518.21,988.78c-3.06-.05-7.45-.17-12.74-1.18-5.9-1.13-4.36-1.11-4.13-4.65.36-5.53,1.54-11.52,2.21-17.27.41-2.84,1.44-5.99,1.52-8.8.15-1.25,1.14-1.75,2.19-2.15,2.74-.88,6.17-3.48,7.03-6.34,2.26-6.22-3.37-13.33,0-18.55.93-1.48,2.74-2.66,4.49-1.91,2.41.98,4.7,4.56,7,6.03,1.15.78,2,1,2.15.59.09-1.07-.72-2.36-1.45-4.46-2.32-6.29-7.62-19.54,2.87-21.1,4.46-1.03,9.31-1.51,13.66-2.78,3.8-1.32,9.83-3.87,13.48-5.42,1.28-.59,2.11-.25,2.62,1.29,5.04,15.21,7.48,34.82,4.89,50.56-1.13,6.39-4.21,11.75-10.92,13.43-1.52.43-3.16.8-4.04,2.22-2.41,4.76-1.61,11.31-2.49,16.58-.26,1.91-.43,1.64-1.97,2.04-5.9,1.27-11.93,1.86-17.97,2.09"/>
  <path class="cls-19" d="M515.12,878.5c14.49-1.13,33.02-.84,44.22,8.06,2.07,1.65,2.92,3.44,3.78,5.94.62,1.79.86,2.7-1.3,4.71-.68.63-3.48,3.14-3.7,3.29-.8.53-13.36,5.67-15.22,6.28-4.08,1.34-16.15,2.5-17.84,4.16-6.36,6.25,3.95,23.63,3.05,24.55-4.83-.25-8.29-11.47-13.04-6.53-6.52,6.78,6.46,17.48-4.99,25-1.6,1.05-6.96,4.42-7.96,2.04-1.79-4.28-4.84-11.84-6-15.5-2.39-7.53-5.41-18.24-6-26-.31-4.03-.74-18.15.03-21.3.17-.67,1.49-.69,1.63-1.03.47-1.17.18-2.62.66-3.36,1.45-2.25,7.14-6.33,9.68-7.31,3.98-1.54,8.81-2.67,13-3Z"/>
  <path class="cls-20" d="M307.12,980.5c.83-.16.98.58.82,1.28-.88,3.84-2.99,7.67-3.82,11.72-.24,1.19-.99,2.84-1,3,.37-3.63-.05-3.28-3.37-2.88-19.69,2.37-40.85,10-60.63,12.88.24-6.6,2.94-13.23,3.88-19.62.5-3.4,1.42-10.23,1.12-13.38,11.11,2.06,22.26,4.64,33.51,5.99,5.96.71,25.16,3.12,29.49,1.01Z"/>
  <path class="cls-14" d="M994.12,1134.5c-20.15,48.29-48.66,94.47-51.04,148.46-.61,13.82.34,29.63,1.04,43.54-31.14-7-61.5-19.58-87.56-37.93,0,0-1.74-1.4-1.55-2.21-.08-2.12,77.27-151.7,77.27-151.7l61.84-.16Z"/>
  <path class="cls-14" d="M994.12,1334.5c-.6-15.4-1.75-30.87-2.83-46.24l43.85-77.75c3.59-.66,1.07,2.06.98,4.5-1.27,36.43-4.01,73.12-4,109.5-1.83,2.94-2.82,6.7-4,10h-34Z"/>
  <path class="cls-14" d="M994.12,1030.5c2.53,14.32,7.38,30.97,9,46s.81,31.56-4,46l-59,1,.03-4.3c4.15-3.15,4.93-8.86,8.26-11.96,10.87-22.11,25.51-42.38,36.06-64.41l9.66-12.33Z"/>
  <path class="cls-20" d="M469.12,1136.5c.33.02.67-.01,1,0,0,8.86.04,17.74-.07,26.62-.02,1.82,1.08,3.21,1.07,3.38-.09,3.21-2.3,8.38-2,12-6.32,5.28-12.66,10.7-19,16,1.63-7.48-7.56-9.22-11.67-12.33-4.14-3.14-8.42-7.36-12.83-10.71-1.06-.8-6.33-4.96-8.03-5.92-9.25-5.29-19.76-16.19-28.25-23-19.59-15.69-41.22-31.71-59.23-49.53-2.28-2.25-3.86-6.11-4.17-6.35-.68-.55-2.56.22-3.59-.37-.46-.26-.81-1.95-1.77-2.77-17.51-15.08-35.36-32-50.99-49-1.13-1.23-2.5-2.06-2.48-4.02,9.95-3.74,23.9-9.71,33-15,2.5-.56,2.13,1.27,2.5,2.95,3.5,15.82,7.25,27.08,21.59,36.46,40.08,20.3,79.34,42.31,119.91,61.59.26,3.06,1.51,11.43,3.92,13"/>
  <path class="cls-22" d="M570.12,1132.5c-.72-1.58,3.24-.67,5.94-.2s8.06,2.2,8.06,2.2c-37.27,30.24-76.87,61.09-113.01,93.49-2.17,1.94-4.31,4.13-5.99,6.51-1.68-2.02-3.19-4.9-5.08-7.18-6.71-8.09-14.86-15.58-19.92-24.82,2.94-2.46,6.73-5.27,10-8,6.34-5.3,12.68-10.72,19-16,3.03-2.53,6.41-5.83,9-8,11.83-9.89,24.52-20.98,37.22-30.06.84-.6,3.09-2.63,2.78-3.94,5.3-.45,8.79-1.07,16.5-2h21c.75,0,15.65.54,14.5-2Z"/>
  <path class="cls-22" d="M239.12,1103.5c9.8-1.39,17.63,2.42,18.94,12.56.66,5.09.67,13.32,1.56,15.44,3.49.86,15.17,5.68,17.81,4.86,8.28-7.47,13.38-22,27.19-14.86,4.26,2.2,19.36,15.13,23.01,18.96,15.3,16.02-.94,19.7-7.42,33.95,2.22,1.31,6.7,14.02,9.58,14.97,1.82.6,15.31-1.45,19.85-.91,6.56.79,9.12,4.7,10.24,10.76,1.59,8.6,3.48,27.49,2.18,35.71-1.65,10.45-20.06,9.37-27.9,9.6.84,4.29-5.37,15.51-4.81,18.34s13.72,10.5,15.64,14.25c2.42,4.75,1.48,10.94-1.44,15.3-3.63,5.43-12.9,16.22-17.5,21.26s-7.05,6.84-14.36,5.74c-6.78-1.02-15.66-13.48-19.57-12.54-.81.19-14.39,7.06-14.84,7.77-2.8,4.48,5.54,20.64-2.65,27.85-6.99,6.15-16.4,2.61-24.51,4.99.26-2.49.77-4.88,1-7,3.9-.81,16.08-.74,18.52-2.98,3.78-3.45-1.14-21.6-.08-27.04,2.64-2.23,6.27-2.31,9.23-3.81,4.07-2.06,12.97-9.63,17.08-7.91,5.34,4.46,14.45,15.96,21.99,13.41,1.7-.58,21.85-26.28,22.03-28.36.42-5.08-15.7-13.71-18.64-18.04,1.49-9.09,6.68-17.8,6.87-27.29,7.92-1.78,28.35,1.79,28.04-9.45-.18-6.38-1.43-17.28-2.17-23.92-2.09-18.72-17.27-5.5-29.71-8.8-1.44-3.62-2.93-7.25-4.81-10.68-1.66-3.03-8.33-12.4-7.1-14.93,3.89-4.32,18.08-17.35,13.44-22.93-5.57-3.06-22.65-20.99-27.26-21.28-5.61-.36-14.51,15.15-19.02,18.83-6.85-1.76-13.4-4.59-20.17-6.58-2.93-.86-6.24-1.37-7.21-3.79-1.99-4.9,3.37-27.74-12.03-24.47-.2-2.21-.79-4.43-1-7Z"/>
  <path class="cls-10" d="M421.12,1218.5l4.71.3,48.29,58.7c-2.27,1.81-4.35,4.69-6,6-2.84,2.24-13.45,10.89-15.98,11.55-2.99.78-5.24.36-7.94-1.13l-41.1-47.9c-.9-1.59-1.87-4.27-1.82-6.04.16-6.46,14.68-17,19.84-21.48Z"/>
  <path class="cls-20" d="M440.12,1202.5c5.06,9.23,13.21,16.73,19.92,24.82,1.89,2.28,3.4,5.16,5.08,7.18,8.31,9.99,17.32,19.46,25,30-5.33,4.36-10.77,8.82-16,13l-48.29-58.7-4.71-.3c6.26-5.44,12.64-10.68,19-16Z"/>
  <path class="cls-22" d="M246.12,1174.5c4.64-.28,10.42.98,14.7,2.8,40.41,17.15,42.34,72.19,4.61,95.01-3.07,1.86-9.25,2.04-8.31,6.19-.05-2.12-.77-7.04-1-10,42.46-16.41,38.31-77.47-6.75-86.75-1.41-.29-1.94-.18-2.35-.18-.24-2.38-.64-4.37-.9-7.06Z"/>
  <path class="cls-14" d="M1216.6,723.84c-1.16-.11,0,0-2.96-.32-3.57-.38-8.82.77-7.49-4.3.14-.55,10.11-12.69,13.96-16.72-.78,9.75-1.8,12.38-3.51,21.34Z"/>
  <path class="cls-14" d="M1101.12,998.5c2.65,2.99,13.03,11.78,12.72,15.52-.23,2.79-13.25,9.53-16.72,9.48.52-5.26.24-11.89,1.06-17.44.35-2.4,2.63-5.66,2.94-7.56Z"/>
  <path class="cls-13" d="M304.12,993.5c13.32-4.73,27.44-2.52,41.32-3.04,7.55,13.89-1.31,21.5-15.72,19.93-3.24-.35-11.39-3.8-12.93-3.67-.64.06-10.27,3.38-10.67,3.77-1.27-3.58-3.13-10.4-3-14,0-.16.76-1.81,1-3Z"/>
  <path class="cls-22" d="M1296.53,266.92c-57.97,45.61-122.18-48.63-60.33-86.83,56.25-34.74,113.08,45.33,60.33,86.83ZM1293.77,190.84c-17.51-14.7-44.46-13.96-60.69,2.13-30.33,30.08-6.8,80.04,36.51,76.51,37.87-3.08,53.2-54.28,24.18-78.64Z"/>
  <path class="cls-22" d="M1157.75,50.88c29.54,21.03,6.44,72.59-32.8,59.29-12.22-4.14-21.42-17.51-21.88-30.15-1.05-28.97,31.1-45.94,54.68-29.14ZM1157.72,94.14c19.31-29.18-19.95-57.68-40.58-32.11-16.6,20.58,4.23,49.36,29.2,40.2,3.12-1.14,9.53-5.28,11.38-8.08Z"/>
  <path class="cls-22" d="M651.12,1129.5c4.68,18.38,11.87,36.19,16.94,54.56,10.01,36.29,17.64,74.61,14.06,112.44-2.94-.96-12.03-.12-12.87-2.65.67-9.22,1.45-18.63.92-27.9-2.03-35.3-15.32-87.62-28.29-120.71-.66-1.68-1.19-5.25-3.75-4.75,4.32-3.65,8.83-7.47,13-11Z"/>
  <path class="cls-16" d="M571.3,1111.44s20.39.83,21.46,1.08c1.39.33,3.17-.34,4.67-.01.47.1,6.43,3.38,7.68,3.99,5.87,2.88,14.22,4.35,20.66,8.34.55.34,2.37,1,2.37,2.16-.15,3.84-13.99,9.19-14.76,9.44-2.31.77-11.34,2.33-13.71,1.99-4.81-.69-20.27-5.34-22.88-5.96-.75-.18-3.93-1.12-6.74-.8"/>
  <path class="cls-10" d="M501.12,986.5c11.97,3.97,36.44,2,43.24.21,4.32-1.14,32.28-4.31,36.76,3.79,10.97,19.86,2.09,63.68-1,94-8.53,6.77-17.58,15.27-25.16,23.62-23.76.06-71.86-.62-71.84-5.61.12-33.66,27.06-93.67-5.99-116,7.82.44,16.26-.62,23.99,0Z"/>
  <path class="cls-2" d="M650.12,1020.5c.44.23,1.38,2.41,2,3-8.64,7.27-17.44,14.77-26,22-2.4-6.51-9.55-10.65-13.94-15.79-9.59-11.22-20.35-30.14-31.06-39.21-1.79-1.51-4.64-3.71-7.52-4.2-8.59-1.45-18.5,1.21-27.48.2.67-1.08.82-13.47,2-17,4.44.65,9.63,3.74,13.66,5.84,29.3,15.27,59.24,30,88.34,45.16Z"/>
  <path class="cls-4" d="M581.12,990.5c10.71,9.07,21.47,27.99,31.06,39.21,4.39,5.14,11.54,9.28,13.94,15.79-9.08,7.66-17.86,15.28-27,23-2.86-1.79-5.64-3.87-8.19-6.08-2.96-2.55-7.69-10.84-8.81-1.92-.49-3.22,1.68-5.41,2.03-8.47,1.32-11.43,1.77-30.59,1.01-42.07-.44-6.67-2.03-13.14-4.04-19.46Z"/>
  <path class="cls-3" d="M582.12,1060.5c1.12-8.92,5.85-.63,8.81,1.92,2.55,2.2,5.33,4.28,8.19,6.08-6.3,5.32-12.85,10.85-19,16,1-8.93,1.01-16.16,2-24Z"/>
  <path class="cls-3" d="M658.12,1003.5l-8,17c-29.1-15.16-59.04-29.89-88.34-45.16-4.03-2.1-9.22-5.19-13.66-5.84,1.34-4,3.03-2.1,6.7-3.8,5.05-2.33,6.8-4.87,8.3-10.2,1.83-1.39,3.44-.5,5.21.26,30.58,13.17,60.09,33.08,89.79,47.74Z"/>
  <path class="cls-10" d="M518.12,1136.5c.31,1.31-1.94,3.34-2.78,3.94-12.7,9.08-25.39,20.16-37.22,30.06l-7-4c0-.18-1.09-1.57-1.07-3.38.11-8.87.06-17.76.07-26.62,15.15.62,32.84.61,48,0Z"/>
  <path class="cls-11" d="M478.12,1170.5c-2.59,2.17-5.97,5.47-9,8-.3-3.62,1.91-8.79,2-12l7,4Z"/>
</svg>