<?xml version="1.0" encoding="UTF-8"?>
<svg xmlns="http://www.w3.org/2000/svg" viewBox="0 0 3500 2500">
  <defs>
    <style>
      .cls-1 {
        fill: #f47458;
      }

      .cls-2 {
        fill: #fae0b2;
      }

      .cls-3 {
        fill: #fe875e;
      }

      .cls-4 {
        fill: #576c89;
      }

      .cls-5 {
        fill: #efefef;
      }

      .cls-6 {
        fill: #184655;
      }

      .cls-7 {
        fill: #e5bd83;
      }

      .cls-8 {
        fill: #466eb6;
      }

      .cls-9 {
        fill: #171c51;
      }

      .cls-10 {
        fill: #fff;
      }

      .cls-11 {
        fill: #9bd;
      }

      .cls-12 {
        fill: #deefff;
      }

      .cls-13 {
        fill: #f7a491;
      }

      .cls-14 {
        fill: #3c8f7c;
      }

      .cls-15 {
        fill: #50bfa5;
      }

      .cls-16 {
        fill: #355389;
      }

      .cls-17 {
        fill: #86b1f2;
      }

      .cls-18 {
        fill: #b28856;
      }

      .cls-19 {
        fill: #f7cc7f;
      }
    </style>
  </defs>
  <g id="Background">
    <rect class="cls-10" width="3500" height="2500"/>
    <g>
      <path class="cls-12" d="M1137.12,2200.54s-463.57-595.15-453.72-889.79c9.84-294.64,1088.93-1075.26,1368.26-1033.16,279.34,42.09,359.69,704.08,133.93,1186.22-225.77,482.14,325.26,133.93,375-156.89,49.74-290.82,566.33,356.11-114.8,893.62h-1308.67Z"/>
      <path class="cls-11" d="M2135.25,603.71c-19.83,0-35.97-16.13-35.97-35.97s16.13-35.97,35.97-35.97,35.97,16.13,35.97,35.97-16.13,35.97-35.97,35.97ZM2135.25,543.87c-13.16,0-23.87,10.71-23.87,23.87s10.71,23.87,23.87,23.87,23.87-10.71,23.87-23.87-10.71-23.87-23.87-23.87Z"/>
      <path class="cls-11" d="M684.28,892.5c-19.83,0-35.97-16.13-35.97-35.97s16.13-35.97,35.97-35.97,35.97,16.13,35.97,35.97-16.13,35.97-35.97,35.97ZM684.28,832.66c-13.16,0-23.87,10.71-23.87,23.87s10.71,23.87,23.87,23.87,23.87-10.71,23.87-23.87-10.71-23.87-23.87-23.87Z"/>
      <path class="cls-11" d="M1560.82,494.58c-15.68,0-28.43-12.75-28.43-28.43s12.75-28.43,28.43-28.43,28.43,12.75,28.43,28.43-12.75,28.43-28.43,28.43ZM1560.82,449.8c-9.01,0-16.34,7.33-16.34,16.34s7.33,16.34,16.34,16.34,16.34-7.33,16.34-16.34-7.33-16.34-16.34-16.34Z"/>
      <path class="cls-11" d="M2820.83,1213.77c-19.83,0-35.97-16.13-35.97-35.97s16.13-35.97,35.97-35.97,35.97,16.13,35.97,35.97-16.13,35.97-35.97,35.97ZM2820.83,1153.93c-13.16,0-23.87,10.71-23.87,23.87s10.71,23.87,23.87,23.87,23.87-10.71,23.87-23.87-10.71-23.87-23.87-23.87Z"/>
      <g>
        <path class="cls-11" d="M1180.22,1203.28l-181.61-99.65,9.84-355.06,264.39,122.05-92.62,332.66ZM1010.9,1096.58l161.76,88.76,85.76-308.05-238.4-110.05-9.13,329.34Z"/>
        <path class="cls-11" d="M1411.12,1216.66l-207.04-6.84,89.89-333.41,289.67,29.77-172.52,310.48ZM1219.72,1198.24l184.41,6.09,160.02-288-261.2-26.84-83.24,308.75Z"/>
        <path class="cls-11" d="M1214.82,1211.1l-44.49-12.19,91.07-332.38,44.49,12.19-91.07,332.38ZM1185.19,1190.44l21.16,5.8,84.68-309.06-21.16-5.8-84.68,309.06Z"/>
        <path class="cls-11" d="M1543.26,907.91l-17.11-21.56c-73.32-28.02-133.48-32.94-171.15-32.1-32.73.73-54.56,5.8-62.21,7.88l-4.91,17.92-11.66-3.2,6.66-24.3,3.07-1.02c1.02-.34,25.45-8.33,68.16-9.36,39.14-.94,101.78,4.11,177.94,33.48l1.54.59,19.16,24.15-9.47,7.52Z"/>
        <path class="cls-11" d="M1287.88,880.05l-11.66-3.2,4.91-17.92c-5.52-5.68-21.72-21.18-49.51-38.49-31.98-19.92-86.24-46.37-163.61-59.63l-25.71,9.83-4.32-11.29,28.79-11.01,1.62.27c80.49,13.55,136.95,41.14,170.15,61.9,36.23,22.65,53.17,41.98,53.87,42.8l2.12,2.44-6.66,24.3Z"/>
        <path class="cls-11" d="M1534.36,885.33l-9-8.07,24.2-26.99c-19.8,1.25-58.56.34-125.92-12.97-52.75-10.43-85.58-3.44-103.82,4.25-19.48,8.21-26.85,18.95-26.93,19.06l-10.11-6.63c1.34-2.06,33.99-50.12,143.21-28.54,102.73,20.3,136.95,10.99,137.28,10.89l20.26-5.85-14.04,15.69-35.13,39.17Z"/>
        <rect class="cls-11" x="1266.24" y="895.93" width="12.09" height="34.51" transform="translate(55.36 1898.93) rotate(-74.68)"/>
        <rect class="cls-11" x="1258.78" y="923.16" width="12.09" height="34.51" transform="translate(23.59 1911.75) rotate(-74.68)"/>
        <rect class="cls-11" x="1198.45" y="1141.84" width="12.09" height="34.51" transform="translate(-237.67 2004.36) rotate(-74.27)"/>
        <rect class="cls-11" x="1206.11" y="1114.66" width="12.09" height="34.51" transform="translate(-205.93 1991.91) rotate(-74.27)"/>
        <path class="cls-11" d="M1297.82,869.67c4.19-1.49,8.52-2.52,12.86-3.46,4.35-.91,8.73-1.64,13.13-2.22,8.8-1.17,17.67-1.78,26.55-1.98l6.65-.04c2.22-.01,4.43.08,6.65.15,4.43.15,8.86.38,13.28.77,4.42.3,8.82.92,13.21,1.44,4.38.65,8.76,1.38,13.1,2.27-4.45.12-8.86-.02-13.27-.05l-6.61-.05c-2.2-.02-4.4-.1-6.6-.07-2.2.01-4.4,0-6.59-.04-2.2-.05-4.39.02-6.59.03-4.39-.02-8.77.08-13.16.13-8.77.2-17.53.45-26.3.95-8.76.53-17.52,1.14-26.32,2.18Z"/>
        <path class="cls-11" d="M1373.31,876.84c11.95-1.78,24.06-2.17,36.13-2.07,12.08.14,24.15.87,36.16,2.17,3,.34,5.99.74,8.99,1.11l4.49.59,4.47.71,8.93,1.48c2.97.55,5.93,1.15,8.88,1.75,5.93,1.1,11.78,2.64,17.64,4.04,1.46.36,2.92.75,4.37,1.17l4.35,1.25c2.89.85,5.79,1.7,8.66,2.61-5.99-.82-11.89-1.94-17.83-2.85l-8.9-1.39c-1.49-.22-2.96-.5-4.44-.71l-4.45-.63c-2.97-.41-5.94-.85-8.9-1.31l-8.92-1.15-4.45-.6-4.46-.51c-2.97-.35-5.94-.73-8.92-1.05-11.91-1.28-23.84-2.36-35.79-3.16-11.96-.76-23.94-1.35-36-1.45Z"/>
        <path class="cls-11" d="M1282.4,862.48c-8.14-4.88-16.13-9.92-24.09-14.98l-23.85-15.2-23.87-15.11-24.09-14.92c8.88,3.35,17.48,7.41,25.86,11.85,8.36,4.48,16.56,9.24,24.54,14.36,7.98,5.1,15.79,10.48,23.4,16.11,7.61,5.64,15.06,11.5,22.09,17.89Z"/>
        <path class="cls-11" d="M1235.57,846.45c-11.88-5.93-23.63-12.03-35.37-18.15l-17.61-9.16-8.79-4.6-8.81-4.55c-5.87-3.04-11.73-6.1-17.64-9.06-2.94-1.5-5.86-3.05-8.83-4.51-2.96-1.46-5.91-2.95-8.85-4.46-11.84-5.88-23.72-11.66-35.72-17.36,12.68,3.94,25.05,8.86,37.22,14.16,6.08,2.66,12.1,5.47,18.09,8.33,3,1.42,5.97,2.9,8.93,4.4l8.89,4.49c5.86,3.11,11.74,6.19,17.54,9.4,2.9,1.6,5.79,3.24,8.68,4.87,2.89,1.62,5.76,3.28,8.61,4.98,11.44,6.72,22.73,13.69,33.66,21.24Z"/>
      </g>
      <g>
        <path class="cls-11" d="M786.2,2187.39l-9.39-.83c.26-2.94,27.71-296.62,177.78-518.52l7.81,5.28c-148.71,219.9-175.94,511.15-176.2,514.07Z"/>
        <path class="cls-11" d="M740.95,2187.29l-9.41-.64c.34-5.01,33.31-503.01-16.74-655.93l8.96-2.93c50.62,154.66,18.58,638.96,17.19,659.5Z"/>
        <path class="cls-11" d="M680.63,2187.24c-.14-2.54-16.01-254.85-181.62-356.97l4.95-8.03c169.85,104.74,185.94,361.89,186.09,364.48l-9.41.52Z"/>
        <path class="cls-11" d="M829.76,2188.05l-9.18-2.15c.17-.72,17.2-73.14,35.87-144.05,9.79-37.21,29.78-47.78,45.84-56.28,15.92-8.42,27.42-14.5,25.68-44.09-1.05-17.93-3.17-31.18-4.88-41.82-4.47-27.95-6.51-40.71,18.95-76.16,14.93-20.77,28.13-27.44,37.78-32.31,12.52-6.33,18.81-9.5,19.81-40.63.29-8.97.42-16.52.53-23,.64-36.12.72-40.76,23.89-73.86,6.14-8.77,3.17-18.07-.41-24.34-8.84-15.49-32.91-31.08-56.06-29.3-16.74,1.29-29.25,11.57-36.17,29.73-22.66,59.39-36.52,69.43-61.68,87.66-5.59,4.05-11.93,8.64-18.99,14.3-36.08,28.86-47.12,42.51-39.77,93.82,4.53,31.64-12.53,67.48-27.58,99.1-10.42,21.9-20.27,42.58-19.53,55.86,1.88,33.88-11.27,199.76-11.83,206.8l-9.4-.75c.14-1.72,13.67-172.29,11.82-205.53-.87-15.68,9-36.42,20.43-60.44,14.48-30.42,30.88-64.89,26.76-93.71-7.98-55.71,5.52-72.37,43.21-102.52,7.24-5.79,13.68-10.46,19.35-14.57,23.69-17.17,36.74-26.63,58.4-83.39,8.21-21.5,23.92-34.2,44.26-35.77,24.51-1.9,53.01,13.06,64.98,34.03,6.96,12.2,6.94,24.42-.06,34.42-21.52,30.74-21.57,33.6-22.18,68.62-.12,6.52-.25,14.11-.54,23.14-1.13,35.01-9.78,41.06-24.98,48.74-9.26,4.68-20.79,10.5-34.37,29.4-23.2,32.29-21.6,42.33-17.3,69.17,1.74,10.85,3.9,24.35,4.98,42.75,2.1,35.64-13.83,44.07-30.69,52.98-15.18,8.03-32.39,17.13-41.13,50.35-18.63,70.78-35.63,143.08-35.8,143.8Z"/>
        <path class="cls-11" d="M652.66,2187.79c-.17-.95-17.07-95.15-52.75-120.13-39.2-27.44-50.98-48.05-54.81-95.9-.52-6.52-.9-12.33-1.24-17.53-2.1-32.33-2.48-38.16-24.34-48.36-7.62-3.55-14.73-5.38-21.6-7.15-17.79-4.56-33.15-8.5-37.65-39.94-2.22-15.5-9.19-21.99-17.26-29.49-10.68-9.94-22.78-21.19-20.5-54.39,1.18-17.09,10.66-23.35,18.4-25.6,31.33-9.11,95.65,31.96,112.7,55.2,12.73,17.35,22.78,20.93,34.42,25.08,6.52,2.32,13.27,4.72,20.89,9.57,1.8,1.15,3.64,2.29,5.51,3.45,19.55,12.15,43.89,27.28,47.57,62.28l.5,4.77c3.39,32.67,5.44,52.4,25.64,67.37,23.37,17.32,21.43,51.89,19.55,85.32l-.4,7.36c-1.86,35.2,1.42,116.27,1.46,117.08l-9.42.39c-.03-.82-3.33-82.33-1.45-117.97l.41-7.39c1.81-32.36,3.53-62.92-15.75-77.21-23.53-17.45-25.87-39.94-29.4-73.97l-.5-4.77c-3.2-30.41-23.52-43.04-43.17-55.25-1.9-1.18-3.77-2.34-5.59-3.5-6.71-4.27-12.95-6.49-18.98-8.64-12.01-4.28-24.43-8.69-38.87-28.38-15.48-21.11-75.97-59.38-102.47-51.72-4.57,1.32-10.74,4.54-11.61,17.18-1.98,28.71,7.05,37.11,17.51,46.84,8.2,7.62,17.48,16.26,20.18,35.06,3.61,25.2,13.79,27.81,30.66,32.14,6.95,1.78,14.84,3.8,23.25,7.73,26.92,12.56,27.64,23.58,29.77,56.3.34,5.15.71,10.91,1.23,17.38,3.63,45.43,13.61,62.89,50.81,88.93,38.88,27.22,55.93,122.2,56.64,126.23l-9.29,1.63Z"/>
        <path class="cls-11" d="M699.32,2006.62c0-.57-.33-57.61-18.39-105.24-19.3-50.9-22.64-72.05-11.28-134.54,5.81-31.98-3.96-55.14-14.31-79.65-9.21-21.83-18.74-44.4-17.84-74.3.9-29.62,8.97-41.78,16.09-52.51,7.98-12.03,14.29-21.54,7.7-55.93-4.5-23.48,18.43-44.06,42.26-49.67,24.54-5.78,57.54,2.71,69.57,45.71,14.75,52.73,16.28,85.24,17.3,106.75,1.04,21.96,1.56,32.98,13.67,45.96,16.56,17.75,13.41,38.41,9.77,62.34-2.61,17.12-5.57,36.53-1.46,58.05l-9.26,1.77c-4.4-23.11-1.32-43.37,1.4-61.24,3.41-22.39,6.11-40.08-7.34-54.49-14.47-15.5-15.12-29.22-16.19-51.94-1.06-22.35-2.5-52.96-16.96-104.66-10.21-36.52-36.81-44.11-58.34-39.07-19.59,4.61-38.6,20.72-35.15,38.72,7.31,38.17-.67,50.19-9.11,62.92-6.74,10.15-13.7,20.65-14.52,47.58-.84,27.85,8.27,49.46,17.09,70.35,10.43,24.71,21.21,50.26,14.9,85.01-10.95,60.21-7.74,80.57,10.82,129.51,18.69,49.27,19,106.17,19.01,108.57l-9.43.02Z"/>
      </g>
      <g>
        <path class="cls-11" d="M2753.47,2187.13l-8.91-3.08c4.22-12.23,105.17-299.79,256.56-331.94l1.96,9.23c-146.19,31.04-248.59,322.84-249.61,325.79Z"/>
        <path class="cls-11" d="M2708.27,2186.92l-9.05-2.65c1.05-3.6,104.67-362.85,51.01-637.73l9.26-1.81c54.11,277.15-50.15,638.57-51.21,642.19Z"/>
        <path class="cls-11" d="M2657.72,2186.89c-.56-1.95-56.76-195.46-140.61-225.38-20.97-7.48-42.3-3.84-63.41,10.82l-5.38-7.74c23.75-16.49,47.95-20.52,71.96-11.95,88.4,31.55,144.17,223.51,146.5,231.67l-9.07,2.59Z"/>
        <path class="cls-11" d="M2622.4,2188.05c-.24-.4-24.66-40.35-45.05-68.15-7.69-10.5-18.91-12.66-29.75-14.74-15.36-2.96-32.77-6.31-31.51-36.07l.16-3.78c1.11-25.79,1.91-44.42-5.39-51.47-3.46-3.35-9.16-4.59-17.99-3.91-13.46,1.03-25.74-1.16-36.58-3.09-15.75-2.81-29.35-5.24-42.54,2.3-6.02,3.44-9.79,2.18-11.91.51-3.72-2.93-4.37-8.65-1.94-17,5.78-19.86,34.65-65.03,82.71-69.89,64.06-6.47,76.01-3.74,98.36,22.49,9.57,11.23,14.48,18,18.06,22.95,6.99,9.65,7.72,10.66,29.85,24.18,30.77,18.8,42.48,36.01,37.97,55.81-4.31,18.92,12.17,104.9,18.88,136.43l-9.23,1.96c-1-4.71-24.49-115.68-18.84-140.48,2.33-10.25.61-24.71-33.7-45.67-22.86-13.97-24.74-15.89-32.57-26.7-3.49-4.82-8.27-11.42-17.6-22.36-19.17-22.49-26.88-25.65-90.24-19.22-31.34,3.17-55.58,26.89-67.83,48.02-6.45,11.14-7.92,18.52-7.85,21.39.32-.13.72-.33,1.19-.6,16.19-9.24,32.06-6.4,48.88-3.39,10.8,1.93,21.95,3.93,34.2,2.97,11.68-.91,19.72,1.16,25.27,6.53,10.35,10,9.51,29.35,8.26,58.65l-.16,3.77c-.91,21.64,8.42,23.43,23.87,26.41,11.45,2.2,25.69,4.95,35.58,18.42,20.63,28.13,45.24,68.42,45.49,68.83l-8.05,4.91Z"/>
        <path class="cls-11" d="M2673.01,2120.45l-8.93-3.03c.14-.41,13.89-41.4,19.42-96.73,2.51-25.16-4.64-39.72-11.55-53.81-8.15-16.61-16.59-33.78-7.95-65.59,8.32-30.65,19.44-35.94,28.38-40.19,7.54-3.59,12.52-5.95,14.39-27.78,1.78-20.74-4.52-28.3-11.18-36.28-8.43-10.1-17.13-20.55-6.7-52.93,7.51-23.29,15.58-32.99,22.07-40.78,8.43-10.12,13.51-16.22,9.53-52.02-3.24-29.21-12.67-40.81-20.24-50.13-8.68-10.68-16.16-19.89-8.01-46.55,12.15-39.73,26.9-74.26,72.98-60.59,37.46,11.11,52.6,51.54,39.52,105.51-4.65,19.18,4.1,43.53,13.36,69.31,12.09,33.64,25.79,71.77,11.65,106.69-7.62,18.82-13.38,29.41-17.19,36.41q-7.92,14.56-2.32,52.97c2.16,14.75,4.06,25.34,5.46,33.08,4.35,24.18,4.54,27.25-2.88,56.13l-9.14-2.35c7.12-27.71,6.87-29.09,2.73-52.11-1.4-7.8-3.32-18.48-5.5-33.38-5.89-40.35-5.8-42,3.37-58.84,3.93-7.22,9.32-17.12,16.73-35.44,12.78-31.59.29-66.35-11.78-99.97-9.75-27.15-18.97-52.79-13.65-74.72,11.96-49.34-.39-84.57-33.03-94.25-31.37-9.3-45.7,3.38-61.28,54.3-6.69,21.85-1.8,27.87,6.31,37.85,7.91,9.74,18.75,23.08,22.3,55.04,4.22,38.01-1.09,46.4-11.66,59.09-5.97,7.17-13.39,16.09-20.33,37.64-8.84,27.43-2.75,34.74,4.96,43.99,7.24,8.68,15.44,18.52,13.34,43.13-2.17,25.33-9.22,30.5-19.74,35.5-7.57,3.6-16.15,7.68-23.33,34.14-7.7,28.38-.74,42.55,7.32,58.97,7.15,14.56,15.25,31.07,12.47,58.91-5.65,56.47-19.74,98.41-19.87,98.82Z"/>
        <path class="cls-11" d="M2781.88,2186.59l-9.22-2c14.64-67.62,36.13-87.81,55.08-105.63,10.42-9.8,19.43-18.26,25.79-33.91,3.11-7.66,5.74-14.27,8.04-20.07,11.41-28.71,15.25-38.38,31.6-58.91,10.23-12.84,18.63-13.68,28.35-14.65,9.98-1,22.4-2.24,43.85-18.69,21.83-16.74,21.25-28.35,20.83-36.82-.37-7.45-.79-15.9,14.91-19.22,8.21-1.73,18.67-1.95,28.8-2.17,15.59-.33,33.26-.7,37.47-6.92,1.36-2,1.27-5.11-.28-9.22-3.03-8.1-9.4-13.86-18.92-17.12-18.1-6.19-45.3-1.93-64.72,10.09-15.34,9.49-26.89,5.59-37.09,2.15-11.88-4.01-22.14-7.47-40.28,6.91-14.94,11.86-20.43,25.75-25.27,38.01-6.52,16.51-12.81,32.11-40.13,30.76-19.82-1.03-24.38,11.81-31.21,36.4-4.71,16.95-10.04,36.16-24.51,51.88-31.29,34.01-59.41,167.73-59.68,169.08l-9.24-1.92c1.17-5.6,28.94-137.63,61.98-173.54,12.93-14.05,17.94-32.09,22.36-48.02,6.38-22.99,12.42-44.7,40.76-43.3,20.81,1.09,24.54-8.7,30.9-24.81,5.02-12.7,11.27-28.5,28.18-41.93,22.15-17.57,36.49-12.73,49.15-8.46,9.8,3.3,17.55,5.93,29.11-1.23,21.97-13.6,51.86-18.13,72.73-11,12.15,4.15,20.69,12.01,24.71,22.73,2.68,7.15,2.42,13.14-.75,17.82-6.95,10.25-25.47,10.64-45.08,11.06-9.69.2-19.71.41-27.04,1.97-7.83,1.65-7.78,2.7-7.44,9.52.49,9.97,1.24,25.03-24.51,44.78-23.58,18.08-38.08,19.53-48.66,20.58-8.82.88-14.15,1.42-21.9,11.15-15.48,19.43-18.89,28.03-30.22,56.51-2.32,5.82-4.95,12.45-8.07,20.13-7.14,17.57-17.31,27.13-28.07,37.24-17.95,16.87-38.31,35.99-52.32,100.75Z"/>
      </g>
      <path class="cls-4" d="M617.36,2179.92h2205.54c24.36,0,44.14,19.78,44.14,44.14H573.23c0-24.36,19.78-44.14,44.14-44.14Z"/>
      <g>
        <path class="cls-11" d="M1958.67,1072.04c-45.66,0-90.08-14.13-128-41.18-48.11-34.31-79.97-85.31-89.72-143.59-9.75-58.28,3.78-116.87,38.09-164.98,34.32-48.11,85.31-79.97,143.59-89.72,58.28-9.75,116.87,3.77,164.98,38.09,48.11,34.31,79.97,85.31,89.72,143.59,9.75,58.28-3.78,116.87-38.09,164.98-34.32,48.11-85.31,79.97-143.59,89.72-12.35,2.07-24.71,3.09-36.98,3.09ZM1959.59,641.58c-11.61,0-23.29.96-34.96,2.92-55.1,9.22-103.3,39.34-135.74,84.82-32.44,45.48-45.23,100.87-36.01,155.96,9.22,55.1,39.34,103.3,84.82,135.74,36.73,26.2,79.15,38.8,121.16,38.8,65.36,0,129.78-30.47,170.54-87.61,32.44-45.48,45.23-100.86,36.01-155.96-9.22-55.1-39.34-103.3-84.82-135.74-35.84-25.56-77.84-38.93-121-38.93Z"/>
        <path class="cls-11" d="M1958.9,1027.68c-35.56,0-71.44-10.66-102.54-32.84-79.45-56.67-97.98-167.41-41.31-246.86,56.67-79.45,167.41-97.98,246.86-41.31,38.49,27.45,63.98,68.25,71.78,114.88,7.8,46.63-3.02,93.5-30.47,131.99-34.49,48.36-89.02,74.14-144.33,74.15ZM1959.37,685.93c-51.53,0-102.33,24.02-134.46,69.08-52.8,74.02-35.53,177.19,38.49,229.99,28.96,20.66,62.4,30.59,95.53,30.59,51.53,0,102.33-24.02,134.46-69.08,52.8-74.02,35.53-177.19-38.49-229.99h0c-28.96-20.66-62.4-30.59-95.53-30.59Z"/>
        <path class="cls-11" d="M2038.66,739.24c-10.75-8.02-22.52-14.39-34.98-18.96l4.16-11.36c13.56,4.97,26.36,11.9,38.05,20.62l-7.23,9.69Z"/>
        <path class="cls-11" d="M1847.17,770.89l-9.85-7.02c15.43-21.63,36.33-38.78,60.43-49.6,23.39-10.49,49.26-14.84,74.79-12.57l-1.07,12.05c-48.45-4.32-96.09,17.58-124.31,57.14Z"/>
        <polygon class="cls-11" points="2160.95 1047.03 2107.07 1008.6 2114.09 998.75 2158.12 1030.16 2189.86 985.66 2146.64 954.83 2153.66 944.98 2206.73 982.84 2160.95 1047.03"/>
        <path class="cls-11" d="M2474.97,1292.7l-334.12-238.33,66.28-92.91,334.12,238.33-66.28,92.91ZM2157.72,1051.54l314.43,224.28,52.23-73.22-314.43-224.28-52.23,73.22Z"/>
      </g>
    </g>
  </g>
  <g id="Object">
    <g>
      <g>
        <g>
          <path class="cls-2" d="M1814.27,1933.87h713.62s-12.46,51.65-12.46,107.8,12.46,107.8,12.46,107.8h-713.62c-25.31,0-45.84-20.52-45.84-45.84v-123.87c0-25.36,20.52-45.88,45.84-45.88Z"/>
          <path class="cls-6" d="M2537.52,1904.55c8.11,0,14.66,6.6,14.66,14.66,0,4.06-1.61,7.72-4.3,10.36-2.64,2.69-6.3,4.3-10.36,4.3h-723.25c-25.31,0-45.84,20.52-45.84,45.88v123.87c0,25.31,20.52,45.84,45.84,45.84h723.25c8.11,0,14.66,6.55,14.66,14.66,0,4.06-1.61,7.67-4.3,10.36-2.64,2.64-6.3,4.3-10.36,4.3h-723.25c-41.54,0-75.15-33.67-75.15-75.15v-123.92c0-41.49,33.62-75.15,75.15-75.15h723.25Z"/>
        </g>
        <path class="cls-7" d="M1861.34,1975.6c42.26-1.89,84.52-3.16,126.77-3.8,42.26-.78,84.52-.99,126.77-1.09,42.26.09,84.52.29,126.77,1.07,42.26.64,84.52,1.91,126.77,3.81-42.26,1.9-84.52,3.17-126.77,3.81-42.26.78-84.52.98-126.77,1.07-42.26-.1-84.52-.31-126.77-1.08-42.26-.64-84.52-1.91-126.77-3.8Z"/>
        <path class="cls-7" d="M1834.91,2041.67c15.97-2.02,31.93-3.08,47.9-3.8,15.97-.78,31.93-.99,47.9-1.09,15.97.09,31.93.29,47.9,1.07,15.97.72,31.93,1.78,47.9,3.81-15.97,2.03-31.93,3.1-47.9,3.81-15.97.78-31.93.98-47.9,1.07-15.97-.1-31.93-.31-47.9-1.09-15.97-.72-31.93-1.78-47.9-3.8Z"/>
        <path class="cls-7" d="M1957.14,2109.39c15.97-2.02,31.93-3.08,47.9-3.8,15.97-.78,31.93-.99,47.9-1.09,15.97.09,31.93.29,47.9,1.07,15.97.72,31.93,1.78,47.9,3.81-15.97,2.03-31.93,3.1-47.9,3.81-15.97.78-31.93.99-47.9,1.07-15.97-.1-31.93-.31-47.9-1.09-15.97-.72-31.93-1.78-47.9-3.8Z"/>
        <path class="cls-7" d="M2057.96,2069.75c36.9-1.89,73.8-3.16,110.69-3.8,36.9-.78,73.8-.99,110.69-1.09,36.9.09,73.8.29,110.69,1.07,36.9.64,73.8,1.91,110.69,3.81-36.9,1.9-73.8,3.17-110.69,3.81-36.9.78-73.8.98-110.69,1.07-36.9-.1-73.8-.31-110.69-1.09-36.9-.64-73.8-1.91-110.69-3.8Z"/>
        <path class="cls-15" d="M1983.57,2172.16c-21.61-40.81-21.61-89.68,0-130.49h-122.23c-21.61,40.81-21.61,89.68,0,130.49,14.49-11.11,30.58-22.81,48.27-34.79,23.05,11.98,47.71,23.68,73.96,34.79Z"/>
      </g>
      <g>
        <rect class="cls-3" x="1812.12" y="1691.47" width="916.73" height="213.08"/>
        <rect class="cls-13" x="1902.55" y="1691.47" width="54.25" height="213.08"/>
        <rect class="cls-13" x="2584.17" y="1691.47" width="54.25" height="213.08" transform="translate(5222.58 3596.03) rotate(180)"/>
        <path class="cls-5" d="M1812.12,1780.67s-69.37,33.45-80.52,123.88l29.73-24.78,10.53,24.78s6.81-76.81,40.26-106.54v-17.34Z"/>
      </g>
      <g>
        <g>
          <path class="cls-2" d="M2012.24,1579s21.06,48.91-.78,108.97l-82.92-4.54-207.97-11.34v-.05s6.3-23.7,6.3-51.45c0-25.51-6.3-51.5-6.3-51.5v-.05l204.99,6.99,86.69,2.98Z"/>
          <path class="cls-14" d="M1716.21,1671.84l4.35.24,207.97,11.34,82.92,4.54c21.84-60.05.78-108.97.78-108.97l-86.69-2.98-204.99-6.99-4.94-.15c-6.6-.24-11.78-5.62-11.78-12.22s5.47-12.17,12.12-12.17h.54l307.9,11.39s40.66,67.53,0,154.95l-309.36-14.56c-6.65-.34-11.83-5.96-11.63-12.66.24-6.6,5.72-11.78,12.27-11.78h.54Z"/>
          <polygon class="cls-14" points="1716.5 1544.5 2560.26 1533.85 2555.61 1534.04 2024.4 1555.89 1716.5 1544.5"/>
          <path class="cls-6" d="M2034.7,1555.46l520.91-21.42c25.95-1.03,47.59,19.69,47.74,45.69l.34,64.89c.15,24.82-19.4,45.25-44.17,46.18l-535.12,20.03c40.66-87.42,0-154.95,0-154.95l10.3-.42Z"/>
        </g>
        <path class="cls-7" d="M2010.69,1620.9c-16.08,1.13-32.1,1.3-48.11,1.13-16.01-.11-31.99-.79-47.96-1.58-15.96-.97-31.92-2.07-47.84-3.73-15.93-1.6-31.84-3.55-47.69-6.47,16.08-1.14,32.11-1.32,48.11-1.15,16.01.11,31.99.79,47.96,1.59,15.96.98,31.92,2.08,47.84,3.74,15.93,1.6,31.84,3.55,47.69,6.45Z"/>
        <path class="cls-7" d="M1840.77,1646.52c-17.8,1.15-35.47.48-53.12-.61-17.63-1.28-35.24-3-52.72-6.55,17.8-1.16,35.47-.5,53.12.61,17.63,1.29,35.24,3.01,52.72,6.55Z"/>
        <path class="cls-1" d="M1869.3,1716.62c-16.24-23.92-14.59-80.72,3.01-103.66,31.91.93,62.65,4.86,94.57,5.79-17.61,22.93-18.07,76.72-1.83,100.65-19.87-7.1-39.12-16.27-57.06-26.6-13.97,9.4-26.64,17.65-38.69,23.82Z"/>
      </g>
      <g>
        <g>
          <path class="cls-16" d="M2069.35,1401.35l15.08,1.34c-37.52,2.73-65.7,35.31-62.97,72.84l1.51,20.79c2.28,31.31,25.43,56.13,54.87,61.83l-242.41-19.09c-40.41-3.86-69.89-39.91-65.79-80.27l1.14-11.17c4.05-39.82,39.26-68.97,79.14-65.47h.05s219.39,19.2,219.39,19.2Z"/>
          <polygon class="cls-16" points="2652.94 1388.92 2084.44 1402.7 2069.35 1401.35 1849.96 1382.15 1849.91 1382.15 1847.28 1381.92 2652.94 1388.92"/>
          <path class="cls-17" d="M2636.63,1411.85l-550.94,15.25c-12.43,1.04-23.66,7.23-31.28,17.34-6.58,8.8-9.28,19.9-8.46,30.91l1.43,19.18c1.63,22.36,20.43,40.17,42.81,40.5,1.27.02,2.59-.06,3.86-.14l.59-.04,542.89-13.12,13.49-.34c6.36-.15,11.56,5.05,11.47,11.41l-.03,2c-.09,6.01-4.9,10.88-10.91,11.03l-555.7,13.42c-6.16.45-12.22.07-18.02-1.09-29.44-5.7-52.58-30.52-54.87-61.83l-1.51-20.79c-2.73-37.52,25.45-70.1,62.97-72.84l568.51-13.78c6.36-.15,11.56,5.01,11.47,11.41-.09,6.01-4.85,10.88-10.86,11.03l-16.92.49Z"/>
          <path class="cls-2" d="M2637.54,1521.72l-542.89,13.12-.59.04c-1.27.08-2.59.16-3.86.14-22.38-.32-41.18-18.14-42.81-40.5l-1.43-19.18c-.82-11.01,1.88-22.11,8.46-30.91,7.62-10.1,18.85-16.29,31.28-17.34l550.94-15.25c-.21.97-7.13,33.76-7.44,54.82-.3,20.96,8.34,55.05,8.34,55.05Z"/>
        </g>
        <path class="cls-7" d="M2093.67,1458.92c15.9-2.68,31.83-4.39,47.78-5.76,15.95-1.44,31.92-2.3,47.89-3.05,15.98-.57,31.97-1.02,47.98-.9,16.01.06,32.03.47,48.09,1.84-15.89,2.69-31.83,4.41-47.78,5.78-15.95,1.43-31.92,2.3-47.89,3.04-15.98.56-31.97,1.01-47.98.88-16.01-.06-32.03-.46-48.09-1.83Z"/>
        <path class="cls-7" d="M2225.16,1503.41c15.9-2.68,31.83-4.39,47.78-5.76,15.95-1.43,31.92-2.3,47.89-3.05,15.98-.57,31.97-1.02,47.98-.9,16.01.06,32.03.47,48.09,1.84-15.89,2.69-31.83,4.41-47.78,5.78-15.95,1.43-31.92,2.3-47.89,3.04-15.98.56-31.97,1.01-47.98.88-16.01-.06-32.03-.46-48.09-1.83Z"/>
        <path class="cls-15" d="M2246.95,1586.32c22.03-29.59,23.34-102.74,2.18-132.96-40.74-.59-76.93,3.77-117.67,3.18,21.17,30.21,15.31,98.42-6.73,128.01,25.72-7.95,50.78-18.57,74.22-30.74,17.29,12.76,32.98,23.98,48,32.51Z"/>
        <path class="cls-7" d="M2365.9,1474.61c21.88-2.68,43.79-4.4,65.71-5.79,21.92-1.44,43.85-2.31,65.79-3.07,21.94-.58,43.89-1.03,65.86-.92,21.96.05,43.94.45,65.94,1.82-21.88,2.7-43.79,4.42-65.71,5.8-21.92,1.44-43.85,2.31-65.79,3.06-21.94.57-43.89,1.02-65.86.9-21.96-.06-43.94-.45-65.94-1.81Z"/>
      </g>
      <g>
        <g>
          <path class="cls-2" d="M1400.26,1429.52v681.48h-488.82v-681.48h488.82Z"/>
          <path class="cls-2" d="M1814.02,1335.02v662.4c-143.58-13.8-264.42-82.2-407.34,105.06-2.16,2.76-4.26,5.64-6.42,8.52v-681.48c145.74-197.82,268.02-127.56,413.76-113.58v19.08Z"/>
          <path class="cls-7" d="M1840.78,2031.86v60.9s-40.98-26.4-187.02-38.58c-146.04-12.18-235.26,87.24-235.26,87.24-26.88,23.34-52.74,0-52.74,0h-432l-22.32-30.42h488.82c2.16-2.94,4.32-5.76,6.42-8.52,143.7-186.24,290.52-84.36,434.1-70.62Z"/>
          <path class="cls-19" d="M1406.68,2102.48c142.92-187.26,263.76-118.86,407.34-105.06v-662.4h26.76v696.84c-143.58-13.74-290.4-115.62-434.1,70.62Z"/>
          <path class="cls-8" d="M1930.12,2088.2v-667.26l-89.34,22.8v649.02s-40.98-26.4-187.02-38.58c-146.04-12.18-235.26,87.24-235.26,87.24-26.88,23.34-52.74,0-52.74,0h-432l-22.32-30.42v-667.26h-48.66v738.24h492.84s38.52,48.66,87.24,0l487.26-93.78Z"/>
        </g>
        <path class="cls-18" d="M1447.9,2091.83c10.1-12.43,22.46-22.94,35.62-32.15,13.14-9.29,27.47-16.95,42.45-22.9,14.99-5.89,30.57-10.54,46.56-12.61,7.93-1.4,15.98-1.75,23.99-2.21,4-.31,8.02.04,12.02.17,4,.14,7.99.36,11.97.63-15.94,1.27-31.74,2.4-47.16,5.95-15.47,3.08-30.56,7.77-45.14,13.63-14.68,5.67-28.69,12.98-42.17,21.18-6.76,4.09-13.28,8.56-19.65,13.27-6.42,4.65-12.57,9.68-18.49,15.04Z"/>
        <path class="cls-18" d="M1840.78,2076.76c-7.06-3.53-14.3-6.56-21.72-9.12-7.32-2.78-14.8-5.12-22.3-7.34-15.05-4.29-30.28-7.89-45.65-10.86-15.32-3.22-30.86-5.27-46.39-7.57-15.56-2.1-31.2-3.59-46.9-5.42,7.89-.3,15.78-.25,23.7-.35,7.88.38,15.79.64,23.68,1.18,15.77,1.24,31.52,3.15,47.07,6.28,15.53,3.15,30.97,6.96,45.91,12.37,14.86,5.45,29.66,11.66,42.61,20.83Z"/>
        <path class="cls-18" d="M1400.24,2133.8c3.86-11.27,9.99-21.71,16.97-31.38,6.98-9.72,15.09-18.58,23.71-26.86,8.85-8.03,18.12-15.62,28.14-22.1,4.86-3.45,10.18-6.2,15.28-9.24,5.3-2.71,10.63-5.36,16.04-7.78-9.7,6.88-19.33,13.62-28.59,20.82-4.59,3.66-9.27,7.16-13.64,11.06-4.57,3.65-8.79,7.7-13.13,11.6-8.5,8.01-16.57,16.45-24.13,25.36-7.45,8.99-14.7,18.25-20.65,28.51Z"/>
        <g>
          <path class="cls-9" d="M983.2,1542.15h20.42l23.54,68.09h4.05v8.57h-34.44v-8.57h6.52l-3.29-10.22h-26.01l-3.45,10.22h6.57v8.57h-22.17v-8.57h4.93l23.32-68.09ZM987.26,1561.55l-9.75,28.36h19.16l-9.42-28.36Z"/>
          <rect class="cls-9" x="1096.52" y="1542.35" width="272.28" height="9.13"/>
          <rect class="cls-9" x="1064.33" y="1575.05" width="304.48" height="9.13"/>
          <rect class="cls-9" x="1064.33" y="1607.75" width="304.48" height="9.13"/>
          <rect class="cls-9" x="998.81" y="1680.03" width="369.99" height="9.13"/>
          <rect class="cls-9" x="955.06" y="1712.74" width="413.75" height="9.13"/>
          <rect class="cls-9" x="955.06" y="1745.44" width="413.75" height="9.13"/>
          <rect class="cls-9" x="998.81" y="1801.82" width="369.99" height="9.13"/>
          <rect class="cls-9" x="955.06" y="1834.53" width="413.75" height="9.13"/>
          <rect class="cls-9" x="955.06" y="1867.23" width="413.75" height="9.13"/>
          <rect class="cls-9" x="998.81" y="1923.62" width="369.99" height="9.13"/>
          <rect class="cls-9" x="955.06" y="1956.33" width="413.75" height="9.13"/>
          <rect class="cls-9" x="955.06" y="1989.03" width="413.75" height="9.13"/>
        </g>
        <g>
          <path class="cls-9" d="M1426.34,1576.26c0-2.86,0-5.71,0-8.57,1.63-1.88,3.27-3.71,4.92-5.51v-59.41c-1.65,1.79-3.28,3.63-4.92,5.51,0-2.9,0-5.8,0-8.68,11.33-13.05,23.1-23.98,35.23-32.75,7.84-5.65,13.85-7.75,17.91-7.25,4.06.53,6.11,3.6,6.11,8.9,0,4.11-1.35,8.03-4.03,11.92-2.67,3.9-6.54,7.56-11.54,11.4,6.16-3.18,11.1-3.45,14.75-1.36,3.66,2.11,5.49,6.28,5.49,12.24,0,7.42-2.47,14.31-7.33,21.14-4.86,6.85-11.46,12.68-19.62,18.42-12.74,8.98-25.09,20.33-36.96,33.99ZM1452.41,1500.64c1.02-.83,2.03-1.66,3.05-2.47,2.9-2.32,5.17-4.72,6.79-7.4,1.6-2.66,2.42-5.36,2.42-8.11,0-2.82-.82-4.4-2.42-4.69-1.61-.29-3.99.72-7.1,3.19-.92.72-1.83,1.48-2.74,2.22,0,5.76,0,11.5,0,17.26ZM1452.41,1509.98c0,7.76,0,15.54,0,23.3,0,2.81.49,4.48,1.47,5,.98.53,2.53-.07,4.65-1.66,2.99-2.25,5.36-5.34,7.06-9.33,1.7-3.99,2.56-8.53,2.56-13.67,0-4.94-1.11-8.01-3.32-9.11-2.22-1.09-5.38-.15-9.47,3.09-.99.78-1.97,1.58-2.95,2.39Z"/>
          <path class="cls-9" d="M1784.07,1446.69c-70.31,3.55-159.04-25.13-241.94.5,0-3.04,0-6.08,0-9.13,82.9-25.62,171.64,3.04,241.94-.5,0,3.04,0,6.08,0,9.13Z"/>
          <path class="cls-9" d="M1784.07,1479.39c-78.61,2.07-180.28-39.22-271.06,4.96,0-3.04,0-6.08,0-9.13,90.79-44.18,192.45-2.89,271.06-4.96,0,3.04,0,6.09,0,9.13Z"/>
          <path class="cls-9" d="M1784.07,1512.09c-78.61,2.07-180.28-39.21-271.06,4.96,0-3.04,0-6.09,0-9.13,90.79-44.17,192.45-2.89,271.06-4.96,0,3.04,0,6.09,0,9.13Z"/>
          <path class="cls-9" d="M1784.07,1584.37c-95.53-1.41-225.1-70.83-327.82,33.48,0-3.05,0-6.07,0-9.13,102.73-104.3,232.29-34.89,327.82-33.48,0,3.04,0,6.08,0,9.13Z"/>
          <path class="cls-9" d="M1784.07,1617.08c-106.83-5.1-256.2-92.1-363.04,68.54,0-3.04,0-6.08,0-9.13,106.83-160.64,256.21-73.63,363.04-68.54,0,3.04,0,6.09,0,9.13Z"/>
          <path class="cls-9" d="M1784.07,1649.78c-106.83-5.09-256.2-92.1-363.04,68.54,0-3.05,0-6.08,0-9.13,106.83-160.64,256.21-73.63,363.04-68.54,0,3.04,0,6.09,0,9.13Z"/>
          <path class="cls-9" d="M1784.07,1706.16c-95.53-1.4-225.1-70.84-327.82,33.48,0-3.04,0-6.08,0-9.13,102.73-104.3,232.29-34.89,327.82-33.48,0,3.04,0,6.08,0,9.13Z"/>
          <path class="cls-9" d="M1784.07,1738.86c-106.83-5.09-256.2-92.1-363.04,68.54,0-3.04,0-6.08,0-9.13,106.83-160.64,256.21-73.63,363.04-68.54,0,3.05,0,6.08,0,9.13Z"/>
          <path class="cls-9" d="M1784.07,1771.57c-106.83-5.09-256.2-92.1-363.04,68.54,0-3.04,0-6.09,0-9.13,106.83-160.64,256.21-73.62,363.04-68.54,0,3.04,0,6.09,0,9.13Z"/>
          <path class="cls-9" d="M1784.07,1827.96c-95.53-1.4-225.1-70.82-327.82,33.48,0-3.04,0-6.08,0-9.13,102.73-104.31,232.29-34.89,327.82-33.48,0,3.05,0,6.09,0,9.13Z"/>
          <path class="cls-9" d="M1784.07,1860.67c-106.83-5.09-256.2-92.1-363.04,68.54,0-3.05,0-6.08,0-9.13,106.83-160.64,256.21-73.62,363.04-68.54,0,3.04,0,6.08,0,9.13Z"/>
          <path class="cls-9" d="M1784.07,1893.36c-106.83-5.09-256.2-92.1-363.04,68.54,0-3.04,0-6.09,0-9.13,106.83-160.63,256.21-73.62,363.04-68.54,0,3.04,0,6.08,0,9.13Z"/>
        </g>
        <path class="cls-19" d="M1400.26,1429.52c3.72,56.08,5.67,112.16,7,168.24.83,28.04,1.01,56.08,1.5,84.12l.5,84.12-.47,84.12c-.5,28.04-.66,56.08-1.5,84.12-1.32,56.08-3.28,112.16-7.02,168.24-3.75-56.08-5.7-112.16-7.02-168.24-.84-28.04-1-56.08-1.5-84.12l-.47-84.12.5-84.12c.49-28.04.67-56.08,1.5-84.12,1.32-56.08,3.27-112.16,7-168.24Z"/>
      </g>
    </g>
  </g>
</svg>