<?xml version="1.0" encoding="UTF-8"?>
<svg id="artwork" xmlns="http://www.w3.org/2000/svg" viewBox="0 0 5000 3333">
  <defs>
    <style>
      .cls-1 {
        fill: #ffa23b;
      }

      .cls-2 {
        fill: #f6fcff;
      }

      .cls-3 {
        fill: #8383b7;
      }

      .cls-4 {
        fill: #0476ff;
      }

      .cls-5 {
        fill: #69698c;
      }

      .cls-6 {
        fill: #4a9dff;
      }

      .cls-7 {
        opacity: .22;
      }

      .cls-7, .cls-8 {
        fill: #fff;
      }

      .cls-9 {
        fill: #85d100;
      }

      .cls-10 {
        fill: #67a300;
      }

      .cls-11 {
        fill: #212121;
      }

      .cls-12 {
        fill: #c00;
      }

      .cls-13 {
        fill: #ffdcdc;
      }

      .cls-14 {
        fill: #dff4ff;
      }

      .cls-15 {
        fill: #ff3e3e;
      }

      .cls-16 {
        fill: #ffa6a6;
      }

      .cls-17 {
        fill: #464666;
      }

      .cls-18 {
        fill: #ffc7c7;
      }

      .cls-19 {
        fill: #5b5b86;
      }

      .cls-20 {
        fill: #bcdfff;
      }

      .cls-21 {
        fill: #29293d;
      }

      .cls-22 {
        fill: #30304a;
      }

      .cls-23 {
        fill: #ffd970;
      }

      .cls-24 {
        fill: #ffc627;
      }

      .cls-25 {
        fill: #f4f1fe;
      }

      .cls-26 {
        fill: #ff9124;
      }

      .cls-27 {
        fill: #d0eaff;
      }

      .cls-28 {
        fill: #6d6d9c;
      }
    </style>
  </defs>
  <rect id="bd" class="cls-8" width="5000" height="3333"/>
  <g>
    <ellipse class="cls-20" cx="2162.79" cy="3046.08" rx="195.15" ry="20.13"/>
    <g>
      <path class="cls-14" d="M3525.43,2049.53c-3.34-10.33-13.75-30.71-30.71-30.71s-27.37,20.38-30.71,30.71c-34.64,107.1-88.3,425.23-88.3,441.51,0,65.73,53.28,119.01,119.01,119.01s119.01-53.28,119.01-119.01c0-16.27-53.66-334.41-88.3-441.51Z"/>
      <path class="cls-20" d="M3601.06,2382.87c-2.03-2.02-5.32-2.01-7.34.02l-93.81,94.29v-136.26l77.91-76.94c2.04-2.01,2.06-5.3.05-7.34-2.01-2.04-5.3-2.06-7.34-.05l-70.62,69.74v-146.66l49.76-49.13c2.04-2.01,2.06-5.3.05-7.34-2.01-2.04-5.3-2.06-7.34-.05l-42.47,41.93v-146.27c0-2.87-2.32-5.19-5.19-5.19s-5.19,2.32-5.19,5.19v146.27l-42.47-41.93c-2.04-2.01-5.33-1.99-7.34.05-2.01,2.04-1.99,5.33.05,7.34l49.76,49.13v146.66l-70.62-69.74c-2.04-2.01-5.33-1.99-7.34.05-2.01,2.04-1.99,5.33.05,7.34l77.91,76.94v136.26l-93.81-94.29c-2.02-2.03-5.31-2.04-7.34-.02-2.03,2.02-2.04,5.31-.02,7.34l101.17,101.69v166.78c0,2.87,2.32,5.19,5.19,5.19s5.19-2.32,5.19-5.19v-166.78l101.17-101.69c2.02-2.03,2.01-5.32-.02-7.34Z"/>
    </g>
    <g>
      <path class="cls-11" d="M3584.43,1887.62c5.37,10.84,21.6,17.89,33.07,22,14.39,5.14,30.54,3.9,44.86-1.37,12.82-4.71,41.93-16.63,52.29-25.57-11.34-30.23-25.6-60.3-22.64-92.58,3.13-34.1,5.49-66.34.23-100.21-2.61-16.77-9.54-37.05-25.66-42.29-6.77-2.2-14.31-1.26-20.59,2.01-5.87-3.51-13.06-5.02-19.86-4.13-11.52,1.51-21.69,9.04-28.18,18.68-6.49,9.64-9.64,21.21-11,32.77-3.69,31.35,4.5,63.06,8.86,94.29,4.84,34.69-.88,63.48-11.37,96.4Z"/>
      <path class="cls-28" d="M3575.74,1885.93c5.37,10.84,21.6,17.89,33.07,22,14.39,5.14,30.54,3.9,44.86-1.37,12.82-4.71,41.93-16.63,52.29-25.57-11.34-30.23-25.6-60.3-22.64-92.58,3.13-34.1,5.49-66.34.23-100.21-2.61-16.77-9.54-37.05-25.66-42.29-6.77-2.2-14.3-1.26-20.59,2.01-5.87-3.51-13.06-5.02-19.86-4.13-11.52,1.51-21.69,9.04-28.18,18.68-6.49,9.64-9.64,21.21-11,32.77-3.69,31.35,4.5,63.06,8.86,94.29,4.84,34.69-.88,63.48-11.37,96.39Z"/>
      <path class="cls-22" d="M3579.94,1884.21c5.37,10.84,21.6,17.89,33.07,22,14.39,5.14,30.54,3.9,44.86-1.37,12.82-4.71,41.93-16.63,52.29-25.57-11.34-30.23-25.6-60.3-22.64-92.58,3.13-34.1,5.49-66.34.23-100.21-2.61-16.77-9.54-37.05-25.66-42.29-6.77-2.2-14.3-1.26-20.59,2.01-5.87-3.51-13.06-5.02-19.86-4.13-11.52,1.51-21.69,9.04-28.18,18.68-6.49,9.64-9.64,21.21-11,32.77-3.69,31.35,4.5,63.06,8.86,94.29,4.84,34.69-.88,63.48-11.37,96.39Z"/>
      <path class="cls-12" d="M3796.5,1723.58c12.1,8.28,30.19,27.09,24.72,32.91-5.33,5.67-22.6,10.67-43.92-5.69-21.32-16.36-21.02-32.6-16.16-38.93,4.86-6.33,22.72,3.06,35.35,11.71Z"/>
      <path class="cls-18" d="M3640.22,2383.7s-3.96,17.6-4.39,48.37h-.1s-5.82,11.83-5.82,11.83c0,0,18.17,34.81,18.77,35.68.6.87,19.46,2.9,19.46,2.9l-1.65-6.31-.63-1.29-1.08-1.2c-5.58-6.18-7.13-15.01-4.01-22.72,9.83-24.26,26.03-64.71,26.03-64.71l-13.5-44.72-33.07,42.18Z"/>
      <path class="cls-22" d="M3646.05,2484.05c1.11,1.94,2.71,4.2,4.91,4.93l20.45,6.78c2.82.94,5.87.81,8.47-.41.64-.3,1.45-.89,2.24-1.52,1.52-1.22,2.06-5.2.51-6.51-5-4.24-15.15-12.63-16.78-12.44h0c-6.2,1.85-13.1-.98-16.13-6.62l-4.89-9.09c-2.58-4.8-4.56-9.86-5.87-15.06l-3.23-12.04-4.45,1.14c-7.54,1.93-12.15,8.9-10.8,16.29l.86,4.71.76,5.61-2.94,19.4,3.14,1.04,6.62-19.97c.19-.57.83-.86,1.44-.66l.95.32c1.41.47,2.38,1.35,3.1,2.59l11.65,21.52Z"/>
      <path class="cls-18" d="M3725.92,1811.23c41.67,25.63,146.21-130,130.73-148.33-20.63-24.42-102.19,61.94-126.04,93.44-10.99,14.51-29.63,39.55-4.68,54.89Z"/>
      <path class="cls-18" d="M3831.11,1631.86c-2.37-1.99-4.97-3.72-7.56-5.41-3.54-2.31-7.15-4.5-10.77-6.69-4.34-2.63-8.69-5.23-13.02-7.87-4.8-2.92-9.57-5.88-14.3-8.93-4.94-3.19-9.82-6.46-14.61-9.88-4.77-3.41-9.45-6.95-13.95-10.71-2.51-2.09-7.33-6.77-11.22-10.66-3.32-3.33-8.6-3.66-12.3-.76-.07.05-.14.11-.2.16-4.14,3.24-4.77,9.27-1.38,13.29,18.23,21.66,71.47,83.79,81.13,90.16,13,8.57,36.07,21.39,44.56-3.13,5.11-14.77-17.16-31.82-26.39-39.57Z"/>
      <path class="cls-18" d="M3831.11,1631.86c-2.37-1.99-4.97-3.72-7.56-5.41-3.54-2.31-7.15-4.5-10.77-6.69-4.34-2.63-8.69-5.23-13.02-7.87-4.8-2.92-9.57-5.88-14.3-8.93-4.94-3.19-9.82-6.46-14.61-9.88-4.77-3.41-9.45-6.95-13.95-10.71-2.51-2.09-7.33-6.77-11.22-10.66-3.32-3.33-8.6-3.66-12.3-.76-.07.05-.14.11-.2.16-4.14,3.24-4.77,9.27-1.38,13.29,18.23,21.66,71.47,83.79,81.13,90.16,13,8.57,36.07,21.39,44.56-3.13,5.11-14.77-17.16-31.82-26.39-39.57Z"/>
      <path class="cls-18" d="M3626.25,1787.09c-41.73-25.55-145.95,130.29-130.42,148.6,20.68,24.38,102.06-62.15,125.85-93.69,10.96-14.53,29.55-39.61,4.57-54.9Z"/>
      <g>
        <g>
          <g>
            <rect class="cls-17" x="3709.44" y="1557.69" width="56.55" height="29.43" transform="translate(178.36 3515.08) rotate(-51.44)"/>
            <path class="cls-17" d="M3725.64,1587.56c6.36,5.07,8.99,12.33,5.89,16.23-3.1,3.9-10.77,2.95-17.13-2.12-6.36-5.07-8.99-12.33-5.89-16.23,3.1-3.9,10.77-2.95,17.13,2.12Z"/>
          </g>
          <g>
            <path class="cls-17" d="M3809.29,1516.33l-34.5-27.5s-39.88,49.96-40.04,50.17c-4.65,5.84-.7,16.73,8.82,24.32,9.39,7.49,20.69,8.97,25.47,3.42l40.25-50.41Z"/>
            <path class="cls-21" d="M3800.7,1491.78c9.53,7.59,13.48,18.48,8.82,24.32-4.65,5.84-16.15,4.42-25.68-3.18-9.53-7.59-13.48-18.48-8.82-24.32,4.65-5.84,16.15-4.42,25.68,3.18Z"/>
            <path class="cls-14" d="M3797.13,1496.56c7.78,6.2,11.01,15.1,7.21,19.86-3.8,4.77-13.19,3.61-20.97-2.6-7.78-6.2-11.01-15.09-7.21-19.86,3.8-4.77,13.19-3.61,20.97,2.6Z"/>
          </g>
          <g>
            <rect class="cls-17" x="3692.42" y="1594.63" width="39.29" height="20.45" transform="translate(143.32 3507.24) rotate(-51.44)"/>
            <path class="cls-17" d="M3703.67,1615.38c4.42,3.52,6.25,8.57,4.09,11.27-2.16,2.71-7.49,2.05-11.9-1.47-4.42-3.52-6.25-8.57-4.09-11.27,2.16-2.71,7.49-2.05,11.9,1.47Z"/>
          </g>
        </g>
        <g>
          <rect class="cls-17" x="3682.05" y="1623.69" width="21.07" height="10.97" transform="translate(116.97 3501.18) rotate(-51.44)"/>
          <path class="cls-17" d="M3688.08,1634.82c2.37,1.89,3.35,4.6,2.19,6.05-1.16,1.45-4.02,1.1-6.38-.79-2.37-1.89-3.35-4.6-2.19-6.05,1.16-1.45,4.01-1.1,6.38.79Z"/>
        </g>
      </g>
      <path class="cls-18" d="M3726.17,1587.61l1.29.38c.43.12.85.26,1.29.35.87.2,1.73.41,2.61.53,1.74.31,3.5.45,5.23.5,1.74.05,3.48-.05,5.17-.25.85-.1,1.68-.24,2.49-.4.4-.09.81-.17,1.18-.28.19-.05.38-.1.55-.15.09-.03.18-.05.25-.08.07-.02.18-.06.14-.06,2.91-.63,5.77,1.21,6.4,4.12.63,2.91-1.21,5.77-4.12,6.4-.27.04-.4.05-.57.07-.17.02-.31.03-.46.04-.3.02-.6.04-.88.04-.58.03-1.13.02-1.69.02-1.11-.02-2.2-.08-3.28-.18-2.16-.21-4.28-.55-6.35-1.06-2.07-.51-4.1-1.13-6.05-1.93-.98-.37-1.93-.83-2.88-1.27-.48-.21-.93-.47-1.39-.72l-1.37-.75c-1.42-.77-1.94-2.54-1.17-3.96.67-1.23,2.09-1.78,3.38-1.41l.22.06Z"/>
      <path class="cls-18" d="M3720.49,1573.56c.15.16.3.33.45.5.17.17.39.35.58.52.09.09.2.18.32.26l.35.26c.12.09.23.18.35.26l.38.25c1.01.68,2.15,1.31,3.33,1.89,1.18.59,2.41,1.13,3.66,1.64.63.25,1.26.5,1.89.74.63.23,1.29.47,1.88.67l.06.02c1.35.45,2.08,1.9,1.63,3.25-.41,1.23-1.67,1.95-2.91,1.72-.77-.14-1.46-.29-2.19-.45-.72-.16-1.43-.33-2.14-.51-1.43-.36-2.85-.77-4.27-1.26-1.43-.48-2.85-1.02-4.3-1.73l-.54-.26c-.18-.09-.36-.2-.55-.3l-.55-.3c-.18-.1-.36-.2-.55-.33-.37-.25-.73-.48-1.11-.75-.37-.3-.75-.61-1.11-.92-1.56-1.33-1.75-3.68-.42-5.24,1.33-1.56,3.68-1.75,5.24-.42.1.08.19.17.28.26l.21.22Z"/>
      <path class="cls-18" d="M3723.48,1567.49c.17.19.34.38.51.58.2.2.44.4.65.61l.17.16.19.15.39.3.39.31.43.29c1.12.8,2.39,1.53,3.69,2.23,1.3.7,2.66,1.36,4.05,1.97.69.31,1.39.61,2.09.9.69.29,1.43.58,2.09.82l.07.03c1.49.56,2.24,2.21,1.69,3.7-.51,1.36-1.94,2.11-3.32,1.8-.86-.19-1.62-.38-2.42-.59-.79-.21-1.58-.43-2.37-.66-1.58-.46-3.15-.97-4.72-1.56-1.57-.58-3.15-1.23-4.73-2.05l-.59-.3-.6-.34-.6-.35-.3-.18-.3-.2c-.4-.28-.8-.54-1.21-.85-.41-.34-.82-.68-1.22-1.03-1.74-1.5-1.92-4.13-.42-5.86,1.5-1.74,4.13-1.93,5.87-.42.11.1.22.2.32.31l.22.24Z"/>
      <path class="cls-18" d="M3727.53,1562.24c.48.72,1.2,1.5,2,2.24.8.75,1.74,1.47,2.69,2.16.96.7,1.97,1.35,3,1.98.52.32,1.04.62,1.57.92.52.3,1.08.6,1.57.85l.08.04c1.26.66,1.74,2.21,1.09,3.47-.6,1.14-1.93,1.65-3.11,1.24-.69-.23-1.28-.45-1.92-.7-.62-.24-1.24-.48-1.86-.75-1.23-.52-2.46-1.07-3.67-1.7-1.21-.63-2.43-1.3-3.62-2.11-1.2-.82-2.4-1.73-3.55-2.96l-.08-.09c-1.41-1.5-1.34-3.86.16-5.26,1.5-1.41,3.86-1.34,5.26.16.14.15.27.32.38.48Z"/>
      <path class="cls-18" d="M3732.1,1559.1c.44.65.96,1.3,1.54,1.95.59.64,1.22,1.28,1.89,1.89.67.61,1.37,1.21,2.1,1.79.36.29.73.57,1.1.85.36.28.76.56,1.1.8l.08.06c1,.71,1.24,2.1.53,3.11-.64.9-1.81,1.18-2.77.72-.51-.24-.95-.46-1.41-.7-.46-.23-.91-.48-1.36-.72-.9-.5-1.78-1.03-2.66-1.59-.88-.57-1.74-1.18-2.59-1.84-.85-.67-1.69-1.41-2.5-2.25l-.03-.03c-1.24-1.28-1.2-3.33.08-4.56,1.28-1.24,3.33-1.2,4.56.08.13.13.25.29.35.43Z"/>
      <path class="cls-16" d="M3734.45,1581.45c-.06,0-.13,0-.19-.02-.54-.14-13.37-3.46-18.09-8.75-.23-.26-.21-.65.05-.88.26-.23.65-.21.88.05,4.47,5.01,17.34,8.34,17.47,8.37.33.08.53.42.45.76-.07.27-.3.45-.56.47Z"/>
      <path class="cls-16" d="M3737.08,1576.01c-.08,0-.17,0-.25-.04-.48-.18-11.71-4.37-16.41-9.64-.23-.26-.21-.65.05-.88.26-.23.65-.21.88.05,4.49,5.04,15.8,9.26,15.91,9.3.32.12.49.48.37.8-.09.24-.31.39-.54.4Z"/>
      <path class="cls-16" d="M3738.68,1571.13c-.11,0-.23-.02-.34-.07-.32-.18-8.01-4.4-12.67-9.63-.23-.26-.21-.65.05-.88.26-.23.65-.21.88.05,4.52,5.07,12.26,9.33,12.34,9.37.3.16.41.54.25.84-.11.19-.3.31-.51.32Z"/>
      <path class="cls-18" d="M3470.99,2198.45s-39.66-5.62-70.41-4.81v-.1l-12.06-5.34s-34.05,19.56-34.89,20.2c-.85.63-2.11,19.56-2.11,19.56l6.24-1.9,1.27-.69,1.15-1.13c5.95-5.82,14.71-7.73,22.54-4.92,24.64,8.84,76.22,27.35,76.22,27.35l33.62-19.24-21.57-28.97Z"/>
      <path class="cls-12" d="M3772.95,1942.47c-7.14,10-19.29,15.54-31.47,17.17-12.18,1.63-24.54-.22-36.63-2.47-12.08-2.25-24.19-4.9-36.48-4.9-20.08.01-39.47,7.11-59.43,9.2-4.08.43-8.3.63-12.2-.65-3.9-1.28-9.72-7.9-5.33-14.75,8.14-12.69,26.83-42.25,94.16-19.5,52.62,17.78,81.17-10.78,88.94,3.31,1.62,2.94,1.7,6.52.25,9.55-.51,1.07-1.14,2.09-1.81,3.03Z"/>
      <path class="cls-16" d="M3621.01,1896.95c19.6,31.65,12.2,70.07,6.91,88.17-.71,2.42,50.79,16.64,83.29,16.37,19.58-.16,38.28-11.72,37.37-14.4-7.38-21.77-5.3-39.72,1.11-88.72,3.7-28.33-110.25-43.3-128.68-1.43Z"/>
      <path class="cls-17" d="M3686.79,2386.24c117.32-213.55,67.27-385.63,64.45-390.88,0,0-116.75-3.89-125.26-4.13-20.04,54.33-70.12,61.16-37.19,228.99-35.97-23.94-117.8-21.77-117.8-21.77l-12.05,48.22s152.65,47.09,169.96,23.85c24.86-33.37,50.61-172.35,50.61-172.35,0,0-8.07,93.74,10.3,143.38-44.24,24.25-49.59,142.15-49.59,142.15,0,0,27.68,2.54,46.58,2.54Z"/>
      <polygon class="cls-11" points="3622.43 1796.11 3608.97 1719.51 3656.95 1701.13 3683.75 1807.16 3622.43 1796.11"/>
      <path class="cls-21" d="M3754.18,2005.25c-1.74-7.51-4.69-15.47-5.6-18.16-40.3,4.76-80.84,3.98-120.66-1.98-.71,2.42-1.38,4.48-1.94,6.11h0c-1.42,3.85-2.91,7.33-4.64,10.83,43.91,8.35,84.56,9.57,132.83,3.19Z"/>
      <path class="cls-15" d="M3755.44,1809.6c18.4,37.17,20.34,124.67,20.34,124.82-3.15-14.3-30.95,11.86-88.56-1.22-71.08-16.13-96.43,10.97-97.19,16.13,3.98-20.99,13.2-70.63,12.11-83.57-4.3,11.04-20.89,26.99-39.1,46.65-23.03-.63-43.24-20.06-44.98-45.12,47.58-80.48,121.37-98.62,121.37-98.62,0,0,45.54,4.3,58.93-1.86,30.49-14.03,48.19-38.8,62.78-54.94-12.21,19.21,43.9,56.99,60.07,44.62-15.7,17.13-40.82,40.7-65.78,53.11Z"/>
      <path class="cls-18" d="M3678.37,1734.37c-2.44,1.02-5.36,1-8.02.73-10.52-1.04-20.89-4.11-30.52-9.02,5.08,13.52,5.11,29.29-.39,42.59,1.55,9.48,9.19,16.85,16.51,22.21,9.06,6.64,21.49,8.47,30.64,1.98,7.74-5.5,11.78-15.51,11.78-26.06-9.02-9.05-14.99-20.06-20-32.44Z"/>
      <path class="cls-16" d="M3647.47,1753.7c16.29,4.63,26.92-3.91,32.39-15.75-.7-1.58-.83-1.94-1.49-3.58-2.44,1.02-5.36,1-8.02.73-10.52-1.04-20.89-4.11-30.52-9.02,3.1,8.27,4.32,17.37,3.54,26.24,1.34.52,2.71.98,4.1,1.37Z"/>
      <path class="cls-18" d="M3600.01,1702.32c-11.29-22.98,15.54-52.98,39.6-48.53,21.58,3.99,39.35,37.88,43.32,57.47,4.33,21.38-5.62,43.77-30.34,39.29-23.54-4.26-42.54-27.82-52.58-48.23Z"/>
      <path class="cls-8" d="M3698.37,1766.81c-1.49,10.08-5.23,19.76-12.74,25.09-3.8,2.7-8.18,3.91-12.64,3.91-5.95,0-12.03-2.16-17.05-5.83-7.09-5.2-12.36-12.91-16.5-21.3h0s-4.95-3.52-8.68,2.75c.14.44.31.86.51,1.28,5.46,11.06,11.77,19.11,19.29,24.62,6.69,4.9,14.65,7.59,22.43,7.59,6.57,0,12.57-2.23,17.92-5.59,12.73-8.01,16.43-34.99,15.58-36.66-3.32-1.17-6.81,1.21-8.11,4.14,0,0,0,0,0,0Z"/>
      <g>
        <path class="cls-18" d="M3626.87,2054.46c-5.5-5.26-77.88-120.67-86.53-128.36-11.64-10.35-32.63-26.34-44.55-3.29-7.18,13.88,12.42,33.95,20.44,42.95,2.06,2.31,4.38,4.39,6.7,6.44,3.18,2.79,6.43,5.48,9.7,8.17,3.92,3.22,7.85,6.42,11.75,9.65,4.33,3.58,8.63,7.2,12.87,10.89,4.43,3.86,8.8,7.8,13.04,11.87,4.23,4.06,8.35,8.24,12.27,12.6.46.51,1,1.15,1.6,1.88,2.38,2.88,3.22,6.73,2.27,10.34-5.43,20.57-9.63,34.21-9.72,34.75-.11.69-.05,1.42.3,2.02,1,1.69,2.78.8,3.6-.47.77-1.2,1.1-2.6,1.62-3.91.65-1.63,1.29-3.26,1.94-4.89-.87,2.2-1.67,5.02-2.27,7.31-.29,1.1-.71,3.05-1.08,5.2-.41,2.38-.28,4.68,1.71,5.33,1.48.48,2.34-.92,2.92-2.02.73-1.4,1.41-2.84,2.05-4.29,1.27-2.9,2.37-5.87,3.47-8.84-.55,1.5-.56,3.18-.83,4.74-.34,1.94-.74,3.85-1.26,5.75-.42,1.57-1.05,3.34-.25,4.9.37.72,1.11,1.22,1.89,1.45.48.14,1.22.07,1.64-.21,1.36-.92,2.3-3.49,2.91-4.82.87-1.92,1.59-3.9,2.37-5.86-1.08,4.6-1.72,7.34,1.31,8.21,3.38.97,8.48-21.46,9.2-24.34,2.7-10.83,12.56.63,15.67,3.08,2.16,1.71,5.63,2.24,6.3-.44.55-2.22-1.39-4.19-3.04-5.78Z"/>
        <path class="cls-16" d="M3600.16,2061.36c.15-.1.33-.13.52-.08.34.09.55.44.46.79l-4.01,15.2c-.09.34-.44.55-.79.46-.34-.09-.55-.44-.46-.79l4.01-15.2c.04-.16.14-.29.27-.37Z"/>
        <path class="cls-16" d="M3592.72,2058.23c.16-.1.36-.14.56-.09.38.1.6.48.5.86l-4.25,16.35c-.1.38-.48.6-.86.5-.38-.1-.6-.48-.5-.86l4.25-16.35c.05-.18.15-.32.3-.41Z"/>
        <path class="cls-16" d="M3586.25,2056.59c.17-.11.39-.15.6-.08.37.12.57.52.45.89l-5.06,15.44c-.12.37-.52.57-.89.45-.37-.12-.57-.52-.45-.89l5.06-15.44c.05-.16.15-.28.28-.37Z"/>
      </g>
      <path class="cls-22" d="M3349.04,2205.95c-1.9,1.19-4.09,2.88-4.73,5.1l-5.95,20.71c-.82,2.86-.58,5.89.75,8.44.32.62.95,1.42,1.61,2.18,1.28,1.47,5.28,1.85,6.53.25,4.03-5.17,12.01-15.65,11.76-17.26h0c-2.1-6.13.45-13.13,5.96-16.39l8.89-5.25c4.69-2.78,9.67-4.95,14.81-6.47l11.9-3.71-1.32-4.4c-2.23-7.45-9.38-11.78-16.71-10.13l-4.67,1.05-5.57.98-19.5-2.16-.91,3.18,20.22,5.81c.57.16.89.8.72,1.41l-.28.96c-.41,1.42-1.26,2.44-2.47,3.2l-21.03,12.5Z"/>
      <path class="cls-16" d="M3604.81,1708.77c9.34,7.8,31.33-7.05,45.01-26.59,12.8-18.28,7.93-23.48-4.14-28.9-12.08-5.42-24.36-2.29-37.52,16.81-13.17,19.1-13.5,30.2-3.34,38.68Z"/>
      <path class="cls-22" d="M3592.78,1710.29c14.56,5.1,34.08-5.17,50.65-24.7,16.57-19.53,18.08-31.96,3.52-37.06-14.56-5.1-32.46,3.32-49.03,22.85-16.57,19.53-19.7,33.8-5.14,38.91Z"/>
      <path class="cls-18" d="M3617.99,1713.77c4.38,4.9,4.63,11.83.55,15.47-4.08,3.64-10.93,2.62-15.31-2.28-4.38-4.9-4.63-11.83-.55-15.47,4.07-3.64,10.93-2.62,15.31,2.28Z"/>
      <path class="cls-16" d="M3819.5,1678.3c-2.19,0-6.23-1.13-8.14-3.26-.38-.43-.35-1.08.08-1.46.43-.38,1.08-.35,1.46.08,1.43,1.59,4.81,2.57,6.6,2.57.57,0,1.04.46,1.04,1.04s-.46,1.04-1.04,1.04Z"/>
      <path class="cls-16" d="M3539.14,1925.89c-2.19,0-6.23-1.13-8.14-3.26-.38-.43-.35-1.08.08-1.46.43-.38,1.08-.35,1.46.08,1.43,1.59,4.81,2.57,6.6,2.57.57,0,1.04.46,1.04,1.04s-.46,1.04-1.04,1.04Z"/>
      <path class="cls-16" d="M3765.77,1589.89c4.33,3.95,8.85,7.7,13.47,11.32,4.63,3.62,9.36,7.11,14.16,10.51,4.58,3.25,9.22,6.42,13.89,9.55,4.21,2.83,8.44,5.62,12.66,8.44,3.52,2.35,7.03,4.7,10.46,7.16,2.51,1.8,5.03,3.64,7.31,5.74,5.1,4.68,14.37,12.63,20.24,21.3-2.41-12.67-19.16-25.59-26.85-32.05-2.37-1.99-4.97-3.72-7.56-5.41-3.54-2.31-7.15-4.5-10.77-6.69-4.34-2.63-8.69-5.23-13.02-7.87-4.8-2.92-9.57-5.88-14.3-8.93-4.94-3.19-9.82-6.46-14.61-9.88-2.58-1.84-5.12-3.72-7.63-5.65.98.98,1.85,1.84,2.54,2.46Z"/>
      <path class="cls-13" d="M3522.93,1972.19c3.18,2.79,6.43,5.48,9.7,8.17,3.92,3.22,7.85,6.42,11.75,9.65,2.6,2.15,5.19,4.32,7.77,6.51-16.04-15.32-46.13-43.07-57.74-69.4-2,13.46,14.6,30.53,21.82,38.63,2.06,2.31,4.38,4.39,6.7,6.44Z"/>
    </g>
    <path class="cls-14" d="M3771.04,1058.15c211.23-.7,546.22-10.61,601.87-10.61,29.27-51.43-.17-129.72-59.47-131.57-30.53-.95-62.7,28.45-58.28,49.02-10.09-34.51-20.87-70.3-45.08-97-24.21-26.7-66.03-41.28-97.49-23.58-17.95,10.1-29.61,28.89-35.39,48.57-5.79,19.68-6.4,40.43-6.96,60.93-2.33-15.77-15.54-29.36-31.32-32.2-36.07-6.5-51.72,27.28-51.23,57.47-7.08-6.8-14.23-16.47-22.6-21.62-17.45-10.72-50.15-8.42-64.19,9.28-9.35,11.78-10.16,29.55-1.93,42.13-47.32-7.91-106.02,4.8-127.93,49.18Z"/>
    <g>
      <path class="cls-14" d="M1868.73,1915.68c-4.65-14.36-19.12-42.7-42.7-42.7s-38.05,28.34-42.7,42.7c-48.16,148.89-122.76,591.18-122.76,613.81,0,91.38,74.08,165.46,165.46,165.46s165.46-74.08,165.46-165.46c0-22.62-74.6-464.91-122.76-613.81Z"/>
      <path class="cls-20" d="M1973.87,2379.11c-2.82-2.81-7.39-2.8-10.2.03l-130.42,131.09v-189.44l108.32-106.97c2.84-2.8,2.86-7.37.06-10.2-2.8-2.83-7.37-2.86-10.2-.06l-98.18,96.96v-203.89l69.18-68.3c2.84-2.8,2.86-7.37.07-10.2-2.8-2.84-7.37-2.86-10.2-.07l-59.04,58.29v-203.35c0-3.98-3.23-7.22-7.22-7.22s-7.22,3.23-7.22,7.22v203.35l-59.04-58.29c-2.84-2.8-7.4-2.77-10.2.07-2.8,2.84-2.77,7.4.07,10.2l69.18,68.3v203.89l-98.18-96.96c-2.84-2.8-7.4-2.77-10.2.06-2.8,2.84-2.77,7.4.06,10.2l108.32,106.97v189.44l-130.42-131.09c-2.81-2.83-7.38-2.84-10.2-.03-2.82,2.81-2.84,7.38-.03,10.2l140.65,141.37v231.87c0,3.98,3.23,7.22,7.22,7.22s7.22-3.23,7.22-7.22v-231.87l140.65-141.37c2.81-2.82,2.8-7.39-.03-10.2Z"/>
    </g>
    <g>
      <path class="cls-14" d="M2787,1783.47c-5.39-16.66-22.17-49.51-49.51-49.51s-44.12,32.86-49.51,49.51c-55.85,172.65-142.35,685.5-142.35,711.73,0,105.96,85.9,191.86,191.86,191.86s191.86-85.9,191.86-191.86c0-26.23-86.5-539.08-142.35-711.73Z"/>
      <path class="cls-20" d="M2908.91,2320.83c-3.27-3.26-8.57-3.24-11.83.03l-151.23,152v-219.66l125.6-124.04c3.29-3.25,3.32-8.54.07-11.83-3.25-3.29-8.54-3.32-11.83-.07l-113.84,112.42v-236.42l80.22-79.2c3.29-3.25,3.32-8.54.08-11.83-3.25-3.29-8.54-3.32-11.83-.08l-68.46,67.59v-235.79c0-4.62-3.75-8.37-8.37-8.37s-8.37,3.75-8.37,8.37v235.79l-68.46-67.59c-3.29-3.25-8.59-3.21-11.83.08-3.25,3.29-3.21,8.58.08,11.83l80.22,79.2v236.42l-113.84-112.42c-3.29-3.25-8.59-3.21-11.83.07-3.25,3.29-3.21,8.58.07,11.83l125.6,124.04v219.66l-151.23-152c-3.26-3.28-8.56-3.29-11.83-.03-3.28,3.26-3.29,8.56-.03,11.83l163.09,163.93v268.86c0,4.62,3.75,8.37,8.37,8.37s8.37-3.75,8.37-8.37v-268.86l163.09-163.93c3.26-3.28,3.25-8.57-.03-11.83Z"/>
    </g>
    <g>
      <path class="cls-14" d="M1201.84,2162.63c-3.25-10.06-13.39-29.91-29.91-29.91s-26.65,19.85-29.91,29.91c-33.73,104.29-85.98,414.06-85.98,429.91,0,64,51.88,115.89,115.89,115.89s115.89-51.88,115.89-115.89c0-15.84-52.25-325.62-85.98-429.91Z"/>
      <path class="cls-20" d="M1275.48,2487.22c-1.98-1.97-5.18-1.96-7.15.02l-91.35,91.81v-132.68l75.87-74.92c1.99-1.96,2.01-5.16.04-7.15-1.96-1.99-5.16-2.01-7.15-.04l-68.76,67.91v-142.8l48.45-47.84c1.99-1.96,2.01-5.16.05-7.15-1.96-1.99-5.16-2.01-7.15-.05l-41.35,40.83v-142.43c0-2.79-2.26-5.05-5.05-5.05s-5.05,2.26-5.05,5.05v142.43l-41.35-40.83c-1.99-1.96-5.19-1.94-7.15.05-1.96,1.99-1.94,5.19.05,7.15l48.45,47.84v142.8l-68.76-67.91c-1.99-1.96-5.19-1.94-7.15.04-1.96,1.99-1.94,5.19.04,7.15l75.87,74.92v132.68l-91.35-91.81c-1.97-1.98-5.17-1.99-7.15-.02-1.98,1.97-1.99,5.17-.02,7.15l98.51,99.02v162.4c0,2.79,2.26,5.05,5.05,5.05s5.05-2.26,5.05-5.05v-162.4l98.51-99.02c1.97-1.98,1.96-5.18-.02-7.15Z"/>
    </g>
    <g>
      <path class="cls-14" d="M4183.49,1870.13c-4.99-15.42-20.52-45.84-45.84-45.84s-40.85,30.42-45.84,45.84c-51.7,159.83-131.78,634.6-131.78,658.88,0,98.09,79.52,177.61,177.61,177.61s177.61-79.52,177.61-177.61c0-24.28-80.08-499.05-131.78-658.88Z"/>
      <path class="cls-20" d="M4296.35,2367.59c-3.03-3.02-7.94-3-10.95.03l-140,140.72v-203.35l116.27-114.83c3.04-3.01,3.07-7.91.07-10.95-3.01-3.04-7.91-3.07-10.95-.07l-105.39,104.08v-218.86l74.26-73.32c3.04-3.01,3.07-7.91.07-10.95-3.01-3.04-7.91-3.08-10.95-.07l-63.38,62.58v-218.28c0-4.28-3.47-7.75-7.75-7.75s-7.74,3.47-7.74,7.75v218.28l-63.38-62.58c-3.04-3.01-7.95-2.97-10.95.07-3.01,3.04-2.97,7.95.07,10.95l74.26,73.32v218.86l-105.39-104.08c-3.04-3.01-7.95-2.97-10.95.07-3.01,3.04-2.97,7.95.07,10.95l116.27,114.83v203.35l-140-140.72c-3.02-3.03-7.92-3.04-10.95-.03-3.03,3.02-3.04,7.92-.03,10.95l150.98,151.75v248.9c0,4.28,3.47,7.75,7.74,7.75s7.75-3.47,7.75-7.75v-248.9l150.98-151.75c3.02-3.03,3-7.94-.03-10.95Z"/>
    </g>
    <path class="cls-14" d="M3348.82,565.43c-283.1-.94-566.21-1.88-849.31-2.81-.65-1.91-1.22-3.84-1.72-5.8-4.41-17.2-2.06-37.24,10.44-49.86,12.5-12.63,36.31-13.81,46.95.41,5.6-27.8,11.45-56.25,26.25-80.43,14.8-24.19,40.63-43.66,68.97-42.82,28.35.83,55.5,27.98,49.58,55.72,13.52-46.53,27.98-94.79,60.42-130.78,32.44-36,88.49-55.66,130.66-31.79,24.05,13.61,39.68,38.96,47.44,65.49,7.76,26.53,8.57,54.52,9.33,82.15,3.12-21.27,20.83-39.58,41.98-43.41,48.35-8.76,69.32,36.78,68.66,77.48,9.49-9.17,19.07-22.21,30.3-29.15,23.38-14.45,67.21-11.35,86.03,12.52,12.53,15.89,13.61,39.84,2.58,56.8,63.43-10.67,142.09,6.48,171.45,66.31Z"/>
    <ellipse class="cls-20" cx="2600.38" cy="2790.9" rx="1746.78" ry="76.45"/>
    <g>
      <g>
        <g>
          <polygon class="cls-1" points="2313.25 2509.93 2231.71 2510.01 2231.71 2802.93 2316.76 2802.93 2313.25 2509.93"/>
          <path class="cls-1" d="M2155.34,2656.81c0-46.91,13.64-83.12,40.93-108.63,27.28-25.49,67.44-38.25,120.49-38.25s90.14,12.89,117.43,38.63c27.28,25.76,40.93,61.85,40.93,108.25s-14.15,82.37-42.46,107.87c-28.3,25.5-66.94,38.26-115.9,38.26s-90.02-12.63-118.58-37.87c-28.57-25.24-42.84-61.32-42.84-108.25Z"/>
          <path class="cls-24" d="M2077.21,2656.81c0-46.91,13.64-83.12,40.93-108.63,27.28-25.49,67.44-38.25,120.49-38.25s90.14,12.89,117.43,38.63c27.28,25.76,40.93,61.85,40.93,108.25s-14.15,82.37-42.46,107.87c-28.3,25.5-66.94,38.26-115.9,38.26s-90.02-12.63-118.58-37.87c-28.57-25.24-42.84-61.32-42.84-108.25Z"/>
          <path class="cls-23" d="M2247.68,2510.07l-169.25,169.25c3.96,36.1,17.8,64.7,41.62,85.74.51.45,1.04.86,1.55,1.3l225.44-225.44c-24.87-19.25-57.97-29.55-99.37-30.84Z"/>
          <path class="cls-23" d="M2174.45,2794.44l208.47-208.47c-4.03-8.66-8.93-16.66-14.69-24.01l-221.4,221.4c8.54,4.46,17.75,8.15,27.61,11.09Z"/>
        </g>
        <g>
          <polygon class="cls-1" points="2330.95 1340.83 2432.19 1340.83 2373.15 1452.27 2330.95 1340.83"/>
          <polygon class="cls-1" points="2065.37 1768.42 1954.18 1768.42 1931.55 1487.5 2065.37 1768.42"/>
          <path class="cls-1" d="M2215.57,2339.58v-88.82c0-67.47,12.83-124.45,38.51-170.93,25.66-46.48,71.24-91.74,136.71-135.82,51.99-35.12,89.37-66.78,112.16-95.02,22.78-28.23,34.18-60.58,34.18-97.09,0-28.92-12.2-51.8-36.59-68.68-24.4-16.87-56.17-25.31-95.31-25.31-96.92,0-210.22,36.85-339.86,110.51l-133.82-280.93c159.82-97.77,326.69-146.67,500.64-146.67,143.12,0,255.45,33.75,336.97,101.22,81.5,67.49,122.27,159.41,122.27,275.76,0,83.32-18.14,155.44-54.4,216.38-36.27,60.94-94.2,118.61-173.78,173-67.39,46.83-109.6,81.08-126.6,102.77-17.02,21.69-25.51,47.35-25.51,76.95v52.67h-295.57Z"/>
          <path class="cls-24" d="M2104.38,2339.58v-88.82c0-67.47,12.83-124.45,38.51-170.93,25.66-46.48,71.24-91.74,136.71-135.82,51.99-35.12,89.37-66.78,112.16-95.02,22.78-28.23,34.18-60.58,34.18-97.09,0-28.92-12.2-51.8-36.59-68.68-24.4-16.87-56.17-25.31-95.31-25.31-96.92,0-210.21,36.85-339.86,110.51l-133.82-280.93c159.82-97.77,326.69-146.67,500.64-146.67,143.12,0,255.45,33.75,336.97,101.22,81.5,67.49,122.27,159.41,122.27,275.76,0,83.32-18.14,155.44-54.4,216.38-36.27,60.94-94.2,118.61-173.78,173-67.39,46.83-109.6,81.08-126.6,102.77-17.02,21.69-25.51,47.35-25.51,76.95v52.67h-295.57Z"/>
          <path class="cls-23" d="M2476.79,1356.79l-323.53,323.53c50.24-14.92,97.17-22.4,140.78-22.4,23.1,0,43.62,2.96,61.58,8.84l256.89-256.89c-39.57-23.9-84.81-41.6-135.72-53.08Z"/>
          <path class="cls-23" d="M2657.96,1442.05c-3.74-3.1-7.57-6.1-11.44-9.05l-253.15,253.15c15.04,11.48,24.85,25.53,29.46,42.15l261.8-261.8c-8.35-8.48-17.22-16.64-26.67-24.46Z"/>
        </g>
      </g>
      <g>
        <g>
          <g>
            <path class="cls-17" d="M2579.31,1076.17h111.94c2.83,0,5.12-2.29,5.12-5.12s-2.29-5.11-5.12-5.11h-111.94c-2.83,0-5.11,2.29-5.11,5.11s2.29,5.12,5.11,5.12Z"/>
            <path class="cls-16" d="M2674.91,1017.17c-2.12-11.77-1.13-23.98,2.86-35.26.82-2.31,2.78-3.98,5.38-3.39,2.18.49,4.21,3.06,3.39,5.38-3.76,10.66-4.65,21.74-2.65,32.86.44,2.42-2.08,4.6-4.28,4.7-2.69.12-4.26-1.87-4.7-4.28h0Z"/>
            <path class="cls-18" d="M2630.74,1013.12c16.15-6.71,41.89-15.43,41.89-15.43,2.02-1.19,13.88,26.49,12.18,27.05l-43.57,12.69c-4.96.39-9.89-5.43-11.93-9.96l-.53-1.18s0,0-.01-.02c-2.53-2.79-1.5-11.7,1.98-13.15Z"/>
            <path class="cls-18" d="M2215.85,1289.93l-37.76,3.98-3.88,13.47,41.43,10.12c6.68,1.63,19.02,2.45,25.41-.07l18.45-7.27c7.31-2.88,6-13.61-1.79-14.65l-41.86-5.58Z"/>
            <path class="cls-21" d="M2175.12,1288.29c7.03,1.04,17.34,2.56,18.01,2.56.44,0,.87.04,1.29.12,1.51.27,1.95,1.96.8,2.9-2.53,2.05-6.62,8.79-2.51,16.94.55,1.09.49,2.39-.15,3.44-4.37,7.16-11.96,26.99-12.06,27.31,4.47,1.22,9.28,5.3,9.28,10.15v.96h-18.96c-1.2,0-2.18-.97-2.18-2.18v-56.61c0-3.45,3.06-6.09,6.47-5.59Z"/>
            <g>
              <path class="cls-18" d="M2515.82,1305.88l3.98,37.76,13.47,3.88,10.12-41.43c1.63-6.68,2.45-19.02-.07-25.41l-7.27-18.45c-2.88-7.31-13.61-6-14.65,1.79l-5.58,41.86Z"/>
              <path class="cls-21" d="M2577.07,1345.67c-2.88-3.56-6.76-5.12-10.6-6.27-5.13-1.54-19.17-5.86-26.33-10.24-1.04-.63-2.32-.72-3.41-.17-8.17,4.15-14.93.04-16.98-2.49-.93-1.15-2.62-.71-2.9.8-.08.42-.12.86-.12,1.29,0,.66-1.52,10.98-2.56,18-.51,3.41,2.14,6.48,5.59,6.48h58.03s1.03-5.24-.73-7.41Z"/>
            </g>
            <path class="cls-16" d="M2536.05,1262.23l7.27,18.45c2.52,6.39,1.7,18.73.07,25.41l-2.32,9.52c-8.18,1.82-17.24,2.04-24.22.02l-1.03-9.74,5.58-41.86c1.04-7.79,11.76-9.1,14.65-1.79Z"/>
            <path class="cls-17" d="M2412.64,1085.49c27.96-5.56,63.66-23.57,123.74-1.44,35.52,13.08,32.13,131.49,16.39,222.14-12.96,6.71-35.98,8.26-44.4-.62-10.91-56.01-2.01-148.8-2.51-148.58-38.5,17.14-202.72,37.79-189.17-41.49,0,0,68.9-24.64,95.95-30.02Z"/>
            <path class="cls-18" d="M2482.13,918.51c-2.59-1.28-4.66-3.71-6.35-6.09-6.68-9.43-13.2-25.31-16.04-36.77-8.29,16.51-18.99,24.21-36.72,33.69-12.31,6.58-.98,24.24,13.6,35.3,13.94,10.58,33.67-15.15,45.51-26.13Z"/>
            <path class="cls-18" d="M2482.13,918.51c-2.59-1.28-4.66-3.71-6.35-6.09-6.68-9.43-13.2-25.31-16.04-36.77-8.29,16.51-18.99,24.21-36.72,33.69-12.31,6.58-.98,24.24,13.6,35.3,13.94,10.58,33.67-15.15,45.51-26.13Z"/>
            <path class="cls-21" d="M2446.89,855.71c-1.63,15.62,4.47,29.06,13.64,30.02,9.17.96,17.93-10.92,19.56-26.54,1.63-15.62-4.47-29.06-13.64-30.02-9.17-.96-17.93,10.92-19.56,26.54Z"/>
            <path class="cls-17" d="M2450.81,856.47c-1.63,15.62,4.47,29.06,13.64,30.02,9.17.96,17.93-10.92,19.56-26.54,1.63-15.62-4.47-29.06-13.64-30.02-9.17-.96-17.93,10.92-19.56,26.54Z"/>
            <path class="cls-16" d="M2464.04,930.98c-9.31-12.77-11.09-30.43-9.18-47.01,1.73-2.52,3.34-5.27,4.88-8.32,2.85,11.46,9.37,27.34,16.04,36.77,1.69,2.39,3.76,4.81,6.35,6.09-4.35,4.03-9.77,10.06-15.57,15.54-.86-.94-1.71-1.95-2.52-3.07Z"/>
            <path class="cls-18" d="M2459.1,853.49c7.4-23.51,46.03-26.58,59.83-7.5,12.38,17.12,2.24,52.54-8.01,68.82-11.19,17.77-33,26.76-47.25,7.21-13.57-18.61-11.15-47.65-4.58-68.54Z"/>
            <path class="cls-16" d="M2501.25,869.03c-7.42-.22-14.95-2.14-20.98-6.45-9.07-6.47-11.69-15.48-9.64-23.51,14.72-9.15,38.19-7.07,48.31,6.92,3.82,5.29,5.49,12.32,5.68,19.99-7.52,2.11-15.68,3.27-23.36,3.04Z"/>
            <path class="cls-3" d="M2480,857.63c6.04,4.31,13.56,6.22,20.98,6.45,8.86.26,18.35-1.31,26.77-4.07,6.99-2.3,13.69-5.37,18.04-11.62,4.38-6.33,6.09-12.48-3.61-13.18-2.88-.21-5.8.07-8.63-.49-7.97-1.57-12.44-8.88-18.8-13.18-6.79-4.59-14.79-6.99-22.98-5.69-21.45,3.4-30.81,28.19-11.76,41.79Z"/>
            <path class="cls-17" d="M2477.72,859.91c6.04,4.31,13.56,6.22,20.98,6.45,8.86.26,18.35-1.31,26.77-4.08,6.99-2.3,13.69-5.37,18.04-11.62,4.38-6.33,6.09-12.48-3.61-13.18-2.88-.21-5.8.07-8.63-.49-7.97-1.57-12.44-8.88-18.8-13.18-6.79-4.59-14.79-6.99-22.98-5.69-21.45,3.4-30.81,28.19-11.76,41.79Z"/>
            <path class="cls-17" d="M2454.35,857.6c.65,2.7,7.23,18.05,7.23,18.05l8.01.25s-.02-7.93.76-11.78c.88-4.31,3.77-5.84,7.96-3.48,3.67,2.07,5.91,2.18,10.07,2.09,1.37-2.8.85-7.24.5-10.18-.43-3.65-1.46-6.51-4.39-8.96-3.49-2.92-9.25-9.34-13.42-8.82-6.06.76-9.55,10.31-14.19,14.33-3.09,2.67-3.49,4.61-2.54,8.51Z"/>
            <path class="cls-16" d="M2207.77,1290.78l8.08-.85,41.86,5.58c7.79,1.04,9.1,11.76,1.79,14.65l-18.45,7.27c-6.39,2.52-18.73,1.7-25.41.07l-11.11-2.71c-1.86-7.78-.57-16.83,3.23-24.01Z"/>
            <path class="cls-19" d="M2358.7,1135.5c18.5,21.7,52.14,78.81,62.14,142.05,5.91,37.39-9.84,65.55-47,67.87,0,0-108.11.25-159.41-22.08-8.11-11.3-5.12-30.89,5.25-40.16,41.88-7.1,89.84-11.63,124.45,1.99.51.2.88-.49.45-.81-33.75-25.24-138.31-158.17-62.51-185.02,0,0,58.74,15.18,76.63,36.16Z"/>
            <polygon class="cls-17" points="3125.56 2802.93 2657.51 973.28 2672.97 973.28 3141.03 2802.93 3125.56 2802.93"/>
            <path class="cls-15" d="M2373.31,1155.6c-41.96,8.34-110.02-13.31-120.12-34.87,28.94-101.5,114.84-215.87,160.99-210.92,14.15,1.52,42.66,32.04,42.42,45.56-3.35,47.19-61.92,152.53-83.29,200.23Z"/>
            <path class="cls-12" d="M2656.17,999.92c8.34,3.44,8.5,26.6,4.91,34.89-51.1,32.98-151.77,35.98-200.95,20.59-43.31-13.55-36.51-82.45-37.14-83.7-1.17-2.33,33.6-16.34,33.6-16.34,0,0,13.05,24.86,46.09,41.09,30.48,14.97,84.72,22.92,153.48,3.47Z"/>
            <polygon class="cls-17" points="2948.71 2802.93 2539.65 973.28 2554.97 973.28 2964.03 2802.93 2948.71 2802.93"/>
            <path class="cls-12" d="M2393.51,958.86c9.45-11.31,24.74-16.73,39.2-13.91,9.43,1.84,17.76,6.64,23.54,13.85-1.28,10.02-5.17,23.89-10.59,39.7-12.35,34.25-32.85,75.95-50.01,110.73-.69-.27-1.27-.55-1.74-.84-9.54-5.89-18.01-22.25-16.82-33.4,2.04-19.14,5.32-102.85,16.42-116.14Z"/>
            <path class="cls-17" d="M2650.3,1419.39h123.66c2.83,0,5.11-2.29,5.11-5.12s-2.29-5.12-5.11-5.12h-123.66c-2.83,0-5.11,2.29-5.11,5.12s2.29,5.12,5.11,5.12Z"/>
            <path class="cls-17" d="M2691.81,1606.92h135.42c2.83,0,5.12-2.29,5.12-5.11s-2.29-5.12-5.12-5.12h-135.42c-2.83,0-5.11,2.29-5.11,5.12s2.29,5.11,5.11,5.11Z"/>
            <path class="cls-17" d="M2712.84,1711.92h140.67c2.83,0,5.11-2.29,5.11-5.11s-2.29-5.12-5.11-5.12h-140.67c-2.83,0-5.12,2.29-5.12,5.12s2.29,5.11,5.12,5.11Z"/>
            <path class="cls-17" d="M2730.15,1803h146.23c2.83,0,5.12-2.29,5.12-5.11s-2.29-5.12-5.12-5.12h-146.23c-2.83,0-5.11,2.29-5.11,5.12s2.29,5.11,5.11,5.11Z"/>
            <path class="cls-17" d="M2668.64,1512.67h129.9c2.83,0,5.11-2.29,5.11-5.11s-2.29-5.12-5.11-5.12h-129.9c-2.83,0-5.12,2.29-5.12,5.12s2.29,5.11,5.12,5.11Z"/>
            <path class="cls-17" d="M2753.24,1904.28h151.67c2.83,0,5.12-2.29,5.12-5.11s-2.29-5.11-5.12-5.11h-151.67c-2.83,0-5.12,2.29-5.12,5.11s2.29,5.11,5.12,5.11Z"/>
            <path class="cls-17" d="M2631.84,1332.25h119.56c2.83,0,5.12-2.29,5.12-5.12s-2.29-5.12-5.12-5.12h-119.56c-2.83,0-5.12,2.29-5.12,5.12s2.29,5.12,5.12,5.12Z"/>
            <path class="cls-17" d="M2611.98,1241.97h122.92c2.74,0,4.97-2.23,4.97-4.97s-2.23-4.97-4.97-4.97h-122.92c-2.74,0-4.97,2.23-4.97,4.97s2.23,4.97,4.97,4.97Z"/>
            <path class="cls-18" d="M2529.45,1053.98c18.07-5.75,43.56-12.7,43.56-12.7,2.29-1.1,5.08.03,6.22,2.52h0c.85,1.85.54,3.92-.59,5.31,1.85-.18,3.72.92,4.56,2.83.01.03.03.06.04.09,1.01,2.31.15,4.91-1.84,5.97,1.48.17,2.85,1.17,3.53,2.71.01.03.03.06.04.09.81,1.84.38,3.87-.87,5.09,1.67-.39,3.42.64,4.02,2.41,0,.02.02.05.02.07.67,1.99-.39,4.08-2.28,4.52l-47.32,8.31c-5.39-.04-10.17-6.78-11.96-11.87l-.46-1.32s0,0-.01-.02c-2.47-3.25-.53-12.78,3.36-14.01Z"/>
            <g>
              <path class="cls-21" d="M2916.34,1231.19c.44,1.36.96,2.72,1.57,4.08,8.83,19.78,33.91,24.92,52.92,32.3-.62-.24-5.42,9.85-5.81,10.84-2.6,6.74-2.86,13.51-2.84,20.59.02,10,2.03,19.5,8.44,27.46,3.14,3.89,7.07,7.2,9.46,11.6,4.37,8.06,3.18,18.13,1.92,26.82-1.44,9.9-2.82,18.73.1,28.63,9.04,30.59,45.91,60.86,79.05,47.95,9.96-3.88,18.12-12.11,21.93-22.1,3.41-8.96,3.27-19.21-.31-28.1-3.7-9.18-11.54-16.74-14.61-26.43-3.59-11.35-1.44-23.75-2.39-35.43-1.03-12.57-3.62-25.07-10.21-35.99-5.74-9.51-14.21-17.22-19.05-27.3-4.31-8.98-3.3-18.97-3.96-28.61-.56-8.17-3.09-16.65-6.7-24.01-7.28-14.83-20.29-26.93-35.89-32.52-31.18-11.18-87.01,8.64-73.62,50.21Z"/>
              <path class="cls-3" d="M2924.66,1232.74c.47,1.34,1.03,2.69,1.68,4.04,9.36,19.53,34.57,23.99,53.78,30.85-.63-.22-5.15,10-5.51,11-2.42,6.81-2.49,13.58-2.28,20.66.3,10,2.56,19.43,9.19,27.22,3.24,3.81,7.27,7.01,9.77,11.34,4.59,7.94,3.67,18.04,2.65,26.76-1.17,9.94-2.31,18.8.88,28.61,9.87,30.33,47.55,59.59,80.32,45.78,9.85-4.15,17.79-12.6,21.32-22.69,3.17-9.05,2.74-19.29-1.07-28.08-3.95-9.08-11.99-16.42-15.32-26.02-3.9-11.25-2.08-23.7-3.35-35.35-1.37-12.54-4.3-24.96-11.18-35.69-5.99-9.35-14.67-16.83-19.79-26.77-4.56-8.86-3.81-18.87-4.74-28.49-.78-8.15-3.54-16.56-7.35-23.82-7.68-14.63-21.01-26.37-36.77-31.53-31.47-10.32-86.74,11-72.22,52.19Z"/>
              <g>
                <path class="cls-18" d="M3069.22,1966.81l-4.73,66.47s-18.62,17.88-19.25,18.45c-.63.57-14.7-84.05-14.7-84.05l20.1-22.17,18.58,21.29Z"/>
                <path class="cls-21" d="M3018.08,2093.02c.16-6.1,3-10.9,6.13-15.23,4.19-5.79,15.54-21.75,19.57-32.19.58-1.51,1.88-2.64,3.47-2.94,12.01-2.23,15.84-12.06,15.95-16.4.05-1.98,2.2-2.88,3.71-1.5.42.38.82.81,1.18,1.27.51.65,9.33,9.24,16.04,15.75,3.98,3.85,3.6,10.34-.8,13.71l-60.02,45.99s-5.34-4.72-5.24-8.43Z"/>
              </g>
              <g>
                <path class="cls-18" d="M2800.88,1215.82c-2.37-9.1-7.1-17.48-13.66-24.21-1.34-1.38-3.29-1.92-4.95-.65-1.39,1.07-1.99,3.57-.65,4.95,6.2,6.36,10.48,13.97,12.72,22.57.49,1.87,3,2.59,4.6,1.94,1.96-.8,2.42-2.74,1.94-4.6h0Z"/>
                <path class="cls-18" d="M2801.39,1212.03c-1.69-9.25-5.8-17.95-11.85-25.14-1.24-1.47-3.14-2.16-4.89-1.01-1.47.96-2.25,3.42-1.01,4.89,5.71,6.8,9.43,14.7,11.03,23.44.35,1.9,2.8,2.81,4.45,2.27,2.01-.65,2.62-2.56,2.27-4.45h0Z"/>
                <path class="cls-18" d="M2812.41,1244.99c9.13,23.14-14.23,20.38-21.51,8.36-12.05-19.88-15.5-21.64-19.21-25.6-2.42-2.59-1.94-7.13,2.53-6.22,3.58.73,6.8,5.49,10.32,7.09,4.72,2.13,7.67-.38,8.44-5.13,1.81-11.16-.71-25.18-5.4-35.25-2.19-4.7,3.59-8.83,5.93-3.9.76,1.6,4.95,12.18,6.16,15.63,3.35,9.62,12.09,43.38,12.74,45.02Z"/>
              </g>
              <path class="cls-27" d="M2904.36,1326.86s-29.55-4.7-40.45-3.27c-16.56-38.64-49.14-76.16-49.14-76.16,0,0-15.98,2.78-26.3,5.15,3.81,26.53,21.7,65.17,28.09,77.21,1.11,2.1,2.21,4.2,3.24,6.34,11.12,23.18,27.5,43.45,47.85,59.2h0c14.88,15.21,37.61,19.66,57.12,11.18l.37-.16c20.08-8.72,28.32-32.8,17.8-52l-2.11-3.86c-7.4-13.51-21.11-22.39-36.46-23.63Z"/>
              <path class="cls-16" d="M3036.25,2002.08c-2.91-17.73-5.72-34.39-5.72-34.39l20.1-22.17,18.58,21.29-2.47,34.73c-9.78,1.69-20.62,1.85-30.49.53Z"/>
              <path class="cls-4" d="M3094.01,1983.46c-14.47,18.01-67.78,18.65-84.81,3.04-13.63-150.22-35.29-331.18-80.72-476.17,25.45-8.51,73.28-5.82,104.09-3.08,46.71,74.13,55.19,325.98,61.45,476.2Z"/>
              <path class="cls-18" d="M2928.82,1282.94c2.87.63,6.06.02,8.92-.81,11.31-3.25,26.61-11.73,36.16-19.03-3.92,18.41-1.8,40.76,6.27,59.58,5.6,13.06-13.35,23.04-31.98,22.56-17.82-.46-16.94-46.04-19.38-62.31Z"/>
              <g>
                <path class="cls-18" d="M2836.93,1798.69l-4.73,66.47s-18.62,17.88-19.25,18.45c-.63.57-2.98-11.69-3.98-18.29-3.13-20.76-10.72-65.76-10.72-65.76l20.1-22.17,18.58,21.29Z"/>
                <path class="cls-21" d="M2759.75,1884.24c3.61-4.39,8.44-6.29,13.22-7.67,6.39-1.85,23.85-7.08,32.79-12.43,1.29-.77,2.89-.87,4.23-.17,10.09,5.23,18.53.21,21.09-2.92,1.17-1.42,3.26-.85,3.59,1.02.09.52.14,1.06.14,1.61,0,.77,1.56,12.12,2.77,20.74.71,5.1-3.28,9.65-8.43,9.6h-69.66s-1.93-7.1.27-9.77Z"/>
              </g>
              <path class="cls-18" d="M2777.17,1447.87s0,0,.03,0c4.68-.12,7.56-5.12,5.38-9.27-8.85-16.83-13.31-46.08-13.51-46.78h0c-.34-1.21-1.23-2.21-2.41-2.71l-1.01-.43c-2.31-.99-4.94-.82-7.05.45h0c-.65.39-1.43.57-2.2.49h0c-1.66-.16-3.23.65-4.03,2.06l-.99,1.75-.99.13c-2.73.35-4.88,2.4-5.29,5.07l-.43,2.77-1.56-.51c-1.88-.62-3.92.11-4.91,1.75h0c-.66,1.08-.87,2.38-.6,3.63l2.07,9.52c1.4,6.41,4.59,12.35,9.21,17.14l10.52,10.92h0c3.91,4.79,10.42,6.62,16.25,4.56l1.52-.54Z"/>
              <path class="cls-16" d="M2802.56,1825.43c-2.35-14.19-4.31-25.87-4.31-25.87l20.1-22.17,18.58,21.29-1.79,25.13c-10.67,2.22-22.12,2.7-32.58,1.61Z"/>
              <path class="cls-6" d="M2798.4,1577.29c44.13-11.65,86.94-21.98,132.32-26.27h0l-.03-.07-2.22-40.62-25.93-63.32,5.26-98.33,11.98-1.9,33.88-12.96,42.95,11.44,35.95,46.56s.95,42.24,3.28,56.09c2.47,14.65.41,34.27-3.28,59.34,0,0,0,0,0,0,8.76,13.9,16.18,34.06,22.48,58.62,11.19,43.56-10.82,89.01-64.65,92.89,0,0-130.8,13.45-152.86-1.06,17.01,19.57,26.43,98.06,26.08,146.26-24.14,23.31-85.76,20.97-97.96.76-5.94-61.96-12.65-119.41-15.95-158.28-2.7-31.82,17.82-61,48.69-69.15Z"/>
              <path class="cls-4" d="M2996.62,1345.27l35.95,46.56s.76,33.78,2.59,50.83c-24.07-5.23-45.61-27.45-52.22-49.85-2.92-9.9-1.54-18.72-.1-28.63,1.05-7.24,2.04-15.43-.18-22.63l13.97,3.72Z"/>
              <path class="cls-2" d="M2929.18,1322.45c12.98-2.33,41.93-2.6,55.78,2.77,6.35,2.46,11.66,20.05,11.66,20.05l-76.82,1.52s3.16-23.22,9.38-24.34Z"/>
              <path class="cls-17" d="M2922.01,1230.43c.44,1.36.96,2.72,1.57,4.08,8.83,19.78,33.91,24.92,52.92,32.3-.62-.24-5.42,9.85-5.81,10.84-2.6,6.74-2.86,13.51-2.84,20.59.02,10,2.03,19.5,8.44,27.46,3.14,3.89,7.07,7.2,9.46,11.6,4.37,8.06,3.18,18.13,1.92,26.82-1.44,9.9-2.82,18.73.1,28.63,9.04,30.59,45.91,60.86,79.05,47.95,9.96-3.88,18.12-12.11,21.93-22.1,3.41-8.96,3.27-19.21-.31-28.1-3.7-9.18-11.54-16.74-14.61-26.43-3.59-11.35-1.44-23.75-2.39-35.43-1.03-12.57-3.62-25.07-10.21-35.99-5.74-9.51-14.21-17.22-19.05-27.3-4.31-8.98-3.3-18.97-3.96-28.61-.56-8.17-3.09-16.65-6.7-24.01-7.28-14.83-20.29-26.93-35.89-32.52-31.18-11.18-87.01,8.64-73.62,50.21Z"/>
              <path class="cls-16" d="M2937.75,1282.14c11.31-3.25,26.61-11.73,36.16-19.03-.78,3.65-1.31,7.45-1.61,11.35-9.12,15.83-22.58,30.62-39.41,35.2-.52.14-1.02.25-1.53.37-1.17-10.54-1.62-20.92-2.54-27.08,2.87.63,6.06.02,8.92-.81Z"/>
              <path class="cls-18" d="M2988.52,1245.89c9.08-23.41-19.69-50.44-42.81-44.04-20.74,5.73-35.22,40.35-37.43,59.83-2.41,21.25,9.21,42.28,32.98,35.81,22.64-6.17,39.2-30.79,47.26-51.59Z"/>
              <path class="cls-16" d="M2921.33,1224.36c6.35-10.82,14.68-19.83,24.39-22.51,2.36-.65,4.78-.95,7.21-.95-11.39,2.56-22.75,12.38-31.6,23.46Z"/>
              <path class="cls-16" d="M2988.52,1245.89c-2.06,5.31-4.67,10.87-7.8,16.31-.51-.14-.92-.28-1.22-.43-3.19-1.61-5.99-3.98-8.85-5.99-6.38-4.49-11.16-10.04-16.02-16.21-5.07-6.45-9.24-13.37-11.88-21.27-1.34-4.02-3.26-9.18-3.11-13.87,1.96-1.12,3.98-2,6.06-2.58,23.12-6.39,51.89,20.63,42.81,44.04Z"/>
              <path class="cls-17" d="M2944.66,1213.1c1.74,8.14,5.13,15.48,9.45,22.45,4.14,6.67,8.28,12.72,14.13,17.89,2.63,2.31,5.14,4.98,8.14,6.93,2.25,1.47,12.76,3.62,14.73,3.23,4.91-.97,7.96-3.65,10.88-7.42,5.78-7.44,9.86-12.78,9.38-22.7-.72-14.96-6.91-34.4-21.26-41.53-10.98-5.46-32.56-8.23-43.01-.23-6.46,4.95-3.86,14.71-2.44,21.37Z"/>
              <path class="cls-18" d="M2971.67,1258.53c-3.86,5.16-3.51,11.94.78,15.16,4.29,3.21,10.9,1.63,14.76-3.53,3.86-5.16,3.51-11.94-.78-15.16-4.29-3.21-10.9-1.63-14.76,3.53Z"/>
              <path class="cls-4" d="M2965.85,1401.36c-.85,17.92-14.63,46.54-33.74,63.34l-16.2,14.93-13.36-32.61,5.26-98.33,11.98-1.9,5.58-2.13c27.01,2.22,41.82,28.3,40.47,56.7Z"/>
              <path class="cls-2" d="M2779.05,1429.34l-20.24,14.47,32.26,42.93c12.43,16.34,33.4,25.89,53.74,23.11,7.94-1.09,15.63-3.82,22.32-8.28l58.52-41.02c21.18-14.11,38.64-40.64,41.86-58.29,5.6-30.64-8.39-61.11-40.58-62.62,0,0-24.5,1.64-37.76,18-10.89,13.43-14.63,36.92-26.36,51.18-9.57,11.63-20.73,6.54-28.18,16.15-11.32,14.61-11.48,28.53-11.48,28.53l-44.08-24.17Z"/>
              <path class="cls-27" d="M2822.27,1452.66c.41-.47,1.14-.52,1.61-.11l6.64,5.8c.48.41.52,1.14.11,1.61-.23.26-.54.39-.86.39-.27,0-.53-.09-.75-.28l-6.64-5.8c-.47-.41-.52-1.14-.11-1.61Z"/>
              <path class="cls-2" d="M2928.93,1518.56l-.45-8.22-4.95-12.1c23.45,6.45,80.33,8.89,110.55-1.69-.46,3.46-.97,7.02-1.51,10.71,0,0,0,0,0,0,1.43,2.27,2.82,4.72,4.18,7.32-27.42,10.93-81.08,9.59-107.82,3.98Z"/>
            </g>
            <path class="cls-15" d="M2543.13,1047.32c7.36,5.73,9.2,25.04,5.82,36.87-27.9,12.92-131.68,21.15-145.75,14.78-10.21-4.62-17.01-14.87-17.25-26.08-.42-19.25.27-20.68-.83-37.6-.68-10.44-1.36-20.87-2.03-31.31-1.06-16.25-4.25-33.88,5.05-48.47,7.92-12.43,22.4-19.75,37.1-18.81,13.03.84,24.75,7.34,31.36,18.67,8.66,14.85-2.79,71.45-7.04,95.08,33.78,1.83,62.94-1.92,93.57-3.13Z"/>
            <path class="cls-18" d="M2464.27,873.51c-.21,6.32-4.64,11.31-9.89,11.14-5.26-.17-9.35-5.44-9.15-11.76.21-6.32,4.64-11.31,9.89-11.14,5.26.17,9.35,5.44,9.15,11.76Z"/>
            <path class="cls-14" d="M2463.15,941.72l-36.66-39.34s-10.85,3.27-12.31,7.42c5.03,16.43,33.02,41.97,42.42,45.56,6.62-7.94,6.54-13.65,6.54-13.65Z"/>
            <g>
              <path class="cls-18" d="M2696.58,990.7c-.74-2.45-2.65-3.63-4.27-2.64l-20.6,12.67c-1.28.79-1.84,2.99-1.25,4.93.56,1.86,1.99,2.79,3.24,2.16l21.13-10.8c1.73-.88,2.53-3.77,1.76-6.32h0Z"/>
              <path class="cls-18" d="M2695.25,996.69l-23.29,11.86c-1.15.59-1.81,2.41-1.45,4.18.39,1.89,1.72,2.96,2.94,2.47l23.85-9.78c1.72-.7,2.58-3.48,1.86-5.98,0-.03-.02-.06-.03-.09-.65-2.26-2.37-3.43-3.89-2.66Z"/>
              <path class="cls-18" d="M2700.14,1007.9c-.61-2.1-2.17-3.23-3.61-2.61l-22.46,9.71c-1.18.51-1.82,2.36-1.42,4.14.38,1.71,1.58,2.72,2.72,2.34l22.88-7.69c1.73-.58,2.63-3.33,1.92-5.8l-.02-.08Z"/>
              <path class="cls-18" d="M2699.33,1012.24l-18.43,6.87c-.92.34-1.51,1.71-1.28,3.11.24,1.42,1.19,2.32,2.12,2.07l18.78-5.23c1.33-.37,2.11-2.36,1.69-4.31,0-.02,0-.05-.01-.07-.39-1.81-1.66-2.89-2.87-2.44Z"/>
              <path class="cls-16" d="M2693.34,997.16s0-.04-.01-.06c-.1-.37-.37-.56-.61-.43l-20.06,10.53c-.24.13-.36.53-.27.89.1.37.37.56.61.43l20.06-10.53c.23-.12.35-.49.28-.84Z"/>
              <path class="cls-16" d="M2695.55,1005.84s0-.03,0-.04c-.08-.37-.35-.6-.59-.5l-20.14,8.18c-.25.1-.39.49-.31.86.08.37.35.6.59.5l20.14-8.18c.24-.1.38-.46.32-.82Z"/>
              <path class="cls-16" d="M2696.21,1013.24s0-.03,0-.05c-.08-.38-.34-.6-.59-.5l-15.55,6.06c-.25.1-.39.48-.31.86.08.38.34.6.59.5l15.55-6.06c.24-.09.38-.45.32-.81Z"/>
            </g>
            <path class="cls-17" d="M2588.35,1153.01h123.5c2.56,0,4.64-2.08,4.64-4.64s-2.08-4.64-4.64-4.64h-123.5c-2.57,0-4.64,2.08-4.64,4.64s2.08,4.64,4.64,4.64Z"/>
          </g>
          <path class="cls-17" d="M2821.59,2184.68h143.83c3.29,0,5.95-1.55,5.95-3.47s-2.66-3.47-5.95-3.47h-143.83c-3.29,0-5.95,1.55-5.95,3.47s2.66,3.47,5.95,3.47Z"/>
          <path class="cls-17" d="M2860.26,2365.85h157.51c3.29,0,5.95-2.29,5.95-5.11s-2.66-5.12-5.95-5.12h-157.51c-3.29,0-5.95,2.29-5.95,5.12s2.66,5.11,5.95,5.11Z"/>
          <path class="cls-17" d="M2881.43,2461.61h163.62c3.29,0,5.95-2.29,5.95-5.12s-2.66-5.11-5.95-5.11h-163.62c-3.29,0-5.95,2.29-5.95,5.11s2.66,5.12,5.95,5.12Z"/>
          <path class="cls-17" d="M2842.11,2274.76h151.08c3.29,0,5.95-2.29,5.95-5.11s-2.66-5.12-5.95-5.12h-151.08c-3.29,0-5.95,2.29-5.95,5.12s2.66,5.11,5.95,5.11Z"/>
          <path class="cls-17" d="M2797.9,2085.32h145.59c3.44,0,6.23-1.75,6.23-3.91s-2.79-3.91-6.23-3.91h-145.59c-3.44,0-6.23,1.75-6.23,3.91s2.79,3.91,6.23,3.91Z"/>
          <path class="cls-17" d="M2779.25,1998.53h142.96c3.19,0,5.78-2.23,5.78-4.97s-2.59-4.97-5.78-4.97h-142.96c-3.19,0-5.78,2.23-5.78,4.97s2.59,4.97,5.78,4.97Z"/>
        </g>
        <path class="cls-17" d="M2902.74,2559.74h163.62c3.29,0,5.95-2.29,5.95-5.12s-2.66-5.12-5.95-5.12h-163.62c-3.29,0-5.95,2.29-5.95,5.12s2.66,5.12,5.95,5.12Z"/>
        <path class="cls-17" d="M2928.62,2662.38h163.62c3.29,0,5.95-2.29,5.95-5.12s-2.66-5.12-5.95-5.12h-163.62c-3.29,0-5.95,2.29-5.95,5.12s2.66,5.12,5.95,5.12Z"/>
      </g>
    </g>
    <g>
      <polygon class="cls-1" points="2006.34 1803.61 1877.43 1803.61 1851.19 1477.92 2006.34 1803.61"/>
      <path class="cls-1" d="M2275.3,1638.93l-2.94-21.88c-1.08-28.58,2.48-55.9,10.68-81.95-6.84-15.02-12.57-30.69-17.15-47.02l-10.37-77.17-3.15-2.43c-22.29-22.44-40.65-47.18-55.1-74.2-118.37,27.05-233.73,74.92-346.08,143.65l155.15,325.69c90.78-51.59,174.64-87.58,251.59-108.01,3.36-19.55,9.15-38.44,17.37-56.67Z"/>
      <path class="cls-24" d="M2275.3,1638.93l-2.94-21.88c-1.08-28.58,2.48-55.9,10.68-81.95-6.84-15.02-12.57-30.69-17.15-47.02l-10.37-77.17-3.15-2.43c-27.71-27.9-49.35-59.34-64.93-94.31-160.4,17.59-315.45,72.18-465.15,163.76l155.15,325.69c146.23-83.09,274.52-125.77,384.85-128.02,3.3-12.5,7.64-24.72,13.02-36.66Z"/>
      <path class="cls-23" d="M2275.3,1638.93l-2.94-21.88c-1.08-28.58,2.48-55.89,10.68-81.94-.88-1.94-1.76-3.89-2.6-5.86l-172.21,172.21c54.74-16.25,106.1-24.89,154.06-25.87,3.3-12.5,7.64-24.72,13.02-36.66Z"/>
    </g>
    <g>
      <g>
        <g>
          <path class="cls-2" d="M3200.17,2634.09h795.81v134.23h-789.39c6.89-18.91,10.46-43.46,10.46-63.98,0-26.17-5.82-46.97-16.88-70.25Z"/>
          <path class="cls-14" d="M3994.26,2628.34l-2.54,154.87s3.71-11.85,8.16-11.85,11.5-21.76,12.06-22.62c.56-.86,11.28-49.81,11.28-49.81,0,0-3.38-25.23-3.38-26.49s-9.3-30.28-9.3-30.28l-9.05-15.9-7.23,2.07Z"/>
          <path class="cls-6" d="M3197.46,2766.11h794.36c11.02-19.9,17.23-42.3,17.23-65.97,0-21.51-5.13-41.96-14.33-60.44h-797.26c-7.01,0-12.69-5.08-12.69-11.35s5.68-11.35,12.69-11.35h782.73c.17,0,.33.02.5.02,0,0-.01-.02-.02-.02h21.34c1.06,0,2.04.51,2.57,1.33,15.61,24.69,23.93,52.68,23.93,81.82,0,31.35-9.62,61.38-27.61,87.39-.54.78-1.51,1.26-2.54,1.26l-800.9.03c-7.01,0-12.69-5.08-12.69-11.35s5.68-11.35,12.69-11.35Z"/>
        </g>
        <path class="cls-20" d="M3463.11,2664.21h-251.39c-.33-1.17-.68-2.34-1.03-3.51l252.42,3.51Z"/>
        <path class="cls-20" d="M3319.62,2692.32l-102.98.5c-.07-.99-.14-1.98-.22-2.95l103.21,2.46Z"/>
        <path class="cls-20" d="M3216.69,2715.91l229.34,3.96h-229.61c.1-1.33.2-2.65.28-3.96Z"/>
        <path class="cls-20" d="M3213.68,2741.2l47.66,2.07h-48.05c.13-.69.27-1.38.39-2.07Z"/>
      </g>
      <g>
        <g>
          <path class="cls-2" d="M3334.47,2604.57h660.1v-98.49h-654.78c5.71,13.87,8.68,31.89,8.68,46.94,0,19.2-4.83,34.46-14,51.54Z"/>
          <path class="cls-14" d="M3993.14,2608.79l-2.1-113.63s3.08,8.69,6.77,8.69,9.54,15.96,10.01,16.59c.47.63,9.35,36.54,9.35,36.54,0,0-2.81,18.51-2.81,19.44s-7.72,22.22-7.72,22.22l-7.51,11.66-6-1.52Z"/>
          <path class="cls-15" d="M3332.22,2507.71h658.9c9.14,14.6,14.29,31.03,14.29,48.4,0,15.78-4.26,30.78-11.89,44.35h-661.3c-5.81,0-10.52,3.73-10.52,8.33s4.71,8.33,10.52,8.33h649.25c.14,0,.27-.01.41-.02,0,0,0,.01-.01.02h17.7c.88,0,1.7-.37,2.13-.98,12.95-18.11,19.85-38.65,19.85-60.03,0-23-7.98-45.04-22.9-64.12-.45-.58-1.25-.92-2.1-.92l-664.32-.02c-5.81,0-10.52,3.73-10.52,8.33s4.71,8.33,10.52,8.33Z"/>
        </g>
        <path class="cls-20" d="M3552.57,2582.47h-208.52c-.27.86-.56,1.72-.86,2.57l209.38-2.57Z"/>
        <path class="cls-20" d="M3433.55,2561.85l-85.42-.36c-.06.72-.11,1.45-.19,2.17l85.61-1.8Z"/>
        <path class="cls-20" d="M3348.17,2544.54l190.23-2.91h-190.46c.09.97.16,1.94.23,2.91Z"/>
        <path class="cls-20" d="M3345.68,2525.98l39.53-1.52h-39.85c.11.51.22,1.01.33,1.52Z"/>
      </g>
    </g>
    <g>
      <g>
        <g>
          <polygon class="cls-18" points="1513.49 2704.33 1525.05 2776.35 1509.71 2776.35 1486.15 2715.44 1513.49 2704.33"/>
          <polygon class="cls-18" points="1717.07 2703.84 1728.63 2775.86 1713.29 2775.86 1689.73 2714.96 1717.07 2703.84"/>
          <path class="cls-16" d="M1513.49,2704.33l-27.34,11.11,13.57,35.07c7.02.06,15.15.03,21.18-.04l-7.41-46.14Z"/>
          <path class="cls-16" d="M1724.52,2750.27l-7.45-46.43-27.34,11.11,13.66,35.31c7.1.1,14.61.09,21.13,0Z"/>
          <path class="cls-22" d="M1727.47,2764.23c-.36-.63-1.09-.83-1.66-.45-2.3,1.5-7.86,6.56-13.54,2.56-1.23-.86-3.05-1.62-3.39.6-1.09,7.03-5.73,17.83-2.85,25.45h27.56c4.22-4.64-5.19-26.54-6.12-28.15Z"/>
          <path class="cls-22" d="M1478.74,2786.62c2.23-2.76,5.25-3.97,8.23-4.87,3.98-1.19,14.88-4.55,20.44-7.94.81-.5,1.82-.55,2.67-.12,6.33,3.19,11.56.02,13.15-1.95.72-.9,2.04-.55,2.25.62.06.33.09.66.09,1,0,.78,2.74,19,2.74,19h-50.13s-.8-4.07.56-5.75Z"/>
        </g>
        <g>
          <path class="cls-18" d="M1818.89,2034.23v-31.63c-1.75,1.3-3.53,2.55-5.32,3.78-21.42,14.66-44.58,26.67-65.81,41.61-21.23,14.94-40.9,33.39-51.75,56.97-2.54,5.52-4.6,11.39-4.79,17.47-.19,6.08,1.69,12.42,6.07,16.64,4.53,4.37,11.22,5.96,17.49,5.4,6.27-.57,12.2-3.08,17.77-6.01,16.02-8.43,29.84-20.48,42.64-33.27,16.47-16.45,31.55-34.37,44.24-53.87-.57-5.59-.76-11.28-.54-17.09Z"/>
          <path class="cls-16" d="M1365.66,1968.03c14.67-4.47,28.02-12.75,38.56-23.89,2.16-2.28,2.92-5.5.72-8.12-1.84-2.2-5.96-3.01-8.12-.72-9.95,10.53-22.08,18.03-35.94,22.25-3.01.92-4.03,5.06-2.85,7.64,1.43,3.14,4.63,3.77,7.64,2.85h0Z"/>
          <g>
            <ellipse class="cls-17" cx="1579.67" cy="1992.51" rx="16.17" ry="8.8" transform="translate(-545.89 597.01) rotate(-18.31)"/>
            <path class="cls-22" d="M1573.3,2002.94c-1.2,0-2.34-.1-3.43-.29-3.67-.66-6.13-2.39-6.95-4.85-.11-.34.07-.71.41-.82.34-.11.7.07.82.41.66,2,2.77,3.41,5.95,3.99,3.32.6,7.35.2,11.35-1.12,4-1.32,7.47-3.41,9.78-5.87,2.21-2.36,3.06-4.75,2.4-6.75-.11-.34.07-.71.41-.82.34-.11.7.07.82.41.82,2.47-.14,5.32-2.68,8.04-2.45,2.62-6.11,4.82-10.32,6.21-2.91.96-5.85,1.46-8.56,1.46Z"/>
            <path class="cls-12" d="M1593.68,2155.76s62.08-78.07,89.19-79.75c1.73-.11,3.4-.67,4.56.63,16.46,18.39-17.29,108.48-30.09,100.49-18.19-5.23-63.67-21.37-63.67-21.37Z"/>
            <path class="cls-18" d="M1548.85,2105.2c106.31,5.16,237.16-79.04,215.61-1.4-12.58,45.3-129.31,76.5-180.72,59.65-17.55-5.75-62.89-59.61-34.88-58.25Z"/>
            <path class="cls-16" d="M1725.97,2134.6c-43.33,20.58-111.07,27.81-145.95,13.89-10.28-4.1-29.43-26.06-37.14-42.33-13.85,7.26,24.94,52.06,40.86,57.28,35.68,11.7,102.84.24,144.79-23.01,22.28-9.89,49.55-35.84,71.01-62.07-22.86,24.38-51.11,47.9-73.58,56.23Z"/>
            <path class="cls-12" d="M1349.14,2046.77c-19.43,11.5-23.61,87.2-5.35,99.7,1.48,1.01,3.3.82,4.93.08,31.37-14.33,65.25-60.31,65.25-60.31,0,0-42.68-46.73-64.84-39.47Z"/>
            <path class="cls-18" d="M1479.81,2034.35s24.5,14.78,31.75-16.91c1.88-8.22,37.42-3.29,34.44,4.6-16.06,42.62,8.93,46.35,8.93,46.35l-30.31,59.85s-76.55-66.67-76.99-67.98c-.44-1.31,32.16-25.91,32.16-25.91Z"/>
            <ellipse class="cls-17" cx="1531.93" cy="1949.48" rx="16.17" ry="8.8" transform="translate(-768.23 2874.97) rotate(-73.76)"/>
            <path class="cls-16" d="M1540.72,2049.49h0c-.5-6.61.78-15.5,5.28-27.45t0,0c.72-2.74-2.73-5.09-7.7-6.69-9.83-3.04-25.51-3.3-26.75,2.09-.6,2.61-2.12,4.74-2.12,6.91,0,13.32,19.54,24.19,31.27,25.14Z"/>
            <path class="cls-17" d="M1526.38,1962.47c.84-8.41-1.97-15.57-6.28-16-4.31-.43-8.48,6.04-9.32,14.44s1.97,15.57,6.28,16c4.31.43,8.48-6.04,9.32-14.44Z"/>
            <path class="cls-18" d="M1518.25,1976.45c.23,5.3-2.73,9.73-6.62,9.9s-7.23-3.98-7.46-9.28,2.73-9.73,6.62-9.9c3.89-.17,7.23,3.98,7.46,9.28Z"/>
            <ellipse class="cls-17" cx="1551.31" cy="1946.25" rx="23.9" ry="15.53" transform="translate(-836.53 2648.16) rotate(-67.82)"/>
            <ellipse class="cls-17" cx="1572.85" cy="1949.12" rx="25.42" ry="15.43" transform="translate(-925.92 2119.65) rotate(-55)"/>
            <ellipse class="cls-17" cx="1579.98" cy="1971.3" rx="24.37" ry="15.43" transform="translate(-836.86 1235.6) rotate(-34.36)"/>
            <path class="cls-22" d="M1570.34,1990.69c-5.28,0-9.45-1.86-11.78-5.27-.2-.29-.13-.7.17-.9.29-.2.7-.13.9.17,2.2,3.21,6.28,4.88,11.49,4.69,5.32-.19,11.16-2.28,16.43-5.88,5.27-3.61,9.34-8.29,11.45-13.18,2.07-4.79,1.99-9.2-.2-12.41-.2-.3-.13-.7.17-.9.3-.2.7-.13.9.17,2.45,3.59,2.57,8.44.32,13.65-2.2,5.11-6.43,9.99-11.91,13.73-5.47,3.74-11.55,5.91-17.12,6.11-.28,0-.55.01-.82.01Z"/>
            <path class="cls-22" d="M1564.11,1972.92c-2.43,0-4.63-.64-6.46-1.93-.29-.2-.36-.61-.16-.9.21-.29.61-.36.9-.16,3.18,2.23,7.65,2.26,12.57.1,5.03-2.21,9.91-6.44,13.74-11.91,7.83-11.19,8.78-24.09,2.1-28.77-.29-.2-.36-.61-.16-.9.21-.29.61-.36.9-.16,3.57,2.5,5.32,7.09,4.94,12.93-.37,5.72-2.76,11.99-6.72,17.64-3.96,5.66-9.03,10.04-14.28,12.35-2.6,1.14-5.09,1.71-7.37,1.71Z"/>
            <path class="cls-16" d="M1573.11,2013.23c4.47-2.85,6.4-7.82,4.3-11.1-2.09-3.28-7.41-3.63-11.88-.78-4.47,2.85-6.4,7.82-4.3,11.1,2.09,3.28,7.41,3.63,11.88.78Z"/>
            <path class="cls-18" d="M1573.82,1992.48c9.02-20.49-15.51-45.71-36.36-40.94-18.7,4.28-29.07,31.59-31.82,48.85-3,18.83,6.51,38.02,27.94,33.21,20.41-4.58,32.23-22.92,40.24-41.12Z"/>
            <path class="cls-18" d="M1443.88,2044.45c-89.47,31.69-224.06-15.51-184.2,55.23,23.25,41.27,131.16,40.03,170.46,10.63,13.41-10.04,37.32-74.2,13.74-65.85Z"/>
            <path class="cls-16" d="M1442.17,2066.3c5.21-1.07,7.84.82,8.61,4.52,4.8-16.39,4.97-30.57-6.9-26.36-51.85,18.37-118.86,10.24-158.28,13.92,39.74,2.28,103.63,18.77,156.57,7.93Z"/>
            <path class="cls-16" d="M1663.26,2163.33c-5.48-20.05-1.91-59.67,32.05-83.65-42.26,10.99-97.02,27.92-146.46,25.52-28.01-1.36,17.33,52.49,34.88,58.25,19.97,6.55,49.78,5.84,79.53-.12Z"/>
            <path class="cls-12" d="M1575.05,2277.66c-1.06-4.56-11.75-15.04-88.68.22-53.4,10.59-92.79,44.96-86.92,56.33,3.99,7.72,37.27-.78,90.03-14.23,53.03-13.52,86.62-37.76,85.57-42.32Z"/>
            <path class="cls-16" d="M1413.1,2340.3s-3.54-37.43-11.44-71.44c22.58-32.78,122.34-25.52,157.55-22.88-2.64,13.2,15.35,49.09,15.35,49.09l-59.88,55.13-101.58-9.9Z"/>
            <path class="cls-16" d="M1451.16,2069.5c-.22-2.03-.33-4.13-.33-6.29,0-4.27.65-10.53,1.64-16.72-1.48-2.63-4.21-3.58-8.58-2.03-31.62,11.2-68.89,12.55-102.09,12.73,18.42,28.81,14.7,57.3,5.52,74.43,32.18-.22,64.75-7.78,82.82-21.3,6.84-5.12,16.41-24.33,21.02-40.81Z"/>
            <path class="cls-15" d="M1661.23,2176.93c-4.93,3.76-67.69-4.45-67.69-4.45,0,0-21.39,63.35-18.46,105.31-2.43-10.17-48.89-8.7-92.99,2.9-44.8,11.78-87.38,37.26-82.63,53.53-20.13-133.89-3.67-191.8-3.67-191.8,0,0-19.92-5.4-47.06,4.14,16.72-8.14,22.43-106.07.41-99.78,18.29-7.75,95.24-14.31,121.2-13.91-.85,3.01-1.65,6.69-2.34,10.52-1.28,7.14-2.17,14.84-2.17,19.83,0,5.6.75,10.77,2.19,15.46,4.52,14.73,15.81,24.6,31.73,27.85,3.79.77,7.83,1.17,12.11,1.17,9.56,0,19.05-3.19,27.44-8.41h0c10.89-6.78,19.93-16.98,24.86-28.04,28.14,2,79.63,5.75,120.87,4.58-34.64,8.08-30.33,103.62-23.81,101.12Z"/>
            <path class="cls-8" d="M1564.16,2071.23c-4.93,11.06-13.96,21.26-24.86,28.04h0c-8.39,5.22-17.88,8.41-27.44,8.41-4.28,0-8.32-.4-12.11-1.17-15.91-3.25-27.2-13.13-31.73-27.85-1.44-4.68-2.19-9.85-2.19-15.46,0-4.99.88-12.69,2.17-19.83.69-3.84,1.49-7.51,2.34-10.52,5.95-1.45,9.47,1.5,9.47,1.5,0,0-15.85,44.95,17.06,59.2,33.11,14.34,58.07-25.16,58.07-25.16,0,0,4.66-.74,9.22,2.84Z"/>
            <path class="cls-18" d="M1263.86,2098.6c41.39,22.03,131.72-132.61,116.17-149.53-12.69-13.8-88.14,48.97-109.14,80.45-9.68,14.5-31.81,55.9-7.03,69.09Z"/>
            <path class="cls-13" d="M1271.91,2046.49c9.38-20.13,35.64-53.75,58.7-75.74-23.68,18.07-48.91,42.57-59.72,58.77-9.28,13.91-32.35,48.2-7.18,75.94-6.39-27.15,3.34-48.51,8.2-58.97Z"/>
            <path class="cls-16" d="M1308.12,2082.19c-.27,0-.55-.11-.75-.32-.39-.42-.37-1.07.04-1.46,18.23-17.25,39.32-46.22,55.05-75.6,14.83-27.72,21.59-49.84,16.81-55.04-.39-.42-.36-1.08.06-1.46.42-.39,1.08-.36,1.46.06,2.94,3.2,2.72,10.38-.66,21.35-3.06,9.95-8.54,22.42-15.85,36.07-7.43,13.87-16.24,28.02-25.49,40.91-10.05,14-20.41,26.18-29.96,35.22-.2.19-.46.28-.71.28Z"/>
            <g>
              <g>
                <path class="cls-4" d="M1406.84,1933.46l-33.5,34.1c-3.77,3.84-9.74,4.44-14.2,1.43h0c-4.4-2.97-6.1-8.62-4.06-13.52l17.26-39.22,34.5,17.21Z"/>
                <ellipse class="cls-4" cx="1411.79" cy="1916.95" rx="15.75" ry="17.6" transform="translate(-966.92 2014.82) rotate(-55.99)"/>
                <path class="cls-6" d="M1404.75,1876.68l22.59,18.64c3.8,3.13,4.3,8.77,1.13,12.53l-21.63,25.61c-3.13,3.71-8.66,4.2-12.4,1.1l-22.1-18.31-4.63-31.63,37.03-7.95Z"/>
              </g>
              <g>
                <ellipse class="cls-23" cx="1332.15" cy="1842.29" rx="51.57" ry="15.19" transform="translate(-936.67 1696.98) rotate(-50.46)"/>
                <path class="cls-26" d="M1330.04,1840.76c-5.35,5.95-1.48,18.16,8.65,27.28,10.13,9.12,22.68,11.69,28.04,5.74,5.35-5.95,1.48-18.16-8.65-27.28-10.13-9.12-22.68-11.69-28.04-5.74Z"/>
                <path class="cls-24" d="M1390.1,1862.55c-10.7-10.39-17.91-23.84-20.65-38.5l-2.54-17.58c1.19,8.7-7.89,27.16-23.03,45.5-15.97,19.34-33.33,32.09-41.67,31.22h0s19.67,3.27,19.67,3.27c11.1,2.24,21.51,7.05,30.4,14.06l19.97,15.74,32.41-39.57-14.55-14.13Z"/>
              </g>
            </g>
            <g>
              <path class="cls-18" d="M1362.45,1927.16c1.81-2.28,4.98-2.74,7.06-1.02l26.55,21.9c1.65,1.36,1.82,3.92.38,5.72-1.38,1.73-3.76,2.12-5.4.94l-27.88-20.14c-2.28-1.64-2.61-5.03-.72-7.4h0Z"/>
              <path class="cls-18" d="M1362.63,1934.04l30.75,22.15c1.52,1.1,1.95,3.29.89,5.02-1.13,1.84-3.41,2.42-5.06,1.39l-32.19-20.19c-2.32-1.45-2.76-4.74-.97-7.09.02-.03.04-.06.06-.08,1.63-2.12,4.5-2.65,6.51-1.2Z"/>
              <path class="cls-18" d="M1352.1,1943.86c1.52-1.97,4.16-2.52,6.09-1.27l30.17,19.54c1.58,1.03,1.97,3.25.86,4.96-1.07,1.65-3.14,2.22-4.7,1.35l-31.38-17.58c-2.37-1.33-2.89-4.6-1.1-6.92.02-.03.04-.05.06-.08Z"/>
              <path class="cls-18" d="M1352,1948.77l25.08,14.87c1.26.75,1.72,2.43.96,3.81-.77,1.41-2.44,1.96-3.74,1.31l-26.08-13.28c-1.84-.94-2.4-3.36-1.21-5.25.01-.02.03-.04.04-.07,1.11-1.75,3.3-2.36,4.95-1.39Z"/>
              <path class="cls-16" d="M1365.3,1935.33s.02-.04.04-.06c.25-.35.71-.44,1.03-.2l26.39,19.41c.32.24.37.71.12,1.05-.25.35-.71.44-1.03.2l-26.39-19.41c-.3-.22-.37-.66-.16-1Z"/>
              <path class="cls-16" d="M1359.46,1943.58s.02-.03.02-.04c.23-.36.68-.49,1.02-.28l27.21,16.97c.34.21.42.68.2,1.04-.23.36-.68.49-1.02.28l-27.21-16.97c-.32-.2-.42-.64-.22-1Z"/>
              <path class="cls-16" d="M1356.31,1951.12s.02-.03.03-.05c.22-.37.68-.49,1.02-.29l21.08,12.83c.34.21.43.67.21,1.03-.22.37-.68.49-1.02.29l-21.08-12.83c-.32-.2-.42-.63-.23-.99Z"/>
            </g>
            <path class="cls-17" d="M1574.56,2295.07c-26.43,0-43.62,1.07-71.83,6.65-19.83,4.13-49.59,15.24-72.44,27.8-.91.5-1.82,1.01-2.71,1.51-5.34,3.04-10.25,6.16-14.49,9.26-11.44,135.79,71.99,396.97,77.6,404.69,9.38.25,27.15.19,34.77,0-4.57-71.92-3.73-146.49-31.33-213.08,13.82-51.37,13.25-114.57,15.26-128.73,0,0,104.08,168.01,104.08,168.01,31.66,92.16,76.26,167.46,81.2,173.8,11.54.29,25.61.22,34.98,0,5.01-66.81-134.8-424.1-155.09-449.92Z"/>
          </g>
        </g>
      </g>
      <path class="cls-16" d="M1859.78,2007.6c10.58-5.85,19.51-14.42,25.81-24.74,1.29-2.11,1.35-4.72-.77-6.38-1.78-1.39-5.09-1.34-6.38.77-5.95,9.75-14.07,17.51-24.06,23.04-2.17,1.2-2.27,4.56-.95,6.35,1.62,2.19,4.19,2.15,6.35.95h0Z"/>
      <g>
        <polygon class="cls-17" points="1774.08 2316.54 1722.31 2293.91 1830.06 1926.79 1881.83 1949.41 1774.08 2316.54"/>
        <path class="cls-22" d="M1691.03,2754.15l175.35-667.53c2.61-9.94-1.55-20.56-9.41-24.02l-63.17-27.79c-7.83-3.45-16.55,1.43-19.77,11.06l-216.84,649.03c-10.61,31.75,2.08,67.69,27.9,79.05l43.23,19.02c25.72,11.32,54.18-6.3,62.72-38.82Z"/>
        <path class="cls-22" d="M1864.79,2007.49l17.05-58.07-51.77-22.63-12.83,43.72c11.7,18.62,28.45,31.92,47.55,36.98Z"/>
        <path class="cls-7" d="M2274.06,1408.36c91.86,178.25,21.87,397.3-156.32,489.28-178.19,91.97-397.1,22.03-488.96-156.22-91.86-178.25-21.87-397.3,156.32-489.28,178.19-91.97,397.1-22.03,488.96,156.22Z"/>
        <path class="cls-17" d="M2323.42,1674c-13.72,51.42-37.35,98.57-70.24,140.13-34.05,43.03-76.22,77.71-125.35,103.07-91.41,47.18-195.69,55.93-293.64,24.63-97.95-31.29-177.85-98.89-224.97-190.32-43.92-85.22-54.5-183.15-29.8-275.74,13.72-51.42,37.35-98.57,70.24-140.13,34.05-43.03,76.23-77.71,125.35-103.07,91.41-47.18,195.69-55.93,293.64-24.63s177.85,98.88,224.97,190.32c43.92,85.22,54.5,183.15,29.8,275.74ZM1644.07,1493.01c-20.41,76.49-11.66,157.39,24.62,227.8,38.93,75.54,104.94,131.39,185.86,157.24,80.93,25.86,167.09,18.63,242.6-20.35,79.59-41.08,138.49-114.32,161.6-200.94,20.41-76.49,11.66-157.39-24.62-227.8-38.93-75.54-104.94-131.39-185.87-157.24-80.93-25.86-167.09-18.63-242.6,20.35-79.59,41.08-138.49,114.32-161.6,200.94Z"/>
        <path class="cls-22" d="M2323.42,1674c24.7-92.59,14.12-190.52-29.8-275.74-5.98-11.6-12.49-22.81-19.49-33.62-14.2,4.72-28.05,10.65-41.64,16.76-7.1,3.19-14.15,6.48-21.21,9.76,8.41,11.96,16.05,24.57,22.87,37.8,36.28,70.41,48.87,152.44,24.62,227.8-35.55,110.5-99.79,164.48-135.64,187.12-14.11,8.91-19.13,27.09-11.48,41.92.16.3.31.61.47.91,8.62,16.72,29.71,22.5,45.64,12.48,8.07-5.07,15-9.5,16.48-10.52,15.42-10.66,30.19-22.27,43.97-34.98,28.6-26.39,51.34-57.47,69.84-91.61,15.11-27.88,27.2-57.42,35.38-88.08Z"/>
        <path class="cls-17" d="M1565.93,2668.77c5.02,4.6,10.66,8.37,16.85,11.1h0c34.15,15.02,72.05-7.38,84.65-50.04l122.92-416.16c12.44-42.1-4.41-88.19-37.68-103.84l-186.74,558.95Z"/>
        <path class="cls-5" d="M1714.83,2221.62l-116.25,347.94c17.28-1.59,32.67-14.39,38.59-34.43l80.27-271.77c4.15-14.07,2.85-29.01-2.61-41.75Z"/>
        <path class="cls-22" d="M1682.91,1725.39c-36.29-70.41-45.03-151.31-24.62-227.8,23.11-86.62,82.01-159.86,161.6-200.94,73.44-37.91,157.4-45.63,236.37-22.26-2.64-.92-5.3-1.81-7.98-2.67-80.93-25.86-167.09-18.63-242.6,20.35-79.59,41.08-138.49,114.32-161.6,200.94-20.41,76.49-11.66,157.39,24.62,227.8,38.93,75.54,104.94,131.39,185.86,157.24,2.23.71,0,.05,2.23.71-77.28-26.91-136.24-80.34-173.88-153.38Z"/>
        <path class="cls-17" d="M1752.47,1326.61c27.41-21.98,58.5-39.51,92.18-51.5,80.06-28.52,166.41-24.15,243.15,12.31,53.05,25.2,97.12,63.66,128.68,111.46,8.38,12.69,24.35,18.01,38.68,12.94.21-.08.43-.15.64-.23,20.25-7.16,28.53-31.44,16.72-49.38-38.21-58.02-91.64-104.7-155.99-135.27-92.88-44.12-197.4-49.41-294.3-14.9-33.52,11.94-64.7,28.1-93.21,48.26l23.45,66.31Z"/>
        <path class="cls-5" d="M1609.22,1751.51l59.48-30.7s-61.57-112.97-24.62-227.8c21.91-68.1,60.46-129.49,116.16-172.22,12.32-9.45,16.49-26.11,9.95-40.2-.14-.31-.28-.61-.43-.92-8.81-19.07-33.04-25.2-49.84-12.59-26.2,19.67-49.71,42.59-70.25,68.55-32.89,41.56-53.94,89.47-70.24,140.13-44.44,138.11,29.8,275.74,29.8,275.74Z"/>
        <path class="cls-17" d="M1932.15,1939.05c2.4-15.16,4.77-30.8,5.59-46.44-1.41-.06-2.82-.13-4.24-.21-84.83-4.69-162.75-42.16-219.41-105.5-24.06-26.89-43.13-57.33-56.71-89.98-4.93-11.84-16.18-19.83-28.98-20.56h0c-24.62-1.41-42.32,23.4-32.86,46.17,16.45,39.57,39.55,76.45,68.7,109.03,68.36,76.41,162.28,121.71,264.56,127.63,1.1-6.74,2.3-13.46,3.36-20.15Z"/>
        <path class="cls-5" d="M2258.76,1656.76c20.41-76.49,11.66-157.39-24.62-227.8-38.93-75.54-104.94-131.39-185.87-157.24-2.72-.87-5.44-1.7-8.17-2.49,76.7,27.06,145.14,83.4,182.57,156.04,36.28,70.41,45.03,151.31,24.62,227.8-23.11,86.62-82.01,159.86-161.6,200.94-72.98,37.67-150.24,47.66-228.78,24.82,3.06,1.08,1.91.49,5.02,1.48,80.93,25.86,159.7,16.36,235.22-22.62,79.59-41.08,138.49-114.32,161.6-200.94Z"/>
        <path class="cls-15" d="M1753.49,2093.89l-18.66,51.95c-1.3,3.63.18,7.83,3.22,9.17l98.61,43.1c3.03,1.32,6.35-.75,7.25-4.54l12.93-54.45c.82-3.46-.7-7.11-3.47-8.32l-92.88-40.59c-2.76-1.21-5.82.41-7,3.69Z"/>
      </g>
      <g>
        <path class="cls-18" d="M1878.29,2024.54c-.79,2.79-3.51,4.42-6.08,3.64l-32.7-9.87c-2.03-.61-3.17-2.89-2.54-5.09.6-2.12,2.63-3.38,4.58-2.93l33.23,7.75c2.71.63,4.31,3.61,3.5,6.5h0Z"/>
        <path class="cls-18" d="M1875.49,2018.31l-36.63-8.49c-1.81-.42-3.05-2.27-2.73-4.25.33-2.11,2.2-3.52,4.09-3.21l37.19,6.14c2.68.44,4.35,3.28,3.6,6.12,0,.03-.02.07-.03.1-.68,2.56-3.1,4.15-5.5,3.59Z"/>
        <path class="cls-18" d="M1881.37,2005.29c-.63,2.38-2.84,3.9-5.08,3.49l-35.1-6.32c-1.84-.33-3.05-2.22-2.69-4.21.34-1.92,2.02-3.23,3.79-3.04l35.45,4.07c2.67.31,4.41,3.11,3.66,5.91,0,.03-.02.06-.03.1Z"/>
        <path class="cls-18" d="M1879.57,2000.75l-28.65-4c-1.44-.2-2.5-1.57-2.34-3.12.17-1.58,1.49-2.73,2.92-2.63l28.96,2.16c2.05.15,3.49,2.16,3.12,4.34,0,.03,0,.05-.01.08-.34,2.02-2.11,3.43-3.99,3.17Z"/>
        <path class="cls-16" d="M1872.55,2018.15s0,.04-.01.06c-.1.41-.48.67-.87.58l-31.59-7.66c-.38-.09-.61-.51-.52-.92.1-.41.48-.67.87-.58l31.59,7.66c.36.09.59.46.53.85Z"/>
        <path class="cls-16" d="M1873.76,2007.88s0,.03,0,.04c-.07.42-.44.71-.83.65l-31.4-5.1c-.39-.06-.65-.46-.58-.87.07-.42.44-.71.83-.65l31.4,5.1c.37.06.63.43.58.83Z"/>
        <path class="cls-16" d="M1874.73,2000.26s0,.04,0,.05c-.07.42-.43.71-.82.65l-24.21-3.66c-.39-.06-.65-.44-.59-.87.07-.42.43-.71.82-.65l24.21,3.66c.37.06.63.41.59.81Z"/>
      </g>
    </g>
    <path class="cls-14" d="M791.54,1233.26c252.48-.83,504.96-1.66,757.43-2.5.58-1.69,1.09-3.41,1.54-5.14,3.93-15.25,1.84-33.01-9.31-44.2-11.15-11.19-41.61-8.3-51.1,4.31,21.29-41.24,20.01-95.45-14.92-111.76-45.58-21.29-110.27,23.35-104.99,47.94,11.9-49.46-14.72-127.53-92.22-126.93-72.82.56-128.14,89.19-128.81,113.69-2.78-18.85-8.23-37.78-26.85-42.29-56.46-13.69-85.59,42.05-85,78.13-8.46-8.13-4.91-53.8-58.13-52.28-44.08,1.26-73.36,78.48-63.52,93.52-56.56-9.46-97.92-5.52-124.11,47.53Z"/>
    <g>
      <ellipse class="cls-20" cx="4498.17" cy="2958.53" rx="202.03" ry="26.39"/>
      <g>
        <g>
          <g>
            <path class="cls-10" d="M4635.89,2420.63c1.85,8.02-46.01,25.22-107.39,38.35-61.38,13.13-122.02,15.72-123.87,7.7-1.85-8.02,55.8-23.61,117.18-36.74,61.38-13.13,112.23-17.33,114.08-9.31Z"/>
            <path class="cls-22" d="M4593.9,2012.17c-3.86-4.25-8.21-8.01-12.95-11.21l-1.96-9.75c-.42-2.11-2.09-3.78-4.26-4.27-7.93-1.79-16.05-2.27-24.04-1.48l-9.32-4.78c-1.97-1.01-4.37-.81-6.13.5h0c-5.48,4.09-10.28,8.88-14.31,14.2l-5.91.6c-2.22.23-4.09,1.68-4.79,3.72h0c-5,14.63-4.88,30.44.35,44.99,0,0,68.83,14,69.06,13.73l13.17-15.1c1.44-1.64,1.74-3.95.77-5.88h0c-1.31-2.63-2.79-5.16-4.42-7.59l5.62-11.82c.93-1.95.58-4.25-.88-5.87Z"/>
            <path class="cls-16" d="M4431.37,2433.98l-9.74-259.92c-.28-7.48,4.74-14.2,12.19-16.32l64.5-18.33h46.56l35.82,7.84c26.62,5.83,24.87,28.9,24.27,55.2l19.22,238.76-85.17,28.51-107.64-35.75Z"/>
            <path class="cls-17" d="M4623.38,2431.22l-104.04,2.8c-2.45,19.88-3.22,86.12,7.19,143.33l20.71,202.76c5.18,59.55,17.06,132.59,24.37,157.31l16.82-2.31c15.28-43.1,31.5-133.28,30.94-200.1h0s12.87-257.42,4-303.79Z"/>
            <path class="cls-16" d="M4578.08,2046.63c10.27-22.47-17.24-50.13-40.97-44.9-21.28,4.69-35.04,34.65-38.17,53.58-3.41,20.65,7.41,41.71,31.8,36.43,23.23-5.03,38.22-25.14,47.34-45.1Z"/>
            <path class="cls-17" d="M4521.53,2479.75c-.32-14.23.72-28.33-2.18-46.55l-100.32,8.02c-4.7,21.47-24.69,138.45-19.74,210.5.05,24.16.98,47.6,3.01,71.47,0,0,0,0,0,.01,4.44,75.5,19.07,181.1,28.61,218.07h19.68c28.55-72.31,36.76-199.07,24.59-271.58,30.06-53.25,47.34-146.56,46.36-189.94Z"/>
            <path class="cls-21" d="M4623.38,2431.22l-104.04,1.15-100.32,8.84c-1.33,6.05-3.87,19.71-6.72,37.81,17.75-8.84,62.98-21.1,109.51-31.05,44.43-9.5,83.34-14.33,102.15-13.22-.18-1.28-.37-2.46-.58-3.53Z"/>
            <path class="cls-9" d="M4617.62,2162.71c-20.87-33.51-118.92-37.96-151.31-44.88-18.84-4.03-52.91,16.47-63.11,59.14-5.16,21.59-14.86,68.34-22.69,114.33-2.17,12.72,24.07,48.06,24.07,48.06l.04,127.32c3.82-8.52,59.5-24.4,117.18-36.74,61.38-13.13,112.23-17.33,114.08-9.31l-10.87-123.92s24.32-17.29,24.2-27.74c-.31-26.64-16.47-81.97-31.59-106.25Z"/>
            <path class="cls-16" d="M4516.9,2029.01c-.33,5.8-4.19,10.32-8.61,10.08s-7.74-5.13-7.41-10.94c.33-5.8,4.19-10.32,8.61-10.08,4.42.24,7.74,5.13,7.41,10.94Z"/>
            <path class="cls-18" d="M4577,2066.98c5.09-3.13,7.28-8.58,4.9-12.18-2.38-3.6-8.44-3.98-13.52-.86s-7.28,8.58-4.9,12.18c2.38,3.6,8.44,3.98,13.52.86Z"/>
            <ellipse class="cls-10" cx="4417.56" cy="2301.75" rx="38.71" ry="39.9"/>
            <path class="cls-10" d="M4649.63,2269.88c0,22.04-17.75,40.31-39.13,40.31s-33.78-17.28-40.91-30.44c-10.59-19.53,19.54-48.74,40.91-49.37,28.26-.83,39.13,17.46,39.13,39.5Z"/>
            <g>
              <path class="cls-18" d="M4550.2,2122c1.74,60.16-84.11,86.82-55.91-.33,10.29-7.94,11.96-31.16,7.75-43.94,13.29,4.22,27.32,6.3,41.31,6.15-5.36,13.38,2.45,29.56,6.86,38.12Z"/>
              <path class="cls-8" d="M4507.77,2187.16c11.01,0,22.92-5.55,32.69-15.23,6.1-6.04,11.11-13.5,14.49-21.58,1.98-4.73,3.4-9.62,4.27-14.64-3.19-.96-6.43-1.87-9.69-2.75-4.09,26.73-25.47,44.55-41.76,44.55s-26.35-16.07-13.48-55.84c.02-.02.04-.03.06-.05-1.63-2.2-5.75-4.46-10.04-1.49-3.84,13.86-5.84,23.45-5.72,32.74.13,9.77,2.5,17.74,7.03,23.68,5.22,6.84,13.09,10.6,22.15,10.6Z"/>
            </g>
            <path class="cls-18" d="M4535.84,2003.45c-8.27,1.82-15.41,7.44-21.25,14.75-8.41,11.33-13.84,26.09-15.66,37.11-3.41,20.65,7.41,41.71,31.8,36.43,21.18-4.58,35.51-21.71,44.78-39.82.53-1.09,1.05-2.18,1.55-3.27,10.33-22.61-17.35-50.45-41.23-45.19Z"/>
            <path class="cls-16" d="M4550.2,2122c-4.01-7.76-10.81-21.82-8.02-34.35,3.51-1.76,6.86-3.91,10.03-6.37-3.86-9.17-9.94-23.54-11.46-26.62-2.54-5.13-15.88-4.56-12.39,8.59l2.96,13.28-32.62-8.21c.62,4.65,2.03,9,4.23,12.69,1.39,6.23,1.66,14.3.48,21.77,1.04,1.52,2.11,3.01,3.26,4.46,3.85,4.85,8.57,9.33,14.47,11.77,3.3,1.36,6.81,2.02,10.38,2.3l5.88,39.21c7.83-9.75,13.25-23.05,12.8-38.52Z"/>
            <path class="cls-18" d="M4395.78,2318.09c27.63,47.32,207.78-39.59,202.99-65.58-3.91-21.2-119.61-1.95-163.3,8.45-30.7,7.3-56.24,28.8-39.69,57.13Z"/>
            <path class="cls-16" d="M4552.4,2243.32c5.35,14.66,11.55,27.96,18.5,38.4,17.84-11.57,29.11-22.45,27.86-29.21-1.56-8.46-20.9-10.48-46.36-9.19Z"/>
            <path class="cls-13" d="M4424.15,2269.72c31.61-9.28,99.31-24.96,140.7-26.76-38.65.11-100.14,11.03-129.38,17.99-15.75,3.75-30.13,11.23-38.18,21.45,7.54-5.42,16.87-9.75,26.86-12.68Z"/>
            <path class="cls-18" d="M4614.37,2297.59c-58.11,9.95-90.15-190.14-74.19-207.18,16.13-17.22,80.01,91.38,91.8,135.86,5.43,20.49,17.18,65.36-17.61,71.32Z"/>
            <g>
              <path class="cls-18" d="M4562.45,2100.98c-3.19,1.15-12.72,13.54-12.72,13.54,0,0-26.57-1.38-28.17-1.47-9.68-.52-8.95-9.3-4.04-9.17.05,0-.12-.03-.18-.03-11.16-.07-9.61-10.6-4.4-10.7-12.71-.25-12.75-10.29-7.41-9.6-3.18-.21-14.24-2.82-14.24-10.47,0-6.43,22.27,2.7,43.2,7.37-1.61-7.55-2.49-10.61-3.37-16.85-.2-1.44-.4-2.92-.13-4.35.28-1.43,1.14-2.83,2.48-3.34,1.43-.55,3.09.04,4.2,1.09,1.12,1.05,1.8,2.5,2.38,3.93,2.61,6.43,10.81,30.78,22.39,40.06Z"/>
              <path class="cls-16" d="M4515.79,2085.78s-.07,0-.1,0l-11.74-1.09c-.57-.05-.99-.54-.94-1.1.06-.55.57-.96,1.14-.9l11.74,1.09c.57.05.99.54.94,1.1-.05.52-.51.91-1.04.91Z"/>
              <path class="cls-16" d="M4517.95,2094.97s-.06,0-.09,0l-6.42-.53c-.57-.05-1-.53-.95-1.09.05-.55.56-.96,1.13-.92l6.42.53c.57.05,1,.53.95,1.09-.05.52-.5.92-1.04.92Z"/>
              <path class="cls-16" d="M4521.95,2105.92s-.08,0-.12,0l-5.88-.66c-.57-.06-.98-.56-.92-1.11.07-.55.58-.94,1.16-.88l5.88.66c.57.06.98.56.92,1.11-.06.51-.51.89-1.03.89Z"/>
            </g>
          </g>
          <path class="cls-16" d="M4632.95,2227.92c-5.57-21-23.41-57.11-41.78-85.97,17.25,33.72,33.9,79.79,37.3,104.74,1.48,10.86,3.84,28.45.79,43.04,16.39-13.5,7.97-45.67,3.69-61.82Z"/>
        </g>
        <path class="cls-22" d="M4591.45,2929.13c-.44-.76-1.34-1-2.04-.55-2.83,1.81-9.66,7.91-16.64,3.08-1.51-1.04-3.75-1.95-4.17.72-1.34,8.47-7.04,21.51-3.5,30.7h33.86c5.18-5.6-6.38-32.02-7.51-33.95Z"/>
        <path class="cls-22" d="M4390.69,2955.83c3.01-3.66,7.08-5.26,11.1-6.45,5.37-1.58,20.07-6.03,27.57-10.52,1.09-.66,2.46-.72,3.6-.15,8.53,4.23,15.59.02,17.73-2.58.98-1.19,2.75-.73,3.03.82.08.43.12.88.13,1.33,0,1.04,3.69,25.16,3.69,25.16h-67.62s-1.08-5.39.76-7.62Z"/>
      </g>
    </g>
    <g>
      <g>
        <path class="cls-18" d="M2354.49,2390.21c-1.09-1.34-3.86-2.1-5.32-2.62-2.09-.75-4.23-1.33-6.35-1.97,4.92.73,7.85,1.16,8.5-2.1.72-3.63-25.23-6.95-28.31-7.5-8.53-1.53.54-8.31,2.84-11.78,1.6-2.42,2.84-6.1-.03-6.57-2.38-.39-4.28,1.83-5.79,3.7-1.52,1.87-10.79,12.9-45.96,24.57l7.89,21.45c2.01-.75,17.7-6.78,23.93-7.06,9.49-.43,36.74,7.09,37.31,7.14.73.06,1.5-.07,2.09-.49,1.69-1.2.6-2.98-.81-3.73-1.33-.7-2.83-.92-4.25-1.35-1.77-.53-3.54-1.07-5.3-1.6,2.39.72,5.41,1.31,7.87,1.74,1.18.21,3.26.48,5.55.67,2.53.22,4.94-.12,5.44-2.26.37-1.59-1.17-2.38-2.38-2.88-1.54-.65-3.1-1.23-4.68-1.77-3.15-1.08-6.37-1.97-9.58-2.86,1.62.45,3.38.3,5.05.45,2.06.18,4.11.44,6.14.81,1.68.31,3.6.81,5.16-.17.73-.45,1.18-1.27,1.35-2.11.11-.51-.03-1.29-.36-1.7Z"/>
        <path class="cls-16" d="M2329.62,2383.84c-.11-.15-.17-.34-.13-.53.06-.37.42-.61.78-.55l16.29,2.87c.37.07.61.42.55.78-.06.37-.42.61-.78.55l-16.29-2.87c-.17-.03-.32-.12-.42-.25Z"/>
        <path class="cls-16" d="M2326.99,2391.92c-.12-.16-.18-.37-.15-.58.07-.4.45-.67.85-.6l17.53,3.02c.4.07.67.45.6.85-.07.4-.45.67-.85.6l-17.53-3.02c-.19-.03-.35-.13-.46-.27Z"/>
        <path class="cls-16" d="M2325.84,2398.85c-.13-.17-.19-.4-.14-.63.09-.4.49-.64.89-.55l16.64,3.95c.4.1.64.49.55.89-.09.4-.49.64-.89.55l-16.64-3.95c-.17-.04-.31-.14-.41-.26Z"/>
      </g>
      <path class="cls-4" d="M2305.71,2406.07c4.01-8.1-3.78-29.56-11.49-34.28-48.59,7.57-56.86,7.9-89.62,17.04-18.1-33.03-47.03-80.67-63.21-100.49-12.8-15.68-24.48-57.16-47.61-34.22-37.88,37.59,50.35,165.45,96.73,173.9,36.42,6.64,70.12-6.75,115.2-21.96Z"/>
      <g>
        <g>
          <path class="cls-18" d="M2150.08,2754.01c-2.24,83.52,52.04,222.76,64.94,251.4l-.1.04-.26,13.47s31.86,24.33,32.79,24.88c.93.55,19.25-5.73,19.25-5.73l-4.26-5.12-1.15-.92-1.52-.64c-7.83-3.31-13.09-10.8-13.53-19.28-1.4-26.69-20.08-238.84-44.71-275.81l-51.46,17.73Z"/>
          <path class="cls-22" d="M2246.96,3049.07c1.87,1.31,4.32,2.71,6.67,2.43l21.85-2.57c3.02-.36,5.78-1.78,7.65-4.04.46-.55.96-1.45,1.41-2.38.88-1.79-.34-5.7-2.34-6.24-6.46-1.75-19.48-5.13-20.9-4.25h0c-4.94,4.4-12.54,4.76-17.78.86l-8.46-6.29c-4.47-3.32-8.48-7.15-11.94-11.39l-8.2-9.74-3.62,2.98c-6.13,5.04-7.39,13.48-2.94,19.74l2.84,3.98,3.13,4.86,5.67,19.22,3.36-.4-2.51-21.33c-.07-.6.4-1.16,1.05-1.23l1.02-.12c1.5-.18,2.79.22,3.99,1.06l20.08,14.86Z"/>
        </g>
        <path class="cls-18" d="M2083.07,3014.57l-18.21,1.4s-38.41-80.65-48.21-148.15c-9.36-64.46,1.58-130.32,1.58-130.32l49.26,5.92,15.58,271.15Z"/>
        <path class="cls-16" d="M2201.54,2736.28l-51.46,17.73c-.32,11.86.51,24.67,2.19,38,26.1-4.66,48.56-12.76,61.16-24.5-3.76-14.04-7.73-25-11.88-31.23Z"/>
        <path class="cls-22" d="M2082.89,3010.65c-2.53-3.97-7.79-5.9-12.4-4.97-7.04,1.41-10.53,8.64-9.35,15.33.87,4.88,3.57,9.76,6.87,13.44l4.82,21.78h2.76s2.35-21.56,2.35-21.57c.07-.6,1.3-1.79,1.63-2.3,1.28-1.98,2.38-4.08,3.22-6.28,1.59-4.14,2.61-9.25,1.01-13.59-.24-.65-.55-1.27-.91-1.84Z"/>
        <path class="cls-16" d="M2013.49,2786.3c15.31,5.66,35.51,9.32,57.36,10.86l-3.35-53.74-49.26-5.92s-3.33,20.03-4.74,48.8Z"/>
        <path class="cls-6" d="M2004.23,2773.18c51.6,24.7,185.06,19.86,213.42-20.35.3-.43.42-.95.34-1.47-17.34-113.04-95.97-285.78-107.66-314.56-1.1-2.71-1.36-5.68-.75-8.54l37.99-177.63-87.77-11.6c-13.27-.87-54.69,5.6-54.69,5.6l-23.45,175.43c-1.2,11.3-6.03,21.93-13.9,30.13-9.79,10.21-21.54,31.62-25.71,56.94-11.05,67,17.82,183.76,61.27,265.17.2.38.52.69.91.88Z"/>
        <polygon class="cls-4" points="1992.18 2343.27 1982.99 2410.33 1983.4 2410.87 2016.65 2319.54 1992.18 2343.27"/>
        <g>
          <path class="cls-4" d="M1871,2272.2c7.65-4.17,22.38-7.4,23.88-3.19,1.46,4.1.52,15.48-13.86,22.39s-22.72,2.81-24.65-1.22c-1.93-4.02,6.65-13.63,14.63-17.98Z"/>
          <g>
            <path class="cls-18" d="M1855.07,2206.55c-4.13,2.43,8.47,25.5,11.13,30.88-2.71-3.85-10.52,1.44-8.23,4.95-2.2-3.36-9.69,1.08-7.63,5.28-1.37-2.79-5.1-.53-6.16,1.32-1.5,2.62.05,5.79,1.29,8.18,1.5,2.9,25.49,43.83,26.19,43.42,0,0,25.91-16.13,25.91-16.13,0,0-35.53-82.01-42.5-77.9Z"/>
            <path class="cls-16" d="M1852.97,2251.75h0c.34-.27.42-.75.2-1.12l-2.56-4.22c-.26-.42-.8-.55-1.23-.3-.42.26-.56.8-.3,1.23l2.61,4.2c.27.44.87.54,1.28.22Z"/>
          </g>
          <path class="cls-16" d="M1860.59,2246.45h0c.34-.27.42-.75.2-1.12l-2.56-4.22c-.26-.42-.81-.55-1.23-.3-.42.26-.56.8-.3,1.23l2.61,4.2c.27.44.87.54,1.28.22Z"/>
          <path class="cls-16" d="M1868.85,2241.75h0c.34-.27.42-.75.2-1.12l-2.56-4.22c-.26-.42-.81-.55-1.23-.3-.42.26-.56.8-.3,1.23l2.61,4.2c.27.44.87.54,1.28.22Z"/>
          <path class="cls-6" d="M1856.37,2290.18c13.92,42.5,50.88,110.64,76.03,149.09,13.49,2.6,27.88-37.84,27.88-37.84,0,0-41.92-93.21-65.39-132.43.64,11.8-30.89,31.11-38.51,21.17Z"/>
          <polygon class="cls-4" points="1918.16 2312.52 1942.37 2380.01 1951 2364.37 1940.62 2359.45 1918.16 2312.52"/>
          <path class="cls-6" d="M2022.47,2250.09c43.15,29.18-63.34,202.69-86.52,191.92-26.31-12.23,20.03-124.15,35.32-163.28,7.05-18.05,25.36-46.1,51.2-28.64Z"/>
        </g>
        <path class="cls-4" d="M2116.2,2397.28l31.09-145.36c-.21-.46-.41-.94-.62-1.41l-86.87-11.48c-7.96-.52-26.07,3.3-39.3,6.43.49,29.87,4.2,59.86,10.6,88.79,7.32,33.05,23.01,58.17,56.15,62.44,8.44,1.09,18.4,1.26,28.94.59Z"/>
        <g>
          <path class="cls-18" d="M2108.69,2174.29c6.39-28.1-34.88-56.64-62.21-46.92-24.51,8.72-35.28,50.38-33.97,73.23,1.42,24.93,20.2,48.21,48.32,38.32,26.78-9.41,42.19-39.67,47.86-64.64Z"/>
          <path class="cls-5" d="M2051.45,2117.28c19.29-6.97,49.3-1.83,57.94,17.82,13.84,31.46,19.95,66.91,32.04,99.05,7.39,19.65,20.3,35.74,33.51,51.1,16.77,19.51,51.29,44.68,26.45,71.74-20.73,22.57-81.88,33.72-116.95,29.2-33.13-4.27-48.83-29.39-56.15-62.44-9.89-44.64-13.39-91.85-8.47-137.18,3.28-30.18.19-57.92,31.63-69.29Z"/>
          <path class="cls-22" d="M2056.79,2120.74c19.01-7.69,49.19-3.68,58.57,15.63,15.01,30.92,22.45,66.12,35.74,97.77,8.12,19.36,21.63,34.95,35.41,49.8,17.49,18.86,52.94,42.72,29.12,70.69-19.86,23.33-80.56,36.77-115.77,33.57-33.27-3.02-49.9-27.54-58.45-60.29-11.56-44.24-16.83-91.28-13.62-136.77,2.14-30.28-1.99-57.89,29.01-70.42Z"/>
          <path class="cls-17" d="M2056.57,2116.82c19.29-6.98,49.3-1.82,57.95,17.88,13.84,31.53,19.97,67.07,32.06,99.28,7.39,19.69,20.31,35.82,33.52,51.22,16.78,19.56,51.3,44.79,26.46,71.9-20.72,22.61-81.88,33.78-116.95,29.24-33.14-4.29-48.83-29.47-56.16-62.59-9.9-44.74-13.41-92.06-8.5-137.49,3.27-30.24.18-58.05,31.62-69.44Z"/>
        </g>
      </g>
    </g>
    <g>
      <path class="cls-4" d="M512.89,2416.17c109.52-2.65,312.06-46.43,312.06-46.43l-137.42-147.53s-121.01,93.28-174.63,193.96Z"/>
      <g>
        <path class="cls-18" d="M907.87,2712.79s40.35,39.08,60.02,52.77c0,0,22.48,5.91,23.31,5.9.82,0-1.7-6.55-5.32-11.94-11.38-16.92-48.19-71.42-48.19-71.42l-29.98-3.45.16,28.14Z"/>
        <path class="cls-16" d="M937.69,2688.1l-29.98-3.45.16,28.14s18.12,17.55,36,33.25c7.5-6.84,13.58-14.98,16.77-23.94-11.88-17.6-22.95-34-22.95-34Z"/>
        <path class="cls-22" d="M1035.06,2755.91c-4.84-2.65-9.88-2.62-14.69-2.15-6.43.63-24.07,2.23-34.06.63-1.44-.23-2.92.26-3.88,1.37-7.21,8.36-16.63,6.87-20.08,4.99-1.57-.86-3.25.41-2.87,2.22.11.51.26,1.01.46,1.5.25.62,2.44,9.37,4.35,17.08,1.54,6.24,8.27,9.65,14.21,7.21l60.76-24.91s-1.25-6.32-4.2-7.93Z"/>
        <path class="cls-4" d="M755.7,2089.6s42.29-11.78,61.67,50.61l22.64,323.98-92.19,3.97,7.89-378.56Z"/>
        <path class="cls-1" d="M798.3,2268.15l-80.2,19.88c4.74,33.32,62.81,343.05,165.04,472.38,23.84,5.46,76-22.9,75.11-59.85-121.78-248.55-130.57-380.56-159.95-432.41Z"/>
        <g>
          <path class="cls-18" d="M532.53,2511.82l-61-6.09s-19.12,14.09-19.73,14.57c-.61.48,10.13,4.53,15.96,6.46,18.33,6.08,57.94,19.99,57.94,19.99l23.24-14.76-16.4-20.17Z"/>
          <path class="cls-16" d="M503.54,2539.02c12.22,4.25,22.16,7.74,22.16,7.74l23.24-14.76-16.4-20.17-21.87-2.18c-3.76,7.94-6.16,18.58-7.12,29.38Z"/>
          <path class="cls-24" d="M804.56,2271.03c-26.5-.79-67.46.06-90.05-.47-23.01,41.88-75.74,261.17-75.74,261.17,0,0-67.19-30.15-110.9-32.91-16.28,12.11-20.12,63.18-9.7,80.6,49.33,17.27,154.87,60.33,173.35,35.72,29.21-38.9,130.04-246.71,113.03-344.1Z"/>
        </g>
        <path class="cls-11" d="M791.94,2092.96c1.87,9.38-.03,18.99-9.88,29.57-7.22,7.76-15.88,14.67-20.11,24.39-7.63,17.53,2.64,34.79.86,52.62-2.12,21.19-20.96,37.4-41.1,44.31-22.72,7.79-48.64,6.28-69.91-4.85-21.28-11.13-37.45-31.93-42.17-55.48-3.76-18.8.03-38.9,10.22-55.11,9.85-15.68,27.94-23.99,37.11-40.06,16.95-29.7-4.16-71.19,16.4-98.52,12.15-16.14,30.06-26.45,50.58-22.45,24.15,4.71,40.01,22.28,41.02,46.85.58,14.03-3.59,29.63,1.79,43.47,5.35,13.78,22.25,20.48,25.19,35.26Z"/>
        <path class="cls-28" d="M803.1,2091.08c1.87,9.38-.03,18.99-9.88,29.57-7.22,7.76-15.88,14.67-20.11,24.39-7.63,17.53,2.64,34.79.86,52.62-2.12,21.19-20.96,37.4-41.1,44.31-22.72,7.79-48.64,6.28-69.91-4.85-21.28-11.13-37.45-31.93-42.17-55.48-3.76-18.8.03-38.9,10.22-55.11,9.85-15.68,27.94-23.99,37.11-40.06,16.95-29.7-4.16-71.19,16.4-98.52,12.15-16.14,30.06-26.45,50.58-22.45,24.15,4.71,40.01,22.28,41.02,46.85.58,14.03-3.59,29.63,1.79,43.47,5.35,13.78,22.25,20.48,25.19,35.26Z"/>
        <path class="cls-22" d="M797.12,2092.03c1.87,9.38-.03,18.99-9.88,29.57-7.22,7.76-15.88,14.67-20.11,24.39-7.63,17.53,2.64,34.79.86,52.62-2.12,21.19-20.96,37.4-41.1,44.31-22.72,7.79-48.64,6.28-69.91-4.85-21.28-11.13-37.45-31.93-42.17-55.48-3.76-18.8.03-38.9,10.22-55.11,9.85-15.68,27.94-23.99,37.11-40.06,16.95-29.7-4.16-71.19,16.4-98.52,12.15-16.14,30.06-26.45,50.58-22.45,24.15,4.71,40.01,22.28,41.02,46.85.58,14.03-3.59,29.63,1.79,43.47,5.35,13.78,22.25,20.48,25.19,35.26Z"/>
        <path class="cls-16" d="M998.85,2231.87c9.41-2.26,18.14-6.97,25.2-13.59,1.45-1.36,2.05-3.35.76-5.09-1.07-1.45-3.64-2.12-5.09-.76-6.67,6.25-14.59,10.52-23.48,12.65-1.93.46-2.73,3.04-2.09,4.7.78,2.04,2.77,2.55,4.7,2.09h0Z"/>
        <path class="cls-16" d="M1002.74,2232.47c9.55-1.56,18.6-5.62,26.12-11.7,1.54-1.25,2.29-3.19,1.13-5.02-.96-1.53-3.47-2.38-5.02-1.13-7.11,5.75-15.33,9.42-24.35,10.9-1.96.32-2.94,2.83-2.43,4.54.63,2.09,2.58,2.75,4.54,2.43h0Z"/>
        <path class="cls-4" d="M711.39,2091.83l46.56-6.76-7.5,17.31s-38.43,3.31-38.73,2.87c-.31-.44-.32-13.42-.32-13.42Z"/>
        <path class="cls-18" d="M740.72,2049.11c-1.81,1.3-21.46,12.6-29.91,8.85,7.3,16.07,6.93,26.49,2.9,47.05,5.63,11.18,30.28,49.63,42.96,44.28,12.12-5.11,11.44-50.76,10.23-59.1-13.95-3.31-23.64-26.42-26.17-41.07Z"/>
        <path class="cls-16" d="M752.94,2079.31c-6.35-8.85-10.66-21.14-12.23-30.2-1.81,1.3-21.46,12.6-29.91,8.85,1.69,3.72,2.96,7.13,3.88,10.44,5.99,5.48,12.79,9.74,20.31,11.86,7.12,2.01,13.13,1.43,17.95-.95Z"/>
        <path class="cls-14" d="M714.73,2093.94s7.88,9.64,13.68,11.57c41.86,13.92,33.93-17.17,33.93-17.17l30.84,15.98,12.12,82.97.61,95.27s-43.93,16.84-92.39-4.97c-.11-64.13,1.22-183.64,1.22-183.64Z"/>
        <path class="cls-4" d="M762.34,2088.34c30.16,24.54,46.51,55.3,43.23,146.82l9.16-94.05c-10.42-55.87-52.39-52.78-52.39-52.78Z"/>
        <g>
          <path class="cls-14" d="M971.27,2026.22l1.51,7.79-147.73,42.58-11.72,2.27s-4.2-8.97-1.83-9.43c2.37-.46,159.76-43.21,159.76-43.21Z"/>
          <path class="cls-20" d="M978.49,2031.73l.89,4.56s-156.41,51.85-154.66,51.27c1.76-.58-.82-12.72.23-11.53,1.05,1.19,153.54-44.31,153.54-44.31Z"/>
          <polygon class="cls-14" points="983.77 2034.3 991.08 2056.89 822.9 2095.54 821.34 2087.5 983.77 2034.3"/>
          <polygon class="cls-20" points="995.25 2054.94 997.54 2066.76 823.85 2100.45 819.61 2095.14 995.25 2054.94"/>
          <path class="cls-20" d="M793.52,2058.94l2.83,14.57,15.38-2.98,159.76-43.21.56-11.96s-98,38.48-178.53,43.58Z"/>
          <path class="cls-14" d="M808.13,1983.45c-2.02.45,92.94,6.47,94.7,5.02,1.76-1.44,103.69-38.23,120.16-66q-62.91,11.34-96.97,9.7c-24.37,17.7-41.46,34.29-117.89,51.27Z"/>
          <g>
            <path class="cls-24" d="M1013.23,2117.36l-220.82,42.83c-5.41,1.05-8.94,6.28-7.89,11.69l6.36,32.78c1.05,5.41,6.28,8.94,11.69,7.89l220.82-42.83c5.14-1,8.49-5.97,7.5-11.1l-6.55-33.75c-1-5.14-5.97-8.49-11.1-7.5Z"/>
            <rect class="cls-8" x="849.36" y="2149.92" width="147.6" height="24.14" transform="translate(2241.14 4108.61) rotate(169.02)"/>
            <circle class="cls-8" cx="819.98" cy="2182" r="15.12" transform="translate(-1447.3 1640.76) rotate(-55.98)"/>
          </g>
          <g>
            <path class="cls-17" d="M1033.58,2167.55l-218.47,42.38c-5.3,1.03-8.77,6.16-7.74,11.47l6.24,32.16c1.03,5.3,6.16,8.77,11.47,7.74l218.47-42.38c4.05-.79,6.7-4.71,5.92-8.76l-7.12-36.69c-.79-4.05-4.71-6.7-8.76-5.92Z"/>
            <rect class="cls-8" x="871" y="2199.85" width="144.84" height="23.69" transform="translate(2290.75 4203.25) rotate(169.02)"/>
            <circle class="cls-25" cx="842.16" cy="2231.33" r="14.83" transform="translate(-1319.57 1223.86) rotate(-44.33)"/>
          </g>
          <g>
            <path class="cls-17" d="M1011.07,2062.8l-222.22,43.11c-5.44,1.06-9,6.32-7.94,11.77l6.4,33.01c1.06,5.44,6.32,9,11.77,7.94l222.22-43.11c5.25-1.02,8.68-6.1,7.66-11.35l-6.54-33.71c-1.02-5.25-6.1-8.68-11.35-7.66Z"/>
            <rect class="cls-8" x="846.2" y="2095.57" width="148.63" height="24.31" transform="translate(2225.56 4001.58) rotate(169.02)"/>
            <path class="cls-8" d="M802.22,2133.63c-1.6-8.25,3.79-16.24,12.04-17.84,8.25-1.6,16.24,3.79,17.84,12.05,1.6,8.25-3.79,16.24-12.05,17.84-8.25,1.6-16.24-3.79-17.84-12.05Z"/>
          </g>
          <path class="cls-14" d="M676.35,1797.89c19.1,18.94,82.5,46.66,110.6,38.45,9.71-22.6,51.45-50.75,51.45-50.75,0,0-71.74,6.44-96.45-23.07-11.31,13.38-24.45,27.73-65.6,35.37Z"/>
          <path class="cls-14" d="M338.59,1896.53c-4.13,11.31-14.77,23.41-38.8,47.02,51.81,2.65,126.27-22.37,161.82-46.75-29-.88-46.28-17.44-46.28-17.44,0,0-51.02,23.27-76.74,17.16Z"/>
          <path class="cls-14" d="M562.96,1687.4s.85,28.01,45.58,47.23c-37.24,14.54-63.49,30.32-90.48,64.55-14.98,1.48-43.49-17.83-38.57-52.16,28.7-17.4,83.48-59.63,83.48-59.63Z"/>
        </g>
        <path class="cls-6" d="M745.14,2165.33c-1.07-12.53.27-6.13-.78-18.73-.92-11.07-26.47-56.33-32.96-54.77-28.95,6.96-51.32,35.66-46.37,63.43,23.88,133.88-181.68,171.27-156.7,264.34.46,1.72,2.26,2.69,3.96,2.14,50.03-16.21,88.68,26.75,126.22,11.7,60.72-123.99,116.08-169.25,111.59-207.51-3-25.55-2.8-35.16-4.96-60.6Z"/>
        <path class="cls-4" d="M690.23,2135.14c-17.87,31.59,16.46,77.51,57.16,111.47.6-.82,1.95-7.05,1.95-7.05,0,0-2.64-55.77-4.21-74.23-1.07-12.53.27-6.13-.78-18.73-.39-4.74-5.31-15.77-11.32-26.69-4.92-5.09-9.35-9.62-13.07-13.44-6.02-6.17-15.2,2.99-29.74,28.68Z"/>
        <path class="cls-6" d="M685.86,2122.83c-33.95,60.01,121.49,172.95,148.28,153.96,35.69-25.3-79.6-142.69-118.54-182.64-6.02-6.17-15.2,2.99-29.74,28.68Z"/>
        <g>
          <path class="cls-18" d="M963.13,2244.46c-13.33,1.21-17.08-18.57-5.92-23.5,18.54-8.2,25.77-15.64,29.92-19.37,2.71-2.44,7.38-1.86,6.35,2.73-.83,3.68-5.79,6.89-7.5,10.49-2.29,4.82.24,7.9,5.12,8.79,11.46,2.08,25.95-.24,36.4-4.87,4.89-2.17,9.03,3.87,3.9,6.18-1.66.75-12.63,4.86-16.21,6.03-9.97,3.26-49.6,13.3-52.06,13.53Z"/>
          <path class="cls-18" d="M975.2,2230.79c-.84-5.95-6.09-10.2-11.95-10.01l-64.79,2.33.73,30.18,66.11-9.33c6.37-.9,10.8-6.79,9.91-13.16Z"/>
        </g>
        <path class="cls-6" d="M938.05,2205.49c25.65,27.65,5.39,56.96,5.39,56.96l-119.57,16.43s-12.32-70.67-10.75-68.7c1.57,1.97,74.14-2.12,124.93-4.68Z"/>
        <path class="cls-22" d="M442.92,2568.43c4.54-2.59,7.02-6.67,9.02-10.78,2.68-5.5,10.14-20.52,16.39-27.78.9-1.05,1.24-2.49.82-3.81-3.16-9.97,2.71-16.83,5.94-18.67,1.47-.84,1.28-2.82-.37-3.41-.46-.16-.94-.29-1.43-.38-.7-.12-10.75-3.31-18.37-5.75-4.52-1.44-9.26,1.46-10.02,6.14l-10.46,63.88s5.72,2.12,8.48.55Z"/>
        <path class="cls-4" d="M661.26,2329.91c-18.1.01-41.41-4.25-56.96-13.53,0,0-2.14,4.93-2.55,10.77,13.88,11.86,34.79,15.83,56.61,14.39,2.4-4.33,2.9-11.64,2.9-11.64Z"/>
        <path class="cls-18" d="M684.12,2025.18c-8.5-22.56,19.36-48.26,41.51-41.91,19.86,5.7,33.46,39.07,35.41,57.79,2.12,20.43-9.23,40.52-32,34.09-21.68-6.13-37.36-29.93-44.92-49.97Z"/>
        <path class="cls-16" d="M738.8,1991.59c-3.98-3.98-8.39-6.95-13.16-8.32-22.15-6.35-50.02,19.35-41.51,41.91,1.45,3.85,3.2,7.83,5.23,11.81,21.14-8.55,41.67-25.9,49.44-45.4Z"/>
        <path class="cls-22" d="M735.22,1980.59c-2.6,26.91-30.6,54.35-57.48,63.83-4.58-14.89-3.02-34.94,5.66-46.33,10.21-13.39,26.17-21.47,42.57-25.24,2.63-.6,5.75-.98,7.7.88,1.76,1.67,1.77,4.44,1.54,6.86Z"/>
        <path class="cls-18" d="M701.95,2038.01c3.66,4.99,3.27,11.5-.88,14.55-4.15,3.04-10.48,1.47-14.14-3.52-3.66-4.99-3.27-11.5.88-14.55,4.15-3.04,10.48-1.47,14.14,3.52Z"/>
      </g>
    </g>
  </g>
</svg>