<?xml version="1.0" encoding="UTF-8"?>
<svg id="Layer_1" xmlns="http://www.w3.org/2000/svg" version="1.1" viewBox="0 0 96 98">
  <!-- Generator: Adobe Illustrator 29.0.1, SVG Export Plug-In . SVG Version: 2.1.0 Build 192)  -->
  <defs>
    <style>
      .st0 {
        fill: #0054e2;
      }
    </style>
  </defs>
  <path class="st0" d="M19.8,58.4c-2.3,1.8-3.7,4.6-3.8,7.6v17.6l.9.6c4.8,3.2,17.3,4.8,30.1,4.9v-28.8l-17.2-7.4c-3.6,1.3-7,3.2-10,5.6ZM32.9,60c-3.4,1.5-6.7,3.2-9.9,5.1l-2-3.4c3.3-2,6.8-3.8,10.3-5.3l1.6,3.7Z"/>
  <path class="st0" d="M42,48.8c3.8,1.6,8.2,1.6,12,0h0c0,.5,0,1,.2,1.4l-5.2,2v5.7l15-6.4-4.2-3.6-1.9.7v-2.3c3.8-3,6-7.6,6-12.5v-4c1.8,1.5,4.4,1.5,6.2,0-2-3.6-2.4-4.7-2.9-9.2v-2.4c0-6.5-8-15.2-19-15.2h-.5c-11,0-19,8.8-19,15.2v2.4c-.3,6.1-2.9,9.2-2.9,9.2,1.8,1.5,4.4,1.5,6.2,0v3.9c0,4.8,2.2,9.4,6,12.5v2.3l-1.8-.7-4.2,3.6,15,6.4v-5.7l-5.2-2c.1-.4.2-.9.2-1.3h0ZM36,34v-6.5c1-.3,2-.5,3.1-.5h17.9c1,0,2.1.2,3.1.5v6.5c0,6.6-5.4,12-12,12s-12-5.4-12-12Z"/>
  <path class="st0" d="M80,66c0-2.9-1.4-5.7-3.7-7.5-3-2.4-6.4-4.3-10.1-5.6l-17.2,7.4v28.8c13.1,0,25.9-1.7,30.2-5l.8-.6v-17.5ZM72.8,65.1c-3.2-1.9-6.5-3.6-9.9-5.1l1.6-3.7c3.6,1.5,7,3.3,10.3,5.3l-2,3.4Z"/>
</svg>