<?xml version="1.0" encoding="UTF-8"?>
<svg id="iconos" xmlns="http://www.w3.org/2000/svg" viewBox="0 0 1425.18 1726.7">
  <defs>
    <style>
      .cls-1 {
        fill: #fff;
      }

      .cls-2 {
        fill: #cae8f8;
      }

      .cls-3 {
        fill: #8ed0f1;
      }
    </style>
  </defs>
  <path class="cls-1" d="M1136.99,1613.9c-3.52.12-7.04.27-10.58.27-164.74,0-298.77-134.02-298.77-298.77s134.03-298.77,298.77-298.77c3.55,0,7.07.15,10.58.27V34.92H34.92v1656.86h1102.07v-77.87ZM410.95,285.42h619.06c9.64,0,17.46,7.82,17.46,17.46s-7.82,17.46-17.46,17.46H410.95c-9.64,0-17.46-7.82-17.46-17.46s7.82-17.46,17.46-17.46ZM410.95,565.65h619.06c9.64,0,17.46,7.82,17.46,17.46s-7.82,17.46-17.46,17.46H410.95c-9.64,0-17.46-7.82-17.46-17.46s7.82-17.46,17.46-17.46ZM410.95,845.89h619.06c9.64,0,17.46,7.82,17.46,17.46s-7.82,17.46-17.46,17.46H410.95c-9.64,0-17.46-7.82-17.46-17.46s7.82-17.46,17.46-17.46ZM202.65,1519.21c-52.6,0-95.4-42.79-95.4-95.4s42.8-95.4,95.4-95.4,95.41,42.79,95.41,95.4-42.8,95.4-95.41,95.4ZM202.65,1238.98c-52.6,0-95.4-42.8-95.4-95.4s42.8-95.41,95.4-95.41,95.41,42.8,95.41,95.41-42.8,95.4-95.41,95.4ZM202.65,958.75c-52.6,0-95.4-42.8-95.4-95.41s42.8-95.4,95.4-95.4,95.41,42.8,95.41,95.4-42.8,95.41-95.41,95.41ZM202.65,678.52c-52.6,0-95.4-42.8-95.4-95.4s42.8-95.4,95.4-95.4,95.41,42.8,95.41,95.4-42.8,95.4-95.41,95.4ZM202.65,398.29c-52.6,0-95.4-42.79-95.4-95.4s42.8-95.4,95.4-95.4,95.41,42.8,95.41,95.4-42.8,95.4-95.41,95.4ZM795.63,1441.27h-384.68c-9.64,0-17.46-7.82-17.46-17.46s7.82-17.46,17.46-17.46h384.68c9.64,0,17.46,7.82,17.46,17.46s-7.82,17.46-17.46,17.46ZM795.63,1161.04h-384.68c-9.64,0-17.46-7.82-17.46-17.46s7.82-17.46,17.46-17.46h384.68c9.64,0,17.46,7.82,17.46,17.46s-7.82,17.46-17.46,17.46Z"/>
  <path class="cls-3" d="M1390.25,1315.4c0-145.72-118.12-263.84-263.84-263.84s-263.84,118.12-263.84,263.84,118.13,263.84,263.84,263.84,263.84-118.12,263.84-263.84ZM1064.51,1407.98c-3.13,2.35-6.81,3.5-10.46,3.5-4.89,0-9.73-2.05-13.18-6l-68.49-78.6c-6.33-7.28-5.58-18.3,1.7-24.64,7.27-6.33,18.29-5.58,24.63,1.69l57.83,66.37,211.17-158.37c7.71-5.79,18.66-4.21,24.44,3.49,5.79,7.72,4.22,18.66-3.49,24.45l-224.15,168.11Z"/>
  <path d="M1425.18,1315.4c0-149.27-110.04-273.33-253.26-295.3V34.92c0-19.29-15.63-34.92-34.92-34.92H34.92C15.64,0,0,15.64,0,34.92v1656.86c0,19.29,15.64,34.92,34.92,34.92h1102.07c19.29,0,34.92-15.64,34.92-34.92v-81.07c143.23-21.98,253.26-146.04,253.26-295.31ZM34.92,34.92h1102.07v981.98c-3.52-.12-7.04-.27-10.58-.27-164.74,0-298.77,134.03-298.77,298.77s134.03,298.77,298.77,298.77c3.55,0,7.07-.14,10.58-.27v77.87H34.92V34.92ZM1126.41,1579.25c-145.71,0-263.84-118.12-263.84-263.84s118.13-263.84,263.84-263.84,263.84,118.12,263.84,263.84-118.12,263.84-263.84,263.84Z"/>
  <path d="M1288.66,1239.87c7.71-5.79,9.28-16.73,3.49-24.45-5.78-7.7-16.73-9.27-24.44-3.49l-211.17,158.37-57.83-66.37c-6.34-7.27-17.37-8.02-24.63-1.69-7.27,6.34-8.03,17.36-1.7,24.64l68.49,78.6c3.44,3.95,8.28,6,13.18,6,3.65,0,7.34-1.15,10.46-3.5l224.15-168.11Z"/>
  <path class="cls-2" d="M202.65,242.4c-33.4,0-60.48,27.08-60.48,60.48s27.08,60.48,60.48,60.48,60.48-27.07,60.48-60.48-27.08-60.48-60.48-60.48Z"/>
  <path d="M202.65,207.48c-52.6,0-95.4,42.8-95.4,95.4s42.8,95.4,95.4,95.4,95.41-42.79,95.41-95.4-42.8-95.4-95.41-95.4ZM202.65,363.36c-33.4,0-60.48-27.07-60.48-60.48s27.08-60.48,60.48-60.48,60.48,27.08,60.48,60.48-27.08,60.48-60.48,60.48Z"/>
  <path class="cls-2" d="M202.65,522.64c-33.4,0-60.48,27.08-60.48,60.48s27.08,60.48,60.48,60.48,60.48-27.08,60.48-60.48-27.08-60.48-60.48-60.48Z"/>
  <path d="M202.65,487.71c-52.6,0-95.4,42.8-95.4,95.4s42.8,95.4,95.4,95.4,95.41-42.8,95.41-95.4-42.8-95.4-95.41-95.4ZM202.65,643.6c-33.4,0-60.48-27.08-60.48-60.48s27.08-60.48,60.48-60.48,60.48,27.08,60.48,60.48-27.08,60.48-60.48,60.48Z"/>
  <path class="cls-2" d="M202.65,802.87c-33.4,0-60.48,27.08-60.48,60.48s27.08,60.48,60.48,60.48,60.48-27.08,60.48-60.48-27.08-60.48-60.48-60.48Z"/>
  <path d="M202.65,767.95c-52.6,0-95.4,42.8-95.4,95.4s42.8,95.41,95.4,95.41,95.41-42.8,95.41-95.41-42.8-95.4-95.41-95.4ZM202.65,923.83c-33.4,0-60.48-27.08-60.48-60.48s27.08-60.48,60.48-60.48,60.48,27.08,60.48,60.48-27.08,60.48-60.48,60.48Z"/>
  <path class="cls-2" d="M202.65,1083.1c-33.4,0-60.48,27.08-60.48,60.48s27.08,60.48,60.48,60.48,60.48-27.08,60.48-60.48-27.08-60.48-60.48-60.48Z"/>
  <path d="M202.65,1048.18c-52.6,0-95.4,42.8-95.4,95.41s42.8,95.4,95.4,95.4,95.41-42.8,95.41-95.4-42.8-95.41-95.41-95.41ZM202.65,1204.06c-33.4,0-60.48-27.08-60.48-60.48s27.08-60.48,60.48-60.48,60.48,27.08,60.48,60.48-27.08,60.48-60.48,60.48Z"/>
  <path class="cls-2" d="M202.65,1363.34c-33.4,0-60.48,27.07-60.48,60.48s27.08,60.48,60.48,60.48,60.48-27.08,60.48-60.48-27.08-60.48-60.48-60.48Z"/>
  <path d="M202.65,1328.41c-52.6,0-95.4,42.79-95.4,95.4s42.8,95.4,95.4,95.4,95.41-42.79,95.41-95.4-42.8-95.4-95.41-95.4ZM202.65,1484.29c-33.4,0-60.48-27.08-60.48-60.48s27.08-60.48,60.48-60.48,60.48,27.07,60.48,60.48-27.08,60.48-60.48,60.48Z"/>
  <path d="M410.95,320.35h619.06c9.64,0,17.46-7.82,17.46-17.46s-7.82-17.46-17.46-17.46H410.95c-9.64,0-17.46,7.82-17.46,17.46s7.82,17.46,17.46,17.46Z"/>
  <path d="M410.95,600.58h619.06c9.64,0,17.46-7.82,17.46-17.46s-7.82-17.46-17.46-17.46H410.95c-9.64,0-17.46,7.82-17.46,17.46s7.82,17.46,17.46,17.46Z"/>
  <path d="M410.95,880.81h619.06c9.64,0,17.46-7.82,17.46-17.46s-7.82-17.46-17.46-17.46H410.95c-9.64,0-17.46,7.82-17.46,17.46s7.82,17.46,17.46,17.46Z"/>
  <path d="M795.63,1126.12h-384.68c-9.64,0-17.46,7.82-17.46,17.46s7.82,17.46,17.46,17.46h384.68c9.64,0,17.46-7.82,17.46-17.46s-7.82-17.46-17.46-17.46Z"/>
  <path d="M795.63,1406.35h-384.68c-9.64,0-17.46,7.82-17.46,17.46s7.82,17.46,17.46,17.46h384.68c9.64,0,17.46-7.82,17.46-17.46s-7.82-17.46-17.46-17.46Z"/>
</svg>