<?xml version="1.0" encoding="UTF-8"?>
<svg id="iconos" xmlns="http://www.w3.org/2000/svg" viewBox="0 0 1190.34 1753.75">
  <defs>
    <style>
      .cls-1 {
        fill: #fff;
      }

      .cls-2 {
        fill: #cae8f8;
      }

      .cls-3 {
        fill: #8ed0f1;
      }
    </style>
  </defs>
  <path class="cls-1" d="M1155.4,429.39h-368.23c-19.29,0-34.92-15.63-34.92-34.92V34.93H34.92v1683.91h1120.07l.41-1289.44ZM199.97,360.08h349.4c9.64,0,17.46,7.82,17.46,17.46s-7.82,17.46-17.46,17.46H199.97c-9.64,0-17.46-7.82-17.46-17.46s7.82-17.46,17.46-17.46ZM182.51,525.2c0-9.64,7.82-17.46,17.46-17.46h349.4c9.64,0,17.46,7.82,17.46,17.46s-7.82,17.46-17.46,17.46H199.97c-9.64,0-17.46-7.82-17.46-17.46ZM973.35,1572.14h-349.4c-9.64,0-17.46-7.82-17.46-17.46s7.82-17.46,17.46-17.46h349.4c9.64,0,17.46,7.82,17.46,17.46s-7.82,17.46-17.46,17.46ZM983.9,1449.8h-473.85c-9.64,0-17.46-7.82-17.46-17.46s7.82-17.46,17.46-17.46h473.85c9.64,0,17.46,7.82,17.46,17.46s-7.82,17.46-17.46,17.46ZM983.9,1302.14H206.44c-9.64,0-17.46-7.82-17.46-17.46s7.82-17.46,17.46-17.46h52.73c-.62-2.6-.98-5.3-.98-8.09v-586.28c0-19.29,15.64-34.93,34.93-34.93h117.25c19.29,0,34.92,15.64,34.92,34.93v586.28c0,2.79-.36,5.49-.98,8.09h49.37c-.62-2.6-.98-5.3-.98-8.09v-415.49c0-19.29,15.64-34.93,34.93-34.93h117.25c19.29,0,34.92,15.64,34.92,34.93v415.49c0,2.79-.36,5.49-.98,8.09h49.37c-.62-2.6-.98-5.3-.98-8.09v-359.41c0-19.29,15.64-34.92,34.93-34.92h117.25c19.29,0,34.92,15.63,34.92,34.92v359.41c0,2.79-.36,5.49-.98,8.09h70.57c9.64,0,17.46,7.82,17.46,17.46s-7.82,17.46-17.46,17.46Z"/>
  <path d="M1190.27,393.08c-.02-.4-.03-.8-.06-1.2-.12-1.51-.3-3-.6-4.47-.02-.11-.05-.21-.08-.31-.3-1.39-.7-2.75-1.17-4.09-.12-.36-.25-.71-.38-1.07-.55-1.42-1.16-2.82-1.89-4.17,0,0-.01-.01-.01-.02-.73-1.34-1.58-2.62-2.49-3.86-.22-.3-.44-.6-.67-.89-.96-1.23-1.98-2.43-3.11-3.53L811.57,9.94c-.82-.8-1.68-1.56-2.56-2.27-.54-.43-1.11-.81-1.66-1.21-.36-.26-.71-.54-1.08-.78-.61-.4-1.24-.74-1.87-1.1-.35-.2-.69-.42-1.04-.61-.62-.33-1.27-.6-1.92-.89-.38-.17-.75-.36-1.14-.52-.63-.26-1.28-.46-1.93-.68-.41-.14-.82-.3-1.24-.43-.68-.2-1.37-.35-2.06-.51-.39-.09-.79-.21-1.19-.29-.86-.17-1.74-.28-2.61-.38-.24-.03-.47-.08-.71-.1-1.12-.11-2.26-.17-3.39-.17-.02,0-.04,0-.05,0H34.92C15.63,0,0,15.64,0,34.93v1683.91c0,19.29,15.63,34.92,34.92,34.92h1120.07c19.29,0,34.91-15.62,34.93-34.91l.42-1324.37c0-.47-.05-.93-.07-1.4ZM34.92,34.93h717.32v359.54c0,19.29,15.63,34.92,34.92,34.92h368.23l-.41,1289.44H34.92V34.93ZM787.17,34.93l368.25,359.54h-368.25V34.93Z"/>
  <polygon class="cls-2" points="787.17 34.93 787.17 394.47 1155.41 394.47 787.17 34.93"/>
  <rect class="cls-3" x="293.11" y="672.86" width="117.25" height="586.28"/>
  <rect class="cls-3" x="527.62" y="843.64" width="117.25" height="415.49"/>
  <rect class="cls-3" x="762.13" y="899.72" width="117.25" height="359.41"/>
  <path d="M983.9,1267.22h-70.57c.61-2.6.98-5.3.98-8.09v-359.41c0-19.29-15.63-34.92-34.92-34.92h-117.25c-19.29,0-34.93,15.63-34.93,34.92v359.41c0,2.79.36,5.49.98,8.09h-49.37c.62-2.6.98-5.3.98-8.09v-415.49c0-19.29-15.64-34.93-34.92-34.93h-117.25c-19.29,0-34.93,15.64-34.93,34.93v415.49c0,2.79.36,5.49.98,8.09h-49.37c.61-2.6.98-5.3.98-8.09v-586.28c0-19.29-15.64-34.93-34.92-34.93h-117.25c-19.29,0-34.93,15.64-34.93,34.93v586.28c0,2.79.36,5.49.98,8.09h-52.73c-9.64,0-17.46,7.82-17.46,17.46s7.82,17.46,17.46,17.46h777.46c9.64,0,17.46-7.82,17.46-17.46s-7.82-17.46-17.46-17.46ZM293.11,672.86h117.25v586.28h-117.25v-586.28ZM527.62,843.64h117.25v415.49h-117.25v-415.49ZM762.13,899.72h117.25v359.41h-117.25v-359.41Z"/>
  <path d="M983.9,1414.88h-473.85c-9.64,0-17.46,7.82-17.46,17.46s7.82,17.46,17.46,17.46h473.85c9.64,0,17.46-7.82,17.46-17.46s-7.82-17.46-17.46-17.46Z"/>
  <path d="M973.35,1537.21h-349.4c-9.64,0-17.46,7.82-17.46,17.46s7.82,17.46,17.46,17.46h349.4c9.64,0,17.46-7.82,17.46-17.46s-7.82-17.46-17.46-17.46Z"/>
  <path d="M549.38,542.66c9.64,0,17.46-7.82,17.46-17.46s-7.82-17.46-17.46-17.46H199.97c-9.64,0-17.46,7.82-17.46,17.46s7.82,17.46,17.46,17.46h349.4Z"/>
  <path d="M199.97,395h349.4c9.64,0,17.46-7.82,17.46-17.46s-7.82-17.46-17.46-17.46H199.97c-9.64,0-17.46,7.82-17.46,17.46s7.82,17.46,17.46,17.46Z"/>
</svg>