<?xml version="1.0" encoding="UTF-8"?>
<svg xmlns="http://www.w3.org/2000/svg" viewBox="0 0 2949 1959.66">
  <defs>
    <style>
      .cls-1 {
        fill: #f0b570;
      }

      .cls-1, .cls-2, .cls-3, .cls-4, .cls-5, .cls-6, .cls-7, .cls-8, .cls-9, .cls-10, .cls-11, .cls-12, .cls-13, .cls-14, .cls-15, .cls-16, .cls-17, .cls-18, .cls-19, .cls-20, .cls-21, .cls-22 {
        fill-rule: evenodd;
      }

      .cls-2 {
        fill: #ebe8e0;
      }

      .cls-23, .cls-24 {
        fill: #d8dee8;
      }

      .cls-25 {
        fill: #a2a3a3;
      }

      .cls-3, .cls-26 {
        fill: #fff;
      }

      .cls-4 {
        fill: #7d7d78;
      }

      .cls-5 {
        fill: #575c6d;
      }

      .cls-27, .cls-11 {
        fill: #7a8778;
      }

      .cls-28 {
        fill: #d1cfcf;
      }

      .cls-6 {
        fill: #bababa;
      }

      .cls-29 {
        isolation: isolate;
      }

      .cls-7 {
        fill: #88c727;
      }

      .cls-30 {
        fill: #b5eef9;
      }

      .cls-8 {
        fill: #73ae0c;
      }

      .cls-9 {
        fill: #d4dbde;
      }

      .cls-31 {
        fill: #97a6b7;
      }

      .cls-10 {
        fill: #7366ae;
      }

      .cls-24 {
        mix-blend-mode: multiply;
        opacity: .5;
      }

      .cls-12 {
        fill: #677bf4;
      }

      .cls-13 {
        fill: #e8e5de;
      }

      .cls-14 {
        fill: #c2c4c2;
      }

      .cls-15 {
        fill: #edb291;
      }

      .cls-16 {
        fill: #2c4f24;
      }

      .cls-17 {
        fill: #d1dee0;
      }

      .cls-18 {
        fill: #bdbdbd;
      }

      .cls-19 {
        fill: #7d664d;
      }

      .cls-32 {
        fill: #939598;
      }

      .cls-20 {
        fill: #dedbde;
      }

      .cls-21 {
        fill: #ccc;
      }

      .cls-22 {
        fill: #ccc9c2;
      }
    </style>
  </defs>
  <g class="cls-29">
    <g id="BACKGROUND">
      <rect class="cls-26" width="2949" height="1959.66"/>
      <path class="cls-30" d="M706.82,235.56s-466.79,152.57-213.05,418.58c253.74,266.01-240.81,547.93-243.15,750.81-3.51,304.3,611.05,707.16,1070.87,335.86,291.22-235.16,1113.03,479.24,1335.35-330.28,59.48-216.58-407.02-144.6-217.43-658.52C2647.38,188.28,1624.84,114.03,1624.84,114.03c0,0-923.47-98.93-918.02,121.52Z"/>
    </g>
    <g id="OBJECTS">
      <g>
        <g>
          <path class="cls-3" d="M2399.68,1614.49c115.88,0,209.82-89.47,209.82-199.84s-93.94-199.84-209.82-199.84-209.82,89.47-209.82,199.84,93.94,199.84,209.82,199.84h0Z"/>
          <path class="cls-13" d="M2399.68,1601.9c108.58,0,196.61-83.84,196.61-187.25s-88.02-187.25-196.61-187.25-196.61,83.84-196.61,187.25,88.02,187.25,196.61,187.25h0Z"/>
        </g>
        <g>
          <g>
            <path class="cls-3" d="M2317.32,1488.23c36.62,41.17,125.29,54.03,171.82-15.74,36.07-52.98,14.32-171.26-117.3-158.93-59.2,8.13-106.84,79.99-76,144.77-7.16,14.16-30.84,30.68-21.48,42.49,9.36,11.54,28.64-8.39,42.95-12.59h0Z"/>
            <path class="cls-20" d="M2394.97,1508.29c54.06,0,97.89-41.74,97.89-93.23s-43.83-93.23-97.89-93.23-97.89,41.74-97.89,93.23,43.83,93.23,97.89,93.23h0Z"/>
          </g>
          <g>
            <path class="cls-19" d="M2402,1491.77c48.36,0,87.56-37.34,87.56-83.4s-39.2-83.4-87.56-83.4-87.56,37.34-87.56,83.4,39.2,83.4,87.56,83.4h0Z"/>
            <path class="cls-1" d="M2468.16,1402.68c-16.26,41.67,21.4,51.75,21.4,5.69s-39.2-83.4-87.56-83.4c-35.55,0-32.74,14.76-7.76,18.78,12.32,1.98,38.67.69,38.67,12.89,0,46.06,51.51,4.37,35.25,46.04h0Z"/>
          </g>
        </g>
      </g>
      <g>
        <g>
          <path class="cls-5" d="M1990.41,1316.15l-14.24,335.3-1092.43-4.18,5.04-344.68c-5.04-102.82,1102.64-87.5,1101.62,13.56Z"/>
          <g>
            <g>
              <g>
                <polygon class="cls-2" points="1876.15 1550.01 1905.09 1550.01 1905.09 1571.36 1876.15 1571.36 1876.15 1550.01 1876.15 1550.01"/>
                <polygon class="cls-2" points="1875.23 1576.55 1904.17 1576.55 1904.17 1597.89 1875.23 1597.89 1875.23 1576.55 1875.23 1576.55"/>
                <polygon class="cls-2" points="1912.01 1576.55 1940.94 1576.55 1940.94 1597.89 1912.01 1597.89 1912.01 1576.55 1912.01 1576.55"/>
                <polygon class="cls-2" points="1838.64 1576.55 1867.58 1576.55 1867.58 1597.89 1838.64 1597.89 1838.64 1576.55 1838.64 1576.55"/>
              </g>
              <g>
                <polygon class="cls-2" points="931.35 1548.87 995.71 1548.87 995.71 1599.34 931.35 1599.34 931.35 1548.87 931.35 1548.87"/>
                <polygon class="cls-2" points="1003.08 1548.87 1067.45 1548.87 1067.45 1599.34 1003.08 1599.34 1003.08 1548.87 1003.08 1548.87"/>
                <polygon class="cls-2" points="1074.82 1548.87 1139.18 1548.87 1139.18 1599.34 1074.82 1599.34 1074.82 1548.87 1074.82 1548.87"/>
                <polygon class="cls-2" points="1146.55 1548.87 1210.92 1548.87 1210.92 1599.34 1146.55 1599.34 1146.55 1548.87 1146.55 1548.87"/>
                <polygon class="cls-2" points="1617.25 1548.87 1681.62 1548.87 1681.62 1599.34 1617.25 1599.34 1617.25 1548.87 1617.25 1548.87"/>
                <polygon class="cls-2" points="1688.98 1548.87 1753.35 1548.87 1753.35 1599.34 1688.98 1599.34 1688.98 1548.87 1688.98 1548.87"/>
                <polygon class="cls-2" points="1760.72 1548.87 1825.08 1548.87 1825.08 1599.34 1760.72 1599.34 1760.72 1548.87 1760.72 1548.87"/>
                <polygon class="cls-2" points="1218.29 1548.87 1609.9 1548.87 1609.9 1599.34 1218.29 1599.34 1218.29 1548.87 1218.29 1548.87"/>
              </g>
            </g>
            <g>
              <polygon class="cls-2" points="931.35 1501.01 1015.94 1501.01 1015.94 1541.1 931.35 1541.1 931.35 1501.01 931.35 1501.01"/>
              <polygon class="cls-2" points="1034.35 1498.42 1102.38 1498.42 1102.38 1538.51 1034.35 1538.51 1034.35 1498.42 1034.35 1498.42"/>
              <polygon class="cls-2" points="1109.75 1499.8 1177.77 1499.8 1177.77 1539.89 1109.75 1539.89 1109.75 1499.8 1109.75 1499.8"/>
              <polygon class="cls-2" points="1185.14 1499.8 1253.17 1499.8 1253.17 1539.89 1185.14 1539.89 1185.14 1499.8 1185.14 1499.8"/>
              <polygon class="cls-2" points="1260.54 1499.8 1328.57 1499.8 1328.57 1539.89 1260.54 1539.89 1260.54 1499.8 1260.54 1499.8"/>
              <polygon class="cls-2" points="1335.94 1499.8 1403.97 1499.8 1403.97 1539.89 1335.94 1539.89 1335.94 1499.8 1335.94 1499.8"/>
              <polygon class="cls-2" points="1411.34 1499.8 1479.36 1499.8 1479.36 1539.89 1411.34 1539.89 1411.34 1499.8 1411.34 1499.8"/>
              <polygon class="cls-2" points="1486.74 1499.8 1554.76 1499.8 1554.76 1539.89 1486.74 1539.89 1486.74 1499.8 1486.74 1499.8"/>
              <polygon class="cls-2" points="1565.82 1499.8 1633.85 1499.8 1633.85 1539.89 1565.82 1539.89 1565.82 1499.8 1565.82 1499.8"/>
              <polygon class="cls-2" points="1641.22 1499.8 1709.24 1499.8 1709.24 1539.89 1641.22 1539.89 1641.22 1499.8 1641.22 1499.8"/>
              <polygon class="cls-2" points="1716.61 1499.8 1784.64 1499.8 1784.64 1539.89 1716.61 1539.89 1716.61 1499.8 1716.61 1499.8"/>
              <polygon class="cls-2" points="1799.4 1499.8 1941.1 1499.8 1941.1 1539.89 1799.4 1539.89 1799.4 1499.8 1799.4 1499.8"/>
            </g>
            <g>
              <polygon class="cls-2" points="931.35 1453.14 1034.34 1453.14 1034.34 1493.23 931.35 1493.23 931.35 1453.14 931.35 1453.14"/>
              <polygon class="cls-2" points="1045.4 1453.14 1113.43 1453.14 1113.43 1493.23 1045.4 1493.23 1045.4 1453.14 1045.4 1453.14"/>
              <polygon class="cls-2" points="1128.17 1453.14 1196.2 1453.14 1196.2 1493.23 1128.17 1493.23 1128.17 1453.14 1128.17 1453.14"/>
              <polygon class="cls-2" points="1210.94 1453.14 1278.96 1453.14 1278.96 1493.23 1210.94 1493.23 1210.94 1453.14 1210.94 1453.14"/>
              <polygon class="cls-2" points="1290.02 1453.14 1358.05 1453.14 1358.05 1493.23 1290.02 1493.23 1290.02 1453.14 1290.02 1453.14"/>
              <polygon class="cls-2" points="1372.79 1453.14 1440.82 1453.14 1440.82 1493.23 1372.79 1493.23 1372.79 1453.14 1372.79 1453.14"/>
              <polygon class="cls-2" points="1448.19 1453.14 1516.21 1453.14 1516.21 1493.23 1448.19 1493.23 1448.19 1453.14 1448.19 1453.14"/>
              <polygon class="cls-2" points="1523.58 1453.14 1591.61 1453.14 1591.61 1493.23 1523.58 1493.23 1523.58 1453.14 1523.58 1453.14"/>
              <polygon class="cls-2" points="1598.98 1453.14 1667.01 1453.14 1667.01 1493.23 1598.98 1493.23 1598.98 1453.14 1598.98 1453.14"/>
              <polygon class="cls-2" points="1674.38 1453.14 1742.41 1453.14 1742.41 1493.23 1674.38 1493.23 1674.38 1453.14 1674.38 1453.14"/>
              <polygon class="cls-2" points="1749.78 1453.14 1817.8 1453.14 1817.8 1493.23 1749.78 1493.23 1749.78 1453.14 1749.78 1453.14"/>
              <polygon class="cls-2" points="1825.17 1453.14 1893.2 1453.14 1893.2 1493.23 1825.17 1493.23 1825.17 1453.14 1825.17 1453.14"/>
            </g>
            <g>
              <polygon class="cls-2" points="931.35 1405.27 1015.94 1405.27 1015.94 1445.36 931.35 1445.36 931.35 1405.27 931.35 1405.27"/>
              <polygon class="cls-2" points="1038.03 1405.27 1106.06 1405.27 1106.06 1445.36 1038.03 1445.36 1038.03 1405.27 1038.03 1405.27"/>
              <polygon class="cls-2" points="1117.12 1405.27 1185.14 1405.27 1185.14 1445.36 1117.12 1445.36 1117.12 1405.27 1117.12 1405.27"/>
              <polygon class="cls-2" points="1196.2 1405.27 1264.23 1405.27 1264.23 1445.36 1196.2 1445.36 1196.2 1405.27 1196.2 1405.27"/>
              <polygon class="cls-2" points="1275.28 1405.27 1343.31 1405.27 1343.31 1445.36 1275.28 1445.36 1275.28 1405.27 1275.28 1405.27"/>
              <polygon class="cls-2" points="1350.68 1405.27 1418.71 1405.27 1418.71 1445.36 1350.68 1445.36 1350.68 1405.27 1350.68 1405.27"/>
              <polygon class="cls-2" points="1426.08 1405.27 1494.1 1405.27 1494.1 1445.36 1426.08 1445.36 1426.08 1405.27 1426.08 1405.27"/>
              <polygon class="cls-2" points="1501.47 1405.27 1569.5 1405.27 1569.5 1445.36 1501.47 1445.36 1501.47 1405.27 1501.47 1405.27"/>
              <polygon class="cls-2" points="1576.87 1405.27 1644.9 1405.27 1644.9 1445.36 1576.87 1445.36 1576.87 1405.27 1576.87 1405.27"/>
              <polygon class="cls-2" points="1652.27 1405.27 1720.3 1405.27 1720.3 1445.36 1652.27 1445.36 1652.27 1405.27 1652.27 1405.27"/>
              <polygon class="cls-2" points="1727.67 1405.27 1795.69 1405.27 1795.69 1445.36 1727.67 1445.36 1727.67 1405.27 1727.67 1405.27"/>
              <polygon class="cls-2" points="1803.07 1405.27 1871.09 1405.27 1871.09 1445.36 1803.07 1445.36 1803.07 1405.27 1803.07 1405.27"/>
              <polygon class="cls-2" points="1878.46 1405.27 1946.49 1405.27 1946.49 1445.36 1945.16 1494.74 1902.39 1494.53 1902.39 1445.36 1878.46 1445.36 1878.46 1405.27 1878.46 1405.27"/>
            </g>
            <g>
              <polygon class="cls-2" points="931.35 1357.4 995.71 1357.4 995.71 1397.49 931.35 1397.49 931.35 1357.4 931.35 1357.4"/>
              <polygon class="cls-2" points="1006.77 1357.4 1071.13 1357.4 1071.13 1397.49 1006.77 1397.49 1006.77 1357.4 1006.77 1357.4"/>
              <polygon class="cls-2" points="1082.19 1357.4 1146.55 1357.4 1146.55 1397.49 1082.19 1397.49 1082.19 1357.4 1082.19 1357.4"/>
              <polygon class="cls-2" points="1157.61 1357.4 1221.97 1357.4 1221.97 1397.49 1157.61 1397.49 1157.61 1357.4 1157.61 1357.4"/>
              <polygon class="cls-2" points="1229.34 1357.4 1293.71 1357.4 1293.71 1397.49 1229.34 1397.49 1229.34 1357.4 1229.34 1357.4"/>
              <polygon class="cls-2" points="1312.13 1357.4 1376.5 1357.4 1376.5 1397.49 1312.13 1397.49 1312.13 1357.4 1312.13 1357.4"/>
              <polygon class="cls-2" points="1387.55 1357.4 1451.92 1357.4 1451.92 1397.49 1387.55 1397.49 1387.55 1357.4 1387.55 1357.4"/>
              <polygon class="cls-2" points="1462.97 1357.4 1527.34 1357.4 1527.34 1397.49 1462.97 1397.49 1462.97 1357.4 1462.97 1357.4"/>
              <polygon class="cls-2" points="1542.07 1357.4 1606.44 1357.4 1606.44 1397.49 1542.07 1397.49 1542.07 1357.4 1542.07 1357.4"/>
              <polygon class="cls-2" points="1617.49 1357.4 1681.86 1357.4 1681.86 1397.49 1617.49 1397.49 1617.49 1357.4 1617.49 1357.4"/>
              <polygon class="cls-2" points="1696.6 1357.4 1760.97 1357.4 1760.97 1397.49 1696.6 1397.49 1696.6 1357.4 1696.6 1357.4"/>
              <polygon class="cls-2" points="1775.7 1357.4 1840.07 1357.4 1840.07 1397.49 1775.7 1397.49 1775.7 1357.4 1775.7 1357.4"/>
              <polygon class="cls-2" points="1847.44 1357.4 1946.53 1357.4 1946.53 1397.49 1847.44 1397.49 1847.44 1357.4 1847.44 1357.4"/>
            </g>
            <g>
              <polygon class="cls-22" points="931.35 1319.86 995.71 1319.86 995.71 1347.03 931.35 1347.03 931.35 1319.86 931.35 1319.86"/>
              <polygon class="cls-22" points="1006.77 1319.86 1071.13 1319.86 1071.13 1347.03 1006.77 1347.03 1006.77 1319.86 1006.77 1319.86"/>
              <polygon class="cls-22" points="1078.5 1319.86 1142.87 1319.86 1142.87 1347.03 1078.5 1347.03 1078.5 1319.86 1078.5 1319.86"/>
              <polygon class="cls-22" points="1153.92 1319.86 1218.29 1319.86 1218.29 1347.03 1153.92 1347.03 1153.92 1319.86 1153.92 1319.86"/>
              <polygon class="cls-22" points="1229.34 1319.86 1293.71 1319.86 1293.71 1347.03 1229.34 1347.03 1229.34 1319.86 1229.34 1319.86"/>
              <polygon class="cls-22" points="1304.76 1319.86 1369.13 1319.86 1369.13 1347.03 1304.76 1347.03 1304.76 1319.86 1304.76 1319.86"/>
              <polygon class="cls-22" points="1376.49 1319.86 1440.86 1319.86 1440.86 1347.03 1376.49 1347.03 1376.49 1319.86 1376.49 1319.86"/>
              <polygon class="cls-22" points="1448.23 1319.86 1512.6 1319.86 1512.6 1347.03 1448.23 1347.03 1448.23 1319.86 1448.23 1319.86"/>
              <polygon class="cls-22" points="1519.96 1319.86 1584.33 1319.86 1584.33 1347.03 1519.96 1347.03 1519.96 1319.86 1519.96 1319.86"/>
              <polygon class="cls-22" points="1595.38 1319.86 1659.75 1319.86 1659.75 1347.03 1595.38 1347.03 1595.38 1319.86 1595.38 1319.86"/>
              <polygon class="cls-22" points="1667.12 1319.86 1731.49 1319.86 1731.49 1347.03 1667.12 1347.03 1667.12 1319.86 1667.12 1319.86"/>
              <polygon class="cls-22" points="1738.85 1319.86 1803.22 1319.86 1803.22 1347.03 1738.85 1347.03 1738.85 1319.86 1738.85 1319.86"/>
              <polygon class="cls-22" points="1814.27 1319.86 1878.64 1319.86 1878.64 1347.03 1814.27 1347.03 1814.27 1319.86 1814.27 1319.86"/>
              <polygon class="cls-22" points="1886.01 1319.86 1950.38 1319.86 1950.38 1347.03 1886.01 1347.03 1886.01 1319.86 1886.01 1319.86"/>
            </g>
          </g>
        </g>
        <g>
          <path class="cls-15" d="M1736.86,1937.06c-52.12-77.44-103.06-147.51-149.4-192.95-20.68-15.77-56.88-35.17-62.05-47.3-16.86-61.45-76.89-82.27-64.75-93.39,38.67-35.17,71.95,46.09,100.5,41.24,39.8-9.5-71.5-159.69-60.03-168.58,26.76-11.32,78.47,93.79,86.33,82.47,3.15-10.51-3.82-31.94-10.79-46.09-14.39-24.26-43.62-61.85-42.49-73.98,6.74-20.82,54.63,39.01,70.82,60.64,11.47,18.19,17.54,78.83,27.66,69.13,22.26-31.74-8.09-127.75,7.42-129.17,19.79,1.41,31.48,102.28,28.33,141.29,7.19-6.67,23.16-15.77,24.28-36.38.45-16.17-7.87-45.68,1.35-48.51,8.09-2.63,16.19,41.44,20.23,63.07,1.57,15.16-8.32,30.93-13.49,43.66,10.34,36.39,15.96,87.93,18.89,116.43,18.21,8.09,22.26,24.66,28.33,41.24,63.43,65.33,111.7,122.96,153.05,177l-164.18.18h0Z"/>
          <path class="cls-15" d="M1079.96,1937.22c69.99-107.22,139.51-209.95,191.14-261.47,20.64-15.81,56.79-35.29,61.93-47.43,16.71-61.48,76.68-82.43,64.52-93.52-38.76-35.09-71.83,46.24-100.4,41.44-39.82-9.42,71.09-159.84,59.6-168.71-26.78-11.27-78.23,93.95-86.13,82.65-3.17-10.5,3.74-31.95,10.67-46.11,14.33-24.29,43.46-61.94,42.31-74.07-6.8-20.81-54.54,39.12-70.67,60.79-11.42,18.22-17.34,78.87-27.48,69.19-22.34-31.69,7.77-127.77-7.75-129.15-19.78,1.46-31.22,102.35-27.97,141.35-7.21-6.66-23.2-15.72-24.37-36.33-.49-16.17,7.75-45.7-1.47-48.51-8.1-2.61-16.08,41.47-20.07,63.11-1.54,15.16,8.4,30.91,13.6,43.63-10.25,36.41-15.74,87.96-18.59,116.47-18.19,8.12-22.2,24.71-28.22,41.29-78.74,81.47-144.53,164.68-203.72,245.17l173.07.2h0Z"/>
        </g>
      </g>
      <g>
        <g>
          <polygon class="cls-25" points="1259.19 1045.52 1196.73 1171.7 1648.5 1171.7 1599.19 1045.52 1259.19 1045.52"/>
          <g>
            <path class="cls-31" d="M2283.81,1045.45c39.84,1.08,72.43-10.72,72.43-26.31l88.91-562.12c0-15.6-32.59-27.64-72.43-26.85l-1842.46.87c-29.25.58-52.93,11.84-52.93,25.1l140.08,563.88c0,13.26,23.68,24.7,52.93,25.5l1613.47-.07Z"/>
            <path class="cls-28" d="M2268.25,1041.58c39.4,1.07,71.63-10.56,71.63-25.93l88.91-553.99c0-15.37-32.23-27.24-71.63-26.46l-1821.93.35c-28.92.57-52.34,11.67-52.34,24.74l140.08,556.97c0,13.07,23.42,24.34,52.34,25.13l1592.94-.79Z"/>
            <path class="cls-24" d="M535.22,446.62l1821.93,1.47c21.06-.39,38.19,5.94,38.19,14.15l-88.91,552.57c0,8.21-17.12,14.41-38.19,13.86l-1592.94,2.61c-15.5-.41-28.04-6.42-28.04-13.43l-140.08-558.01c0-7.01,12.54-12.93,28.04-13.22Z"/>
            <path class="cls-23" d="M2268.25,981.61c8.2.18,14.88-2.26,14.88-5.46l88.91-513.51c0-3.19-6.68-5.67-14.88-5.52l-1821.93-2.74c-6.05.11-10.96,2.42-10.96,5.16l140.08,526.09c0,2.74,4.92,5.08,10.96,5.21l1592.94-9.24Z"/>
          </g>
        </g>
        <g>
          <g>
            <polygon class="cls-3" points="663.63 981.15 2287.12 976.33 2372.03 471.5 527.26 468.45 663.63 981.15"/>
            <polygon class="cls-12" points="2293.27 941.45 2285.55 986.61 664.34 985.65 654.15 944.35 2293.27 941.45"/>
          </g>
          <g>
            <g>
              <polygon class="cls-11" points="841.6 586.71 1322.68 586.71 1327.57 779.31 847.53 780.88 841.6 586.71 841.6 586.71"/>
              <g>
                <polygon class="cls-11" points="870.89 808.43 948.98 807.22 948.98 840.71 871.36 841.93 870.89 812.8 870.89 808.43"/>
                <polygon class="cls-11" points="895.37 852.05 948.98 851.88 948.98 885.38 872.67 887.29 870.89 853.1 895.37 852.05"/>
                <polygon class="cls-11" points="887.59 898.18 948.98 896.55 948.98 930.04 872.86 931.26 872.34 898.55 887.59 898.18"/>
              </g>
              <g>
                <polygon class="cls-18" points="998.98 812.8 1327.35 812.8 1328.29 837.93 998.98 840.72 998.98 812.8 998.98 812.8"/>
                <polygon class="cls-18" points="1000.23 857.49 1328.6 857.49 1329.54 882.61 1000.23 885.41 1000.23 857.49 1000.23 857.49"/>
                <polygon class="cls-18" points="1000.23 902.18 1328.6 902.18 1329.54 927.3 1000.23 930.09 1000.23 902.18 1000.23 902.18"/>
              </g>
            </g>
            <g>
              <g>
                <polygon class="cls-6" points="1671.35 528.09 1973.97 519.72 1971.53 600.66 1673.79 606.25 1671.35 528.09 1671.35 528.09"/>
                <polygon class="cls-11" points="1686 564.38 1803.14 564.38 1803.14 595.08 1686 597.87 1686 564.38 1686 564.38"/>
              </g>
              <g>
                <polygon class="cls-17" points="1686 821.17 2056.94 815.59 2059.38 846.29 2037.42 849.08 2037.42 879.79 2008.13 882.58 2008.13 904.91 1686 904.91 1686 821.17 1686 821.17"/>
                <g>
                  <polygon class="cls-4" points="1686 818.38 2056.94 817.16 2057.93 837.56 1686 837.92 1686 818.38 1686 818.38"/>
                  <polygon class="cls-14" points="1686 847.51 1856.42 846.3 1856.22 867.23 1686 867.05 1686 851.88 1686 847.51"/>
                  <polygon class="cls-14" points="1686 878.22 1941.63 877.01 1941.34 897.94 1686 897.76 1686 882.59 1686 878.22"/>
                </g>
              </g>
              <g>
                <polygon class="cls-9" points="1679.54 625.78 1682.1 797.87 1999.59 791.86 2000.81 756.97 2069.15 756.97 2069.15 727.49 2030.1 726.27 2030.1 698.36 2076.47 695.57 2076 637.81 2052.06 636.95 2053.52 616.55 1700.64 625.78 1679.54 625.78"/>
                <g>
                  <polygon class="cls-14" points="1703.69 632.07 1703.69 650.21 2044.13 642.19 2040.47 624.05 1703.69 632.07 1703.69 632.07"/>
                  <polygon class="cls-14" points="1703.69 653.86 1703.69 676.36 2069.76 668.35 2069.71 650.21 1737.94 654.03 1703.69 653.86"/>
                  <polygon class="cls-14" points="1703.69 690.85 1703.69 704.64 2069.76 691.91 2069.71 673.75 1703.69 686.48 1703.69 690.85"/>
                  <polygon class="cls-14" points="1703.69 713 1703.69 731.16 2023.39 722.79 2023.84 704.64 1703.69 713 1703.69 713"/>
                  <polygon class="cls-14" points="1703.69 739.52 1703.69 757.67 2063.37 749.31 2063.56 735.52 1703.69 739.52 1703.69 739.52"/>
                  <polygon class="cls-14" points="1703.71 768.17 1703.54 781.96 1989.2 778.05 1990.19 759.85 1703.71 768.17 1703.71 768.17"/>
                </g>
              </g>
            </g>
            <polygon class="cls-18" points="631.72 516.93 841.6 511.7 841.6 567.53 639.04 571.17 631.72 516.93 631.72 516.93"/>
            <g>
              <polygon class="cls-21" points="1381.83 662.2 1603.77 665 1603.43 899.67 1384.48 905.14 1381.83 662.2 1381.83 662.2"/>
              <polygon class="cls-11" points="1382.2 592.3 1603.97 592.88 1604.17 650.2 1382.2 650.21 1382.2 592.3 1382.2 592.3"/>
              <g>
                <rect class="cls-27" x="1402.97" y="683.79" width="62.89" height="62.8"/>
                <g>
                  <rect class="cls-32" x="1402.44" y="814.68" width="188.46" height="7.78"/>
                  <rect class="cls-32" x="1402.44" y="826.35" width="188.46" height="7.78"/>
                  <rect class="cls-32" x="1402.24" y="838.62" width="188.46" height="7.78"/>
                  <rect class="cls-32" x="1402.24" y="850.29" width="188.46" height="7.78"/>
                </g>
                <g>
                  <rect class="cls-32" x="1402.44" y="765.32" width="188.46" height="7.78"/>
                  <rect class="cls-32" x="1402.44" y="776.99" width="188.46" height="7.78"/>
                  <rect class="cls-32" x="1402.24" y="789.25" width="188.46" height="7.78"/>
                  <rect class="cls-32" x="1402.24" y="800.92" width="188.46" height="7.78"/>
                </g>
              </g>
            </g>
          </g>
        </g>
      </g>
      <g>
        <g>
          <g>
            <path class="cls-7" d="M501.34,1300.2c-6.23-57.68-44.26-112.52-127.17-89.35-54.23,14.18-57.97,136.16-132.78,116.3,14.34,28.37,71.69,59.57,144,4.26,57.35-50.11,90.39-60.51,115.95-31.2h0Z"/>
            <path class="cls-8" d="M461.98,1259.72c-76.16-32.1-102.15,76.99-188.69,74.45,80.1,18.55,116.25-81.82,188.69-74.45h0Z"/>
          </g>
          <g>
            <path class="cls-7" d="M312.46,897.41c88.6-1.47,141.8,30.65,175.79,55.31-9.97,36.64,10.91,47.04,20.57,14.18,91.63,95.97,28.05,235.91,0,321.95-1.86-45.75,47.59-117.36-69.19-157.43-53.61-13.71-110.96-67.13-69.19-164.52,11.22-31.68-14.96-47.75-57.97-69.5h0Z"/>
            <path class="cls-8" d="M525.65,1214.39c23.06-130.25-91.32-275.39-144.93-295.01,14.34,19.62,134.34,117.25,144.93,295.01h0Z"/>
          </g>
          <g>
            <path class="cls-7" d="M522.37,1277.86c4.68-42.08,24.31-65.72,78.54-92.9,38.96-21.04,87.27-1.65,114.08-64.53,5.92,38.53-4.99,91.24-46.75,109.21-50.49,19.62-112.21,3.78-145.87,48.22h0Z"/>
            <path class="cls-8" d="M540.16,1250.91c-2.98-33.93,125.32-41.89,161.62-95.18-28.81,55.6-139.54,75.04-161.62,95.18h0Z"/>
          </g>
          <g>
            <path class="cls-7" d="M535.1,1300.61c13.14-20.37,29.04-29.3,63.16-34.9,24.9-4.78,44.11,12.06,73.67-15.46-6.93,20.16-25.92,44.93-51.44,47.76-30.31,2.36-57.13-14.68-85.39,2.6h0Z"/>
            <path class="cls-8" d="M550.92,1289.75c7.22-17.42,73.48-2.46,105.33-23.77-28.7,23.58-89.11,16.95-105.33,23.77h0Z"/>
          </g>
        </g>
        <g>
          <path class="cls-16" d="M501.34,1245.6c4.36-16.78-7.17-31.44-28.99-43.97-.62,15.36,10.91,30.73,28.99,43.97h0Z"/>
          <path class="cls-16" d="M518.17,1304.46c1.25-19.62,13.71-30.73,43.01-33.33-23.69,11.82-27.74,30.02-43.01,33.33h0Z"/>
          <path class="cls-16" d="M526.17,1313.3c5.66-9.64,14.75-13.36,30.09-10.33-14.89,2.42-21.59,10.93-30.09,10.33h0Z"/>
        </g>
        <polygon class="cls-10" points="597.71 1315.06 436.49 1315.8 452.71 1407.15 574.27 1407.99 596.71 1320.06 597.71 1315.06"/>
      </g>
    </g>
  </g>
</svg>